<?xml version="1.0" encoding="utf-8"?>
<!-- Generator: Adobe Illustrator 22.0.1, SVG Export Plug-In . SVG Version: 6.00 Build 0)  -->
<svg version="1.1" id="OBJECTS" xmlns="http://www.w3.org/2000/svg" xmlns:xlink="http://www.w3.org/1999/xlink" x="0px" y="0px"
	width="122.1" height="93.4"
	 viewBox="0 0 122.1 93.4" style="enable-background:new 0 0 122.1 93.4;" xml:space="preserve">
<style type="text/css">
	.st0{fill:#76995C;}
	.st1{fill:#B1E0B2;}
	.st2{clip-path:url(#SVGID_2_);}
	.st3{fill:#5C995C;}
	.st4{clip-path:url(#SVGID_4_);}
	.st5{fill:#5C9984;}
	.st6{fill:#407C67;}
	.st7{clip-path:url(#SVGID_6_);}
	.st8{clip-path:url(#SVGID_8_);}
	.st9{fill:#5A7C40;}
	.st10{clip-path:url(#SVGID_10_);}
	.st11{clip-path:url(#SVGID_12_);}
	.st12{fill:#B1E0D1;}
	.st13{fill:#407C40;}
	.st14{clip-path:url(#SVGID_14_);}
	.st15{fill:#C4E0B1;}
	.st16{clip-path:url(#SVGID_16_);}
	.st17{clip-path:url(#SVGID_18_);}
	.st18{clip-path:url(#SVGID_20_);}
	.st19{clip-path:url(#SVGID_22_);}
	.st20{clip-path:url(#SVGID_24_);}
	.st21{clip-path:url(#SVGID_26_);}
	.st22{clip-path:url(#SVGID_28_);}
	.st23{clip-path:url(#SVGID_30_);}
	.st24{fill:#EDD570;}
	.st25{fill:#FFFFFF;}
	.st26{fill:#DD855E;}
	.st27{fill:#F4EE82;}
	.st28{fill:#71875F;}
	.st29{fill:#3A7136;}
</style>
<g>
	<ellipse class="st0" cx="61" cy="49.1" rx="59.7" ry="37.8"/>
	<ellipse class="st1" cx="59.7" cy="47.8" rx="59.7" ry="37.8"/>
	<g>
		<g>
			<g>
				<defs>
					<ellipse id="SVGID_1_" cx="59.7" cy="47.9" rx="59.7" ry="37.8"/>
				</defs>
				<clipPath id="SVGID_2_">
					<use xlink:href="#SVGID_1_"  style="overflow:visible;"/>
				</clipPath>
				<g class="st2">
					<g>
						<path class="st3" d="M110.8,52.3c-0.3-0.6-0.2-1.3-0.1-2c0,0,0-0.1-0.1,0c-0.8,1.1-0.1,2.3,0.6,3.2c-0.5-0.3-1-0.7-1.5-1.2
							c-0.4-0.4-0.9-0.9-1.3-1.5c-0.1-0.4-0.1-0.8-0.1-1.3c0,0-0.1-0.1-0.1,0c-0.1,0.2-0.1,0.5-0.1,0.8c-0.3-0.4-0.5-0.8-0.8-1.2
							c0-0.1-0.2,0-0.1,0.1c0.1,0.2,0.2,0.4,0.3,0.6c-0.3-0.1-0.6-0.1-0.9,0v0.1c0.2,0,0.4,0,0.6,0.1c0.2,0,0.3,0.1,0.5,0.2
							c0.4,0.7,0.9,1.4,1.4,2.1c-0.8-0.4-1.7-0.6-2.6-0.5c-0.1,0-0.1,0.1,0,0.1c0.5,0.1,1,0.2,1.5,0.3c0.6,0.1,1,0.3,1.6,0.6
							c0.9,1,2,1.7,3.4,1.8c0.1,0,0.1-0.1,0-0.1c-0.4-0.2-0.8-0.4-1.2-0.7C111.3,53.3,111,52.8,110.8,52.3z"/>
					</g>
					<circle class="st3" cx="106.1" cy="52" r="0.9"/>
					<circle class="st3" cx="105.8" cy="49.8" r="0.9"/>
					<circle class="st3" cx="106.8" cy="48.3" r="0.9"/>
					<circle class="st3" cx="108.6" cy="49.3" r="0.9"/>
					<circle class="st3" cx="110.8" cy="50.5" r="0.9"/>
					<g>
						<path class="st1" d="M106.5,52.6c-0.1,0-0.3,0-0.5,0c0,0-0.1-0.1-0.2-0.1l-0.1-0.1c0,0-0.1,0-0.2,0.1c0,0.2,0.2,0.3,0.4,0.4
							C106,52.8,106.3,52.8,106.5,52.6C106.6,52.6,106.5,52.5,106.5,52.6L106.5,52.6z"/>
					</g>
					<g>
						<path class="st1" d="M105.6,52.1c0-0.1,0-0.2-0.1-0.2l0,0c-0.1,0.1,0,0.2,0,0.3C105.5,52.3,105.7,52.2,105.6,52.1L105.6,52.1z
							"/>
					</g>
					<g>
						<path class="st1" d="M106.1,50.4c-0.2,0-0.3,0-0.5-0.1c-0.1-0.1-0.2-0.3-0.3-0.4c-0.1-0.1-0.2,0-0.2,0.1
							c0,0.2,0.2,0.4,0.4,0.5C105.6,50.6,105.9,50.6,106.1,50.4C106.2,50.5,106.2,50.4,106.1,50.4L106.1,50.4z"/>
					</g>
					<g>
						<path class="st1" d="M105.2,49.8c0-0.1,0-0.1,0-0.2s0,0,0,0C105.1,49.6,105.1,49.7,105.2,49.8
							C105.1,49.8,105.2,49.8,105.2,49.8L105.2,49.8z"/>
					</g>
					<g>
						<path class="st1" d="M106.3,48.4c0-0.1,0.1-0.2,0.2-0.4c0,0,0.1-0.1,0.1-0.2c0,0,0,0-0.1,0C106.2,47.8,106.2,48.1,106.3,48.4
							C106.2,48.4,106.3,48.4,106.3,48.4L106.3,48.4z"/>
					</g>
					<g>
						<path class="st1" d="M106.6,47.8L106.6,47.8L106.6,47.8L106.6,47.8z"/>
					</g>
					<g>
						<path class="st1" d="M106.8,47.8c0.1,0,0.2,0,0.3,0l0,0C107,47.7,106.9,47.7,106.8,47.8C106.6,47.7,106.7,47.8,106.8,47.8
							L106.8,47.8z"/>
					</g>
					<g>
						<path class="st1" d="M108.2,48.6c0.1,0,0.3,0,0.4,0.1c0.1,0.1,0.2,0.2,0.3,0.2c0.1,0,0.1-0.1,0.1-0.1c0-0.2-0.2-0.3-0.4-0.3
							C108.6,48.4,108.4,48.4,108.2,48.6C108.2,48.5,108.2,48.6,108.2,48.6L108.2,48.6z"/>
					</g>
					<g>
						<path class="st1" d="M109.2,49.2C109.2,49.3,109.2,49.3,109.2,49.2c0,0.2,0.1,0.2,0.1,0.1L109.2,49.2
							C109.4,49.2,109.2,49.1,109.2,49.2L109.2,49.2z"/>
					</g>
					<g>
						<path class="st1" d="M110.3,50.1c0.1-0.1,0.2-0.1,0.4-0.1c0.2,0,0.3,0.1,0.4,0c0.1,0,0.1-0.1,0-0.2c-0.1-0.2-0.3-0.2-0.5-0.2
							S110.3,49.8,110.3,50.1C110.1,50.1,110.2,50.2,110.3,50.1L110.3,50.1z"/>
					</g>
					<g>
						<path class="st1" d="M111.5,50.3L111.5,50.3L111.5,50.3C111.6,50.4,111.6,50.3,111.5,50.3C111.6,50.2,111.4,50.2,111.5,50.3
							L111.5,50.3z"/>
					</g>
				</g>
			</g>
		</g>
		<g>
			<g>
				<defs>
					<ellipse id="SVGID_3_" cx="59.7" cy="47.9" rx="59.7" ry="37.8"/>
				</defs>
				<clipPath id="SVGID_4_">
					<use xlink:href="#SVGID_3_"  style="overflow:visible;"/>
				</clipPath>
				<g class="st4">
					<path class="st5" d="M102.1,55.3c-2.6,1.5,0.3,4.4,2.2,6C102,60,99.5,59,97,58.1V58c-0.3-0.4-0.1-0.8-0.1-1.3
						c0-0.6-0.2-1.3-0.5-1.9c-0.4-0.8-1.8-1.2-2.6-0.5C93.2,55,93.4,56,94,56.8c-0.7-0.8-1.5-1.6-2.5-2c-0.9-0.3-2.2,0.3-2.1,1.4
						c0,1,0.7,2,1.8,2c0.9,0,1.8-0.6,2.7-0.8c0.1,0,0.2,0,0.2,0.1l0,0c0.3,0.1,0.7,0.2,1,0.4s0.7,0.3,1,0.4c0.9,0.3,1.8,0.7,2.8,1.2
						c-1.7-0.1-3.7,0.3-3.4,2.2c0.2,1.3,1.3,2.1,2.6,1.9c0.6-0.1,1.2-0.5,1.4-1.1c0.1-0.4,0.2-0.8,0.2-1.2s0.2-0.8,0.4-1.1
						c2.4,1.2,4.8,2.5,7,4.1c0.1,0.1,0.3,0.2,0.4,0.3c-1.8-0.5-3.8-0.6-4.8,1c-0.8,1.5,0.3,3.3,1.8,3.7c0.9,0.2,1.8-0.1,2.4-0.7
						c0.4-0.3,0.6-0.9,0.9-1.3c0.4-0.7,0.8-0.9,1.4-1.2c1.3,1.1,2.4,2.4,3.5,3.8c0.8,1.1,1.4,2.2,1.9,3.4c-0.9-0.8-2.1-1.4-3-1.8
						c-1.8-0.7-3.7-0.5-5.2,0.7s-0.2,3.5,1.2,4.1c1.2,0.4,2.3,0.3,3.5,0c1.4-0.4,2.7-1.6,4.3-1l0,0c0.2,0.5,0.4,1,0.7,1.6
						c0,0.1,0.2,0,0.2-0.1c0-2-0.7-3.9-1.8-5.8c1-1.7,4-1.9,3.9-4.4c0-1.4-0.9-3-2.5-3.1c-1.6-0.1-2.7,0.6-3.2,2.1
						c-0.3,0.9-0.2,1.9,0.1,2.9c-1.5-1.8-3.3-3.4-4.9-4.7c-0.7-0.5-1.4-1-2.1-1.5v-0.1c-0.4-0.9,0.5-2.2,0.6-3.2
						c0.1-0.9,0.1-1.9-0.2-2.8C105.7,54.5,103.6,54.5,102.1,55.3z"/>
					<g>
						<path class="st6" d="M90.5,56.3c2.8,1.1,5.5,2.4,8.3,3.5c2.9,1.2,5.7,2.5,8.2,4.4c2.4,1.8,4.4,4,6.2,6.4
							c0.9,1.1,1.5,2.3,2.1,3.7c0.4,1,0.4,2.1,1,3.1c0.1,0.2,0.4,0.1,0.5-0.1c0.4-2.1-0.9-4.6-2-6.3c-1.6-2.5-3.9-4.9-6.2-6.8
							C103.4,59.6,96.9,58,90.5,56.3C90.5,56.1,90.5,56.2,90.5,56.3L90.5,56.3z"/>
					</g>
					<g>
						<path class="st6" d="M110.1,72.7c1.1,0.3,2.2,0.6,3.3,1.1c1,0.5,1.6,1.3,2.5,1.8c0.1,0,0.3,0,0.3-0.2
							c-0.4-2.2-4.4-2.6-6.1-2.9C110,72.5,109.9,72.7,110.1,72.7L110.1,72.7z"/>
					</g>
					<g>
						<path class="st6" d="M116.3,65.8c-1.6,1.3-2.9,4.1-1.4,6.1c0,0.1,0.2,0,0.2,0c0.2-0.7,0-1.4-0.1-2.2
							C114.8,68.3,115.4,66.9,116.3,65.8C116.5,65.9,116.4,65.8,116.3,65.8L116.3,65.8z"/>
					</g>
					<g>
						<path class="st6" d="M105,66c0.9-0.4,1.7-0.6,2.7-0.4c0.8,0.1,1.5,0.6,2.3,0.7c0.1,0,0.2-0.1,0.1-0.2
							C109.1,64.3,106.3,65.1,105,66C104.8,65.9,104.9,66,105,66L105,66z"/>
					</g>
					<g>
						<path class="st6" d="M103,57.8c0.4,2.1,0.8,4,3.1,4.7c0,0,0.1,0,0-0.1C104.6,61.4,103.6,59.5,103,57.8
							C103,57.7,102.9,57.8,103,57.8L103,57.8z"/>
					</g>
					<g>
						<path class="st6" d="M96.6,61.3c0.5-0.4,1.1-0.7,1.8-0.9c0.7-0.2,1.4-0.1,2.2-0.2c0.1,0,0.1-0.1,0-0.1c-1.4-1-3.1,0-4.1,1.1
							C96.4,61.2,96.5,61.3,96.6,61.3L96.6,61.3z"/>
					</g>
					<g>
						<path class="st6" d="M94,55.4c0.7,1.6,1.9,2.8,3.5,3.3c0.1,0,0.1-0.1,0.1-0.1C96.4,57.5,94.9,56.7,94,55.4
							C94.1,55.3,94,55.4,94,55.4L94,55.4z"/>
					</g>
				</g>
			</g>
		</g>
		<g>
			<g>
				<defs>
					<ellipse id="SVGID_5_" cx="59.7" cy="47.9" rx="59.7" ry="37.8"/>
				</defs>
				<clipPath id="SVGID_6_">
					<use xlink:href="#SVGID_5_"  style="overflow:visible;"/>
				</clipPath>
				<g class="st7">
					<g>
						<path class="st5" d="M84.3,72.8c2.8,3.3,5.4,6.7,7.1,10.7c0.7,1.6,1.1,3.4,1.4,5.1c0.3,1.6,0.1,3.1,0,4.7c0,0.1,0.1,0.1,0.2,0
							c1.2-2.8-0.1-6.7-1.1-9.4C90.5,79.7,87.3,76,84.3,72.8C84.4,72.7,84.3,72.7,84.3,72.8L84.3,72.8z"/>
					</g>
					<g>
						<path class="st5" d="M93.1,93.3c0.2-1.5,0.5-2.9,0.2-4.4c-0.2-1.4-0.8-2.9-1.4-4.2c-1.4-2.9-3.4-5.1-5.9-7.1c0,0-0.1,0,0,0
							c1,1.1,2.1,2,3,3.1c0.9,1.1,1.6,2.3,2.3,3.6c0.7,1.3,1.2,2.7,1.6,4.1c0.4,1.6,0.2,3.2,0.1,4.9C92.9,93.3,93.1,93.4,93.1,93.3
							L93.1,93.3z"/>
					</g>
					<g>
						<path class="st5" d="M93.3,88.1c-0.3-3.2-1.3-6.6-2.5-9.5c-1.2-3.1-3-5.8-5.6-8c0,0-0.1,0-0.1,0.1c0.9,1.1,2,2.1,2.9,3.2
							c1.1,1.4,1.8,3.1,2.5,4.8c0.6,1.5,1,3.1,1.4,4.7C92.3,84.9,92.9,86.5,93.3,88.1C93.1,88.3,93.3,88.3,93.3,88.1L93.3,88.1z"/>
					</g>
					<g>
						<path class="st5" d="M89.4,79.1c-0.6-2.3-2.2-4.8-3.9-6.4h-0.1c1.4,1.9,3,4.1,3.8,6.4C89.2,79.3,89.4,79.2,89.4,79.1
							L89.4,79.1z"/>
					</g>
					<g>
						<path class="st5" d="M91.8,81.9c0.1-3.4-0.8-6.3-2.3-9.4c0-0.1-0.1,0-0.1,0c0.4,1.4,1,2.7,1.4,4.1c0.5,1.6,0.7,3.5,0.7,5.3
							C91.6,82,91.8,82,91.8,81.9L91.8,81.9z"/>
					</g>
					<g>
						<path class="st5" d="M92.1,85.6c-1.1-1.8-2.9-3.4-4.3-5c0,0-0.1,0-0.1,0.1C88.7,82.6,90.6,83.9,92.1,85.6
							C92,85.7,92.1,85.7,92.1,85.6L92.1,85.6z"/>
					</g>
					<path class="st5" d="M85.7,70.2c0.2,0.3,0.1,0.7-0.1,0.9c-0.3,0.2-0.7,0.1-0.9-0.1c-0.2-0.3-0.1-0.7,0.1-0.9
						C85,69.8,85.5,69.9,85.7,70.2z"/>
					<path class="st5" d="M90.1,72.3c0.2,0.3,0.1,0.7-0.1,0.9c-0.3,0.2-0.7,0.1-0.9-0.1c-0.2-0.3-0.1-0.7,0.1-0.9
						C89.5,71.9,89.9,72,90.1,72.3z"/>
					<path class="st5" d="M86.2,72.3c0.2,0.3,0.1,0.7-0.1,0.9c-0.3,0.2-0.7,0.1-0.9-0.1c-0.2-0.3-0.1-0.7,0.1-0.9
						C85.7,71.9,86.1,72,86.2,72.3z"/>
					<path class="st5" d="M84.8,72.2c0.2,0.3,0.1,0.7-0.1,0.9c-0.3,0.2-0.7,0.1-0.9-0.1c-0.2-0.3-0.1-0.7,0.1-0.9
						C84.2,71.8,84.6,71.9,84.8,72.2z"/>
					<path class="st5" d="M86.7,77.2c0.2,0.3,0.1,0.7-0.1,0.9c-0.3,0.2-0.7,0.1-0.9-0.1c-0.2-0.3-0.1-0.7,0.1-0.9
						C86.1,76.8,86.5,76.9,86.7,77.2z"/>
					<path class="st5" d="M88.3,80.4c0.2,0.3,0.1,0.7-0.1,0.9c-0.3,0.2-0.7,0.1-0.9-0.1c-0.2-0.3-0.1-0.7,0.1-0.9
						C87.6,80,88,80.1,88.3,80.4z"/>
				</g>
			</g>
		</g>
		<g>
			<g>
				<defs>
					<ellipse id="SVGID_7_" cx="59.7" cy="47.9" rx="59.7" ry="37.8"/>
				</defs>
				<clipPath id="SVGID_8_">
					<use xlink:href="#SVGID_7_"  style="overflow:visible;"/>
				</clipPath>
				<g class="st8">
					<path class="st0" d="M112.2,45.4L112.2,45.4c1.1,2,0.7,4.3,0.1,6.4c-0.5,1.7-1.4,3.4-1,5.3c0.2,1.3,0.9,3.1,2.3,3.5
						c0.7,0.2,1.4,0.2,2.2,0c0,0,1.1-0.4,1.4-0.7c0.2,0.5,0.5,1,0.8,1.4c0.1,0.1,0.3,0,0.2-0.1c-0.2-0.5-0.4-1-0.6-1.5
						c1.7-0.8,3.3-1.7,4.1-3.5c0.6-1.4,0.5-3.1,0-4.5c-1.2-3.8-6-5.6-9.5-6.5C112.2,45.2,112.1,45.3,112.2,45.4z"/>
					<g>
						<path class="st9" d="M113.9,47.3c1.6,2.2,1.8,5.4,2.1,8c0.3,2.2,0.5,5.5,2.5,6.9c0.2,0.1,0.4,0,0.3-0.2
							c-0.6-1.3-1.2-2.4-1.6-3.8c-0.3-1.4-0.5-2.8-0.7-4.3c-0.4-2.5-1.1-4.5-2.4-6.6C114,47.1,113.8,47.2,113.9,47.3L113.9,47.3z"/>
					</g>
					<g>
						<path class="st9" d="M112.8,54.8c1,1.7,2.5,4.4,4.4,5.3c0.1,0,0.2,0,0.1-0.1c-0.5-0.8-1.4-1.4-2.1-2.1
							C114.4,56.9,113.6,55.8,112.8,54.8C112.9,54.6,112.8,54.7,112.8,54.8L112.8,54.8z"/>
					</g>
					<g>
						<path class="st9" d="M113.9,52.9c0.4,0.6,0.8,1.2,1.2,1.8c0.3,0.4,0.6,1,1.1,1.2c0,0,0.1,0,0.1-0.1c-0.2-0.5-0.6-0.8-1-1.3
							C114.9,54,114.4,53.4,113.9,52.9C114,52.7,113.8,52.8,113.9,52.9L113.9,52.9z"/>
					</g>
					<g>
						<path class="st9" d="M114,49.4c0.3,0.7,1,2,1.8,2.3l0,0c-0.2-0.3-0.5-0.6-0.7-0.9C114.7,50.3,114.4,49.9,114,49.4
							C114,49.3,113.9,49.4,114,49.4L114,49.4z"/>
					</g>
					<g>
						<path class="st9" d="M115.8,49.1c0,0.5-0.1,1-0.1,1.5c0,0.3-0.1,0.8,0.1,1h0.1c0.2-0.3,0.1-0.8,0.1-1.1
							C116,50,115.9,49.5,115.8,49.1L115.8,49.1L115.8,49.1z"/>
					</g>
					<g>
						<path class="st9" d="M117.7,49.7c0,1-0.1,2.1-0.3,3.1c-0.1,0.4-0.2,0.9-0.3,1.4c-0.2,0.6-0.6,1.1-0.7,1.7
							c0,0.1,0.1,0.1,0.1,0.1C118.3,54.8,117.9,51.6,117.7,49.7C117.8,49.6,117.7,49.6,117.7,49.7L117.7,49.7z"/>
					</g>
					<g>
						<path class="st9" d="M119.7,51.6c0,2.8-0.8,5.6-2.4,7.8c-0.1,0.1,0,0.3,0.2,0.3c1.1-0.3,1.4-2.1,1.7-3.1
							C119.7,55,120,53.2,119.7,51.6C119.8,51.5,119.7,51.5,119.7,51.6L119.7,51.6z"/>
					</g>
				</g>
			</g>
		</g>
		<g>
			<g>
				<defs>
					<ellipse id="SVGID_9_" cx="59.7" cy="47.9" rx="59.7" ry="37.8"/>
				</defs>
				<clipPath id="SVGID_10_">
					<use xlink:href="#SVGID_9_"  style="overflow:visible;"/>
				</clipPath>
				<g class="st10">
					<path class="st3" d="M89.6,62.4c-1.5-0.6-3.1-0.1-3.1,1.8c0,2.7,1.7,5.4,3,7.7c1.7,3.1,2.7,6.6,4.4,9.7
						c1.5,2.8,3.9,4.4,6.7,5.5c0.7,1.7,1.7,3.3,3.4,4.3c0.1,0,0.2,0,0.1-0.1c-0.8-1.4-1.8-2.6-2.6-3.9c2.1-0.4,3.4-2,3.8-4.1
						c0.6-2.8-0.9-5.9-2.1-8.4c-1.5-3.2-3.6-5.9-6.5-8.1C94.6,65.1,92.2,63.4,89.6,62.4z"/>
					<g>
						<path class="st1" d="M89.5,65.7c2.9,3.2,5.6,6.5,7.4,10.3c0.9,2,1.7,4.1,2.4,6.2c0.4,1.3,0.5,3.2,1.6,4.1
							c0.2,0.1,0.4,0,0.3-0.2c-0.8-1.6-1.1-3.4-1.6-5c-0.6-2-1.5-3.9-2.4-5.8C95.2,71.6,92.5,68.5,89.5,65.7
							C89.5,65.6,89.4,65.7,89.5,65.7L89.5,65.7z"/>
					</g>
					<g>
						<path class="st1" d="M94.9,80.6c1.8,1.6,3.4,4,5.6,5.1c0.1,0.1,0.3-0.1,0.2-0.3C98.9,83.6,96.9,82,94.9,80.6
							C94.9,80.5,94.9,80.5,94.9,80.6L94.9,80.6z"/>
					</g>
					<g>
						<path class="st1" d="M92.1,75.6c2.4,1.5,4.5,3.6,6.9,5.1c0.1,0.1,0.3-0.1,0.1-0.2c-1-1-2.4-1.9-3.6-2.8
							C94.4,76.9,93.3,76.1,92.1,75.6C92.1,75.5,92,75.6,92.1,75.6L92.1,75.6z"/>
					</g>
					<g>
						<path class="st1" d="M90.4,71c1.9,1.1,4,2.2,5.7,3.6c0.1,0.1,0.4-0.1,0.2-0.2c-0.6-0.7-1.6-1-2.4-1.5
							C92.8,72.3,91.7,71.6,90.4,71C90.4,70.9,90.4,71,90.4,71L90.4,71z"/>
					</g>
					<g>
						<path class="st1" d="M89.7,68.2c0.6,0.3,1.3,0.6,1.9,0.9c0.5,0.2,1,0.6,1.6,0.8l0,0C92.5,68.8,90.9,68.4,89.7,68.2
							C89.7,68.1,89.6,68.1,89.7,68.2L89.7,68.2z"/>
					</g>
					<g>
						<path class="st1" d="M91.8,65.2c0.1,1,0.2,1.9,0.5,2.9c0.2,0.8,0.4,1.6,1.1,2.1l0,0c-0.3-0.8-0.7-1.6-0.9-2.4
							C92.3,66.9,92.1,66,91.8,65.2C91.9,65.1,91.8,65.1,91.8,65.2L91.8,65.2z"/>
					</g>
					<g>
						<path class="st1" d="M96,67.3c0.1,1.6,0,3.2,0,4.9c0,0.8,0,2.1,0.6,2.7c0,0,0.1,0,0.1-0.1C95.8,72.5,96.3,69.8,96,67.3
							L96,67.3L96,67.3z"/>
					</g>
					<g>
						<path class="st1" d="M99.5,74.5c-0.1,1.2-0.3,2.4-0.5,3.6c-0.1,0.8-0.3,1.8,0.1,2.6h0.1c0.2-1,0-2.2,0.1-3.2
							C99.4,76.4,99.6,75.5,99.5,74.5C99.6,74.5,99.5,74.5,99.5,74.5L99.5,74.5z"/>
					</g>
					<g>
						<path class="st1" d="M102.9,78.5c-0.3,1.8-0.8,3.6-1.5,5.3c-0.3,0.7-0.9,1.8-0.4,2.6c0.1,0.1,0.3,0.1,0.3-0.1
							c0-1,0.3-1.9,0.6-2.9C102.4,81.8,102.7,80.1,102.9,78.5C102.9,78.4,102.9,78.4,102.9,78.5L102.9,78.5z"/>
					</g>
				</g>
			</g>
		</g>
		<g>
			<g>
				<defs>
					<ellipse id="SVGID_11_" cx="59.7" cy="47.9" rx="59.7" ry="37.8"/>
				</defs>
				<clipPath id="SVGID_12_">
					<use xlink:href="#SVGID_11_"  style="overflow:visible;"/>
				</clipPath>
				<g class="st11">
					<g>
						<g>
							<path class="st5" d="M37,81.4c0.6,0,1.1,0.3,1.6,0.7h0.1c-0.6-1-1.8-1-2.9-0.7c0.5-0.3,1-0.6,1.6-0.8
								c0.5-0.2,1.1-0.3,1.7-0.5c0.4,0,0.7,0.2,1.1,0.4c0,0,0.1,0,0-0.1c-0.1-0.2-0.4-0.3-0.6-0.4c0.4-0.1,0.9-0.1,1.3-0.2
								c0.1,0,0-0.1,0-0.1c-0.2,0-0.4,0-0.6,0c0.2-0.2,0.3-0.5,0.4-0.7c0,0,0-0.1-0.1,0s-0.2,0.3-0.3,0.4s-0.2,0.2-0.4,0.3
								c-0.7,0-1.5,0.2-2.2,0.3c0.6-0.5,1.1-1.2,1.5-1.9c0,0,0-0.1-0.1,0c-0.3,0.3-0.6,0.7-0.8,1.1c-0.3,0.4-0.7,0.7-1.1,1
								c-1.1,0.4-2.2,1-2.8,2c0,0,0,0.2,0.1,0.1c0.3-0.2,0.7-0.5,1-0.7C36,81.4,36.5,81.4,37,81.4z"/>
						</g>
						<path class="st5" d="M39.5,78.4c-0.4,0.3-0.9,0.2-1.2-0.2c-0.3-0.3-0.2-0.9,0.2-1.2c0.4-0.3,0.9-0.2,1.2,0.2
							S39.9,78.1,39.5,78.4z"/>
						<path class="st5" d="M41.4,78.9c-0.3,0.3-0.9,0.2-1.2-0.2c-0.3-0.3-0.2-0.9,0.2-1.2c0.3-0.3,0.9-0.2,1.2,0.2
							S41.8,78.6,41.4,78.9z"/>
						<path class="st5" d="M42.3,80.3c-0.3,0.3-0.9,0.2-1.2-0.2c-0.3-0.3-0.2-0.9,0.2-1.2c0.3-0.3,0.9-0.2,1.2,0.2
							C42.7,79.5,42.7,80.1,42.3,80.3z"/>
						<path class="st5" d="M40.8,81.4c-0.4,0.3-0.9,0.2-1.2-0.2c-0.3-0.3-0.2-0.9,0.2-1.2c0.4-0.3,0.9-0.2,1.2,0.2
							C41.2,80.6,41.2,81.1,40.8,81.4z"/>
						<path class="st5" d="M39,82.8c-0.3,0.3-0.9,0.2-1.2-0.2c-0.3-0.3-0.2-0.9,0.2-1.2s0.9-0.2,1.2,0.2C39.4,82,39.4,82.5,39,82.8z
							"/>
						<g>
							<path class="st12" d="M38.4,77.8c0-0.1,0-0.3,0.2-0.4c0,0,0.1-0.1,0.2-0.1c0,0,0.1,0,0.1-0.1c0,0,0-0.1,0-0.2
								c-0.1-0.1-0.4,0-0.5,0.1C38.4,77.3,38.3,77.5,38.4,77.8C38.3,77.8,38.4,77.8,38.4,77.8L38.4,77.8z"/>
						</g>
						<g>
							<path class="st12" d="M39.1,77.2c0.1,0,0.1,0,0.2,0l0,0C39.3,77.1,39.2,77.1,39.1,77.2C39,77.1,39,77.2,39.1,77.2L39.1,77.2z
								"/>
						</g>
						<g>
							<path class="st12" d="M40.3,78.3c0-0.2,0.1-0.3,0.3-0.4c0.1-0.1,0.3,0,0.4-0.1c0.1,0,0.1-0.2,0-0.2c-0.2-0.1-0.4,0-0.6,0.1
								C40.3,77.8,40.2,78,40.3,78.3C40.2,78.3,40.3,78.3,40.3,78.3L40.3,78.3z"/>
						</g>
						<g>
							<path class="st12" d="M41.2,77.8L41.2,77.8L41.2,77.8C41.4,77.7,41.3,77.7,41.2,77.8C41.2,77.7,41.2,77.7,41.2,77.8
								L41.2,77.8z"/>
						</g>
						<g>
							<path class="st12" d="M42,79.2c0.1,0.1,0.2,0.2,0.2,0.3c0,0,0,0.2,0.1,0.1l0,0C42.5,79.4,42.2,79.2,42,79.2
								C42,79.1,41.9,79.2,42,79.2L42,79.2z"/>
						</g>
						<g>
							<path class="st12" d="M42.3,79.7L42.3,79.7L42.3,79.7L42.3,79.7z"/>
						</g>
						<g>
							<path class="st12" d="M42.2,79.8c0,0.1,0,0.2,0,0.2l0,0C42.2,79.9,42.3,79.9,42.2,79.8C42.4,79.8,42.2,79.8,42.2,79.8
								L42.2,79.8z"/>
						</g>
						<g>
							<path class="st12" d="M41,80.7c0,0.1-0.1,0.2-0.3,0.3c-0.1,0.1-0.2,0.1-0.3,0.2c0,0,0,0.1,0,0.2c0.1,0.1,0.3-0.1,0.4-0.2
								C41,81.1,41,80.9,41,80.7C41.1,80.7,41,80.7,41,80.7L41,80.7z"/>
						</g>
						<g>
							<path class="st12" d="M40.1,81.3L40.1,81.3C40,81.2,39.9,81.3,40.1,81.3C39.9,81.3,40,81.3,40.1,81.3
								C40,81.4,40.1,81.3,40.1,81.3L40.1,81.3z"/>
						</g>
						<g>
							<path class="st12" d="M38.9,81.8c0,0.1,0,0.2-0.1,0.3c0,0.1-0.2,0.2-0.2,0.3c0,0.1,0,0.1,0.1,0.1c0.2,0,0.3-0.2,0.3-0.3
								C39.1,82.1,39.1,82,38.9,81.8C39,81.7,38.9,81.8,38.9,81.8L38.9,81.8z"/>
						</g>
						<g>
							<path class="st12" d="M38.4,82.7L38.4,82.7L38.4,82.7C38.3,82.8,38.3,82.8,38.4,82.7C38.4,82.8,38.4,82.7,38.4,82.7
								L38.4,82.7z"/>
						</g>
					</g>
					<g>
						<path class="st0" d="M29.1,63.6c-1.7-2.1-3.8,0.9-5,2.8c0.8-2.2,1.3-4.6,1.7-6.9h0.1c0.3-0.3,0.7-0.2,1.1-0.3
							c0.6,0,1.1-0.4,1.6-0.7c0.7-0.5,0.8-1.8,0-2.3c-0.7-0.5-1.5-0.1-2.2,0.5c0.6-0.7,1.2-1.6,1.4-2.5c0.1-0.9-0.6-1.9-1.5-1.7
							c-0.9,0.1-1.6,0.9-1.5,1.9c0.1,0.8,0.8,1.5,1.1,2.3c0,0.1,0,0.1,0,0.2l0,0c0,0.3-0.1,0.6-0.2,1c-0.1,0.3-0.2,0.7-0.2,1
							c-0.2,0.9-0.4,1.8-0.6,2.6c-0.2-1.5-0.8-3.2-2.5-2.7c-1.1,0.4-1.7,1.4-1.3,2.6c0.2,0.5,0.7,1,1.2,1.1c0.4,0,0.7,0,1.1,0
							s0.7,0.1,1.1,0.2c-0.7,2.3-1.5,4.6-2.6,6.8c-0.1,0.1-0.1,0.3-0.2,0.4c0.2-1.7,0-3.5-1.6-4.1c-1.4-0.5-2.9,0.8-3,2.2
							c-0.1,0.8,0.3,1.5,1,2c0.3,0.3,0.9,0.4,1.3,0.6c0.7,0.2,0.9,0.5,1.2,1.1c-0.8,1.3-1.8,2.5-2.9,3.6c-0.8,0.8-1.8,1.5-2.8,2.2
							c0.6-0.9,1-2.1,1.2-2.9c0.4-1.7,0-3.3-1.4-4.5c-1.3-1.2-3.1,0.3-3.4,1.7c-0.2,1.1,0,2.1,0.5,3.1c0.6,1.2,1.8,2.1,1.5,3.6l0,0
							c-0.4,0.3-0.9,0.5-1.3,0.8c-0.1,0.1,0,0.2,0.1,0.2c1.8-0.3,3.4-1.2,4.8-2.5c1.7,0.6,2.3,3.3,4.5,2.8c1.2-0.2,2.5-1.2,2.3-2.6
							c-0.1-1.4-1-2.3-2.4-2.6c-0.8-0.1-1.7,0.1-2.5,0.5c1.4-1.6,2.6-3.4,3.5-5.1c0.3-0.7,0.7-1.4,1-2.1c0,0,0,0,0.1,0
							c0.7-0.5,2.1,0.1,3,0.1c0.8,0,1.7-0.1,2.4-0.6C30.4,66.7,30.1,64.9,29.1,63.6z"/>
						<g>
							<path class="st9" d="M26.5,53.5c-0.6,2.6-1.3,5.2-1.9,7.9c-0.6,2.7-1.4,5.4-2.7,7.9c-1.2,2.4-2.9,4.5-4.7,6.5
								c-0.9,0.9-1.8,1.7-3,2.4c-0.8,0.5-1.8,0.7-2.6,1.4c-0.1,0.1-0.1,0.4,0.1,0.4c1.9,0.1,3.9-1.5,5.3-2.7c2-1.8,3.7-4.2,5.1-6.5
								C25.4,65.5,25.9,59.5,26.5,53.5C26.6,53.4,26.5,53.4,26.5,53.5L26.5,53.5z"/>
						</g>
						<g>
							<path class="st9" d="M14.8,73.3c-0.1,1.1-0.2,2.1-0.5,3.1c-0.3,0.9-0.9,1.6-1.2,2.5c0,0.1,0,0.3,0.2,0.2
								c1.9-0.6,1.7-4.3,1.7-5.9C15,73.2,14.8,73.2,14.8,73.3L14.8,73.3z"/>
						</g>
						<g>
							<path class="st9" d="M21.8,77.8c-1.4-1.2-4.1-1.9-5.7-0.4v0.2c0.7,0.1,1.2-0.2,1.9-0.4c1.2-0.3,2.6,0,3.6,0.8
								C21.8,78,21.9,77.9,21.8,77.8L21.8,77.8z"/>
						</g>
						<g>
							<path class="st9" d="M20,67.7c0.5,0.7,0.8,1.5,0.8,2.3c0,0.7-0.3,1.4-0.2,2.1c0,0.1,0.1,0.2,0.2,0.1
								C22.2,71.1,21.1,68.7,20,67.7C20.1,67.6,20,67.7,20,67.7L20,67.7z"/>
						</g>
						<g>
							<path class="st9" d="M26.9,64.8c-1.8,0.6-3.5,1.3-3.7,3.4c0,0,0.1,0.1,0.1,0C24.1,66.7,25.6,65.6,26.9,64.8
								C27,64.8,27,64.7,26.9,64.8L26.9,64.8z"/>
						</g>
						<g>
							<path class="st9" d="M23,59.6c0.4,0.4,0.8,0.9,1.1,1.5c0.3,0.6,0.3,1.3,0.5,1.9h0.1c0.7-1.4-0.5-2.8-1.6-3.5
								C23,59.4,22.9,59.5,23,59.6L23,59.6z"/>
						</g>
						<g>
							<path class="st9" d="M27.8,56.4c-1.3,0.8-2.2,2.1-2.4,3.6c0,0.1,0.1,0.1,0.1,0C26.3,58.9,26.8,57.4,27.8,56.4
								C27.9,56.5,27.8,56.4,27.8,56.4L27.8,56.4z"/>
						</g>
					</g>
					<g>
						<g>
							<path class="st5" d="M34.1,60.8c-0.1,3.9-0.5,7.8-1.8,11.5c-0.5,1.5-1.3,2.9-2.1,4.3c-0.8,1.2-1.8,2.1-2.8,3.2
								c0,0,0,0.1,0.1,0.1c2.5-1.1,4-4.6,5-6.9C34,69.2,34.1,64.9,34.1,60.8C34.2,60.8,34.1,60.8,34.1,60.8L34.1,60.8z"/>
						</g>
						<g>
							<path class="st5" d="M27.4,79.8c1.1-0.9,2-1.6,2.8-2.8c0.7-1.1,1.2-2.4,1.6-3.7c0.8-2.8,0.8-5.4,0.4-8.3l0,0
								c0,1.3,0.2,2.6,0.1,3.9c0,1.2-0.3,2.5-0.6,3.8s-0.8,2.5-1.4,3.7C29.5,77.8,28.4,78.7,27.4,79.8
								C27.3,79.8,27.3,79.9,27.4,79.8L27.4,79.8z"/>
						</g>
						<g>
							<path class="st5" d="M30.7,76.5c1.7-2.3,3.1-5.2,4.1-7.9c1.1-2.8,1.5-5.7,1.1-8.7c0-0.1-0.1-0.1-0.1,0c0,1.3,0,2.6,0,3.9
								c-0.1,1.6-0.6,3.2-1.2,4.7c-0.5,1.4-1.2,2.7-1.9,4s-1.3,2.7-2.1,3.9C30.5,76.5,30.6,76.5,30.7,76.5L30.7,76.5z"/>
						</g>
						<g>
							<path class="st5" d="M33.6,68.1c1-1.9,1.5-4.5,1.3-6.6h-0.1C34.6,63.6,34.3,66.1,33.6,68.1C33.4,68.1,33.6,68.2,33.6,68.1
								L33.6,68.1z"/>
						</g>
						<g>
							<path class="st5" d="M33.5,71.4c2.2-2.2,3.3-4.7,4.2-7.6c0-0.1-0.1-0.1-0.1,0c-0.5,1.2-1,2.4-1.5,3.6
								C35.4,68.8,34.4,70.1,33.5,71.4C33.3,71.4,33.5,71.5,33.5,71.4L33.5,71.4z"/>
						</g>
						<g>
							<path class="st5" d="M31.4,74.1c0.4-1.9,0.1-4,0.1-5.9c0-0.1-0.1,0-0.1,0C31,70.1,31.4,72.2,31.4,74.1
								C31.3,74.2,31.4,74.2,31.4,74.1L31.4,74.1z"/>
						</g>
						<path class="st5" d="M36.5,59.9c0,0.3-0.3,0.5-0.6,0.5s-0.5-0.3-0.5-0.6s0.3-0.5,0.6-0.5S36.5,59.6,36.5,59.9z"/>
						<path class="st5" d="M38.2,64c0,0.3-0.3,0.5-0.6,0.5s-0.5-0.3-0.5-0.6c0-0.3,0.3-0.5,0.6-0.5C38,63.4,38.2,63.7,38.2,64z"/>
						<path class="st5" d="M35.6,61.7c0,0.3-0.3,0.5-0.6,0.5s-0.5-0.3-0.5-0.6s0.3-0.5,0.6-0.5S35.7,61.4,35.6,61.7z"/>
						<path class="st5" d="M34.7,60.7c0,0.3-0.3,0.5-0.6,0.5s-0.5-0.3-0.5-0.6s0.3-0.5,0.6-0.5C34.5,60.1,34.7,60.4,34.7,60.7z"/>
						<path class="st5" d="M33,65.3c0,0.3-0.3,0.5-0.6,0.5s-0.5-0.3-0.5-0.6c0-0.3,0.3-0.5,0.6-0.5C32.8,64.6,33,64.9,33,65.3z"/>
						<path class="st5" d="M32.1,68.3c0,0.3-0.3,0.5-0.6,0.5S31,68.5,31,68.2c0-0.3,0.3-0.5,0.6-0.5S32.1,68,32.1,68.3z"/>
					</g>
					<g>
						<path class="st3" d="M39.4,72.2L39.4,72.2c-1.6,1.2-3.8,1.2-5.6,1c-1.6-0.2-3.2-0.7-4.8-0.1c-1.1,0.4-2.6,1.2-2.8,2.6
							c-0.1,0.7,0,1.3,0.2,2c0,0,0.5,0.9,0.8,1.1c-0.4,0.2-0.8,0.6-1.1,0.9c-0.1,0.1,0,0.2,0.1,0.2c0.4-0.2,0.8-0.5,1.2-0.7
							c1,1.4,2,2.6,3.7,3.1c1.3,0.3,2.8,0,4-0.6c3.2-1.6,4.1-6.1,4.4-9.4C39.6,72.2,39.5,72.2,39.4,72.2z"/>
						<g>
							<path class="st13" d="M37.9,74c-1.7,1.7-4.5,2.3-6.8,3.1c-1.9,0.6-4.8,1.3-5.8,3.2c-0.1,0.2,0.1,0.4,0.3,0.2
								c1-0.7,2-1.5,3.2-2s2.4-0.9,3.7-1.3c2.1-0.7,3.8-1.6,5.5-3.1C38.2,74.1,38,73.9,37.9,74L37.9,74z"/>
						</g>
						<g>
							<path class="st13" d="M31.2,74.2c-1.4,1.1-3.5,2.9-4,4.7c0,0.1,0.1,0.2,0.1,0.1c0.6-0.6,1.1-1.4,1.6-2.2
								C29.6,75.8,30.3,74.9,31.2,74.2C31.3,74.2,31.2,74.1,31.2,74.2L31.2,74.2z"/>
						</g>
						<g>
							<path class="st13" d="M33,74.8c-0.5,0.4-1,0.9-1.4,1.3c-0.3,0.3-0.8,0.7-0.9,1.2c0,0,0,0.1,0.1,0.1c0.4-0.2,0.7-0.7,1-1.1
								C32.1,75.8,32.6,75.3,33,74.8C33.1,74.8,33.1,74.7,33,74.8L33,74.8z"/>
						</g>
						<g>
							<path class="st13" d="M36,74.3c-0.6,0.4-1.6,1.2-1.7,2l0,0c0.3-0.2,0.5-0.5,0.7-0.8C35.3,75.2,35.7,74.8,36,74.3
								C36.1,74.4,36.1,74.3,36,74.3L36,74.3z"/>
						</g>
						<g>
							<path class="st13" d="M36.6,75.9c-0.4,0.1-0.9,0-1.3,0c-0.3,0-0.7,0-0.9,0.2c0,0,0,0,0,0.1c0.3,0.1,0.7,0,1,0
								C35.8,76.2,36.2,76.1,36.6,75.9L36.6,75.9L36.6,75.9z"/>
						</g>
						<g>
							<path class="st13" d="M36.4,77.7c-0.9,0.1-1.9,0.2-2.8,0.1c-0.4,0-0.8,0-1.3-0.1c-0.6-0.1-1-0.4-1.6-0.4l-0.1,0.1
								C32,79,34.7,78.1,36.4,77.7C36.4,77.8,36.4,77.7,36.4,77.7L36.4,77.7z"/>
						</g>
						<g>
							<path class="st13" d="M35,79.8c-2.5,0.4-5.1,0.1-7.3-1c-0.1,0-0.3,0-0.2,0.2c0.5,0.9,2.1,0.9,3,1.1
								C32,80.3,33.6,80.3,35,79.8L35,79.8L35,79.8z"/>
						</g>
					</g>
					<g>
						<path class="st3" d="M9.4,48.5C8.5,47.4,7,47,6.2,48.4c-1.3,2.1-1.2,5-1.3,7.4c-0.1,3.2-1,6.4-1.2,9.5
							c-0.2,2.9,0.9,5.2,2.6,7.4c-0.2,1.7-0.2,3.4,0.6,4.9c0,0.1,0.2,0,0.2,0c0-1.4-0.1-2.8-0.1-4.2c1.8,0.6,3.5,0,4.9-1.4
							c1.8-1.9,2-5,2.3-7.5c0.3-3.2,0-6.3-1.2-9.2C12,52.9,10.9,50.4,9.4,48.5z"/>
						<g>
							<path class="st1" d="M7.8,51c0.7,3.8,1.2,7.6,0.8,11.4c-0.2,2-0.6,3.9-1,5.9c-0.3,1.2-1.1,2.7-0.7,3.9c0,0.2,0.3,0.1,0.3,0
								c0.1-1.6,0.7-3.1,1.1-4.6c0.4-1.8,0.6-3.7,0.8-5.6C9.4,58.2,8.8,54.6,7.8,51C7.9,50.9,7.8,50.9,7.8,51L7.8,51z"/>
						</g>
						<g>
							<path class="st1" d="M5,65c0.6,2.1,0.7,4.7,2,6.5c0.1,0.1,0.3,0,0.3-0.1C6.7,69.2,6,67,5,65C5.1,64.9,5,64.9,5,65L5,65z"/>
						</g>
						<g>
							<path class="st1" d="M5.1,59.8C6.2,62.1,6.8,64.7,8,67c0,0.1,0.3,0,0.2-0.1c-0.3-1.3-0.9-2.6-1.5-3.8
								C6.3,61.9,5.8,60.8,5.1,59.8C5.2,59.7,5.1,59.8,5.1,59.8L5.1,59.8z"/>
						</g>
						<g>
							<path class="st1" d="M6,55.5c0.9,1.7,2,3.6,2.7,5.5c0,0.2,0.3,0.1,0.3-0.1c-0.2-0.8-0.7-1.5-1.2-2.3
								C7.2,57.5,6.7,56.5,6,55.5C6.1,55.4,6,55.5,6,55.5L6,55.5z"/>
						</g>
						<g>
							<path class="st1" d="M6.8,53c0.3,0.5,0.7,1,1.1,1.6c0.3,0.4,0.5,1,0.9,1.4l0,0C8.6,54.8,7.7,53.7,6.8,53
								C6.8,52.9,6.8,52.9,6.8,53L6.8,53z"/>
						</g>
						<g>
							<path class="st1" d="M9.8,51.6c-0.3,0.8-0.7,1.6-0.9,2.4c-0.2,0.7-0.4,1.5-0.1,2.2l0,0c0.1-0.7,0.2-1.5,0.4-2.3
								C9.4,53.2,9.7,52.5,9.8,51.6C10,51.6,9.8,51.6,9.8,51.6L9.8,51.6z"/>
						</g>
						<g>
							<path class="st1" d="M12,55.3c-0.6,1.3-1.5,2.5-2.3,3.7c-0.4,0.6-1,1.6-0.8,2.4c0,0,0.1,0.1,0.1,0
								C9.4,59.1,11.1,57.3,12,55.3C12.1,55.3,12,55.3,12,55.3L12,55.3z"/>
						</g>
						<g>
							<path class="st1" d="M11.4,62.5c-0.6,0.8-1.4,1.7-2.1,2.5c-0.5,0.6-1.1,1.2-1.1,2c0,0,0.1,0.1,0.1,0c0.6-0.7,1-1.7,1.6-2.4
								C10.4,64,10.9,63.3,11.4,62.5L11.4,62.5L11.4,62.5z"/>
						</g>
						<g>
							<path class="st1" d="M12.1,67c-1.1,1.2-2.3,2.4-3.6,3.4C8,70.8,7,71.4,7,72.2c-0.1,0.2,0.1,0.3,0.2,0.2
								c0.4-0.8,1.1-1.3,1.8-1.9C10.2,69.4,11.2,68.3,12.1,67L12.1,67L12.1,67z"/>
						</g>
					</g>
				</g>
			</g>
		</g>
		<g>
			<g>
				<defs>
					<ellipse id="SVGID_13_" cx="59.7" cy="47.9" rx="59.7" ry="37.8"/>
				</defs>
				<clipPath id="SVGID_14_">
					<use xlink:href="#SVGID_13_"  style="overflow:visible;"/>
				</clipPath>
				<g class="st14">
					<path class="st0" d="M49.5,33.7c0.9,0.8,2.3,0.8,2.7-0.5c0.6-2,0-4.4-0.3-6.4c-0.5-2.7-0.4-5.5-0.8-8.2
						c-0.4-2.4-1.8-4.1-3.6-5.6c-0.1-1.4-0.5-2.8-1.4-3.9c0,0-0.2,0-0.1,0.1c0.1,1.2,0.5,2.3,0.8,3.5c-1.7-0.2-3,0.7-3.8,2.1
						c-1.1,1.9-0.7,4.6-0.5,6.6c0.3,2.7,1.2,5.2,2.8,7.4C46.4,30.6,47.9,32.4,49.5,33.7z"/>
					<g>
						<path class="st15" d="M50.4,31.3c-1.3-3-2.5-6-2.9-9.3c-0.2-1.7-0.3-3.4-0.2-5.1c0-1,0.4-2.5-0.1-3.4c-0.1-0.1-0.3,0-0.3,0.1
							c0.2,1.3,0,2.7,0,4.1c0,1.6,0.1,3.2,0.4,4.8C47.6,25.7,48.8,28.6,50.4,31.3C50.3,31.4,50.4,31.4,50.4,31.3L50.4,31.3z"/>
					</g>
					<g>
						<path class="st15" d="M49.9,19.3c-0.9-1.6-1.5-3.7-2.9-5c-0.1-0.1-0.3,0-0.2,0.1C47.7,16,48.8,17.8,49.9,19.3
							C49.9,19.3,50,19.3,49.9,19.3L49.9,19.3z"/>
					</g>
					<g>
						<path class="st15" d="M50.9,23.5c-1.4-1.7-2.4-3.7-3.8-5.4c-0.1-0.1-0.2,0-0.2,0.1c0.5,1,1.3,1.9,2,2.9
							C49.4,22.1,50.1,22.8,50.9,23.5C50.8,23.6,50.9,23.6,50.9,23.5L50.9,23.5z"/>
					</g>
					<g>
						<path class="st15" d="M50.9,27.3c-1.1-1.3-2.4-2.6-3.3-4c-0.1-0.1-0.3,0-0.2,0.1c0.3,0.7,0.9,1.1,1.4,1.7
							C49.5,25.8,50.2,26.6,50.9,27.3C50.9,27.4,51,27.3,50.9,27.3L50.9,27.3z"/>
					</g>
					<g>
						<path class="st15" d="M50.8,29.6c-0.4-0.3-0.8-0.7-1.2-1.1c-0.3-0.3-0.6-0.7-1-1l0,0C49,28.4,50,29.1,50.8,29.6L50.8,29.6
							L50.8,29.6z"/>
					</g>
					<g>
						<path class="st15" d="M48.5,31.2c0.1-0.7,0.2-1.5,0.3-2.2c0-0.6,0.1-1.3-0.3-1.8l0,0c0,0.6,0.1,1.3,0.1,2s-0.1,1.3-0.2,2
							C48.4,31.2,48.5,31.3,48.5,31.2L48.5,31.2z"/>
					</g>
					<g>
						<path class="st15" d="M46,28.6c0.3-1.2,0.8-2.4,1.2-3.5c0.2-0.6,0.5-1.5,0.2-2.1h-0.1C47.4,24.9,46.4,26.7,46,28.6
							C45.9,28.7,46,28.7,46,28.6L46,28.6z"/>
					</g>
					<g>
						<path class="st15" d="M45.1,22.5c0.4-0.8,0.8-1.6,1.2-2.5c0.3-0.6,0.6-1.2,0.5-1.9h-0.1c-0.4,0.7-0.5,1.6-0.8,2.3
							C45.7,21.1,45.3,21.8,45.1,22.5C45,22.6,45.1,22.6,45.1,22.5L45.1,22.5z"/>
					</g>
					<g>
						<path class="st15" d="M43.6,18.9c0.7-1.2,1.5-2.4,2.4-3.5c0.4-0.5,1.1-1.1,0.9-1.8c0-0.1-0.2-0.1-0.2,0
							c-0.2,0.7-0.7,1.3-1.1,1.9C44.7,16.5,44.1,17.7,43.6,18.9L43.6,18.9L43.6,18.9z"/>
					</g>
				</g>
			</g>
		</g>
		<g>
			<g>
				<defs>
					<ellipse id="SVGID_15_" cx="59.7" cy="47.9" rx="59.7" ry="37.8"/>
				</defs>
				<clipPath id="SVGID_16_">
					<use xlink:href="#SVGID_15_"  style="overflow:visible;"/>
				</clipPath>
				<g class="st16">
					<path class="st5" d="M33.2,35c-3.4-0.5-1.5-4.9-0.1-7.4c-2,2.4-4.2,4.5-6.6,6.5v0.1c-0.1,0.6,0.1,0.9,0.4,1.4
						c0.3,0.6,0.3,1.5,0.2,2.2c-0.1,1.1-1.5,2.1-2.6,1.6c-1-0.5-1.1-1.6-0.8-2.8c-0.4,1.2-0.9,2.4-1.9,3.2c-0.9,0.7-2.5,0.5-2.9-0.6
						s0-2.4,1.1-2.9c1-0.4,2.2,0,3.3-0.2c0.1,0,0.1-0.1,0.2-0.2l0,0c0.3-0.3,0.6-0.5,1-0.8c0.3-0.4,0.6-0.7,1-0.9
						c0.8-0.8,1.7-1.6,2.5-2.4c-1.8,0.8-4.1,1.2-4.6-1c-0.3-1.5,0.5-2.8,2-3.1c0.7-0.1,1.6,0.1,2,0.6c0.3,0.4,0.5,0.8,0.8,1.2
						c0.2,0.4,0.5,0.7,0.9,1c2.1-2.3,4.1-4.8,5.8-7.4c0.1-0.2,0.2-0.4,0.3-0.5c-1.7,1.4-3.9,2.3-5.6,0.9c-1.5-1.2-1-3.7,0.4-4.8
						c0.8-0.6,2-0.6,2.9-0.2c0.5,0.2,1,0.7,1.5,1.1c0.7,0.6,1.2,0.7,2,0.7c0.9-1.8,1.6-3.7,2.1-5.6c0.4-1.5,0.5-3,0.6-4.5
						c-0.6,1.3-1.6,2.4-2.5,3.2c-1.6,1.5-3.7,2.1-5.9,1.4s-1.7-3.7-0.3-4.9c1.1-1,2.3-1.3,3.8-1.5c1.7-0.1,3.6,0.6,5-0.7l0,0
						c0-0.6,0-1.3,0.1-2c0-0.1,0.2-0.1,0.3,0c0.8,2.2,0.8,4.6,0.4,7c1.8,1.4,5.1,0.4,6.1,3.1c0.5,1.5,0.2,3.6-1.4,4.4
						c-1.7,0.8-3.2,0.4-4.4-1c-0.7-0.8-1-2-1.1-3.2c-0.8,2.6-2.1,5.1-3.3,7.2c-0.5,0.8-1.1,1.7-1.7,2.5v0.1C34.1,27,35.7,28,36.3,29
						c0.5,0.9,0.9,2,0.9,3.1C37.5,34.4,35.2,35.3,33.2,35z"/>
					<g>
						<path class="st6" d="M20.3,38.9c2.5-2.4,5-4.9,7.5-7.3c2.6-2.5,5.1-5.1,7-8.2c1.8-2.9,3.1-6.2,4.1-9.5
							c0.5-1.6,0.7-3.2,0.7-4.9c0-1.3-0.4-2.5-0.1-3.8c0-0.3,0.4-0.4,0.6-0.1c1.3,2.1,0.9,5.4,0.4,7.7c-0.7,3.4-2.2,6.9-3.8,9.9
							C32.9,29.8,26.5,34.3,20.3,38.9C20.3,39,20.2,38.9,20.3,38.9L20.3,38.9z"/>
					</g>
					<g>
						<path class="st6" d="M34.5,12.9c1.1-0.8,2.2-1.6,3.2-2.6c0.9-0.9,1.2-2.1,1.9-3c0.1-0.1,0.3-0.1,0.4,0.1
							c0.5,2.6-3.6,4.7-5.4,5.8C34.5,13.2,34.4,13,34.5,12.9L34.5,12.9z"/>
					</g>
					<g>
						<path class="st6" d="M44.2,17.7c-2.3-0.8-4.8-3.3-4.1-6c0-0.1,0.1-0.1,0.2,0c0.5,0.7,0.5,1.6,0.7,2.4c0.4,1.6,1.7,2.8,3.2,3.5
							C44.4,17.5,44.3,17.7,44.2,17.7L44.2,17.7z"/>
					</g>
					<g>
						<path class="st6" d="M31.9,22.3c1.1,0,2.1-0.1,3.1-0.6c0.8-0.4,1.3-1.3,2.2-1.7c0.1,0,0.2,0,0.2,0.1c-0.4,2.3-3.8,2.6-5.6,2.3
							C31.7,22.5,31.7,22.3,31.9,22.3L31.9,22.3z"/>
					</g>
					<g>
						<path class="st6" d="M33.1,31.9c-0.4-2.4-0.7-4.7,1.3-6.4c0,0,0.1,0,0.1,0.1C33.4,27.5,33.1,29.9,33.1,31.9
							C33.2,32,33.1,32,33.1,31.9L33.1,31.9z"/>
					</g>
					<g>
						<path class="st6" d="M24.7,30.9c0.8,0.2,1.5,0.3,2.4,0.2c0.8-0.1,1.6-0.5,2.4-0.7c0.1,0,0.1,0,0.1,0.1c-1.1,1.7-3.4,1.3-5,0.5
							C24.6,31,24.6,30.9,24.7,30.9L24.7,30.9z"/>
					</g>
					<g>
						<path class="st6" d="M24.3,38.3c0.1-2,0.9-3.8,2.5-5c0.1,0,0.2,0,0.1,0.1c-0.8,1.6-2.1,3.1-2.5,4.9
							C24.5,38.4,24.3,38.4,24.3,38.3L24.3,38.3z"/>
					</g>
				</g>
			</g>
		</g>
		<g>
			<g>
				<defs>
					<ellipse id="SVGID_17_" cx="59.7" cy="47.9" rx="59.7" ry="37.8"/>
				</defs>
				<clipPath id="SVGID_18_">
					<use xlink:href="#SVGID_17_"  style="overflow:visible;"/>
				</clipPath>
				<g class="st17">
					<g>
						<path class="st3" d="M55.4,11.1c-0.8,0.3-1.5,0.2-2.3,0L53,11.2c1.2,0.9,2.6,0.2,3.8-0.5c-0.4,0.6-0.9,1.2-1.5,1.7
							c-0.5,0.5-1.1,1-1.8,1.5C53,14,52.5,14,52,14c0,0-0.1,0.1,0,0.1c0.3,0.1,0.6,0.2,1,0.1c-0.4,0.3-0.9,0.6-1.4,0.9
							c-0.1,0,0,0.2,0.1,0.1c0.2-0.1,0.5-0.2,0.7-0.4c-0.1,0.3-0.1,0.7-0.1,1h0.1c0-0.2,0.1-0.5,0.1-0.7s0.1-0.4,0.3-0.6
							c0.8-0.4,1.7-1,2.5-1.6c-0.5,0.9-0.7,2-0.7,3c0,0.1,0.1,0.1,0.1,0c0.2-0.6,0.3-1.2,0.4-1.7c0.1-0.6,0.5-1.2,0.7-1.8
							c1.2-1,2.1-2.3,2.3-3.8c0-0.1-0.1-0.2-0.2-0.1c-0.3,0.5-0.5,1-0.8,1.4C56.5,10.5,56,10.9,55.4,11.1z"/>
					</g>
					<path class="st3" d="M53.9,15.9c0.3-0.5,0.9-0.7,1.5-0.4c0.5,0.3,0.7,0.9,0.4,1.5c-0.3,0.5-0.9,0.7-1.5,0.4
						C53.8,17.1,53.6,16.4,53.9,15.9z"/>
					<path class="st3" d="M51.5,16.2c0.3-0.5,0.9-0.7,1.5-0.4c0.5,0.3,0.7,0.9,0.4,1.5c-0.3,0.5-0.9,0.7-1.5,0.4
						C51.3,17.4,51.1,16.7,51.5,16.2z"/>
					<path class="st3" d="M49.7,15c0.3-0.5,0.9-0.7,1.5-0.4c0.5,0.3,0.7,0.9,0.4,1.5c-0.3,0.5-0.9,0.7-1.5,0.4
						C49.6,16.2,49.4,15.5,49.7,15z"/>
					<path class="st3" d="M50.9,13c0.3-0.5,0.9-0.7,1.5-0.4c0.5,0.3,0.7,0.9,0.4,1.5c-0.3,0.5-0.9,0.7-1.5,0.4
						C50.8,14.1,50.6,13.5,50.9,13z"/>
					<path class="st3" d="M52.3,10.5c0.3-0.5,0.9-0.7,1.5-0.4c0.5,0.3,0.7,0.9,0.4,1.5c-0.3,0.5-0.9,0.7-1.5,0.4
						C52.2,11.7,52,11,52.3,10.5z"/>
					<g>
						<path class="st1" d="M55.5,16.1c0,0.1,0,0.4,0,0.5s-0.1,0.1-0.1,0.2c0,0-0.1,0.1-0.1,0.2s0,0.2,0.1,0.2c0.2,0,0.4-0.2,0.5-0.4
							c0-0.2,0-0.5-0.1-0.7C55.6,15.9,55.5,16,55.5,16.1L55.5,16.1z"/>
					</g>
					<g>
						<path class="st1" d="M55,17c-0.1,0-0.2,0-0.3,0.1c0,0,0,0,0,0.1c0.1,0.1,0.2,0,0.3,0C55.2,17.2,55.1,17,55,17L55,17z"/>
					</g>
					<g>
						<path class="st1" d="M53,16.4c0,0.2,0,0.4-0.1,0.6s-0.3,0.2-0.5,0.3c-0.1,0.1-0.1,0.3,0.1,0.3c0.3,0,0.5-0.2,0.6-0.4
							C53.2,17,53.2,16.6,53,16.4C53.1,16.3,53,16.3,53,16.4L53,16.4z"/>
					</g>
					<g>
						<path class="st1" d="M52.2,17.5c-0.1-0.1-0.1-0.1-0.2-0.1c0,0,0,0,0,0.1s0.1,0.1,0.2,0.1C52.3,17.6,52.3,17.5,52.2,17.5
							L52.2,17.5z"/>
					</g>
					<g>
						<path class="st1" d="M50.6,16.1c-0.1,0-0.3-0.1-0.4-0.2c-0.1,0-0.1-0.2-0.2-0.1v0.1C50,16.2,50.3,16.2,50.6,16.1
							C50.7,16.2,50.7,16.1,50.6,16.1L50.6,16.1z"/>
					</g>
					<g>
						<path class="st1" d="M50,15.7L50,15.7C50,15.8,50,15.7,50,15.7L50,15.7z"/>
					</g>
					<g>
						<path class="st1" d="M50,15.5c0-0.1,0-0.2,0-0.3l0,0C50,15.3,50,15.4,50,15.5C49.9,15.7,50,15.6,50,15.5L50,15.5z"/>
					</g>
					<g>
						<path class="st1" d="M51,13.9c0-0.2,0.1-0.3,0.2-0.5c0.1-0.1,0.2-0.2,0.2-0.4c0-0.1-0.1-0.1-0.2-0.2c-0.2,0-0.3,0.2-0.4,0.4
							C50.8,13.5,50.9,13.7,51,13.9C50.9,14,51,14,51,13.9L51,13.9z"/>
					</g>
					<g>
						<path class="st1" d="M51.8,12.8C51.8,12.8,51.8,12.9,51.8,12.8c0.2,0,0.2-0.1,0.1-0.1c0,0,0,0-0.1,0
							C51.8,12.6,51.7,12.8,51.8,12.8L51.8,12.8z"/>
					</g>
					<g>
						<path class="st1" d="M52.9,11.6c-0.1-0.1-0.1-0.3-0.1-0.4c0-0.1,0.1-0.3,0.1-0.5c0-0.1-0.1-0.1-0.2-0.1
							c-0.2,0.1-0.2,0.4-0.2,0.6s0.1,0.4,0.3,0.5C52.8,11.8,52.9,11.6,52.9,11.6L52.9,11.6z"/>
					</g>
					<g>
						<path class="st1" d="M53.1,10.3c0.1,0,0.1,0,0.2-0.1l0,0c0,0-0.1,0-0.2,0C53,10.1,53,10.3,53.1,10.3L53.1,10.3z"/>
					</g>
				</g>
			</g>
		</g>
		<g>
			<g>
				<defs>
					<ellipse id="SVGID_19_" cx="59.7" cy="47.9" rx="59.7" ry="37.8"/>
				</defs>
				<clipPath id="SVGID_20_">
					<use xlink:href="#SVGID_19_"  style="overflow:visible;"/>
				</clipPath>
				<g class="st18">
					<path class="st3" d="M73.8,28.1c3,1.6,4.1-3,4.5-5.9c0.2,3.1,0.7,6.1,1.4,9.1c0,0-0.1,0-0.1,0.1c-0.3,0.5-0.6,0.6-1.2,0.9
						c-0.6,0.3-1.1,1-1.5,1.7c-0.5,1,0,2.6,1.1,2.8c1.1,0.2,1.9-0.6,2.3-1.7c-0.4,1.2-0.6,2.5-0.3,3.7c0.3,1.1,1.7,1.9,2.7,1.2
						c1-0.6,1.4-2,0.8-3c-0.5-0.9-1.8-1.3-2.5-2.1c0-0.1,0-0.2-0.1-0.3l0,0c-0.1-0.4-0.2-0.8-0.3-1.3c0-0.5-0.1-0.9-0.2-1.3
						c-0.2-1.1-0.4-2.3-0.6-3.4c1,1.7,2.6,3.4,4.3,1.9c1.2-1,1.2-2.6,0.2-3.7c-0.5-0.5-1.3-0.8-2-0.7c-0.5,0.1-0.9,0.3-1.4,0.5
						s-0.9,0.3-1.4,0.3c-0.3-3.1-0.5-6.3-0.3-9.4c0-0.2,0-0.4,0-0.6c0.6,2.1,1.8,4.1,4,4c2-0.1,3-2.4,2.5-4.1
						c-0.3-1-1.2-1.6-2.2-1.9c-0.6-0.1-1.3,0-1.9,0c-0.9,0.1-1.4-0.2-2-0.6c0.3-2,0.8-3.9,1.6-5.8c0.5-1.4,1.3-2.7,2.2-4
						c-0.2,1.4-0.1,2.9,0.1,4.1c0.4,2.2,1.8,3.9,3.9,4.6c2.2,0.7,3.6-1.9,3.2-3.8C90.3,8,89.5,6.9,88.4,6c-1.3-1.1-3.2-1.6-3.6-3.5
						l0,0c0.4-0.5,0.7-1.1,1.1-1.7c0-0.4-0.2-0.5-0.4-0.4c-1.9,1.3-3.4,3.2-4.5,5.4c-2.3,0.1-4.4-2.7-6.8-1.1
						c-1.3,0.9-2.3,2.7-1.4,4.3c0.9,1.6,2.3,2.2,4.1,1.8c1.1-0.2,2-1,2.7-1.9c-0.8,2.6-1.3,5.4-1.5,7.8c-0.1,1-0.1,2-0.1,3
						c0,0-0.1,0-0.1,0.1c-0.6,1-2.5,0.9-3.6,1.4c-1,0.4-2,1.1-2.6,2C70.7,25.1,72,27.1,73.8,28.1z"/>
					<g>
						<path class="st13" d="M82,38.8c-0.6-3.4-1.1-6.9-1.7-10.3c-0.6-3.6-1.1-7.1-0.8-10.7c0.2-3.4,1.2-6.8,2.3-10.1
							c0.5-1.6,1.3-3,2.3-4.3c0.7-1,1.8-1.8,2.3-3C86.5,0.2,86.3-0.1,86,0c-2.3,0.9-3.9,3.8-4.9,5.9c-1.5,3.2-2.3,6.9-2.8,10.3
							C77.2,24,79.6,31.4,82,38.8C81.9,38.9,82,38.9,82,38.8L82,38.8z"/>
					</g>
					<g>
						<path class="st13" d="M85.8,9.4c-0.4-1.3-0.8-2.6-1-4C84.7,4.2,85.1,3,85,1.8c0-0.1-0.2-0.3-0.3-0.1c-2,1.8,0.1,6,0.9,7.9
							C85.7,9.6,85.9,9.5,85.8,9.4L85.8,9.4z"/>
					</g>
					<g>
						<path class="st13" d="M75.2,7.6c2.3,0.7,5.8,0.2,6.9-2.4c0-0.1,0-0.2-0.1-0.2c-0.8,0.2-1.3,0.9-2,1.5c-1.3,1-3,1.3-4.6,0.9
							C75.1,7.3,75.1,7.5,75.2,7.6L75.2,7.6z"/>
					</g>
					<g>
						<path class="st13" d="M82.4,18.6c-0.9-0.6-1.7-1.3-2.1-2.4c-0.4-0.8-0.3-1.8-0.7-2.6c0-0.1-0.2-0.1-0.3,0
							c-1,2.1,1.5,4.4,3.1,5.2C82.5,18.8,82.5,18.7,82.4,18.6L82.4,18.6z"/>
					</g>
					<g>
						<path class="st13" d="M75.8,25.7c1.7-1.7,3.4-3.4,2.7-6h-0.1C78.1,21.9,77,24,75.8,25.7C75.7,25.7,75.7,25.7,75.8,25.7
							L75.8,25.7z"/>
					</g>
					<g>
						<path class="st13" d="M83.1,29.8c-0.8-0.2-1.4-0.6-2.1-1.2c-0.6-0.5-1-1.3-1.5-2h-0.1C79.4,28.6,81.4,29.6,83.1,29.8
							C83.2,30,83.2,29.8,83.1,29.8L83.1,29.8z"/>
					</g>
					<g>
						<path class="st13" d="M79,36c1.1-1.7,1.5-3.6,1-5.5c0-0.1-0.2-0.1-0.2,0C79.6,32.2,79.7,34.2,79,36C78.9,36,79,36.1,79,36
							L79,36z"/>
					</g>
				</g>
			</g>
		</g>
		<g>
			<g>
				<defs>
					<ellipse id="SVGID_21_" cx="59.7" cy="47.9" rx="59.7" ry="37.8"/>
				</defs>
				<clipPath id="SVGID_22_">
					<use xlink:href="#SVGID_21_"  style="overflow:visible;"/>
				</clipPath>
				<g class="st19">
					<g>
						<path class="st3" d="M69.3,33.9c-1.8-4.7-3.4-9.4-3.7-14.5c-0.1-2,0-4.2,0.3-6.2c0.3-1.8,1-3.4,1.7-5.2c0-0.1-0.1-0.2-0.2-0.1
							c-2.4,2.7-2.4,7.5-2.3,10.8c0,5.3,2.1,10.4,4.1,15.3C69.3,34,69.4,34,69.3,33.9L69.3,33.9z"/>
					</g>
					<g>
						<path class="st3" d="M67.6,8c-0.8,1.6-1.6,3-1.9,4.8c-0.3,1.7-0.2,3.5,0,5.2c0.4,3.8,1.8,6.9,3.8,10.1h0.1
							c-0.7-1.5-1.5-3-2.1-4.6c-0.5-1.5-0.8-3.2-1.1-4.8c-0.3-1.7-0.3-3.4-0.2-5.2c0.1-2,1-3.6,1.7-5.4C67.7,8,67.6,7.9,67.6,8
							L67.6,8z"/>
					</g>
					<g>
						<path class="st3" d="M65.4,13.7c-0.8,3.7-1,7.7-0.9,11.4c0.1,3.9,1.1,7.5,3.1,10.9c0,0.1,0.2,0,0.1,0c-0.6-1.5-1.4-3-1.9-4.6
							c-0.7-2-0.8-4.1-0.9-6.2c0-1.9,0-3.8,0.2-5.7C65.2,17.6,65.2,15.7,65.4,13.7C65.6,13.6,65.4,13.6,65.4,13.7L65.4,13.7z"/>
					</g>
					<g>
						<path class="st3" d="M66.2,25.1c-0.2,2.7,0.5,6.1,1.8,8.6h0.1c-0.8-2.7-1.7-5.7-1.7-8.5C66.4,24.9,66.2,24.9,66.2,25.1
							L66.2,25.1z"/>
					</g>
					<g>
						<path class="st3" d="M64.6,21.1c-1.5,3.7-1.5,7.3-1.1,11.2c0,0.1,0.1,0.1,0.1,0c0-1.7-0.1-3.4,0-5
							C63.6,25.3,64.2,23.2,64.6,21.1C64.8,21,64.6,21,64.6,21.1L64.6,21.1z"/>
					</g>
					<g>
						<path class="st3" d="M65.7,16.9c0.5,2.5,1.8,4.8,2.9,7.1c0,0.1,0.2,0,0.1,0c-0.4-2.5-2.1-4.7-2.9-7.1
							C65.8,16.7,65.7,16.8,65.7,16.9L65.7,16.9z"/>
					</g>
					<path class="st3" d="M67,36.2c-0.1-0.4,0.1-0.8,0.5-0.9c0.4-0.1,0.8,0.1,0.9,0.5c0.1,0.4-0.1,0.8-0.5,0.9
						C67.5,36.8,67.1,36.6,67,36.2z"/>
					<path class="st3" d="M62.8,32.2c-0.1-0.4,0.1-0.8,0.5-0.9c0.4-0.1,0.8,0.1,0.9,0.5c0.1,0.4-0.1,0.8-0.5,0.9
						C63.4,32.9,62.9,32.6,62.8,32.2z"/>
					<path class="st3" d="M67,33.7c-0.1-0.4,0.1-0.8,0.5-0.9c0.4-0.1,0.8,0.1,0.9,0.5c0.1,0.4-0.1,0.8-0.5,0.9
						C67.6,34.4,67.2,34.1,67,33.7z"/>
					<path class="st3" d="M68.7,34.4c-0.1-0.4,0.1-0.8,0.5-0.9c0.4-0.1,0.8,0.1,0.9,0.5c0.1,0.4-0.1,0.8-0.5,0.9
						C69.2,35.1,68.8,34.8,68.7,34.4z"/>
					<path class="st3" d="M68.4,28.2c-0.1-0.4,0.1-0.8,0.5-0.9c0.4-0.1,0.8,0.1,0.9,0.5c0.1,0.4-0.1,0.8-0.5,0.9
						C68.9,28.8,68.5,28.6,68.4,28.2z"/>
					<path class="st3" d="M67.9,24c-0.1-0.4,0.1-0.8,0.5-0.9c0.4-0.1,0.8,0.1,0.9,0.5c0.1,0.4-0.1,0.8-0.5,0.9
						C68.5,24.7,68.1,24.4,67.9,24z"/>
				</g>
			</g>
		</g>
		<g>
			<g>
				<defs>
					<ellipse id="SVGID_23_" cx="59.7" cy="47.9" rx="59.7" ry="37.8"/>
				</defs>
				<clipPath id="SVGID_24_">
					<use xlink:href="#SVGID_23_"  style="overflow:visible;"/>
				</clipPath>
				<g class="st20">
					<g>
						<path class="st3" d="M15.6,23.7c4.4-2.4,8.7-4.9,12.3-8.5c1.4-1.4,2.7-3.1,3.8-4.9c1-1.6,1.5-3.3,2.1-5c0-0.1,0.2,0,0.2,0
							c0.1,3.5-3.1,7.2-5.3,9.6C25.3,19,20.3,21.6,15.6,23.7C15.6,23.9,15.6,23.8,15.6,23.7L15.6,23.7z"/>
					</g>
					<g>
						<path class="st3" d="M34,5.4c-0.4,1.8-0.7,3.3-1.7,4.9c-0.9,1.4-2.1,2.8-3.4,3.9c-2.8,2.5-5.9,4-9.4,5.1c0,0-0.1,0,0-0.1
							c1.5-0.7,3.1-1.2,4.6-2c1.4-0.8,2.7-1.8,4-2.8c1.3-1.1,2.5-2.4,3.5-3.8c1.2-1.6,1.6-3.4,2.2-5.2C33.9,5.4,34.1,5.4,34,5.4
							L34,5.4z"/>
					</g>
					<g>
						<path class="st3" d="M32,11.1c-1.8,3.3-4.3,6.5-6.8,9.2c-2.7,2.9-5.7,4.9-9.5,6.2c-0.1,0-0.1-0.1-0.1-0.1
							c1.5-0.8,3-1.4,4.5-2.2c1.8-1,3.3-2.5,4.8-4.1c1.3-1.4,2.4-2.9,3.6-4.4C29.6,14.2,30.9,12.7,32,11.1C31.8,10.9,32,11,32,11.1
							L32,11.1z"/>
					</g>
					<g>
						<path class="st3" d="M23.8,19.2c-1.6,2.2-4.4,4.3-7,5.2c0,0-0.1-0.1,0-0.1c2.4-1.5,5-3.1,6.9-5.2
							C23.8,18.9,23.9,19.1,23.8,19.2L23.8,19.2z"/>
					</g>
					<g>
						<path class="st3" d="M27.7,17.2c-1.3,3.8-3.6,6.5-6.5,9.1c-0.1,0-0.2,0-0.1-0.1c1-1.3,2.3-2.5,3.3-3.8
							c1.3-1.5,2.3-3.5,3.1-5.3C27.5,17,27.7,17.1,27.7,17.2L27.7,17.2z"/>
					</g>
					<g>
						<path class="st3" d="M29.6,13.3c-2,1.5-4.6,2.4-6.9,3.4c-0.1,0-0.1-0.1-0.1-0.1c2-1.6,4.6-2.2,6.8-3.4
							C29.6,13.2,29.7,13.3,29.6,13.3L29.6,13.3z"/>
					</g>
					<path class="st3" d="M16,27.1c0.3-0.2,0.4-0.7,0.2-1c-0.2-0.3-0.7-0.4-1-0.2c-0.3,0.2-0.4,0.7-0.2,1
						C15.1,27.2,15.6,27.3,16,27.1z"/>
					<path class="st3" d="M21.7,26.8c0.3-0.2,0.4-0.7,0.2-1s-0.7-0.4-1-0.2c-0.3,0.2-0.4,0.7-0.2,1C20.8,26.9,21.3,27,21.7,26.8z"/>
					<path class="st3" d="M17.5,25.1c0.3-0.2,0.4-0.7,0.2-1c-0.2-0.3-0.7-0.4-1-0.2c-0.3,0.2-0.4,0.7-0.2,1
						C16.7,25.3,17.2,25.4,17.5,25.1z"/>
					<path class="st3" d="M15.9,24.6c0.3-0.2,0.4-0.7,0.2-1c-0.2-0.3-0.7-0.4-1-0.2c-0.3,0.2-0.4,0.7-0.2,1
						C15,24.7,15.5,24.8,15.9,24.6z"/>
					<path class="st3" d="M20.2,20.1c0.3-0.2,0.4-0.7,0.2-1c-0.2-0.3-0.7-0.4-1-0.2c-0.3,0.2-0.4,0.7-0.2,1
						C19.3,20.2,19.8,20.3,20.2,20.1z"/>
					<path class="st3" d="M23.2,17.2c0.3-0.2,0.4-0.7,0.2-1c-0.2-0.3-0.7-0.4-1-0.2c-0.3,0.2-0.4,0.7-0.2,1
						C22.4,17.4,22.9,17.5,23.2,17.2z"/>
				</g>
			</g>
		</g>
		<g>
			<g>
				<defs>
					<ellipse id="SVGID_25_" cx="59.7" cy="47.9" rx="59.7" ry="37.8"/>
				</defs>
				<clipPath id="SVGID_26_">
					<use xlink:href="#SVGID_25_"  style="overflow:visible;"/>
				</clipPath>
				<g class="st21">
					<path class="st5" d="M57.2,23.1L57.2,23.1c1.2-2.3,3.8-3.4,6.2-4.1c2-0.6,4.2-0.7,5.8-2.3c1.1-1.1,2.4-2.8,2-4.5
						c-0.2-0.9-0.7-1.6-1.3-2.2c0,0-1.1-0.8-1.5-0.9c0.3-0.5,0.5-1,0.7-1.7c0-0.1-0.2-0.2-0.3-0.1c-0.3,0.5-0.7,1-1,1.5
						c-1.9-1.2-3.7-2.1-6-1.8c-1.7,0.2-3.3,1.4-4.4,2.8C54.4,13.4,55.6,19.1,57.2,23.1C57,23.3,57.2,23.3,57.2,23.1z"/>
					<g>
						<path class="st6" d="M58.1,20.3c1.1-2.9,4.1-5.1,6.5-7.1c1.9-1.7,5-4,5.2-6.8c0-0.3-0.3-0.4-0.5-0.1c-0.8,1.4-1.6,2.8-2.7,4
							c-1.1,1.2-2.5,2.3-3.7,3.4c-2.1,1.9-3.7,3.9-4.9,6.5C57.8,20.4,58,20.5,58.1,20.3L58.1,20.3z"/>
					</g>
					<g>
						<path class="st6" d="M66,16.6c1.1-2,2.7-5.2,2.4-7.6c0-0.1-0.2-0.1-0.2,0c-0.4,1-0.5,2.3-0.8,3.4C67.1,13.8,66.6,15.2,66,16.6
							C65.8,16.7,65.9,16.7,66,16.6L66,16.6z"/>
					</g>
					<g>
						<path class="st6" d="M63.5,16.8c0.3-0.8,0.7-1.5,1-2.3c0.2-0.6,0.6-1.2,0.5-1.9c0,0-0.1-0.1-0.1,0c-0.4,0.5-0.4,1.2-0.6,1.8
							C64,15.1,63.7,15.9,63.5,16.8C63.3,16.8,63.4,16.9,63.5,16.8L63.5,16.8z"/>
					</g>
					<g>
						<path class="st6" d="M60.1,18.9c0.5-0.8,1.3-2.2,1-3.2H61c-0.2,0.4-0.3,0.9-0.4,1.3C60.4,17.6,60.2,18.2,60.1,18.9
							C60,18.9,60.1,19,60.1,18.9L60.1,18.9z"/>
					</g>
					<g>
						<path class="st6" d="M58.7,17.3c0.5-0.3,1-0.5,1.6-0.8c0.3-0.1,0.8-0.3,0.9-0.8v-0.1c-0.4,0-0.8,0.3-1.2,0.5
							C59.5,16.5,59,16.8,58.7,17.3C58.6,17.3,58.7,17.4,58.7,17.3L58.7,17.3z"/>
					</g>
					<g>
						<path class="st6" d="M58,15.1c1-0.6,2.1-1.2,3.3-1.6c0.5-0.2,1-0.4,1.5-0.5c0.7-0.2,1.4,0,2.1-0.4c0.1,0,0.1-0.2,0-0.2
							C62.5,11.4,59.7,13.7,58,15.1C57.9,15,58,15.1,58,15.1L58,15.1z"/>
					</g>
					<g>
						<path class="st6" d="M58.6,12c2.7-1.8,5.9-2.7,9.1-2.5c0.2,0,0.3-0.2,0.1-0.3c-1-0.8-3,0-4.1,0.2C61.8,9.8,60,10.6,58.6,12
							C58.5,11.9,58.5,12,58.6,12L58.6,12z"/>
					</g>
				</g>
			</g>
		</g>
		<g>
			<g>
				<defs>
					<ellipse id="SVGID_27_" cx="59.7" cy="47.9" rx="59.7" ry="37.8"/>
				</defs>
				<clipPath id="SVGID_28_">
					<use xlink:href="#SVGID_27_"  style="overflow:visible;"/>
				</clipPath>
				<g class="st22">
					<path class="st5" d="M84.1,68.2L84.1,68.2c-1.3,1.8-1.3,4.2-1,6.3c0.2,1.8,0.9,3.5,0.2,5.4c-0.4,1.2-1.3,2.9-2.8,3.1
						c-0.8,0.1-1.5,0-2.2-0.3c0,0-1-0.6-1.2-0.9c-0.3,0.5-0.6,0.9-1,1.3c-0.1,0.1-0.3,0-0.2-0.2c0.3-0.4,0.5-0.9,0.8-1.4
						c-1.6-1-3-2.1-3.5-4.1c-0.4-1.5,0-3.1,0.6-4.5c1.8-3.6,6.8-4.7,10.4-5C84.1,68,84.2,68.2,84.1,68.2z"/>
					<g>
						<path class="st6" d="M82.1,69.9c-1.9,1.9-2.6,5-3.3,7.6c-0.6,2.1-1.4,5.3-3.5,6.5c-0.2,0.1-0.4-0.1-0.3-0.3
							c0.8-1.2,1.6-2.2,2.2-3.6c0.5-1.3,0.9-2.7,1.4-4.1c0.7-2.4,1.7-4.3,3.4-6.1C82.1,69.6,82.2,69.8,82.1,69.9L82.1,69.9z"/>
					</g>
					<g>
						<path class="st6" d="M82,77.4c-1.2,1.6-3.1,3.9-5.1,4.5c-0.1,0-0.2-0.1-0.1-0.2c0.6-0.7,1.6-1.2,2.4-1.8
							C80.2,79.1,81.1,78.3,82,77.4C82,77.2,82.1,77.3,82,77.4L82,77.4z"/>
					</g>
					<g>
						<path class="st6" d="M81.3,75.4c-0.5,0.5-1,1.1-1.5,1.6c-0.4,0.4-0.8,0.9-1.3,1c0,0-0.1,0-0.1-0.1c0.3-0.5,0.8-0.7,1.2-1.1
							c0.5-0.5,1.1-1,1.6-1.5C81.2,75.2,81.3,75.3,81.3,75.4L81.3,75.4z"/>
					</g>
					<g>
						<path class="st6" d="M81.7,72c-0.4,0.7-1.3,1.8-2.2,2c0,0,0,0,0-0.1c0.2-0.3,0.6-0.5,0.9-0.8C80.8,72.8,81.2,72.4,81.7,72
							C81.7,71.9,81.8,71.9,81.7,72L81.7,72z"/>
					</g>
					<g>
						<path class="st6" d="M80,71.4c-0.1,0.5,0,1,0,1.5c0,0.3,0,0.8-0.3,1h-0.1c-0.2-0.3,0-0.8,0-1.1C79.6,72.4,79.7,71.9,80,71.4
							C79.9,71.4,80,71.4,80,71.4L80,71.4z"/>
					</g>
					<g>
						<path class="st6" d="M78,71.7c-0.1,1-0.2,2.1-0.1,3.1c0,0.5,0,0.9,0.1,1.4c0.1,0.6,0.5,1.1,0.4,1.8c0,0.1-0.1,0.1-0.1,0.1
							C76.8,76.5,77.6,73.5,78,71.7C77.9,71.6,78,71.6,78,71.7L78,71.7z"/>
					</g>
					<g>
						<path class="st6" d="M75.7,73.2c-0.4,2.7-0.1,5.6,1.2,8.1c0.1,0.1,0,0.3-0.2,0.2c-1-0.5-1.1-2.3-1.2-3.4
							C75.2,76.5,75.2,74.8,75.7,73.2L75.7,73.2L75.7,73.2z"/>
					</g>
				</g>
			</g>
		</g>
		<g>
			<g>
				<defs>
					<ellipse id="SVGID_29_" cx="59.7" cy="47.9" rx="59.7" ry="37.8"/>
				</defs>
				<clipPath id="SVGID_30_">
					<use xlink:href="#SVGID_29_"  style="overflow:visible;"/>
				</clipPath>
				<g class="st23">
					<path class="st0" d="M104.8,36c1.6,0.9,3.6,0.6,3.9-1.5c0.4-3.1-1.1-6.5-2.2-9.4c-1.4-3.9-2-8-3.4-11.9
						c-1.3-3.5-3.8-5.6-6.9-7.4c-0.5-2.1-1.4-4.1-3.2-5.5c-0.1-0.1-0.2,0-0.2,0.1c0.7,1.7,1.6,3.2,2.3,4.9c-2.5,0.1-4.2,1.8-5.1,4.1
						c-1.1,3.1,0.1,7,1,10c1.2,3.9,3.2,7.4,6.1,10.3C99.5,32.1,102.1,34.4,104.8,36z"/>
					<g>
						<path class="st15" d="M105.5,32.2c-2.8-4.1-5.4-8.3-6.9-13.1c-0.7-2.4-1.3-5-1.7-7.5c-0.2-1.5,0-3.8-1.1-5
							c-0.2-0.2-0.5,0-0.4,0.2c0.6,1.9,0.7,4.1,1,6.1c0.4,2.4,1.1,4.7,1.9,7C99.8,24.5,102.5,28.5,105.5,32.2
							C105.4,32.3,105.5,32.2,105.5,32.2L105.5,32.2z"/>
					</g>
					<g>
						<path class="st15" d="M101.7,14.2C99.9,12,98.4,9,96,7.5c-0.2-0.1-0.4,0.1-0.3,0.3C97.5,10.1,99.5,12.4,101.7,14.2
							C101.7,14.3,101.7,14.3,101.7,14.2L101.7,14.2z"/>
					</g>
					<g>
						<path class="st15" d="M104.1,20.4c-2.5-2.1-4.6-4.9-7.1-7c-0.1-0.1-0.3,0.1-0.2,0.2c1,1.4,2.4,2.5,3.7,3.8
							C101.6,18.5,102.8,19.6,104.1,20.4C104.1,20.5,104.2,20.4,104.1,20.4L104.1,20.4z"/>
					</g>
					<g>
						<path class="st15" d="M105.3,25.9c-2-1.6-4.2-3.2-6-5.1c-0.2-0.2-0.4,0-0.3,0.2c0.6,0.9,1.7,1.4,2.6,2.1
							C102.9,24.1,104,25.1,105.3,25.9C105.3,26.1,105.3,26,105.3,25.9L105.3,25.9z"/>
					</g>
					<g>
						<path class="st15" d="M105.7,29.4c-0.7-0.4-1.4-0.9-2.1-1.3c-0.6-0.4-1.1-0.9-1.8-1.2l0,0C102.6,28.2,104.2,28.9,105.7,29.4
							C105.7,29.5,105.7,29.4,105.7,29.4L105.7,29.4z"/>
					</g>
					<g>
						<path class="st15" d="M102.8,32.4c0-1.1,0-2.3-0.1-3.4c-0.1-0.9-0.2-2-0.9-2.6l0,0c0.2,1,0.5,1.9,0.7,2.9c0.1,1,0.1,2,0.2,3.1
							C102.6,32.5,102.8,32.5,102.8,32.4L102.8,32.4z"/>
					</g>
					<g>
						<path class="st15" d="M98.3,29.3c0.1-1.9,0.6-3.7,0.9-5.6c0.1-0.9,0.4-2.5-0.3-3.2c0,0-0.2,0-0.1,0
							C99.4,23.3,98.4,26.3,98.3,29.3C98.2,29.3,98.3,29.3,98.3,29.3L98.3,29.3z"/>
					</g>
					<g>
						<path class="st15" d="M95.3,20.4c0.3-1.4,0.8-2.7,1.2-4.1c0.3-0.9,0.6-2,0.3-3c0-0.1-0.1-0.1-0.2,0c-0.4,1.1-0.3,2.5-0.6,3.7
							C95.8,18.2,95.5,19.3,95.3,20.4L95.3,20.4L95.3,20.4z"/>
					</g>
					<g>
						<path class="st15" d="M92.2,15.4c0.7-2,1.6-4,2.6-5.9c0.4-0.8,1.3-2,0.9-2.9c-0.1-0.2-0.3-0.1-0.4,0c-0.2,1.2-0.7,2.2-1.2,3.2
							C93.3,11.6,92.6,13.5,92.2,15.4L92.2,15.4L92.2,15.4z"/>
					</g>
				</g>
			</g>
		</g>
	</g>
	<g>
		<g>
			<path class="st24" d="M81.4,20.4c-1.6-2-2.8-4.9-2.6-7.6c0.1-0.9,0.6-2.8,1.8-1.4c0.1-0.7,0.7-1.1,1.2-0.5c0.7-1,1.6,0,1.9,0.8
				c0.4,1.1,0.1,2.6-0.2,3.7c-0.4,1.6-1.1,3.2-1.5,4.8c1.3-1.5,3.3-3.3,5.1-4.3c1.2-0.7,4.6-0.3,2.3,1.3c0.8-0.3,1.7,0.2,0.8,0.9
				c1.7-0.1,2.2,0.8,0.8,1.8c-1.1,0.7-2.7,1.2-4,1.4c-1.5,0.2-4.2,0.2-5.5-0.7"/>
			<path class="st24" d="M81.5,20.8c2.5,0.6,5.2,2.2,6.6,4.5c0.4,0.7,1.2,2.6-0.5,2.2c0.3,0.6,0.1,1.3-0.6,1.1c0,1.2-1.3,0.9-2,0.5
				c-1-0.6-1.6-2-2.1-3.1c-0.6-1.5-1-3.2-1.7-4.7c-0.1,2-0.6,4.7-1.5,6.5c-0.6,1.3-3.4,3-2.6,0.3c-0.5,0.7-1.5,0.8-1.2-0.3
				c-1.3,1.2-2.2,0.6-1.7-1c0.4-1.2,1.4-2.7,2.4-3.6c1.1-1,3.2-2.7,4.8-2.7"/>
			<path class="st24" d="M81.8,20.7c-1.5-2.2-4.5-4.4-7-5.1c-0.5-0.1-2.3-0.6-2.7,0c-0.4,0.7,0.5,1.4,1.1,1.6
				c-0.8-0.1-1.9,0.5-0.8,1.1c-1-0.1-1.1,0.6-0.7,1.3c0.6,1.3,2.7,1.1,4,1.2c2.1,0.1,4.3,0.8,6.3-0.2"/>
		</g>
		<path class="st25" d="M82.4,20.4c0,0.7-0.6,1.3-1.3,1.3s-1.3-0.6-1.3-1.3c0-0.7,0.6-1.3,1.3-1.3C81.8,19.1,82.4,19.7,82.4,20.4z"
			/>
	</g>
	<g>
		<g>
			<path class="st26" d="M25.6,45.5c-0.9-1.1-1.5-2.7-1.4-4.2c0-0.5,0.3-1.5,1-0.8c0.1-0.3,0.4-0.6,0.6-0.3c0.4-0.5,0.8,0,1,0.4
				c0.2,0.6,0,1.4-0.1,2c-0.2,0.9-0.6,1.7-0.8,2.6c0.7-0.8,1.8-1.8,2.8-2.3c0.7-0.3,2.5-0.2,1.2,0.7c0.5-0.1,0.9,0.1,0.4,0.5
				c0.9-0.1,1.2,0.4,0.4,1c-0.6,0.4-1.5,0.7-2.2,0.8c-0.8,0.1-2.3,0.1-3-0.4"/>
			<path class="st26" d="M25.6,45.8c1.4,0.3,2.8,1.2,3.6,2.5c0.2,0.4,0.6,1.4-0.3,1.2c0.1,0.3,0,0.7-0.3,0.6c0,0.6-0.7,0.5-1.1,0.3
				c-0.6-0.3-0.9-1.1-1.1-1.7c-0.3-0.8-0.5-1.7-0.9-2.6c0,1.1-0.3,2.6-0.8,3.6c-0.3,0.7-1.9,1.7-1.4,0.2c-0.3,0.4-0.8,0.5-0.7-0.1
				c-0.7,0.6-1.2,0.3-0.9-0.5c0.2-0.7,0.8-1.5,1.3-2C23.6,46.7,24.8,45.8,25.6,45.8"/>
			<path class="st26" d="M25.8,45.7c-0.8-1.2-2.4-2.4-3.9-2.8c-0.3-0.1-1.2-0.3-1.5,0c-0.2,0.4,0.3,0.8,0.6,0.9
				c-0.4,0-1,0.3-0.4,0.6c-0.5,0-0.6,0.3-0.4,0.7c0.3,0.7,1.5,0.6,2.2,0.6C23.6,46,24.8,46.4,25.8,45.7"/>
		</g>
		<path class="st27" d="M26.1,45.6c0,0.4-0.3,0.7-0.7,0.7s-0.7-0.3-0.7-0.7s0.3-0.7,0.7-0.7C25.8,44.8,26.1,45.2,26.1,45.6z"/>
	</g>
	<g>
		<g>
			<path class="st25" d="M50.9,74.8c-0.9-1.1-1.5-2.7-1.4-4.2c0-0.5,0.3-1.5,1-0.8c0.1-0.3,0.4-0.6,0.6-0.3c0.4-0.5,0.8,0,1,0.4
				c0.2,0.6,0,1.4-0.1,2c-0.2,0.9-0.6,1.7-0.8,2.6c0.7-0.8,1.8-1.8,2.8-2.3c0.7-0.3,2.5-0.2,1.2,0.7c0.5-0.1,0.9,0.1,0.4,0.5
				c0.9-0.1,1.2,0.4,0.4,1c-0.6,0.4-1.5,0.7-2.2,0.8C53,75.3,51.5,75.3,50.9,74.8"/>
			<path class="st25" d="M51,75.1c1.4,0.3,2.8,1.2,3.6,2.5c0.2,0.4,0.6,1.4-0.3,1.2c0.1,0.3,0,0.7-0.3,0.6c0,0.6-0.7,0.5-1.1,0.3
				c-0.6-0.3-0.9-1.1-1.1-1.7c-0.3-0.8-0.5-1.7-0.9-2.6c0,1.1-0.3,2.6-0.8,3.6c-0.3,0.7-1.9,1.7-1.4,0.2c-0.3,0.4-0.8,0.5-0.7-0.1
				c-0.7,0.6-1.2,0.3-0.9-0.5c0.2-0.7,0.8-1.5,1.3-2C49,76,50.2,75.1,51,75.1"/>
			<path class="st25" d="M51.2,75c-0.8-1.2-2.4-2.4-3.9-2.8c-0.3-0.1-1.2-0.3-1.5,0s0.3,0.8,0.6,0.9c-0.4,0-1,0.3-0.4,0.6
				c-0.5,0-0.6,0.3-0.4,0.7c0.3,0.7,1.5,0.6,2.2,0.6C48.9,75.3,50.2,75.7,51.2,75"/>
		</g>
		<path class="st27" d="M51.5,74.9c0,0.4-0.3,0.7-0.7,0.7s-0.7-0.3-0.7-0.7s0.3-0.7,0.7-0.7C51.1,74.2,51.5,74.5,51.5,74.9z"/>
	</g>
	<g>
		<g>
			<path class="st25" d="M108.3,44.1c2.7-0.8,7.1,0,8.8,2.3c2.1,2.9-0.8,4.4-3.4,3.1c3.4,2.2,1.2,6.5-1.4,3.1
				c2.3,4.8-4.7,5.9-6.3,1.1c-0.9-2.9-0.6-5.9,0.8-8.5c-2,3.4-5.9,6.8-10.2,6.3c-4.8-0.5-3.5-3.2-0.8-5.5c-3.5,0.4-4.3-4.6-0.9-3.9
				C93,41.8,92.2,39.7,93,38c1.3-2.8,4-1.9,6.3-1c3.2,1.2,5.3,3.5,7.1,6.4"/>
			<path class="st25" d="M107,44.3c3.7-0.2,9.5-2.9,10.1-7c0.5-3.4-2.1-3.4-4.3-1.6c3.7-2.8-2.5-6.4-3.4-1.9
				c1.3-2.8-2.6-2.6-3.8-0.7c-2,3-0.5,8.9,0.4,12"/>
			<path class="st27" d="M106.2,45c-0.5-0.4-0.6-1.1-0.2-1.7c0.4-0.6,1.1-0.6,1.7-0.2c0.6,0.4,0.6,1.1,0.2,1.7
				C107.5,45.3,106.7,45.4,106.2,45z"/>
		</g>
		<g>
			<g>
				<path class="st28" d="M112.1,44.9c-1.2-0.6-3.2-1.7-4.5-0.5c0,0,0,0.1,0.1,0.1C109.2,43.8,110.7,44.5,112.1,44.9
					C112.1,45,112.1,44.9,112.1,44.9L112.1,44.9z"/>
			</g>
			<g>
				<path class="st28" d="M109.8,46.6c-0.3-0.3-0.7-0.6-1-0.9c-0.4-0.4-0.6-0.9-0.8-1.3h-0.1C108,45.4,108.9,46.1,109.8,46.6
					C109.8,46.7,109.9,46.6,109.8,46.6L109.8,46.6z"/>
			</g>
			<g>
				<path class="st28" d="M108.4,48.4c-0.4-0.5-0.7-1.1-1-1.7c-0.1-0.3-0.3-0.7-0.3-1.1c0-0.3,0.1-0.5,0.2-0.8c0,0,0-0.1-0.1-0.1
					c-0.7,0.1-0.4,1.2-0.2,1.6c0.2,0.8,0.8,1.5,1.3,2.2C108.4,48.5,108.5,48.4,108.4,48.4L108.4,48.4z"/>
			</g>
			<g>
				<path class="st28" d="M106.7,44.5c-1.3,0.6-1.7,1.8-1.6,3.2h0.1C105.3,46.5,105.7,45.3,106.7,44.5
					C106.9,44.6,106.8,44.5,106.7,44.5L106.7,44.5z"/>
			</g>
			<g>
				<path class="st28" d="M106.1,44.1c-1.1-0.5-2.4,0.1-3.2,0.9c0,0,0,0.1,0.1,0.1c0.9-0.5,1.8-1.2,3-0.9
					C106.2,44.4,106.3,44.2,106.1,44.1L106.1,44.1z"/>
			</g>
			<g>
				<path class="st28" d="M106.2,43.4c-0.9-0.4-1.9-1.1-2.2-2.1h-0.1c0,1.2,1.3,1.9,2.2,2.3C106.3,43.7,106.3,43.5,106.2,43.4
					L106.2,43.4z"/>
			</g>
			<g>
				<path class="st28" d="M107.1,43.1c-0.6-0.7-0.8-1.7-0.5-2.6c0,0,0-0.1-0.1,0c-0.9,0.7-0.2,2.2,0.5,2.8
					C107.1,43.2,107.2,43.1,107.1,43.1L107.1,43.1z"/>
			</g>
			<g>
				<path class="st28" d="M107.4,43.4c0.2-0.7,0.6-1.4,1.4-1.6v-0.1c-0.8,0.1-1.3,0.9-1.5,1.6C107.2,43.4,107.4,43.5,107.4,43.4
					L107.4,43.4z"/>
			</g>
			<g>
				<path class="st28" d="M107.7,43.7c0.5-0.7,1.3-0.8,2-1c0.1,0,0.1-0.1,0-0.1c-0.9-0.2-1.8,0.3-2.2,1
					C107.5,43.7,107.7,43.9,107.7,43.7L107.7,43.7z"/>
			</g>
			<g>
				<path class="st28" d="M108.4,41.3c-0.4,0.5,0.4,1.1,0.8,0.6C109.6,41.3,108.8,40.7,108.4,41.3L108.4,41.3z"/>
			</g>
			<g>
				<path class="st28" d="M109.7,42.3c-0.3,0.4,0.3,0.9,0.6,0.5S110,41.9,109.7,42.3L109.7,42.3z"/>
			</g>
			<g>
				<path class="st28" d="M109.4,46.5c-0.3,0.4,0.3,0.8,0.6,0.4C110.3,46.6,109.7,46.1,109.4,46.5L109.4,46.5z"/>
			</g>
			<g>
				<path class="st28" d="M109.4,43.7c-0.1,0.1-0.2,0.2-0.1,0.4c0,0.2,0.2,0.3,0.4,0.3c0.1,0,0.2-0.1,0.3-0.2
					C110.1,43.8,109.6,43.5,109.4,43.7L109.4,43.7z"/>
			</g>
			<g>
				<path class="st28" d="M111.9,44.7c-0.1,0.1-0.2,0.2-0.1,0.4c0,0.2,0.2,0.3,0.4,0.3c0.1,0,0.2-0.1,0.3-0.2
					C112.6,44.8,112.2,44.5,111.9,44.7L111.9,44.7z"/>
			</g>
			<g>
				<path class="st28" d="M108.5,47.8c-0.2,0-0.4,0-0.5,0.2c-0.1,0.2-0.1,0.5,0.1,0.6l0,0c0,0-0.1-0.1-0.1-0.2c0,0,0,0.1,0.1,0.1
					c0.2,0.2,0.6,0.2,0.8,0C109.1,48.3,108.9,47.8,108.5,47.8L108.5,47.8z"/>
			</g>
			<g>
				<path class="st28" d="M104.8,47c-0.3,0.5,0.4,1,0.7,0.5C105.9,47.1,105.2,46.6,104.8,47L104.8,47z"/>
			</g>
			<g>
				<path class="st28" d="M106.8,45.7c-0.1,0-0.3,0.2-0.3,0.4c0,0.1,0,0.2,0.1,0.3c0,0,0.3,0.2,0.1,0.1c0.2,0.2,0.7,0,0.7-0.3
					C107.4,45.8,107.1,45.6,106.8,45.7L106.8,45.7z"/>
			</g>
			<g>
				<path class="st28" d="M104,44L104,44c0,0.4,0.3,0.6,0.6,0.5l0,0c0.3-0.1,0.3-0.6,0.1-0.8C104.5,43.5,104.1,43.7,104,44L104,44z"
					/>
			</g>
			<g>
				<path class="st28" d="M102.8,44.7c-0.2,0.3,0.3,0.8,0.5,0.4C103.6,44.8,103.1,44.4,102.8,44.7L102.8,44.7z"/>
			</g>
			<g>
				<path class="st28" d="M103.6,41.6L103.6,41.6c0,0.2,0.1,0.3,0.3,0.3l0,0C105.1,41.9,103.3,40.5,103.6,41.6L103.6,41.6z"/>
			</g>
			<g>
				<path class="st28" d="M105.8,40.6L105.8,40.6c-0.1,0.1,0,0.3,0,0.4c0.1,0.2,0.2,0.3,0.5,0.3l0,0c0.4,0.1,0.8-0.4,0.6-0.8
					c-0.1-0.2-0.3-0.3-0.5-0.3C106.1,40.1,105.9,40.3,105.8,40.6L105.8,40.6z"/>
			</g>
			<g>
				<path class="st28" d="M103.4,41.1L103.4,41.1c-0.1,0.3,0,0.6,0.3,0.7c0.2,0.1,0.6,0,0.7-0.3l0,0c0.1-0.3,0-0.6-0.3-0.7
					S103.5,40.8,103.4,41.1L103.4,41.1z"/>
			</g>
			<g>
				<path class="st28" d="M105.4,42.7C105.4,42.6,105.4,42.6,105.4,42.7c-0.5-0.4-1,0.3-0.6,0.5h0.1C105.3,43.5,105.7,43,105.4,42.7
					L105.4,42.7z"/>
			</g>
			<g>
				<path class="st28" d="M107.9,42.2c-0.2-0.1-0.4,0-0.5,0.1c-0.1,0.1,0,0.3,0,0.4c0,0,0.1,0.1,0,0c0-0.1-0.1-0.3-0.1-0.4l0,0
					c0,0.1,0,0.3,0,0.4l0,0c0.1,0.2,0.5,0.2,0.6,0C108.2,42.6,108.2,42.3,107.9,42.2L107.9,42.2z"/>
			</g>
			<g>
				<path class="st28" d="M107.9,43.8c-0.2-0.3-0.6-0.2-0.8,0c0,0,0.1-0.1,0.2-0.1l0,0c-0.2,0.1-0.4,0.5-0.1,0.7c0-0.1,0,0,0,0
					s0.3,0.1,0.1,0c0.2,0,0.3,0,0.4,0C108,44.3,108,44,107.9,43.8L107.9,43.8z"/>
			</g>
		</g>
	</g>
	<g>
		<g>
			<path class="st26" d="M75.7,76.4c2.7-0.8,7.1,0,8.8,2.3c2.1,2.9-0.8,4.4-3.4,3.1c3.4,2.2,1.2,6.5-1.4,3.1
				c2.3,4.8-4.7,5.9-6.3,1.1c-0.9-2.9-0.6-5.9,0.8-8.5c-2,3.4-5.9,6.9-10.2,6.4c-4.8-0.5-3.5-3.2-0.8-5.5c-3.5,0.4-4.3-4.6-0.9-3.9
				c-1.9-0.3-2.7-2.4-1.9-4.1c1.3-2.8,4-1.9,6.3-1c3.2,1.2,5.3,3.5,7.1,6.4"/>
			<path class="st26" d="M74.4,76.6c3.7-0.2,9.5-2.9,10.1-7c0.5-3.4-2.1-3.4-4.3-1.6c3.7-2.8-2.5-6.4-3.4-1.9
				c1.3-2.8-2.6-2.6-3.8-0.7c-2,3-0.5,8.9,0.4,12"/>
			<path class="st27" d="M73.6,77.2c-0.5-0.4-0.6-1.1-0.2-1.7c0.4-0.5,1.1-0.6,1.7-0.2c0.5,0.4,0.6,1.1,0.2,1.7
				C74.9,77.5,74.1,77.7,73.6,77.2z"/>
		</g>
		<g>
			<g>
				<path class="st28" d="M79.5,77.2c-1.2-0.6-3.2-1.7-4.5-0.5c0,0,0,0.1,0.1,0.1C76.6,76.1,78.1,76.8,79.5,77.2
					C79.5,77.3,79.6,77.2,79.5,77.2L79.5,77.2z"/>
			</g>
			<g>
				<path class="st28" d="M77.2,78.9c-0.3-0.3-0.7-0.6-1-0.9c-0.4-0.4-0.6-0.9-0.8-1.3h-0.1C75.4,77.6,76.3,78.4,77.2,78.9
					C77.2,79,77.3,78.9,77.2,78.9L77.2,78.9z"/>
			</g>
			<g>
				<path class="st28" d="M75.9,80.7c-0.4-0.5-0.7-1.1-1-1.7c-0.1-0.3-0.3-0.7-0.3-1.1c0-0.3,0.1-0.5,0.2-0.8c0,0,0-0.1-0.1-0.1
					c-0.7,0.1-0.4,1.2-0.2,1.6c0.2,0.8,0.8,1.5,1.3,2.2C75.8,80.9,75.9,80.7,75.9,80.7L75.9,80.7z"/>
			</g>
			<g>
				<path class="st28" d="M74.1,76.8c-1.3,0.6-1.7,1.8-1.6,3.2h0.1C72.7,78.8,73.1,77.6,74.1,76.8C74.3,76.9,74.2,76.8,74.1,76.8
					L74.1,76.8z"/>
			</g>
			<g>
				<path class="st28" d="M73.6,76.4c-1.1-0.5-2.4,0.1-3.2,0.9c0,0,0,0.1,0.1,0.1c0.9-0.5,1.8-1.2,3-0.9
					C73.6,76.7,73.7,76.5,73.6,76.4L73.6,76.4z"/>
			</g>
			<g>
				<path class="st28" d="M73.6,75.7c-0.9-0.4-1.9-1.1-2.2-2.1h-0.1c0,1.2,1.3,1.9,2.2,2.3C73.7,75.9,73.8,75.7,73.6,75.7L73.6,75.7
					z"/>
			</g>
			<g>
				<path class="st28" d="M74.5,75.3c-0.6-0.7-0.8-1.7-0.5-2.6c0,0,0-0.1-0.1,0c-0.9,0.7-0.2,2.2,0.5,2.8
					C74.5,75.5,74.6,75.4,74.5,75.3L74.5,75.3z"/>
			</g>
			<g>
				<path class="st28" d="M74.9,75.6c0.2-0.7,0.6-1.4,1.4-1.6v-0.1c-0.8,0.1-1.3,0.9-1.5,1.6C74.6,75.7,74.8,75.8,74.9,75.6
					L74.9,75.6z"/>
			</g>
			<g>
				<path class="st28" d="M75.2,76c0.5-0.7,1.3-0.8,2-1c0.1,0,0.1-0.1,0-0.1c-0.9-0.2-1.8,0.3-2.2,1C74.9,76,75.1,76.1,75.2,76
					L75.2,76z"/>
			</g>
			<g>
				<path class="st28" d="M75.8,73.6c-0.4,0.5,0.4,1.1,0.8,0.6C77,73.7,76.2,73.1,75.8,73.6L75.8,73.6z"/>
			</g>
			<g>
				<path class="st28" d="M77.1,74.6c-0.3,0.4,0.3,0.9,0.6,0.5C78,74.7,77.4,74.2,77.1,74.6L77.1,74.6z"/>
			</g>
			<g>
				<path class="st28" d="M76.9,78.8c-0.3,0.4,0.3,0.8,0.6,0.4C77.7,78.8,77.2,78.4,76.9,78.8L76.9,78.8z"/>
			</g>
			<g>
				<path class="st28" d="M76.8,76c-0.1,0.1-0.2,0.2-0.1,0.4c0,0.2,0.2,0.3,0.4,0.3c0.1,0,0.2-0.1,0.3-0.2
					C77.5,76.1,77.1,75.7,76.8,76L76.8,76z"/>
			</g>
			<g>
				<path class="st28" d="M79.3,77c-0.1,0.1-0.2,0.2-0.1,0.4c0,0.2,0.2,0.3,0.4,0.3c0.1,0,0.2-0.1,0.3-0.2
					C80,77.1,79.6,76.7,79.3,77L79.3,77z"/>
			</g>
			<g>
				<path class="st28" d="M75.9,80c-0.2,0-0.4,0-0.5,0.2c-0.1,0.2-0.1,0.5,0.1,0.6l0,0c0,0-0.1-0.1-0.1-0.2c0,0,0,0.1,0.1,0.1
					c0.2,0.2,0.6,0.2,0.8,0C76.5,80.6,76.3,80.1,75.9,80L75.9,80z"/>
			</g>
			<g>
				<path class="st28" d="M72.2,79.3c-0.3,0.5,0.4,1,0.7,0.5C73.3,79.4,72.6,78.8,72.2,79.3L72.2,79.3z"/>
			</g>
			<g>
				<path class="st28" d="M74.2,78c-0.1,0-0.3,0.2-0.3,0.4c0,0.1,0,0.2,0.1,0.3c0,0,0.3,0.2,0.1,0.1c0.2,0.2,0.7,0,0.7-0.3
					C74.9,78.1,74.5,77.9,74.2,78L74.2,78z"/>
			</g>
			<g>
				<path class="st28" d="M71.5,76.3L71.5,76.3c0,0.4,0.3,0.6,0.6,0.5l0,0c0.3-0.1,0.3-0.6,0.1-0.8C71.9,75.8,71.5,76,71.5,76.3
					L71.5,76.3z"/>
			</g>
			<g>
				<path class="st28" d="M70.2,77c-0.2,0.3,0.3,0.8,0.5,0.4C71,77.1,70.5,76.6,70.2,77L70.2,77z"/>
			</g>
			<g>
				<path class="st28" d="M71,74L71,74c0,0.2,0.1,0.3,0.3,0.3l0,0C72.6,74.2,70.7,72.9,71,74L71,74z"/>
			</g>
			<g>
				<path class="st28" d="M73.2,72.9L73.2,72.9c-0.1,0.1,0,0.3,0,0.4c0.1,0.2,0.2,0.3,0.5,0.3l0,0c0.4,0.1,0.8-0.4,0.6-0.8
					c-0.1-0.2-0.3-0.3-0.5-0.3C73.5,72.5,73.3,72.6,73.2,72.9L73.2,72.9z"/>
			</g>
			<g>
				<path class="st28" d="M70.8,73.4L70.8,73.4c-0.1,0.3,0,0.6,0.3,0.7c0.2,0.1,0.6,0,0.7-0.3l0,0c0.1-0.3,0-0.6-0.3-0.7
					C71.3,73,71,73.1,70.8,73.4L70.8,73.4z"/>
			</g>
			<g>
				<path class="st28" d="M72.8,75C72.8,74.9,72.8,74.9,72.8,75c-0.5-0.4-1,0.3-0.6,0.5h0.1C72.7,75.7,73.1,75.3,72.8,75L72.8,75z"
					/>
			</g>
			<g>
				<path class="st28" d="M75.3,74.5c-0.2-0.1-0.4,0-0.5,0.1c-0.1,0.1,0,0.3,0,0.4c0,0,0.1,0.1,0,0c0-0.1-0.1-0.3-0.1-0.4l0,0
					c0,0.1,0,0.3,0,0.4l0,0c0.1,0.2,0.5,0.2,0.6,0C75.7,74.9,75.6,74.6,75.3,74.5L75.3,74.5z"/>
			</g>
			<g>
				<path class="st28" d="M75.3,76.1c-0.2-0.3-0.6-0.2-0.8,0c0,0,0.1-0.1,0.2-0.1l0,0c-0.2,0.1-0.4,0.5-0.1,0.7c0-0.1,0,0,0,0
					s0.3,0.1,0.1,0c0.2,0,0.3,0,0.4,0C75.5,76.6,75.4,76.3,75.3,76.1L75.3,76.1z"/>
			</g>
		</g>
	</g>
	<g>
		<g>
			<g>
				<path class="st29" d="M77.2,37.6c-0.8,0.9-1.6,1.9-2.6,2.4c0.3-1.2,0.3-2.6,0.1-3.8c-0.1-0.8-0.7-2.3-1.8-2.2
					c-1,0-1.6,1.5-1.9,2.4c-0.4,1.3-0.3,2.7,0.4,3.9c0.3,0.5,0.8,0.9,1.3,1.1c-0.5,0.6-1.3,1.3-2.1,0.9c-0.9-0.5-1-1.9-0.9-2.8
					c0-0.5,0.3-1.2,0.4-1.7c0.1-0.6,0.2-1.4,0.5-1.9c0.8-1.2-1-2.5-1.9-1.5c-1.2,1.2-1.1,3-0.8,4.6c0,0,0,0,0,0.1
					c-0.4,0.9-1,1.8-1.7,2.5c-0.2,0.1-0.3,0.3-0.5,0.4c-0.1,0-0.1,0-0.2,0c-0.2,0-0.4,0-0.6-0.2c-0.2-0.4-0.5-0.8-0.8-1.2
					c-0.4-0.8-0.2-2.1-0.1-3c0-0.4,0-0.8,0-1.1c0.1-0.1,0.2-0.3,0.4-0.5c1.3-1.5,2.4-3.2,3-5.1c0.6-1.8,1.9-7.1-1.1-7.5
					c-1.5-0.2-2.6,1.3-3.1,2.5c-0.9,2-1.3,4.2-1.5,6.4c-0.2,2.2-0.3,4.5,0,6.7v0.1c-0.3,0.5-0.6,1-0.9,1.5c0,0.1-0.1,0.1-0.1,0.2
					l0,0c-0.8,1-2,1.8-2.9,0.2c-0.3-0.5-0.3-1.2-0.3-1.7c0-1,0-2,0-3.1c0,0,0-0.1,0-0.2c0.2-0.2,0.4-0.4,0.6-0.7
					c2.2-2.5,3.9-6.1,3.5-9.5c-0.1-1.1-0.8-2.4-2.1-2.3c-1.2,0.1-2,1.6-2.5,2.5c-2.1,3.8-2.2,8.2-2.1,12.4c0,0.2,0,0.5,0,0.7
					c-0.6,1-1.2,2-2.2,2.8c-0.5,0-0.9,0.1-1.3-0.2c-0.2-0.2-0.2-0.7-0.3-0.9c0-0.2-0.1-0.4-0.1-0.6c0.2-0.1,0.4-0.2,0.6-0.3
					c1-0.8,1.5-1.9,2-3c0.4-1,0.4-2.5-0.3-3.4c-0.7-0.8-1.7-0.4-2.4,0.3c-1.5,1.5-2.4,4.1-2.4,6.2c0,1.5,0.5,2.8,1.9,3.3
					c2.7,0.8,4.4-2.5,4.8-3.3c0.2,0.7,0.5,1.4,1,2.1c0.6,0.8,1.9,1.5,2.9,1c0.6-0.3,1.2-0.8,1.6-1.3l0,0c0.5-0.6,1-1.3,1.4-1.9
					c0.3,1.1,0.9,2.2,1.9,2.8c0.5,0.4,1.4,0.6,2.3,0.1c1.1-0.5,1.8-1.8,2.3-2.9c0.2,0.9,0.4,1.9,1,2.8c0.7,1.1,2.1,1.4,3.3,0.8
					c0.7-0.4,1.3-1,1.6-1.8c0.4,0,0.8-0.1,1.2-0.4c1.1-0.7,1.8-2.1,2.2-3.3C77.5,37.6,77.3,37.5,77.2,37.6z M51.5,34
					c0.5-0.4,0.7,0.2,0.8,0.6c0.1,0.5,0,1.1-0.2,1.6c-0.2,0.8-0.7,1.7-1.4,2.3c-0.1,0.1-0.1,0.1-0.2,0.2c0-1,0.1-2.1,0.3-3.1
					C50.8,35.1,51,34.4,51.5,34z M65.4,25.8c0.1-0.4,0.3-1,0.8-1c0.6,0,0.7,1.1,0.8,1.5c0.1,1.6-0.3,3.4-0.9,4.9
					c-0.5,1.5-1.4,2.7-2.3,3.9c0-1.3,0.1-2.6,0.3-3.9C64.4,29.4,64.8,27.5,65.4,25.8z M57.1,33.1c0.1-1,0.2-2,0.4-3
					c0.1-1,0.2-2,0.3-3c0.1-0.7,0.2-1.3,0.5-1.9c0.3-0.7,1.1-1.1,1.6-0.3c0.7,1,0.3,2.7,0.1,3.8c-0.3,2-1.1,4.1-2.3,5.8
					c-0.2,0.4-0.5,0.7-0.8,1.1C57,34.8,57,33.9,57.1,33.1z M72.7,35c0.7-0.8,1.2,1.8,1.2,2.2c0,1.1-0.2,2-0.7,3
					c-0.9-0.3-1.4-1.6-1.4-2.5C71.8,36.9,72.2,35.7,72.7,35z"/>
				<path class="st29" d="M47.3,37.8L47.3,37.8c-0.1-0.1-0.1-0.2,0-0.3c0.1-0.9,0.3-1.8,0.3-2.7c0-0.7,0.2-1.8-0.1-2.3
					c-0.1-0.2-0.4-0.3-0.7-0.3c-0.8,0.2-1,1.2-1.1,2c-0.1,0.9-0.3,1.8-0.4,2.8c0,0.3-0.1,0.7-0.1,1.1c-0.1,0-0.3,0-0.4,0.1
					c-0.7,0.1-1.5,0.3-2.3,0.4c0-0.3,0-0.6,0-0.8c0.1-1.4,0.2-2.7,0.3-4.1c0.1-1.2,1-2.5,0.3-3.8c-0.2-0.4-0.9-0.7-1.4-0.4
					c-1,0.7-1.2,2.3-1.5,3.5c-0.2,1.4-0.3,3-0.4,4.4c0,0.6-0.1,1.3-0.1,1.9c-1.1,0.4-2.1,0.9-3.2,1.4c-0.2,0.1,0,0.4,0.1,0.4
					c1,0,2-0.3,3-0.6c0,0.4,0,0.8,0,1.1c0,1.2,0.1,2.8,0.9,3.8c0.1,0.1,0.4,0.1,0.5,0c0.8-0.8,1-2.4,1.1-3.5c0-0.7,0.1-1.4,0.1-2.1
					c0.9-0.2,1.8-0.3,2.7-0.5c0,0.3,0,0.6,0,0.9c0,0.8,0,2.1,0.6,2.7c0.1,0.1,0.3,0.1,0.5,0c0.6-0.5,0.6-1.6,0.7-2.4
					c0-0.4,0.1-0.9,0.1-1.3l0,0C47.8,39,48.1,37.9,47.3,37.8z"/>
			</g>
			<g>
				<path class="st29" d="M32.7,52.6c-0.3-0.8-0.5-1.6-0.5-2.5c0-0.7,0.5-1.8,1.4-1.4c1.1,0.5,1.9,2.5,2.2,3.7c0,0.1,0.2,0.1,0.2,0
					c0.1-1.9-1.2-6-3.9-4.8c-2.8,1.3-1.7,5.7-0.8,7.9c0.4,1.1,0.8,2.3,1.1,3.5c0.1,0.6,0.2,1.2,0.2,1.9c0,0.3,0,0.6,0,0.9
					c0,0.1,0,0.9,0,0.7c0,0.2-0.1,0.4-0.1,0.7c0,0.1,0,0.2-0.1,0.2c-0.2,0.2-0.7,0.5,0,0.2c-0.3,0.1-0.7,0.3-1.1,0.4
					c-1.7,0.2-1.7-2.7-2.1-3.9c0-0.2-0.3-0.2-0.4,0c-0.2,1.3,0.1,2.7,0.8,3.8c0.7,1.3,1.4,2.6,3.2,2.5c1.7-0.1,2.9-0.7,3.6-2.4
					c0.5-1.4,0.2-3-0.2-4.4C35.2,57.2,33.7,55.1,32.7,52.6z M32.4,63.5C32.4,63.6,32.4,63.6,32.4,63.5L32.4,63.5z"/>
				<path class="st29" d="M44.2,48.5c-1.4,0.4-2.2,2-2.7,3.3c-0.7,1.7-1,3.4-1.5,5.2c0,0,0,0.1,0,0.2c-0.1-1.5-0.1-3-0.2-4.5
					c0-1.4-2-1.4-2.2,0c-0.3,2.7,0.1,5.5,0.4,8.1c0.1,1.3,0.3,2.7,0.4,4.1c0.1,1.3,0,2.6,0.2,3.9c0.2,1,1.6,0.9,1.9,0
					c0.4-1.2,0.2-2.6,0.1-3.9c0-0.4,0-0.8-0.1-1.3c0.8,0.1,1.7-0.1,2.4-0.5c1.8-1.1,2.5-3.3,2.9-5.3c0.5-2.4,1.1-5.6,0.4-8
					C46,48.8,45.2,48.3,44.2,48.5z M40.6,60c0.3-1.8,0.7-3.5,1.2-5.3c0.3-1.3,0.7-2.6,1.4-3.7c0.2-0.4,1.4-2,1.8-1
					C45.9,52.2,43.4,62.2,40.6,60z"/>
				<path class="st29" d="M56.5,46.1c-2.2-0.2-3.9,2.7-4.7,4.3c-0.4,0.8-0.8,1.7-1.2,2.6c0-0.1,0-0.1,0-0.2c0.1-1.5,0.3-3-0.1-4.5
					c-0.2-0.7-1.1-0.8-1.5-0.2c-1.5,2.6-1.5,6.5-1.4,9.5c0,1.5,0.2,3.1,0.5,4.7c0.2,1.5,0.6,3,1.9,4c0.2,0.2,0.6,0,0.7-0.3
					c0.4-1.3,0.1-2.6-0.1-3.9c-0.1-1-0.2-2.1-0.2-3.2c0.1,0,0.2-0.1,0.3-0.1c0.5-0.4,1.1-0.8,1.7-1.1c0.6,0.8,0.4,2.6,0.5,3.6
					c0,1.7,0.8,5.4,3.4,4.6c0.4-0.1,0.8-0.5,0.8-1c-0.1-1-0.7-1.8-1-2.8c-0.2-1-0.3-2.1-0.5-3.2c-0.2-0.8-0.5-1.8-1.1-2.4
					c0.2-0.1,0.4-0.3,0.6-0.4c1.2-0.9,2.1-2.1,2.7-3.4C58.3,50.8,59,46.4,56.5,46.1z M55.9,52.6c-1.1,1.8-3.1,2.6-4.9,3.6
					c0.3-1,0.6-2,1.1-3c0.8-1.8,1.9-4,3.5-5.2c0.8-0.6,1.1-0.3,1.3,0.6C57.2,50,56.6,51.4,55.9,52.6z"/>
				<path class="st29" d="M63,50.4c-0.1-0.1-0.3-0.1-0.5,0c-0.8,0.7-0.6,2.3-0.7,3.3c-0.1,1.4-0.2,2.9-0.3,4.4
					c-0.2,2.2-0.5,4.5-0.6,6.8c0,1.6,2.4,1.4,2.5-0.1c0.2-2.3,0.4-4.5,0.5-6.8c0-1.4,0-2.9,0-4.4C63.8,52.6,63.9,51,63,50.4z"/>
				<path class="st29" d="M63.2,46.7c-0.1,0-0.2-0.1-0.4-0.1c-0.1,0-0.3,0-0.5,0c-0.4,0-0.8,0.2-1.1,0.5c-0.1,0.1-0.2,0.2-0.2,0.3
					c0.1-0.1,0.1-0.2,0.2-0.3c-0.4,0.4-0.5,1.1-0.4,1.6c0.2,0.8,1.2,1.3,2.1,1c0.8-0.2,1.3-1.2,1-2.1C63.9,47.2,63.6,46.9,63.2,46.7
					z"/>
				<path class="st29" d="M74.2,47.4c-0.9,0.2-1.5,1.1-2,1.8c-0.9,1.2-1.6,2.7-2.2,4.1c-0.1,0.3-0.3,0.6-0.4,1c0-0.9,0-1.8,0-2.8
					c0-1.4,0.1-2.9-0.4-4.2c-0.3-0.8-1.7-0.8-2.1,0c-0.6,1.3-0.4,2.8-0.4,4.2c0,1.5,0,3,0.1,4.5c0,1.5,0.1,3,0.2,4.5
					c0,1-0.2,2.3,0,3.3c0.3,1.3,2.2,0.7,2-0.5c0.1,0.5,0.1-0.6,0.1-0.8c0-0.6,0-1.3,0-1.9c0-0.2,0-0.4,0-0.7c0.5-1.4,1-2.7,1.6-4
					c0.9-2.2,1.6-4.8,3.2-6.6c1-1.1,0.7,0.6,0.6,1.3c-0.2,1.4-0.7,2.8-1.1,4.1c-0.7,2.6-1,5.6-1.1,8.4c-0.2,1,0.5,2.2,1.5,2.5
					c1.3,0.4,2.5-0.6,2.6-2c0.3-3.5,0.5-7.1,0.7-10.6C77.2,51.4,76.9,46.8,74.2,47.4z"/>
				<path class="st29" d="M87.6,65.1c0-1.7-0.2-3.5-0.5-5.2c0-0.1,0-0.4,0-0.8c0-0.3,0-0.7,0.1-1.1c0.1-1.4-2.1-2-2.7-0.7
					c-0.7,1.4-0.8,3-1.6,4.4c0,0.1-0.2,0.3-0.3,0.3c-0.3,0.1-0.4,0.1-0.6,0.1c-0.1,0-0.1,0-0.1,0c-0.2-0.1-0.3-0.2-0.5-0.4
					c-1.5-1.5-1.8-4.6-1.8-6.6c0-2.1,0.7-5,2.1-6.6c1-1.2,2.3-0.2,2.9,0.8c0.4,0.8,0.7,1.6,1,2.5c0.1,0.5,0.5,1.6,0.3,2.1
					c-0.1,0.4,0.5,0.6,0.6,0.1c0.1-0.8,0.3-1.4,0.1-2.3c-0.2-1.1-0.6-2.1-1.1-3.1c-0.6-1.2-2.1-2.3-3.6-1.8
					c-1.4,0.5-2.1,2.2-2.5,3.5c-0.5,1.3-0.9,2.9-1,4.3c-0.1,1.5,0,3,0,4.5c0.1,1.6,0.4,3.5,1.4,4.8c1.2,1.5,3.3,1.6,4.8,0.5
					c0.4-0.3,0.8-0.8,1.2-1.3c0,0.8,0,1.7,0,2.6c0,0.5-0.1,1.1-0.4,1.7c-0.1,0.2-0.3,0.4-0.5,0.6c-0.3,0.1-1-0.6-0.5,0
					c-0.3-0.4-0.8-0.6-1.4-0.3l0,0c-0.6,0.3-0.7,1.1-0.2,1.6c0.9,1,2.8,1.2,3.8,0.2C87.5,68.2,87.6,66.7,87.6,65.1z"/>
			</g>
		</g>
		<g>
			<path class="st25" d="M76.7,37.1c-0.8,0.9-1.5,1.9-2.6,2.4c0.3-1.2,0.3-2.6,0.1-3.8c-0.1-0.8-0.7-2.3-1.8-2.2
				c-1,0-1.6,1.5-1.9,2.4c-0.4,1.3-0.3,2.7,0.4,3.9c0.3,0.5,0.8,0.9,1.3,1.1c-0.5,0.6-1.3,1.3-2.1,0.9c-0.9-0.5-1-1.9-0.9-2.8
				c0-0.5,0.3-1.2,0.4-1.7c0.1-0.6,0.2-1.4,0.5-1.9c0.8-1.2-1-2.5-1.9-1.5c-1.2,1.2-1.1,3-0.8,4.6c0,0,0,0,0,0.1
				c-0.4,0.9-1,1.8-1.7,2.5c-0.2,0.1-0.3,0.3-0.5,0.4c-0.1,0-0.1,0-0.2,0c-0.2,0-0.4,0-0.6-0.2c-0.2-0.4-0.5-0.8-0.8-1.2
				c-0.4-0.8-0.2-2.1-0.1-3c0-0.4,0-0.8,0-1.1c0.1-0.1,0.2-0.3,0.4-0.5c1.3-1.5,2.4-3.2,3-5.1c0.6-1.8,1.9-7.1-1.1-7.5
				c-1.5-0.2-2.6,1.3-3.1,2.5c-0.9,2-1.3,4.2-1.5,6.4s-0.3,4.5,0,6.7v0.1c-0.3,0.5-0.6,1-0.9,1.5c0,0.1-0.1,0.1-0.1,0.2l0,0
				c-0.8,1-2,1.8-2.9,0.2C57,40,57,39.3,57,38.8c0-1,0-2,0-3.1c0,0,0-0.1,0-0.2c0.2-0.2,0.4-0.4,0.6-0.7c2.2-2.5,3.9-6.1,3.5-9.5
				C61,24.2,60.3,22.9,59,23c-1.2,0.1-2,1.6-2.5,2.5c-2.1,3.8-2.2,8.2-2.1,12.4c0,0.2,0,0.5,0,0.7c-0.6,1-1.2,2-2.2,2.8
				c-0.5,0-0.9,0.1-1.3-0.2c-0.2-0.2-0.2-0.7-0.3-0.9c0-0.2-0.1-0.4-0.1-0.6c0.2-0.1,0.4-0.2,0.6-0.3c1-0.8,1.6-1.9,2-3
				c0.4-1,0.4-2.5-0.3-3.4c-0.7-0.8-1.7-0.4-2.4,0.3c-1.5,1.5-2.4,4.1-2.4,6.2c0,1.5,0.5,2.8,1.9,3.3c2.7,0.8,4.4-2.5,4.8-3.3
				c0.2,0.7,0.5,1.4,1,2.1c0.6,0.8,1.9,1.5,2.9,1c0.6-0.3,1.2-0.8,1.6-1.3l0,0c0.5-0.6,1-1.3,1.4-1.9c0.3,1.1,0.9,2.2,1.9,2.8
				c0.5,0.4,1.4,0.6,2.3,0.1c1.1-0.5,1.8-1.8,2.3-2.9c0.2,0.9,0.4,1.9,1,2.8c0.7,1.1,2.1,1.4,3.3,0.8c0.7-0.4,1.3-1,1.6-1.8
				c0.4,0,0.8-0.1,1.2-0.4c1.1-0.7,1.8-2.1,2.2-3.3C77,37.1,76.8,37,76.7,37.1z M51,33.5c0.5-0.4,0.7,0.2,0.8,0.6
				c0.1,0.5,0,1.1-0.2,1.6c-0.2,0.8-0.7,1.7-1.4,2.3c-0.1,0.1-0.1,0.1-0.2,0.2c0-1,0.1-2.1,0.3-3.1C50.3,34.6,50.5,33.9,51,33.5z
				 M64.9,25.3c0.1-0.4,0.3-1,0.8-1c0.6,0,0.7,1.1,0.8,1.5c0.1,1.6-0.3,3.4-0.9,4.9c-0.6,1.5-1.4,2.7-2.3,3.9c0-1.3,0.1-2.6,0.3-3.9
				C63.9,28.9,64.3,27,64.9,25.3z M56.6,32.6c0.1-1,0.2-2,0.4-3c0.1-1,0.2-2,0.3-3c0.1-0.7,0.2-1.3,0.5-1.9c0.3-0.7,1.1-1.1,1.6-0.3
				c0.7,1,0.3,2.7,0.1,3.8c-0.3,2-1.1,4.1-2.3,5.8c-0.2,0.4-0.5,0.7-0.8,1.1C56.5,34.3,56.5,33.4,56.6,32.6z M72.2,34.6
				c0.7-0.8,1.2,1.8,1.2,2.2c0,1.1-0.2,2-0.7,3c-0.9-0.3-1.4-1.6-1.4-2.5S71.7,35.2,72.2,34.6z"/>
			<path class="st25" d="M46.8,37.3L46.8,37.3c-0.1-0.1-0.1-0.2,0-0.3c0.1-0.9,0.3-1.8,0.3-2.7c0-0.7,0.2-1.8-0.1-2.3
				c-0.1-0.2-0.4-0.3-0.7-0.3c-0.8,0.2-1,1.2-1.1,2c-0.1,0.9-0.3,1.8-0.4,2.8c0,0.3-0.1,0.7-0.1,1.1c-0.1,0-0.3,0-0.4,0.1
				c-0.7,0.1-1.5,0.3-2.3,0.4c0-0.3,0-0.6,0-0.8c0.1-1.4,0.2-2.7,0.3-4.1c0.1-1.2,1-2.5,0.3-3.8c-0.2-0.4-0.9-0.7-1.4-0.4
				c-1,0.7-1.2,2.3-1.5,3.5c-0.2,1.4-0.3,3-0.4,4.4c0,0.6-0.1,1.3-0.1,1.9c-1.1,0.4-2.1,0.9-3.2,1.4c-0.2,0.1,0,0.4,0.1,0.4
				c1,0,2-0.3,3-0.6c0,0.4,0,0.8,0,1.1c0,1.2,0.1,2.8,0.9,3.8c0.1,0.1,0.4,0.1,0.5,0c0.8-0.8,1-2.4,1.1-3.5c0-0.7,0.1-1.4,0.1-2.1
				c0.9-0.2,1.8-0.3,2.7-0.5c0,0.3,0,0.6,0,0.9c0,0.8,0,2.1,0.6,2.7c0.1,0.1,0.3,0.1,0.5,0c0.6-0.5,0.6-1.6,0.7-2.4
				c0-0.4,0.1-0.9,0.1-1.3l0,0C47.3,38.5,47.6,37.4,46.8,37.3z"/>
		</g>
		<g>
			<path class="st25" d="M32.2,52.1c-0.3-0.8-0.5-1.6-0.5-2.5c0-0.7,0.5-1.8,1.4-1.4c1.1,0.5,1.9,2.5,2.2,3.7c0,0.1,0.2,0.1,0.2,0
				c0.1-1.9-1.2-6-3.9-4.8c-2.8,1.3-1.7,5.7-0.8,7.9c0.4,1.1,0.8,2.3,1.1,3.5c0.1,0.6,0.2,1.2,0.2,1.9c0,0.3,0,0.6,0,0.9
				c0,0.1,0,0.9,0,0.7c0,0.2-0.1,0.4-0.1,0.7c0,0.1,0,0.2-0.1,0.2c-0.2,0.2-0.7,0.5,0,0.2c-0.3,0.1-0.7,0.3-1.1,0.4
				c-1.7,0.2-1.7-2.7-2.1-3.9c0-0.2-0.3-0.2-0.4,0c-0.2,1.3,0.1,2.7,0.8,3.8c0.7,1.3,1.4,2.6,3.2,2.5c1.7-0.1,2.9-0.7,3.6-2.4
				c0.5-1.4,0.2-3-0.2-4.4C34.7,56.8,33.2,54.6,32.2,52.1z M31.9,63C31.9,63.1,31.9,63.1,31.9,63L31.9,63z"/>
			<path class="st25" d="M43.7,48.1c-1.4,0.4-2.2,2-2.7,3.3c-0.7,1.7-1,3.4-1.5,5.2c0,0,0,0.1,0,0.2c-0.1-1.5-0.1-3-0.2-4.5
				c0-1.4-2-1.4-2.2,0c-0.3,2.7,0.1,5.5,0.4,8.1c0.1,1.3,0.3,2.7,0.4,4.1c0.1,1.3,0,2.6,0.2,3.9c0.2,1,1.6,0.9,1.9,0
				c0.4-1.2,0.2-2.6,0.1-3.9c0-0.4,0-0.8-0.1-1.3c0.8,0.1,1.7-0.1,2.4-0.5c1.8-1.1,2.5-3.3,2.9-5.3c0.5-2.4,1.1-5.6,0.4-8
				C45.5,48.3,44.7,47.8,43.7,48.1z M40.1,59.5c0.3-1.8,0.7-3.5,1.2-5.3c0.3-1.3,0.7-2.6,1.4-3.7c0.2-0.4,1.4-2,1.8-1
				C45.4,51.7,42.9,61.7,40.1,59.5z"/>
			<path class="st25" d="M56,45.6c-2.2-0.2-3.9,2.8-4.7,4.3c-0.4,0.8-0.8,1.7-1.2,2.6c0-0.1,0-0.1,0-0.2c0.1-1.5,0.3-3-0.1-4.5
				c-0.2-0.7-1.1-0.8-1.5-0.2c-1.5,2.6-1.5,6.5-1.4,9.5c0,1.5,0.2,3.1,0.5,4.7c0.2,1.5,0.6,3,1.9,4c0.2,0.2,0.6,0,0.7-0.3
				c0.4-1.3,0.1-2.6-0.1-3.9c-0.1-1-0.2-2.1-0.2-3.2c0.1,0,0.2-0.1,0.3-0.1c0.5-0.4,1.1-0.8,1.7-1.1c0.6,0.8,0.4,2.6,0.5,3.6
				c0,1.7,0.8,5.4,3.4,4.6c0.4-0.1,0.8-0.5,0.8-1c-0.1-1-0.7-1.8-1-2.8c-0.2-1-0.3-2.1-0.5-3.2c-0.2-0.8-0.5-1.8-1.1-2.4
				c0.2-0.1,0.4-0.3,0.6-0.4c1.2-0.9,2.1-2.1,2.7-3.4C57.9,50.3,58.5,45.9,56,45.6z M55.4,52.1c-1.1,1.8-3.1,2.6-4.9,3.6
				c0.3-1,0.6-2,1.1-3c0.8-1.8,1.9-4,3.5-5.2c0.8-0.6,1.1-0.3,1.3,0.6C56.7,49.5,56.2,50.9,55.4,52.1z"/>
			<path class="st25" d="M62.5,49.9c-0.1-0.1-0.3-0.1-0.5,0c-0.8,0.7-0.6,2.3-0.7,3.3c-0.1,1.4-0.2,2.9-0.3,4.4
				c-0.2,2.2-0.5,4.5-0.6,6.8c0,1.6,2.4,1.4,2.5-0.1c0.2-2.3,0.4-4.5,0.5-6.8c0-1.4,0-2.9,0-4.4C63.3,52.1,63.4,50.5,62.5,49.9z"/>
			<path class="st25" d="M62.7,46.2c-0.1,0-0.2-0.1-0.4-0.1c-0.1,0-0.3,0-0.5,0c-0.4,0-0.8,0.2-1.1,0.5c-0.1,0.1-0.2,0.2-0.2,0.3
				c0.1-0.1,0.1-0.2,0.2-0.3c-0.4,0.4-0.5,1.1-0.4,1.6c0.2,0.8,1.2,1.3,2.1,1c0.8-0.2,1.3-1.2,1-2.1C63.4,46.7,63.1,46.4,62.7,46.2z
				"/>
			<path class="st25" d="M73.7,46.9c-0.9,0.2-1.5,1.1-2,1.8c-0.9,1.2-1.6,2.7-2.2,4.1c-0.1,0.3-0.3,0.6-0.4,1c0-0.9,0-1.8,0-2.8
				c0-1.4,0.1-2.9-0.4-4.2c-0.3-0.8-1.7-0.8-2.1,0c-0.6,1.3-0.4,2.8-0.4,4.2c0,1.5,0,3,0.1,4.5c0.1,1.5,0.1,3,0.2,4.5
				c0,1-0.2,2.3,0,3.3c0.3,1.3,2.2,0.7,2-0.5c0.1,0.5,0.1-0.6,0.1-0.8c0-0.6,0-1.3,0-1.9c0-0.2,0-0.4,0-0.7c0.5-1.4,1-2.7,1.6-4
				c0.9-2.2,1.6-4.8,3.2-6.6c1-1.1,0.7,0.6,0.6,1.3c-0.2,1.4-0.7,2.8-1.1,4.1c-0.7,2.6-1,5.6-1.1,8.4c-0.2,1,0.5,2.2,1.5,2.5
				c1.3,0.4,2.5-0.6,2.6-2c0.3-3.5,0.5-7.1,0.7-10.6C76.7,50.9,76.4,46.3,73.7,46.9z"/>
			<path class="st25" d="M87.1,64.6c0-1.7-0.2-3.5-0.5-5.2c0-0.1,0-0.4,0-0.8c0-0.3,0-0.7,0.1-1.1c0.1-1.4-2.1-2-2.7-0.7
				c-0.7,1.4-0.8,3-1.6,4.4c0,0.1-0.2,0.3-0.3,0.3c-0.3,0.1-0.4,0.1-0.6,0.1c-0.1,0-0.1,0-0.1,0c-0.2-0.1-0.3-0.2-0.5-0.4
				c-1.5-1.5-1.8-4.6-1.8-6.6c0-2.1,0.7-5,2.1-6.6c1-1.2,2.3-0.2,2.9,0.8c0.4,0.8,0.7,1.6,1,2.5c0.1,0.5,0.5,1.6,0.3,2.1
				c-0.1,0.4,0.5,0.6,0.6,0.1c0.1-0.8,0.3-1.4,0.1-2.3c-0.2-1.1-0.6-2.1-1.1-3.1c-0.6-1.2-2.1-2.3-3.6-1.8c-1.4,0.5-2.1,2.2-2.5,3.5
				c-0.5,1.3-0.9,2.9-1,4.3c-0.1,1.5,0,3,0,4.5c0.1,1.6,0.4,3.5,1.4,4.8c1.2,1.5,3.3,1.6,4.8,0.5c0.4-0.3,0.8-0.8,1.2-1.3
				c0,0.8,0,1.7,0,2.6c0,0.5-0.1,1.1-0.4,1.7c-0.1,0.2-0.3,0.4-0.5,0.6c-0.3,0.1-1-0.6-0.5,0c-0.3-0.4-0.8-0.6-1.4-0.3l0,0
				c-0.6,0.3-0.7,1.1-0.2,1.6c0.9,1,2.8,1.2,3.8,0.2C87,67.7,87.1,66.2,87.1,64.6z"/>
		</g>
	</g>
</g>
</svg>
