<?xml version="1.0" encoding="utf-8"?>
<!-- Generator: Adobe Illustrator 22.0.1, SVG Export Plug-In . SVG Version: 6.00 Build 0)  -->
<svg version="1.1" id="OBJECTS" xmlns="http://www.w3.org/2000/svg" xmlns:xlink="http://www.w3.org/1999/xlink" x="0px" y="0px"
	 viewBox="0 0 257 173" style="enable-background:new 0 0 257 173;" xml:space="preserve">
<style type="text/css">
	.st0{fill:#76995C;}
	.st1{fill:#B1E0B2;}
	.st2{clip-path:url(#SVGID_2_);}
	.st3{fill:#5C995C;}
	.st4{fill:#5C9984;}
	.st5{fill:#407C67;}
	.st6{fill:#5A7C40;}
	.st7{fill:#B1E0D1;}
	.st8{fill:#407C40;}
	.st9{fill:#C4E0B1;}
	.st10{fill:#EDD570;}
	.st11{fill:#FFFFFF;}
	.st12{fill:#DD855E;}
	.st13{fill:#F4EE82;}
	.st14{fill:#71875F;}
</style>
<g>
	<ellipse class="st0" cx="129.8" cy="87.9" rx="120" ry="76"/>
	<ellipse class="st1" cx="127.1" cy="85.2" rx="120" ry="76"/>
	<g>
		<defs>
			<ellipse id="SVGID_1_" cx="127.2" cy="85.4" rx="120" ry="76"/>
		</defs>
		<clipPath id="SVGID_2_">
			<use xlink:href="#SVGID_1_"  style="overflow:visible;"/>
		</clipPath>
		<g class="st2">
			<g>
				<path class="st3" d="M229.9,94.3c-0.6-1.3-0.5-2.6-0.2-4c0-0.1-0.1-0.2-0.2-0.1c-1.6,2.2-0.3,4.6,1.2,6.5
					c-1.1-0.7-2.1-1.5-3.1-2.5c-0.9-0.9-1.8-1.9-2.6-3c-0.2-0.8-0.2-1.7-0.3-2.6c0-0.1-0.2-0.2-0.2-0.1c-0.3,0.5-0.3,1.1-0.2,1.7
					c-0.6-0.8-1.1-1.6-1.7-2.4c-0.1-0.2-0.4,0-0.3,0.2c0.2,0.4,0.5,0.8,0.7,1.2c-0.6-0.2-1.3-0.2-1.8-0.1c-0.1,0-0.1,0.2,0,0.2
					c0.4,0.1,0.8,0.1,1.3,0.2c0.4,0.1,0.7,0.3,1,0.5c0.8,1.4,1.8,2.9,2.9,4.2c-1.6-0.8-3.5-1.2-5.3-1.1c-0.2,0-0.2,0.2,0,0.3
					c1,0.3,2,0.5,3.1,0.7c1.2,0.2,2.1,0.7,3.2,1.2c1.9,2,4.1,3.5,6.8,3.7c0.2,0,0.3-0.2,0.1-0.3c-0.9-0.4-1.7-0.9-2.5-1.4
					C231,96.3,230.4,95.3,229.9,94.3z"/>
			</g>
			<circle class="st3" cx="220.6" cy="93.8" r="1.9"/>
			<circle class="st3" cx="219.9" cy="89.4" r="1.9"/>
			<circle class="st3" cx="221.9" cy="86.3" r="1.9"/>
			<circle class="st3" cx="225.5" cy="88.3" r="1.9"/>
			<circle class="st3" cx="229.9" cy="90.7" r="1.9"/>
			<g>
				<path class="st1" d="M221.3,94.9c-0.3,0.1-0.7,0.1-1,0c-0.1-0.1-0.3-0.2-0.4-0.3c-0.1-0.1-0.2-0.2-0.3-0.3
					c-0.1-0.1-0.3,0-0.4,0.2c-0.1,0.5,0.4,0.7,0.8,0.8c0.4,0.1,0.9,0,1.3-0.2C221.5,95,221.4,94.8,221.3,94.9L221.3,94.9z"/>
			</g>
			<g>
				<path class="st1" d="M219.6,94c-0.1-0.2-0.1-0.4-0.2-0.5c0,0-0.1,0-0.1,0c-0.2,0.2-0.1,0.4,0,0.6
					C219.4,94.3,219.7,94.2,219.6,94L219.6,94z"/>
			</g>
			<g>
				<path class="st1" d="M220.6,90.6c-0.4,0.1-0.7,0-1.1-0.2c-0.3-0.2-0.4-0.6-0.6-0.9c-0.2-0.3-0.5-0.1-0.5,0.2
					c0,0.5,0.4,0.9,0.8,1.1c0.4,0.2,1,0.1,1.5,0C220.7,90.8,220.7,90.6,220.6,90.6L220.6,90.6z"/>
			</g>
			<g>
				<path class="st1" d="M218.7,89.3c0-0.2,0.1-0.3,0.1-0.4c0-0.1-0.1-0.1-0.1-0.1c-0.2,0.1-0.2,0.3-0.1,0.5
					C218.5,89.4,218.7,89.4,218.7,89.3L218.7,89.3z"/>
			</g>
			<g>
				<path class="st1" d="M220.9,86.4c0.1-0.3,0.2-0.5,0.4-0.8c0.1-0.1,0.3-0.3,0.2-0.5c0-0.1-0.1-0.1-0.2,0
					c-0.5,0.2-0.6,0.8-0.6,1.3C220.7,86.5,220.9,86.5,220.9,86.4L220.9,86.4z"/>
			</g>
			<g>
				<path class="st1" d="M221.5,85.2C221.6,85.2,221.5,85.2,221.5,85.2C221.5,85.2,221.5,85.2,221.5,85.2L221.5,85.2z"/>
			</g>
			<g>
				<path class="st1" d="M221.9,85.3c0.2-0.1,0.4-0.1,0.6-0.1c0.1,0,0-0.1,0-0.1c-0.2-0.1-0.4-0.1-0.7,0
					C221.6,85.1,221.7,85.3,221.9,85.3L221.9,85.3z"/>
			</g>
			<g>
				<path class="st1" d="M224.8,86.9c0.3-0.1,0.6,0.1,0.9,0.3c0.3,0.2,0.4,0.4,0.7,0.4c0.2,0,0.3-0.2,0.3-0.3c0-0.4-0.5-0.6-0.8-0.7
					c-0.4-0.1-0.8,0-1.1,0.1C224.7,86.7,224.7,86.9,224.8,86.9L224.8,86.9z"/>
			</g>
			<g>
				<path class="st1" d="M226.7,88.2c0,0.1,0,0.1-0.1,0.2c0,0.2,0.3,0.3,0.3,0.1c0,0,0-0.1,0-0.1C227.1,88.2,226.8,88,226.7,88.2
					L226.7,88.2z"/>
			</g>
			<g>
				<path class="st1" d="M228.9,90c0.2-0.2,0.5-0.2,0.8-0.2c0.3,0,0.6,0.2,0.9,0.1c0.2-0.1,0.2-0.2,0.1-0.4
					c-0.2-0.4-0.7-0.4-1.1-0.4c-0.4,0-0.7,0.3-0.9,0.7C228.6,90,228.8,90.1,228.9,90L228.9,90z"/>
			</g>
			<g>
				<path class="st1" d="M231.3,90.3c0,0.1,0,0.2,0.1,0.3c0,0,0.1,0,0.1,0c0-0.1,0-0.2,0-0.3C231.5,90.1,231.2,90.1,231.3,90.3
					L231.3,90.3z"/>
			</g>
		</g>
		<g class="st2">
			<path class="st4" d="M212.5,100.4c-5.2,3,0.6,8.8,4.4,12.1c-4.7-2.6-9.6-4.7-14.6-6.4c0-0.1,0-0.2,0-0.3
				c-0.6-0.9-0.3-1.6-0.2-2.6c0.1-1.3-0.4-2.7-1.1-3.8c-0.9-1.7-3.7-2.5-5.2-1c-1.3,1.4-0.9,3.4,0.4,5c-1.4-1.7-3.1-3.3-5.1-4
				c-1.9-0.6-4.4,0.7-4.3,2.8c0,2.1,1.5,4,3.7,4c1.9,0.1,3.6-1.3,5.4-1.6c0.2,0.1,0.4,0.1,0.5,0.2c0,0,0.1,0,0.1,0
				c0.7,0.3,1.4,0.5,2.1,0.8c0.7,0.4,1.4,0.7,2.1,0.8c1.9,0.7,3.7,1.5,5.6,2.4c-3.4-0.2-7.4,0.7-6.9,4.5c0.4,2.7,2.6,4.3,5.2,3.8
				c1.2-0.2,2.5-1.1,2.9-2.3c0.3-0.8,0.4-1.7,0.5-2.5c0.1-0.9,0.4-1.6,0.9-2.3c4.9,2.4,9.6,5.1,14,8.3c0.3,0.2,0.6,0.5,0.9,0.7
				c-3.6-1.1-7.7-1.2-9.6,2.1c-1.7,3,0.7,6.6,3.7,7.4c1.8,0.5,3.6-0.2,4.9-1.4c0.8-0.7,1.3-1.8,1.8-2.7c0.8-1.4,1.6-1.9,2.9-2.4
				c2.6,2.3,4.9,4.9,7,7.7c1.6,2.2,2.8,4.5,3.8,6.9c-1.8-1.7-4.2-2.9-6.1-3.7c-3.6-1.5-7.4-1.1-10.4,1.4c-3.1,2.5-0.5,7,2.5,8.2
				c2.4,0.9,4.6,0.7,7.1,0c2.9-0.9,5.4-3.2,8.6-2c0,0,0,0,0,0c0.4,1.1,0.9,2.1,1.4,3.2c0.1,0.3,0.5,0.1,0.5-0.2
				c-0.1-4-1.5-7.9-3.7-11.6c2-3.5,8-3.9,7.9-8.8c-0.1-2.8-1.8-6-5-6.2c-3.2-0.2-5.5,1.3-6.5,4.3c-0.7,1.8-0.4,3.9,0.2,5.8
				c-3-3.7-6.6-6.9-9.9-9.5c-1.4-1.1-2.8-2.1-4.3-3c0-0.1,0-0.2-0.1-0.3c-0.9-1.8,1-4.5,1.3-6.5c0.3-1.8,0.3-3.9-0.5-5.6
				C219.7,98.7,215.6,98.7,212.5,100.4z"/>
			<g>
				<path class="st5" d="M189.2,102.3c5.6,2.2,11.1,4.8,16.6,7.1c5.8,2.4,11.4,5,16.4,8.8c4.8,3.6,8.8,8.1,12.5,12.8
					c1.8,2.3,3.1,4.7,4.2,7.4c0.8,2.1,0.9,4.3,2.1,6.2c0.3,0.4,0.9,0.3,1-0.2c0.9-4.2-1.8-9.2-4-12.6c-3.3-5.1-7.8-9.8-12.4-13.7
					c-10.4-9-23.5-12.3-36.4-16C189.2,102,189.1,102.2,189.2,102.3L189.2,102.3z"/>
			</g>
			<g>
				<path class="st5" d="M228.5,135.3c2.3,0.6,4.5,1.2,6.7,2.2c2,1,3.2,2.7,5.1,3.7c0.2,0.1,0.6-0.1,0.6-0.4
					c-0.8-4.5-8.8-5.3-12.3-5.9C228.3,134.9,228.2,135.3,228.5,135.3L228.5,135.3z"/>
			</g>
			<g>
				<path class="st5" d="M241.1,121.6c-3.3,2.7-5.8,8.3-2.9,12.3c0.1,0.2,0.4,0.1,0.4-0.1c0.4-1.5-0.1-2.9-0.3-4.4
					c-0.3-2.9,1-5.6,3-7.6C241.5,121.7,241.3,121.5,241.1,121.6L241.1,121.6z"/>
			</g>
			<g>
				<path class="st5" d="M218.3,121.9c1.8-0.8,3.5-1.2,5.5-0.9c1.6,0.2,3,1.2,4.6,1.4c0.2,0,0.4-0.2,0.3-0.4
					c-2.1-3.5-7.8-1.9-10.5-0.3C217.9,121.7,218.1,121.9,218.3,121.9L218.3,121.9z"/>
			</g>
			<g>
				<path class="st5" d="M214.2,105.5c0.8,4.2,1.7,8.1,6.2,9.5c0.1,0,0.2-0.1,0.1-0.2c-3-2.2-5-5.9-6.1-9.4
					C214.3,105.3,214.1,105.4,214.2,105.5L214.2,105.5z"/>
			</g>
			<g>
				<path class="st5" d="M201.4,112.4c1.1-0.9,2.3-1.5,3.7-1.9c1.4-0.4,2.9-0.2,4.4-0.4c0.2,0,0.2-0.2,0.1-0.3
					c-2.9-2-6.3,0.1-8.3,2.3C201.1,112.3,201.2,112.5,201.4,112.4L201.4,112.4z"/>
			</g>
			<g>
				<path class="st5" d="M196.1,100.6c1.4,3.2,3.8,5.6,7.1,6.6c0.2,0.1,0.3-0.2,0.2-0.3c-2.3-2-5.4-3.7-7.1-6.4
					C196.3,100.4,196.1,100.5,196.1,100.6L196.1,100.6z"/>
			</g>
		</g>
		<g class="st2">
			<g>
				<path class="st4" d="M176.7,135.5c5.6,6.7,10.9,13.5,14.3,21.6c1.4,3.3,2.3,6.8,2.9,10.3c0.6,3.2,0.2,6.2,0.1,9.4
					c0,0.2,0.3,0.2,0.4,0.1c2.5-5.6-0.3-13.5-2.2-18.9c-3.1-8.6-9.4-15.9-15.3-22.6C176.8,135.3,176.6,135.4,176.7,135.5
					L176.7,135.5z"/>
			</g>
			<g>
				<path class="st4" d="M194.3,176.8c0.4-3.1,1-5.8,0.4-8.9c-0.5-2.9-1.6-5.8-2.9-8.5c-2.9-5.9-6.9-10.2-11.8-14.3
					c-0.1-0.1-0.2,0-0.1,0.1c2,2.2,4.2,4,6.1,6.3c1.8,2.2,3.2,4.7,4.6,7.2c1.5,2.6,2.4,5.4,3.2,8.3c0.9,3.3,0.4,6.4,0.2,9.8
					C194,176.9,194.3,177,194.3,176.8L194.3,176.8z"/>
			</g>
			<g>
				<path class="st4" d="M194.7,166.4c-0.7-6.5-2.7-13.2-5-19.2c-2.4-6.3-6-11.6-11.2-16c-0.1-0.1-0.3,0.1-0.2,0.2
					c1.8,2.2,4,4.2,5.8,6.4c2.3,2.8,3.7,6.2,5,9.6c1.2,3.1,2.1,6.2,2.9,9.4c0.8,3.2,2,6.4,2.5,9.6
					C194.4,166.7,194.7,166.7,194.7,166.4L194.7,166.4z"/>
			</g>
			<g>
				<path class="st4" d="M186.9,148.2c-1.2-4.6-4.4-9.7-7.8-12.9c-0.1-0.1-0.2,0-0.2,0.1c2.8,3.9,6.1,8.3,7.6,12.9
					C186.6,148.6,186.9,148.4,186.9,148.2L186.9,148.2z"/>
			</g>
			<g>
				<path class="st4" d="M191.8,153.8c0.3-6.9-1.6-12.7-4.6-18.9c-0.1-0.2-0.3-0.1-0.3,0.1c0.9,2.8,2,5.4,2.9,8.2
					c1.1,3.3,1.4,7.1,1.5,10.6C191.4,154.1,191.8,154,191.8,153.8L191.8,153.8z"/>
			</g>
			<g>
				<path class="st4" d="M192.3,161.3c-2.3-3.7-5.8-6.8-8.7-10c-0.1-0.1-0.3,0.1-0.2,0.2c2.1,3.8,6,6.5,8.7,9.9
					C192.2,161.6,192.4,161.5,192.3,161.3L192.3,161.3z"/>
			</g>
			<path class="st4" d="M179.4,130.4c0.4,0.6,0.3,1.4-0.3,1.8c-0.6,0.4-1.4,0.3-1.8-0.3c-0.4-0.6-0.3-1.4,0.3-1.8
				C178.1,129.6,179,129.8,179.4,130.4z"/>
			<path class="st4" d="M188.3,134.6c0.4,0.6,0.3,1.4-0.3,1.8c-0.6,0.4-1.4,0.3-1.8-0.3c-0.4-0.6-0.3-1.4,0.3-1.8
				C187.1,133.8,187.9,134,188.3,134.6z"/>
			<path class="st4" d="M180.6,134.5c0.4,0.6,0.3,1.4-0.3,1.8c-0.6,0.4-1.4,0.3-1.8-0.3c-0.4-0.6-0.3-1.4,0.3-1.8
				C179.4,133.8,180.2,133.9,180.6,134.5z"/>
			<path class="st4" d="M177.6,134.3c0.4,0.6,0.3,1.4-0.3,1.8c-0.6,0.4-1.4,0.3-1.8-0.3c-0.4-0.6-0.3-1.4,0.3-1.8
				C176.4,133.6,177.2,133.7,177.6,134.3z"/>
			<path class="st4" d="M181.6,144.4c0.4,0.6,0.3,1.4-0.3,1.8c-0.6,0.4-1.4,0.3-1.8-0.3c-0.4-0.6-0.3-1.4,0.3-1.8
				C180.4,143.7,181.2,143.8,181.6,144.4z"/>
			<path class="st4" d="M184.7,150.9c0.4,0.6,0.3,1.4-0.3,1.8c-0.6,0.4-1.4,0.3-1.8-0.3c-0.4-0.6-0.3-1.4,0.3-1.8
				C183.4,150.1,184.2,150.3,184.7,150.9z"/>
		</g>
		<g class="st2">
			<path class="st0" d="M232.9,80.4C232.9,80.4,232.9,80.5,232.9,80.4c2.2,4,1.4,8.7,0.2,12.8c-1,3.5-2.8,6.8-2.1,10.6
				c0.5,2.7,1.8,6.2,4.7,7.1c1.5,0.5,2.9,0.5,4.5,0.1c0.1,0,2.2-0.9,2.8-1.4c0.4,1,1,2,1.7,2.9c0.2,0.2,0.6,0,0.5-0.3
				c-0.4-1-0.9-2-1.2-3c3.5-1.6,6.6-3.4,8.2-7c1.3-2.9,1-6.2,0.1-9.1c-2.5-7.7-12-11.3-19.1-13C232.8,80,232.7,80.3,232.9,80.4z"/>
			<g>
				<path class="st6" d="M236.2,84.3c3.2,4.5,3.6,10.8,4.3,16c0.6,4.4,1.1,11,5,13.9c0.4,0.3,0.9-0.1,0.7-0.5
					c-1.3-2.6-2.5-4.9-3.3-7.7c-0.7-2.8-1-5.7-1.5-8.6c-0.8-5-2.2-9-4.9-13.2C236.4,83.8,236.1,84.1,236.2,84.3L236.2,84.3z"/>
			</g>
			<g>
				<path class="st6" d="M234.1,99.3c2,3.5,5,8.8,8.8,10.6c0.2,0.1,0.4-0.1,0.3-0.3c-1.1-1.7-2.8-2.9-4.2-4.3
					c-1.8-1.8-3.4-3.9-4.7-6C234.3,99,234.1,99.1,234.1,99.3L234.1,99.3z"/>
			</g>
			<g>
				<path class="st6" d="M236.2,95.5c0.8,1.2,1.6,2.5,2.5,3.7c0.6,0.9,1.3,2,2.3,2.5c0.1,0,0.3,0,0.2-0.2c-0.4-1-1.3-1.7-2-2.6
					c-0.9-1.1-1.8-2.3-2.7-3.5C236.4,95.2,236.1,95.4,236.2,95.5L236.2,95.5z"/>
			</g>
			<g>
				<path class="st6" d="M236.4,88.6c0.7,1.5,2,4,3.7,4.6c0.1,0,0.1-0.1,0.1-0.1c-0.4-0.7-1-1.3-1.5-1.9c-0.8-0.9-1.5-1.7-2.1-2.7
					C236.5,88.4,236.3,88.5,236.4,88.6L236.4,88.6z"/>
			</g>
			<g>
				<path class="st6" d="M240,88c0.1,1.1-0.2,2-0.3,3c-0.1,0.7-0.3,1.6,0.2,2.1c0.1,0.1,0.2,0.1,0.2,0c0.5-0.6,0.3-1.6,0.3-2.3
					c0-1-0.1-2-0.2-2.9C240.1,87.9,240,87.9,240,88L240,88z"/>
			</g>
			<g>
				<path class="st6" d="M243.9,89.1c-0.1,2.1-0.3,4.2-0.7,6.3c-0.2,0.9-0.4,1.9-0.7,2.8c-0.4,1.3-1.3,2.2-1.4,3.5
					c0,0.2,0.2,0.3,0.3,0.2c3.6-2.6,2.8-9,2.6-12.8C244,89,243.9,89,243.9,89.1L243.9,89.1z"/>
			</g>
			<g>
				<path class="st6" d="M247.9,92.9c0.1,5.6-1.6,11.2-4.9,15.7c-0.2,0.3,0,0.7,0.4,0.6c2.2-0.7,2.8-4.3,3.5-6.3
					c1-3.2,1.6-6.7,1.2-10C248.1,92.8,247.9,92.8,247.9,92.9L247.9,92.9z"/>
			</g>
		</g>
		<g class="st2">
			<path class="st3" d="M187.4,114.7c-3-1.2-6.3-0.2-6.3,3.6c0,5.5,3.5,10.9,6,15.5c3.5,6.3,5.4,13.3,8.8,19.6
				c3,5.7,7.8,8.8,13.5,11c1.5,3.5,3.5,6.7,6.8,8.6c0.2,0.1,0.4-0.1,0.3-0.3c-1.7-2.8-3.6-5.2-5.2-7.9c4.2-0.8,6.8-4.1,7.7-8.3
				c1.2-5.6-1.9-11.9-4.2-16.9c-3-6.5-7.3-11.9-13-16.2C197.4,120.1,192.5,116.7,187.4,114.7z"/>
			<g>
				<path class="st1" d="M187.1,121.4c5.8,6.4,11.2,13,14.9,20.8c1.9,4,3.5,8.2,4.8,12.4c0.8,2.6,1,6.5,3.2,8.3
					c0.4,0.3,0.9-0.1,0.6-0.5c-1.6-3.2-2.2-6.8-3.3-10.1c-1.3-4-3-7.8-4.9-11.6c-3.7-7.5-9.2-13.7-15.2-19.5
					C187.1,121.1,187,121.3,187.1,121.4L187.1,121.4z"/>
			</g>
			<g>
				<path class="st1" d="M198,151.2c3.6,3.3,6.8,8.1,11.3,10.2c0.3,0.2,0.7-0.3,0.4-0.6c-3.6-3.4-7.6-6.8-11.7-9.7
					C198,151,198,151.1,198,151.2L198,151.2z"/>
			</g>
			<g>
				<path class="st1" d="M192.3,141.2c4.9,3.1,9,7.2,13.8,10.3c0.3,0.2,0.6-0.2,0.3-0.5c-2.1-2.1-4.8-3.8-7.3-5.6
					c-2.2-1.6-4.4-3.1-6.9-4.3C192.3,141.1,192.2,141.2,192.3,141.2L192.3,141.2z"/>
			</g>
			<g>
				<path class="st1" d="M189,132c3.8,2.3,8,4.5,11.5,7.3c0.3,0.3,0.8-0.2,0.5-0.5c-1.3-1.4-3.2-2.1-4.9-3c-2.3-1.3-4.6-2.7-7-3.9
					C189,131.8,188.9,131.9,189,132L189,132z"/>
			</g>
			<g>
				<path class="st1" d="M187.5,126.3c1.3,0.6,2.6,1.2,3.9,1.8c1.1,0.5,2.1,1.2,3.3,1.6c0.1,0,0.1-0.1,0.1-0.1
					c-1.7-2-4.8-2.9-7.3-3.5C187.5,126.1,187.4,126.2,187.5,126.3L187.5,126.3z"/>
			</g>
			<g>
				<path class="st1" d="M191.8,120.2c0.2,2,0.5,3.9,1,5.8c0.4,1.6,0.8,3.3,2.2,4.3c0.1,0,0.1,0,0.1-0.1c-0.6-1.6-1.4-3.2-1.9-4.8
					c-0.5-1.7-0.8-3.5-1.2-5.2C192,120,191.8,120.1,191.8,120.2L191.8,120.2z"/>
			</g>
			<g>
				<path class="st1" d="M200.2,124.6c0.2,3.3-0.1,6.5-0.1,9.8c0,1.7-0.1,4.3,1.3,5.5c0.1,0.1,0.3,0,0.3-0.2
					c-1.8-4.8-0.8-10.1-1.3-15.2C200.3,124.5,200.2,124.5,200.2,124.6L200.2,124.6z"/>
			</g>
			<g>
				<path class="st1" d="M207.3,139.1c-0.3,2.4-0.7,4.8-1.1,7.2c-0.3,1.7-0.6,3.6,0.2,5.2c0.1,0.1,0.3,0.1,0.3-0.1
					c0.4-2.1,0-4.4,0.2-6.5c0.2-2,0.5-3.9,0.6-5.9C207.5,139,207.3,139,207.3,139.1L207.3,139.1z"/>
			</g>
			<g>
				<path class="st1" d="M214,147c-0.7,3.6-1.7,7.3-3,10.7c-0.6,1.5-1.8,3.7-0.8,5.2c0.2,0.3,0.6,0.2,0.6-0.2
					c-0.1-2.1,0.7-3.8,1.3-5.8C213.1,153.7,213.7,150.3,214,147C214,146.9,214,146.9,214,147L214,147z"/>
			</g>
		</g>
		<g class="st2">
			<g>
				<g>
					<path class="st4" d="M81.6,152.8c1.3,0,2.3,0.6,3.3,1.4c0.1,0.1,0.3,0,0.2-0.1c-1.2-2.1-3.6-2-5.8-1.5c1-0.6,2.1-1.2,3.2-1.6
						c1.1-0.4,2.3-0.7,3.4-1c0.8,0.1,1.5,0.5,2.2,0.8c0.1,0,0.2-0.1,0.1-0.2c-0.3-0.4-0.8-0.7-1.3-0.8c0.9-0.2,1.8-0.3,2.6-0.4
						c0.2,0,0.1-0.3,0-0.3c-0.4,0-0.8,0.1-1.3,0.1c0.4-0.4,0.7-1,0.8-1.4c0-0.1-0.1-0.2-0.2-0.1c-0.2,0.3-0.4,0.6-0.7,0.9
						c-0.2,0.3-0.5,0.5-0.8,0.7c-1.5,0.1-3,0.4-4.5,0.7c1.3-1,2.3-2.4,3-3.9c0.1-0.1-0.1-0.2-0.2-0.1c-0.6,0.7-1.2,1.5-1.7,2.2
						c-0.6,0.8-1.4,1.5-2.2,2.1c-2.3,0.8-4.4,2-5.7,4.1c-0.1,0.1,0.1,0.4,0.2,0.2c0.7-0.5,1.4-1.1,2.1-1.5
						C79.5,152.9,80.5,152.8,81.6,152.8z"/>
				</g>
				<path class="st4" d="M86.6,146.8c-0.8,0.6-1.8,0.4-2.4-0.4c-0.6-0.7-0.4-1.8,0.4-2.4c0.8-0.6,1.8-0.4,2.4,0.4
					C87.5,145.2,87.3,146.2,86.6,146.8z"/>
				<path class="st4" d="M90.4,147.9c-0.7,0.6-1.8,0.4-2.4-0.4c-0.6-0.7-0.4-1.8,0.4-2.4c0.7-0.6,1.8-0.4,2.4,0.4
					C91.3,146.3,91.1,147.3,90.4,147.9z"/>
				<path class="st4" d="M92.1,150.7c-0.7,0.6-1.8,0.4-2.4-0.4c-0.6-0.7-0.4-1.8,0.4-2.4c0.7-0.6,1.8-0.4,2.4,0.4
					C93,149.1,92.9,150.2,92.1,150.7z"/>
				<path class="st4" d="M89.1,152.9c-0.8,0.6-1.8,0.4-2.4-0.4c-0.6-0.7-0.4-1.8,0.4-2.4c0.8-0.6,1.8-0.4,2.4,0.4
					C90,151.3,89.9,152.3,89.1,152.9z"/>
				<path class="st4" d="M85.5,155.6c-0.7,0.6-1.8,0.4-2.4-0.4c-0.6-0.7-0.4-1.8,0.4-2.4c0.8-0.6,1.8-0.4,2.4,0.4
					C86.4,154,86.3,155,85.5,155.6z"/>
				<g>
					<path class="st7" d="M84.4,145.6c0-0.3,0.1-0.6,0.4-0.8c0.1-0.1,0.2-0.2,0.4-0.2c0.1-0.1,0.2-0.1,0.3-0.2
						c0.1-0.1,0.1-0.3,0-0.4c-0.3-0.2-0.8,0.1-1,0.3c-0.2,0.3-0.3,0.8-0.3,1.2C84.2,145.7,84.4,145.7,84.4,145.6L84.4,145.6z"/>
				</g>
				<g>
					<path class="st7" d="M85.8,144.5c0.2,0,0.3,0.1,0.5,0c0,0,0.1-0.1,0-0.1c-0.1-0.2-0.3-0.2-0.5-0.2
						C85.6,144.2,85.6,144.5,85.8,144.5L85.8,144.5z"/>
				</g>
				<g>
					<path class="st7" d="M88.1,146.6c0.1-0.4,0.3-0.6,0.6-0.8c0.3-0.2,0.6-0.1,0.9-0.2c0.3,0,0.3-0.4,0.1-0.5
						c-0.4-0.2-0.9,0-1.2,0.2c-0.4,0.3-0.5,0.8-0.6,1.2C87.9,146.7,88.1,146.7,88.1,146.6L88.1,146.6z"/>
				</g>
				<g>
					<path class="st7" d="M90,145.6c0.1,0.1,0.2,0.2,0.3,0.2c0.1,0,0.1,0,0.1-0.1c0-0.2-0.2-0.2-0.3-0.3
						C90,145.4,89.9,145.5,90,145.6L90,145.6z"/>
				</g>
				<g>
					<path class="st7" d="M91.5,148.5c0.2,0.2,0.4,0.4,0.5,0.6c0.1,0.1,0.1,0.4,0.3,0.3c0.1,0,0.1-0.1,0.1-0.1
						c0.1-0.5-0.4-0.8-0.8-0.9C91.5,148.3,91.4,148.5,91.5,148.5L91.5,148.5z"/>
				</g>
				<g>
					<path class="st7" d="M92.2,149.5C92.2,149.5,92.2,149.5,92.2,149.5C92.2,149.5,92.2,149.5,92.2,149.5L92.2,149.5z"/>
				</g>
				<g>
					<path class="st7" d="M92,149.7c0,0.2-0.1,0.4-0.1,0.5c0,0.1,0.1,0.1,0.1,0c0.1-0.2,0.2-0.3,0.3-0.5
						C92.3,149.6,92,149.6,92,149.7L92,149.7z"/>
				</g>
				<g>
					<path class="st7" d="M89.5,151.5c-0.1,0.3-0.3,0.5-0.6,0.6c-0.2,0.2-0.5,0.2-0.6,0.4c-0.1,0.1,0,0.3,0.1,0.4
						c0.3,0.2,0.7-0.2,0.9-0.4c0.2-0.3,0.3-0.6,0.3-1C89.7,151.5,89.6,151.4,89.5,151.5L89.5,151.5z"/>
				</g>
				<g>
					<path class="st7" d="M87.7,152.6c0,0-0.1-0.1-0.1-0.1c-0.2-0.1-0.3,0.1-0.2,0.2c0,0,0.1,0,0.1,0.1
						C87.6,152.9,87.8,152.7,87.7,152.6L87.7,152.6z"/>
				</g>
				<g>
					<path class="st7" d="M85.4,153.7c0.1,0.2,0,0.5-0.2,0.7c-0.1,0.2-0.4,0.4-0.4,0.7c0,0.2,0.1,0.3,0.2,0.3c0.4,0,0.6-0.5,0.7-0.7
						c0.1-0.4,0-0.7-0.2-1C85.6,153.4,85.4,153.6,85.4,153.7L85.4,153.7z"/>
				</g>
				<g>
					<path class="st7" d="M84.3,155.4c-0.1,0-0.2-0.1-0.3,0c0,0-0.1,0.1,0,0.1c0.1,0.1,0.2,0.1,0.3,0.1
						C84.3,155.7,84.4,155.5,84.3,155.4L84.3,155.4z"/>
				</g>
			</g>
			<g>
				<path class="st0" d="M65.6,117.1c-3.4-4.2-7.7,1.8-10.1,5.7c1.6-4.5,2.7-9.2,3.5-13.9c0.1,0,0.2,0,0.3-0.1
					c0.7-0.6,1.4-0.5,2.3-0.6c1.2-0.1,2.3-0.8,3.2-1.5c1.4-1.1,1.7-3.7,0.1-4.7c-1.5-1-3.1-0.3-4.4,1.1c1.3-1.5,2.5-3.2,2.8-5.1
					c0.3-1.8-1.2-3.8-3.1-3.5c-1.8,0.3-3.3,1.9-3,3.9c0.2,1.7,1.7,3,2.2,4.6c0,0.2-0.1,0.3-0.1,0.5c0,0,0,0.1,0,0.1
					c-0.1,0.7-0.2,1.3-0.4,2c-0.3,0.7-0.4,1.4-0.4,2c-0.4,1.8-0.8,3.6-1.3,5.3c-0.4-3-1.7-6.5-5-5.4c-2.3,0.8-3.4,2.9-2.6,5.2
					c0.4,1,1.4,2,2.5,2.2c0.8,0.1,1.5,0.1,2.3,0.1c0.8,0,1.5,0.2,2.2,0.4c-1.4,4.7-3.1,9.3-5.3,13.7c-0.2,0.3-0.3,0.6-0.5,0.9
					c0.5-3.4-0.1-7.1-3.2-8.2c-2.9-1.1-5.8,1.6-6.1,4.4c-0.2,1.6,0.7,3.1,2,4.1c0.7,0.6,1.8,0.9,2.7,1.2c1.4,0.5,1.9,1.1,2.5,2.2
					c-1.7,2.6-3.6,5.1-5.8,7.3c-1.7,1.7-3.6,3.1-5.6,4.4c1.2-1.9,2-4.2,2.4-5.9c0.8-3.4-0.1-6.7-2.8-9.1c-2.7-2.4-6.3,0.6-6.9,3.4
					c-0.4,2.3,0,4.2,1,6.3c1.2,2.5,3.6,4.3,3,7.3c0,0,0,0,0,0c-0.9,0.6-1.8,1.1-2.6,1.7c-0.2,0.2,0,0.5,0.2,0.4
					c3.6-0.7,6.8-2.5,9.7-5c3.4,1.2,4.7,6.6,9,5.7c2.5-0.5,5-2.5,4.7-5.3c-0.3-2.9-2-4.7-4.8-5.2c-1.7-0.3-3.5,0.2-5.1,1.1
					c2.8-3.2,5.2-6.9,7-10.2c0.7-1.4,1.4-2.8,2-4.3c0.1,0,0.1,0,0.2-0.1c1.5-1.1,4.2,0.2,6,0.2c1.7,0,3.5-0.3,4.9-1.3
					C68.2,123.3,67.6,119.6,65.6,117.1z"/>
				<g>
					<path class="st6" d="M60.5,96.7c-1.2,5.3-2.7,10.5-3.9,15.8c-1.3,5.5-2.8,10.8-5.4,15.9c-2.5,4.8-5.9,9.1-9.5,13
						c-1.8,1.9-3.7,3.5-6,4.8c-1.7,1-3.7,1.5-5.2,2.8c-0.3,0.3-0.2,0.9,0.3,0.9c3.8,0.2,7.9-3,10.6-5.4c4.1-3.7,7.5-8.4,10.3-13
						c6.5-10.6,7.5-22.7,8.9-34.7C60.7,96.6,60.5,96.6,60.5,96.7L60.5,96.7z"/>
				</g>
				<g>
					<path class="st6" d="M36.9,136.5c-0.2,2.2-0.4,4.2-1,6.3c-0.6,1.9-1.9,3.3-2.5,5c-0.1,0.2,0.1,0.6,0.4,0.5
						c3.9-1.3,3.5-8.6,3.5-11.8C37.3,136.3,36.9,136.3,36.9,136.5L36.9,136.5z"/>
				</g>
				<g>
					<path class="st6" d="M51,145.7c-2.9-2.5-8.2-3.9-11.4-0.8c-0.1,0.1-0.1,0.4,0.1,0.4c1.4,0.2,2.5-0.5,3.8-0.9
						c2.5-0.7,5.2,0,7.2,1.6C51,146.1,51.1,145.8,51,145.7L51,145.7z"/>
				</g>
				<g>
					<path class="st6" d="M47.4,125.4c1,1.5,1.6,3,1.6,4.7c0,1.5-0.6,2.8-0.5,4.3c0,0.2,0.2,0.4,0.4,0.2c2.8-2.4,0.6-7.2-1.3-9.4
						C47.5,125.1,47.3,125.3,47.4,125.4L47.4,125.4z"/>
				</g>
				<g>
					<path class="st6" d="M61.3,119.4c-3.6,1.3-7,2.7-7.5,6.9c0,0.1,0.2,0.2,0.2,0.1c1.5-3,4.5-5.3,7.4-6.8
						C61.5,119.5,61.4,119.3,61.3,119.4L61.3,119.4z"/>
				</g>
				<g>
					<path class="st6" d="M53.3,109c0.9,0.9,1.7,1.8,2.2,3c0.6,1.2,0.6,2.6,1,3.8c0,0.1,0.2,0.1,0.3,0c1.4-2.9-1-5.6-3.3-7.1
						C53.4,108.7,53.2,108.9,53.3,109L53.3,109z"/>
				</g>
				<g>
					<path class="st6" d="M63,102.6c-2.7,1.7-4.4,4.2-4.8,7.3c0,0.2,0.2,0.2,0.3,0.1c1.5-2.4,2.5-5.3,4.6-7.2
						C63.2,102.7,63.1,102.5,63,102.6L63,102.6z"/>
				</g>
			</g>
			<g>
				<g>
					<path class="st4" d="M75.6,111.5c-0.3,7.9-1,15.6-3.6,23.1c-1.1,3-2.6,5.9-4.3,8.6c-1.6,2.5-3.6,4.3-5.6,6.4
						c-0.1,0.1,0.1,0.3,0.2,0.3c5.1-2.2,8-9.2,10-13.9c3.2-7.6,3.4-16.3,3.5-24.4C75.8,111.4,75.6,111.4,75.6,111.5L75.6,111.5z"/>
				</g>
				<g>
					<path class="st4" d="M62.2,149.7c2.2-1.8,4.1-3.2,5.7-5.7c1.4-2.3,2.5-4.9,3.3-7.4c1.7-5.7,1.6-10.9,0.8-16.7
						c0-0.1-0.1-0.1-0.1,0c0,2.6,0.4,5.3,0.2,7.9c-0.1,2.5-0.7,5.1-1.3,7.6c-0.6,2.6-1.7,5.1-2.9,7.5c-1.4,2.8-3.6,4.5-5.8,6.6
						C62,149.6,62.1,149.8,62.2,149.7L62.2,149.7z"/>
				</g>
				<g>
					<path class="st4" d="M68.8,143c3.4-4.7,6.2-10.4,8.3-15.8c2.2-5.7,3.1-11.4,2.2-17.5c0-0.2-0.3-0.2-0.3,0
						c-0.1,2.6,0.1,5.2,0,7.8c-0.2,3.3-1.3,6.4-2.5,9.4c-1.1,2.8-2.4,5.4-3.8,8c-1.4,2.6-2.6,5.4-4.2,7.9
						C68.4,143,68.6,143.1,68.8,143L68.8,143z"/>
				</g>
				<g>
					<path class="st4" d="M74.6,126.1c2-3.8,3-9.1,2.6-13.3c0-0.1-0.2-0.1-0.2,0c-0.5,4.3-1,9.2-2.7,13.2
						C74.3,126.2,74.6,126.3,74.6,126.1L74.6,126.1z"/>
				</g>
				<g>
					<path class="st4" d="M74.5,132.8c4.4-4.4,6.6-9.5,8.4-15.3c0-0.2-0.2-0.2-0.2-0.1c-1.1,2.4-2,4.9-3,7.2c-1.3,2.9-3.4,5.6-5.4,8
						C74.1,132.8,74.4,133,74.5,132.8L74.5,132.8z"/>
				</g>
				<g>
					<path class="st4" d="M70.3,138.1c0.8-3.9,0.3-8,0.2-11.9c0-0.2-0.3-0.1-0.3,0c-0.9,3.8,0.1,8-0.2,11.9
						C70,138.3,70.3,138.3,70.3,138.1L70.3,138.1z"/>
				</g>
				<path class="st4" d="M80.5,109.7c-0.1,0.6-0.7,1.1-1.3,1c-0.6-0.1-1.1-0.7-1-1.3c0.1-0.6,0.7-1.1,1.3-1
					C80.1,108.5,80.6,109.1,80.5,109.7z"/>
				<path class="st4" d="M83.9,117.9c-0.1,0.6-0.7,1.1-1.3,1c-0.6-0.1-1.1-0.7-1-1.3c0.1-0.6,0.7-1.1,1.3-1
					C83.5,116.7,84,117.3,83.9,117.9z"/>
				<path class="st4" d="M78.8,113.2c-0.1,0.6-0.7,1.1-1.3,1c-0.6-0.1-1.1-0.7-1-1.3c0.1-0.6,0.7-1.1,1.3-1
					C78.4,112,78.9,112.6,78.8,113.2z"/>
				<path class="st4" d="M76.9,111.2c-0.1,0.6-0.7,1.1-1.3,1c-0.6-0.1-1.1-0.7-1-1.3c0.1-0.6,0.7-1.1,1.3-1
					C76.5,110,77,110.6,76.9,111.2z"/>
				<path class="st4" d="M73.4,120.4c-0.1,0.6-0.7,1.1-1.3,1c-0.6-0.1-1.1-0.7-1-1.3c0.1-0.6,0.7-1.1,1.3-1
					C73.1,119.1,73.5,119.7,73.4,120.4z"/>
				<path class="st4" d="M71.6,126.6c-0.1,0.6-0.7,1.1-1.3,1c-0.6-0.1-1.1-0.7-1-1.3c0.1-0.6,0.7-1.1,1.3-1
					C71.2,125.3,71.6,125.9,71.6,126.6z"/>
			</g>
			<g>
				<path class="st3" d="M86.4,134.4C86.4,134.4,86.3,134.4,86.4,134.4c-3.2,2.5-7.6,2.5-11.3,2.1c-3.3-0.4-6.5-1.5-9.7-0.3
					c-2.3,0.9-5.2,2.5-5.7,5.2c-0.2,1.4,0,2.7,0.5,4c0,0.1,1.1,1.8,1.7,2.2c-0.9,0.5-1.6,1.2-2.3,1.9c-0.2,0.2,0.1,0.5,0.3,0.4
					c0.8-0.5,1.6-1.1,2.5-1.5c2,2.9,4,5.3,7.5,6.3c2.7,0.7,5.7,0,8.1-1.3c6.5-3.3,8.3-12.3,8.8-18.9
					C86.8,134.3,86.5,134.3,86.4,134.4z"/>
				<g>
					<path class="st8" d="M83.4,138c-3.5,3.5-9.1,4.7-13.6,6.2c-3.8,1.2-9.6,2.6-11.6,6.5c-0.2,0.4,0.2,0.8,0.6,0.5
						c2.1-1.5,4-3,6.4-4c2.4-1,4.9-1.8,7.4-2.6c4.3-1.4,7.7-3.2,11-6.3C83.9,138.1,83.6,137.8,83.4,138L83.4,138z"/>
				</g>
				<g>
					<path class="st8" d="M69.8,138.3c-2.8,2.3-7.1,5.8-8.1,9.4c-0.1,0.2,0.2,0.4,0.3,0.2c1.3-1.2,2.2-2.9,3.2-4.4
						c1.4-1.9,2.9-3.6,4.7-5.1C70.1,138.4,69.9,138.2,69.8,138.3L69.8,138.3z"/>
				</g>
				<g>
					<path class="st8" d="M73.4,139.6c-1,0.9-2,1.8-2.9,2.7c-0.7,0.7-1.6,1.4-1.9,2.4c0,0.1,0.1,0.2,0.2,0.2c0.9-0.5,1.4-1.4,2-2.2
						c0.9-1,1.8-2,2.7-2.9C73.7,139.7,73.6,139.5,73.4,139.6L73.4,139.6z"/>
				</g>
				<g>
					<path class="st8" d="M79.6,138.7c-1.3,0.9-3.3,2.4-3.5,4c0,0.1,0.1,0.1,0.1,0.1c0.6-0.4,1-1.1,1.4-1.6c0.6-0.8,1.3-1.6,2.1-2.3
						C79.8,138.8,79.7,138.7,79.6,138.7L79.6,138.7z"/>
				</g>
				<g>
					<path class="st8" d="M80.7,141.8c-0.9,0.2-1.8,0.1-2.7,0.1c-0.6,0-1.5,0-1.8,0.5c0,0.1,0,0.1,0,0.2c0.6,0.3,1.4,0.1,2.1-0.1
						c0.8-0.1,1.7-0.3,2.5-0.6C80.8,141.9,80.7,141.8,80.7,141.8L80.7,141.8z"/>
				</g>
				<g>
					<path class="st8" d="M80.3,145.5c-1.9,0.2-3.8,0.4-5.7,0.3c-0.9,0-1.7-0.1-2.6-0.2c-1.2-0.2-2.1-0.8-3.3-0.8
						c-0.1,0-0.3,0.2-0.2,0.3C71.4,148,76.9,146.3,80.3,145.5C80.4,145.6,80.3,145.5,80.3,145.5L80.3,145.5z"/>
				</g>
				<g>
					<path class="st8" d="M77.5,149.6c-5,0.9-10.2,0.3-14.7-2c-0.3-0.1-0.6,0.1-0.5,0.4c1,1.8,4.2,1.9,6.1,2.2
						c3,0.4,6.2,0.4,9.1-0.4C77.6,149.7,77.6,149.6,77.5,149.6L77.5,149.6z"/>
				</g>
			</g>
			<g>
				<path class="st3" d="M26,86.7c-1.8-2.3-4.8-3.1-6.5-0.2c-2.6,4.2-2.4,10-2.6,14.8c-0.3,6.5-2,12.8-2.4,19.2
					c-0.4,5.8,1.9,10.4,5.2,14.8c-0.5,3.4-0.4,6.8,1.2,9.8c0.1,0.2,0.4,0.1,0.4-0.1c0-2.9-0.3-5.7-0.3-8.5c3.6,1.3,7.1,0,9.8-2.8
					c3.6-3.8,4.1-10.1,4.7-15c0.7-6.4-0.1-12.6-2.4-18.6C31.3,95.6,29,90.6,26,86.7z"/>
				<g>
					<path class="st1" d="M22.7,91.7c1.5,7.6,2.5,15.2,1.7,23c-0.4,4-1.2,7.9-2.1,11.8c-0.6,2.4-2.3,5.5-1.4,7.9
						c0.1,0.4,0.7,0.3,0.7-0.1c0.2-3.2,1.5-6.2,2.2-9.3c0.8-3.7,1.3-7.4,1.7-11.2c0.6-7.5-0.7-14.8-2.6-22.1
						C22.9,91.6,22.7,91.6,22.7,91.7L22.7,91.7z"/>
				</g>
				<g>
					<path class="st1" d="M17.2,119.8c1.2,4.2,1.5,9.4,4,13.1c0.2,0.3,0.7,0.1,0.6-0.2c-1.2-4.3-2.7-8.8-4.4-12.9
						C17.3,119.7,17.2,119.7,17.2,119.8L17.2,119.8z"/>
				</g>
				<g>
					<path class="st1" d="M17.4,109.4c2.3,4.6,3.5,9.8,5.8,14.4c0.1,0.3,0.6,0.1,0.5-0.2c-0.6-2.7-1.9-5.2-3-7.7
						c-0.9-2.3-1.9-4.5-3.3-6.5C17.5,109.3,17.4,109.4,17.4,109.4L17.4,109.4z"/>
				</g>
				<g>
					<path class="st1" d="M19.2,100.8c1.9,3.5,4.1,7.2,5.4,11c0.1,0.4,0.7,0.2,0.6-0.2c-0.4-1.7-1.5-3.1-2.4-4.6
						c-1.2-2.1-2.2-4.3-3.5-6.3C19.3,100.6,19.2,100.7,19.2,100.8L19.2,100.8z"/>
				</g>
				<g>
					<path class="st1" d="M20.7,95.7c0.7,1.1,1.5,2.1,2.2,3.2c0.6,0.9,1.1,2,1.8,2.8c0,0.1,0.1,0,0.1-0.1c-0.4-2.3-2.3-4.5-4-6.1
						C20.8,95.5,20.7,95.6,20.7,95.7L20.7,95.7z"/>
				</g>
				<g>
					<path class="st1" d="M26.9,93c-0.7,1.6-1.4,3.2-1.9,4.9c-0.4,1.4-0.9,3-0.3,4.4c0,0.1,0.1,0,0.1,0c0.3-1.5,0.4-3.1,0.8-4.6
						c0.4-1.5,1.1-3,1.5-4.6C27.2,93,26.9,92.9,26.9,93L26.9,93z"/>
				</g>
				<g>
					<path class="st1" d="M31.3,100.3c-1.3,2.6-3.1,5-4.7,7.5c-0.8,1.3-2.1,3.3-1.6,4.8c0,0.1,0.3,0.2,0.3,0
						C26.1,108.1,29.4,104.5,31.3,100.3C31.4,100.3,31.3,100.3,31.3,100.3L31.3,100.3z"/>
				</g>
				<g>
					<path class="st1" d="M30,114.9c-1.3,1.7-2.8,3.4-4.3,5.1c-1,1.2-2.2,2.5-2.3,4.1c0,0.1,0.2,0.2,0.3,0.1
						c1.3-1.4,2.1-3.4,3.2-4.9c1.1-1.4,2.2-2.8,3.2-4.3C30.1,114.9,30,114.8,30,114.9L30,114.9z"/>
				</g>
				<g>
					<path class="st1" d="M31.4,124c-2.2,2.4-4.7,4.8-7.3,6.8c-1.1,0.9-3.1,2-3.1,3.7c0,0.3,0.4,0.4,0.6,0.2
						c0.9-1.6,2.3-2.6,3.7-3.8C27.6,128.8,29.7,126.5,31.4,124C31.5,124,31.5,124,31.4,124L31.4,124z"/>
				</g>
			</g>
		</g>
		<g class="st2">
			<path class="st0" d="M106.6,57c1.9,1.6,4.6,1.7,5.5-1.1c1.3-4,0-8.8-0.7-12.8c-1-5.4-0.8-11-1.7-16.4c-0.8-4.9-3.6-8.2-7.2-11.3
				c-0.2-2.9-1-5.7-2.9-7.9c-0.1-0.1-0.4,0-0.3,0.2c0.6,2.4,1.4,4.6,1.9,7c-3.3-0.4-5.9,1.4-7.6,4.2c-2.2,3.8-1.5,9.2-1,13.3
				c0.7,5.4,2.5,10.4,5.6,14.9C100.5,50.7,103.4,54.3,106.6,57z"/>
			<g>
				<path class="st9" d="M108.4,52.2c-2.7-6-5.1-12.1-5.9-18.7c-0.4-3.4-0.6-6.8-0.5-10.2c0-2.1,0.8-5-0.3-6.8
					c-0.2-0.3-0.6-0.1-0.6,0.2c0.4,2.7,0,5.5,0,8.2c0,3.2,0.3,6.4,0.8,9.6c0.9,6.4,3.4,12.2,6.4,17.8
					C108.3,52.4,108.4,52.3,108.4,52.2L108.4,52.2z"/>
			</g>
			<g>
				<path class="st9" d="M107.5,27.9c-1.8-3.3-3.1-7.5-5.9-10.1c-0.2-0.2-0.6,0-0.4,0.3C103.1,21.4,105.2,24.9,107.5,27.9
					C107.5,28,107.6,27.9,107.5,27.9L107.5,27.9z"/>
			</g>
			<g>
				<path class="st9" d="M109.4,36.5c-2.8-3.4-4.8-7.4-7.6-10.8c-0.2-0.2-0.5,0-0.4,0.3c1,2.1,2.6,3.9,4,5.8
					C106.5,33.5,107.8,35.1,109.4,36.5C109.3,36.6,109.4,36.6,109.4,36.5L109.4,36.5z"/>
			</g>
			<g>
				<path class="st9" d="M109.5,44c-2.2-2.6-4.8-5.2-6.6-8.1c-0.2-0.3-0.6-0.1-0.5,0.3c0.6,1.4,1.8,2.3,2.9,3.4
					C106.7,41.1,108,42.6,109.5,44C109.5,44.2,109.6,44.1,109.5,44L109.5,44z"/>
			</g>
			<g>
				<path class="st9" d="M109.3,48.6c-0.8-0.7-1.6-1.5-2.4-2.3c-0.7-0.7-1.3-1.4-2-2c-0.1,0-0.1,0-0.1,0.1c0.8,1.9,2.8,3.3,4.5,4.3
					C109.3,48.7,109.3,48.6,109.3,48.6L109.3,48.6z"/>
			</g>
			<g>
				<path class="st9" d="M104.7,51.9c0.3-1.5,0.5-3,0.6-4.5c0.1-1.2,0.2-2.6-0.6-3.7c0,0-0.1,0-0.1,0c0,1.3,0.3,2.6,0.2,4
					c-0.1,1.4-0.3,2.7-0.4,4.1C104.5,52,104.7,52.1,104.7,51.9L104.7,51.9z"/>
			</g>
			<g>
				<path class="st9" d="M99.6,46.7c0.6-2.5,1.6-4.8,2.4-7.1c0.4-1.2,1.1-3.1,0.4-4.3c-0.1-0.1-0.2-0.1-0.2,0.1
					C102.4,39.3,100.4,42.9,99.6,46.7C99.5,46.8,99.6,46.8,99.6,46.7L99.6,46.7z"/>
			</g>
			<g>
				<path class="st9" d="M97.9,34.4c0.8-1.7,1.7-3.3,2.5-5c0.6-1.2,1.3-2.5,1.1-3.9c0-0.1-0.2-0.1-0.2,0c-0.8,1.4-1,3.2-1.7,4.7
					c-0.6,1.4-1.3,2.7-1.8,4.2C97.7,34.5,97.8,34.5,97.9,34.4L97.9,34.4z"/>
			</g>
			<g>
				<path class="st9" d="M94.9,27.2c1.4-2.5,3-4.9,4.8-7.1c0.8-1,2.2-2.3,1.8-3.6c-0.1-0.3-0.4-0.3-0.5,0c-0.5,1.5-1.4,2.6-2.3,3.9
					C97.1,22.4,95.9,24.8,94.9,27.2C94.8,27.2,94.9,27.2,94.9,27.2L94.9,27.2z"/>
			</g>
		</g>
		<g class="st2">
			<path class="st4" d="M73.9,59.6c-6.9-1-3.1-9.8-0.3-14.9c-4,4.8-8.4,9.1-13.2,13.1c0.1,0.1,0.1,0.2,0.1,0.3
				c-0.2,1.3,0.3,1.8,0.8,2.9c0.7,1.3,0.6,3.1,0.4,4.5c-0.3,2.2-3,4.3-5.2,3.2c-2-1-2.3-3.3-1.7-5.6c-0.8,2.4-1.9,4.9-3.9,6.5
				c-1.8,1.4-5,1.1-5.9-1.2c-0.8-2.3,0-4.9,2.3-5.9c2-0.9,4.5-0.1,6.6-0.5c0.2-0.1,0.3-0.3,0.5-0.4c0,0,0.1,0,0.1-0.1
				c0.7-0.6,1.3-1.1,2-1.7c0.6-0.8,1.3-1.4,2-1.8c1.7-1.6,3.4-3.2,5.1-4.9c-3.6,1.6-8.3,2.4-9.3-2c-0.7-3.1,1-5.7,4.1-6.3
				c1.4-0.3,3.2,0.2,4.1,1.3c0.7,0.8,1.1,1.6,1.6,2.5c0.5,0.9,1.1,1.5,1.9,2.1c4.3-4.6,8.3-9.6,11.7-14.9c0.2-0.4,0.5-0.8,0.7-1.1
				c-3.5,2.8-7.9,4.6-11.3,1.8c-3.1-2.5-2-7.5,0.9-9.6c1.7-1.3,4-1.2,5.9-0.5c1.1,0.4,2.1,1.4,3.1,2.2c1.4,1.2,2.5,1.4,4.1,1.4
				c1.8-3.6,3.3-7.4,4.3-11.3c0.8-3,1.1-6.1,1.2-9.1c-1.3,2.6-3.3,4.9-5,6.5c-3.3,3.1-7.5,4.3-11.9,2.9c-4.4-1.5-3.5-7.4-0.7-9.9
				c2.2-2,4.7-2.7,7.7-3c3.5-0.3,7.2,1.2,10.1-1.4c0,0,0,0,0,0c0-1.3,0.1-2.7,0.2-4c0-0.3,0.5-0.3,0.6,0c1.6,4.4,1.7,9.2,0.9,14.1
				c3.6,2.9,10.3,0.9,12.2,6.3c1.1,3.1,0.5,7.2-2.8,8.8c-3.4,1.6-6.5,0.9-8.9-2c-1.5-1.7-2-4-2.2-6.4c-1.7,5.3-4.2,10.3-6.7,14.4
				c-1.1,1.7-2.2,3.4-3.4,5.1c0,0.1,0.1,0.2,0,0.3c-0.2,2.4,3,4.5,4.2,6.5c1.1,1.9,1.9,4.1,1.8,6.3C82.5,58.4,78,60.2,73.9,59.6z"/>
			<g>
				<path class="st5" d="M47.9,67.3c5.1-4.8,10-9.9,15.1-14.7c5.3-5,10.2-10.2,14.1-16.4c3.7-5.9,6.2-12.5,8.2-19.1
					c1-3.2,1.4-6.4,1.4-9.8c0-2.6-0.8-5.1-0.3-7.6c0.1-0.6,0.9-0.8,1.2-0.3c2.7,4.2,1.9,10.8,0.9,15.4c-1.4,6.9-4.4,13.8-7.7,20
					C73.3,49,60.5,58.1,48.1,67.5C47.9,67.6,47.7,67.4,47.9,67.3L47.9,67.3z"/>
			</g>
			<g>
				<path class="st5" d="M76.6,15c2.3-1.6,4.4-3.2,6.4-5.2c1.8-1.9,2.4-4.3,3.9-6.1c0.2-0.2,0.7-0.2,0.8,0.2
					c1.1,5.2-7.3,9.5-10.8,11.6C76.6,15.6,76.3,15.2,76.6,15L76.6,15z"/>
			</g>
			<g>
				<path class="st5" d="M96,24.7c-4.7-1.6-9.7-6.6-8.3-12.1c0.1-0.2,0.3-0.3,0.5-0.1c1.1,1.4,1.1,3.2,1.5,4.8
					c0.9,3.3,3.4,5.7,6.5,7C96.4,24.4,96.3,24.7,96,24.7L96,24.7z"/>
			</g>
			<g>
				<path class="st5" d="M71.2,33.9c2.3,0.1,4.3-0.2,6.3-1.3c1.7-0.9,2.7-2.6,4.4-3.4c0.2-0.1,0.5,0,0.5,0.3
					c-0.8,4.7-7.6,5.3-11.3,4.7C70.8,34.3,70.9,33.9,71.2,33.9L71.2,33.9z"/>
			</g>
			<g>
				<path class="st5" d="M73.6,53.4c-0.8-4.9-1.5-9.5,2.7-12.9c0.1-0.1,0.3,0.1,0.2,0.2c-2.3,3.7-2.9,8.5-2.7,12.7
					C73.8,53.5,73.6,53.5,73.6,53.4L73.6,53.4z"/>
			</g>
			<g>
				<path class="st5" d="M56.8,51.3c1.6,0.5,3.1,0.6,4.8,0.5c1.7-0.2,3.2-1,4.9-1.4c0.2,0,0.3,0.1,0.2,0.3c-2.3,3.4-6.8,2.6-10,1
					C56.5,51.5,56.6,51.2,56.8,51.3L56.8,51.3z"/>
			</g>
			<g>
				<path class="st5" d="M56,66.2c0.2-4.1,1.8-7.6,5-10.1c0.2-0.1,0.4,0.1,0.3,0.3c-1.7,3.2-4.2,6.3-5,9.9
					C56.3,66.4,56,66.4,56,66.2L56,66.2z"/>
			</g>
		</g>
		<g class="st2">
			<g>
				<path class="st3" d="M118.5,11.5c-1.6,0.6-3.1,0.4-4.7,0c-0.1,0-0.3,0.2-0.2,0.3c2.4,1.9,5.3,0.5,7.6-1.1
					c-0.9,1.3-1.9,2.4-3,3.5c-1.1,1.1-2.3,2-3.6,3c-1,0.3-2,0.2-3,0.2c-0.1,0-0.2,0.2-0.1,0.3c0.6,0.3,1.3,0.4,2,0.3
					c-0.9,0.6-1.9,1.3-2.9,1.8c-0.2,0.1,0,0.4,0.2,0.3c0.5-0.2,1-0.5,1.5-0.8c-0.3,0.7-0.3,1.5-0.2,2.1c0,0.1,0.2,0.1,0.3,0
					c0.1-0.5,0.2-1,0.3-1.4c0.1-0.5,0.3-0.8,0.6-1.2c1.7-0.9,3.4-2,5-3.2c-1,1.9-1.5,4-1.5,6.1c0,0.2,0.2,0.2,0.3,0
					c0.4-1.2,0.6-2.4,0.9-3.5c0.3-1.3,1-2.4,1.5-3.6c2.4-2.1,4.2-4.6,4.6-7.7c0-0.2-0.3-0.4-0.4-0.2c-0.6,1-1.1,2-1.7,2.9
					C120.8,10.3,119.7,11,118.5,11.5z"/>
			</g>
			<path class="st3" d="M115.6,21.2c0.6-1,1.9-1.4,3-0.8c1,0.6,1.4,1.9,0.8,3c-0.6,1-1.9,1.4-3,0.8C115.4,23.6,115,22.2,115.6,21.2z
				"/>
			<path class="st3" d="M110.6,21.8c0.6-1,1.9-1.4,3-0.8c1,0.6,1.4,1.9,0.8,3c-0.6,1-1.9,1.4-3,0.8
				C110.3,24.2,109.9,22.8,110.6,21.8z"/>
			<path class="st3" d="M107,19.3c0.6-1,1.9-1.4,3-0.8c1,0.6,1.4,1.9,0.8,3c-0.6,1-1.9,1.4-3,0.8C106.8,21.7,106.4,20.3,107,19.3z"
				/>
			<path class="st3" d="M109.5,15.3c0.6-1,1.9-1.4,3-0.8c1,0.6,1.4,1.9,0.8,3c-0.6,1-1.9,1.4-3,0.8
				C109.2,17.6,108.9,16.3,109.5,15.3z"/>
			<path class="st3" d="M112.4,10.2c0.6-1,1.9-1.4,3-0.8c1,0.6,1.4,1.9,0.8,3c-0.6,1-1.9,1.4-3,0.8
				C112.2,12.6,111.8,11.3,112.4,10.2z"/>
			<g>
				<path class="st1" d="M118.8,21.5c0.1,0.3,0.1,0.8-0.1,1.1c-0.1,0.2-0.2,0.3-0.3,0.4c-0.1,0.1-0.3,0.2-0.3,0.4
					c-0.1,0.2,0,0.4,0.2,0.4c0.5,0.1,0.9-0.5,1-0.9c0.1-0.5,0-1.1-0.2-1.5C119,21.2,118.8,21.3,118.8,21.5L118.8,21.5z"/>
			</g>
			<g>
				<path class="st1" d="M117.7,23.4c-0.2,0.1-0.4,0-0.6,0.2c0,0,0,0.1,0,0.2c0.2,0.2,0.5,0.1,0.7,0C118.1,23.7,118,23.4,117.7,23.4
					L117.7,23.4z"/>
			</g>
			<g>
				<path class="st1" d="M113.8,22.2c0,0.5,0,0.9-0.3,1.3c-0.2,0.4-0.7,0.5-1,0.7c-0.3,0.2-0.2,0.6,0.2,0.6c0.6,0,1-0.4,1.3-0.9
					c0.3-0.5,0.2-1.2,0.1-1.7C114,22,113.8,22,113.8,22.2L113.8,22.2z"/>
			</g>
			<g>
				<path class="st1" d="M112.2,24.3c-0.2-0.1-0.3-0.2-0.5-0.1c-0.1,0-0.1,0.1-0.1,0.2c0.1,0.2,0.3,0.2,0.5,0.2
					C112.3,24.5,112.3,24.3,112.2,24.3L112.2,24.3z"/>
			</g>
			<g>
				<path class="st1" d="M108.9,21.6c-0.3-0.1-0.6-0.3-0.9-0.5c-0.2-0.1-0.3-0.4-0.5-0.2c-0.1,0-0.1,0.2-0.1,0.2
					c0.2,0.6,0.9,0.7,1.4,0.7C109,21.8,109.1,21.6,108.9,21.6L108.9,21.6z"/>
			</g>
			<g>
				<path class="st1" d="M107.6,20.8C107.6,20.8,107.6,20.8,107.6,20.8C107.6,20.9,107.6,20.8,107.6,20.8L107.6,20.8z"/>
			</g>
			<g>
				<path class="st1" d="M107.7,20.4c-0.1-0.2-0.1-0.5-0.1-0.7c0-0.1-0.1-0.1-0.1,0c-0.1,0.3-0.1,0.5-0.1,0.8
					C107.4,20.7,107.7,20.6,107.7,20.4L107.7,20.4z"/>
			</g>
			<g>
				<path class="st1" d="M109.7,17.1c0-0.4,0.2-0.7,0.4-1c0.2-0.3,0.5-0.5,0.5-0.8c0-0.2-0.2-0.3-0.4-0.4c-0.5-0.1-0.7,0.5-0.8,0.9
					c-0.1,0.4,0,0.9,0.1,1.3C109.5,17.2,109.7,17.2,109.7,17.1L109.7,17.1z"/>
			</g>
			<g>
				<path class="st1" d="M111.3,14.9c0.1,0,0.1,0.1,0.2,0.1c0.3,0,0.3-0.3,0.1-0.4c-0.1,0-0.1,0-0.2,0
					C111.3,14.5,111.1,14.8,111.3,14.9L111.3,14.9z"/>
			</g>
			<g>
				<path class="st1" d="M113.5,12.4c-0.2-0.2-0.2-0.6-0.2-0.9c0.1-0.3,0.3-0.7,0.2-1c-0.1-0.2-0.3-0.3-0.4-0.2
					c-0.4,0.2-0.5,0.9-0.5,1.3c0,0.5,0.3,0.8,0.7,1.1C113.4,12.8,113.6,12.5,113.5,12.4L113.5,12.4z"/>
			</g>
			<g>
				<path class="st1" d="M113.9,9.8c0.2,0,0.3,0,0.4-0.2c0,0,0-0.1,0-0.1c-0.1,0-0.2,0-0.4,0C113.7,9.4,113.7,9.8,113.9,9.8
					L113.9,9.8z"/>
			</g>
		</g>
		<g class="st2">
			<path class="st3" d="M155.6,45.6c6.1,3.2,8.3-6.1,9-11.9c0.4,6.2,1.5,12.3,2.9,18.3c-0.1,0-0.2,0.1-0.3,0.2
				c-0.6,1.1-1.3,1.3-2.4,1.9c-1.3,0.7-2.3,2.1-3,3.4c-1.1,2-0.1,5.2,2.3,5.7c2.2,0.4,3.8-1.3,4.6-3.5c-0.8,2.4-1.3,5.1-0.7,7.5
				c0.6,2.2,3.4,3.9,5.5,2.5c2-1.3,2.9-4,1.6-6.1c-1.1-1.9-3.6-2.7-5-4.3c0-0.2-0.1-0.4-0.2-0.6c0,0,0-0.1-0.1-0.1
				c-0.2-0.8-0.4-1.7-0.6-2.6c0-1-0.2-1.9-0.5-2.6c-0.5-2.3-0.9-4.6-1.2-6.9c2,3.4,5.3,6.9,8.7,3.9c2.4-2.1,2.5-5.2,0.4-7.5
				c-1-1.1-2.7-1.7-4.1-1.4c-1,0.2-1.8,0.7-2.8,1.1c-1,0.5-1.8,0.6-2.8,0.6c-0.7-6.3-1-12.6-0.6-18.9c0-0.4,0.1-0.9,0.1-1.3
				c1.2,4.3,3.7,8.3,8,8.1c4-0.2,6-4.9,5-8.3c-0.6-2-2.5-3.3-4.5-3.9c-1.2-0.3-2.6-0.1-3.8,0c-1.9,0.2-2.8-0.4-4.1-1.3
				c0.7-4,1.7-7.9,3.2-11.7c1.1-2.9,2.7-5.5,4.4-8.1c-0.5,2.8-0.2,5.9,0.2,8.2c0.9,4.5,3.6,7.9,7.9,9.3c4.4,1.4,7.2-3.9,6.4-7.6
				c-0.6-2.9-2.2-5-4.4-6.9c-2.7-2.3-6.5-3.3-7.3-7.1c0,0,0,0,0,0c0.8-1.1,1.5-2.2,2.2-3.4c0.2-0.3-0.2-0.6-0.5-0.4
				c-3.9,2.6-6.8,6.5-9,10.8c-4.6,0.3-8.9-5.4-13.6-2.2c-2.7,1.9-4.7,5.5-2.9,8.7c1.8,3.3,4.7,4.5,8.3,3.7c2.2-0.5,4-2,5.5-3.9
				c-1.7,5.3-2.7,10.8-3.1,15.6c-0.2,2-0.2,4.1-0.2,6.1c-0.1,0.1-0.2,0.1-0.2,0.2c-1.2,2.1-5.1,1.9-7.2,2.8c-2,0.9-4,2.2-5.2,4
				C149.4,39.6,151.9,43.7,155.6,45.6z"/>
			<g>
				<path class="st8" d="M172,67.2c-1.3-6.9-2.2-13.8-3.5-20.7c-1.3-7.2-2.2-14.3-1.7-21.6c0.5-6.9,2.4-13.7,4.7-20.3
					c1.1-3.2,2.6-6,4.6-8.7c1.5-2.1,3.6-3.6,4.7-6c0.2-0.5-0.3-1.1-0.8-0.9c-4.6,1.8-7.9,7.6-9.8,11.9c-3,6.4-4.6,13.8-5.6,20.7
					c-2.3,15.9,2.7,30.7,7.2,45.7C171.8,67.4,172.1,67.4,172,67.2L172,67.2z"/>
			</g>
			<g>
				<path class="st8" d="M179.7,8.1c-0.9-2.6-1.7-5.2-2.1-8c-0.3-2.5,0.6-4.8,0.4-7.3c0-0.3-0.5-0.6-0.7-0.3c-4,3.6,0.3,12,1.9,15.8
					C179.4,8.5,179.8,8.3,179.7,8.1L179.7,8.1z"/>
			</g>
			<g>
				<path class="st8" d="M158.4,4.4c4.7,1.5,11.7,0.4,13.9-4.8c0.1-0.2-0.1-0.4-0.3-0.4c-1.7,0.5-2.7,1.9-4.1,3
					c-2.7,2.1-6.1,2.6-9.3,1.8C158.2,3.9,158.1,4.3,158.4,4.4L158.4,4.4z"/>
			</g>
			<g>
				<path class="st8" d="M172.9,26.5c-1.9-1.2-3.4-2.7-4.3-4.8c-0.8-1.7-0.7-3.7-1.5-5.3c-0.1-0.2-0.5-0.3-0.6,0
					c-2.1,4.3,3,8.8,6.3,10.5C173,27,173.1,26.7,172.9,26.5L172.9,26.5z"/>
			</g>
			<g>
				<path class="st8" d="M159.5,40.8c3.5-3.4,6.9-6.8,5.4-12c0-0.1-0.3-0.1-0.3,0c-0.3,4.3-2.6,8.6-5.3,11.8
					C159.3,40.8,159.4,40.9,159.5,40.8L159.5,40.8z"/>
			</g>
			<g>
				<path class="st8" d="M174.3,49c-1.6-0.5-2.9-1.3-4.2-2.4c-1.3-1.1-2-2.7-3.1-4c-0.1-0.1-0.3-0.1-0.3,0.1c-0.1,4.1,4,6.1,7.5,6.7
					C174.4,49.4,174.5,49,174.3,49L174.3,49z"/>
			</g>
			<g>
				<path class="st8" d="M166.1,61.5c2.3-3.4,3.1-7.2,2-11.1c-0.1-0.2-0.4-0.2-0.4,0c-0.5,3.6-0.3,7.6-1.8,10.9
					C165.8,61.5,166,61.7,166.1,61.5L166.1,61.5z"/>
			</g>
		</g>
		<g class="st2">
			<g>
				<path class="st3" d="M146.6,57.4c-3.6-9.5-6.8-19-7.5-29.2c-0.3-4.1,0.1-8.4,0.7-12.4c0.6-3.7,2.1-6.9,3.4-10.4
					c0.1-0.2-0.2-0.4-0.4-0.2c-4.9,5.2-4.9,14.9-4.8,21.6c0.1,10.6,4.3,21,8.2,30.7C146.5,57.6,146.7,57.5,146.6,57.4L146.6,57.4z"
					/>
			</g>
			<g>
				<path class="st3" d="M143,5.3c-1.7,3.3-3.3,6-3.9,9.6c-0.6,3.4-0.5,7-0.1,10.4c0.9,7.6,3.7,13.8,7.6,20.3c0.1,0.1,0.2,0,0.2-0.1
					c-1.4-3.1-3.1-6.1-4.3-9.3c-1.1-3-1.7-6.4-2.3-9.6c-0.6-3.4-0.6-6.9-0.4-10.4c0.3-4,2-7.2,3.5-10.8C143.3,5.3,143.1,5.1,143,5.3
					L143,5.3z"/>
			</g>
			<g>
				<path class="st3" d="M138.7,16.6c-1.6,7.4-2,15.5-1.8,23c0.2,7.9,2.2,15.1,6.2,21.9c0.1,0.2,0.4,0.1,0.3-0.1
					c-1.2-3.1-2.8-6.1-3.9-9.3c-1.5-4-1.7-8.3-1.8-12.5c-0.1-3.8,0.1-7.6,0.4-11.4c0.3-3.8,0.3-7.7,0.9-11.5
					C139.1,16.5,138.7,16.4,138.7,16.6L138.7,16.6z"/>
			</g>
			<g>
				<path class="st3" d="M140.3,39.6c-0.4,5.5,1.1,12.3,3.7,17.2c0.1,0.1,0.3,0,0.2-0.1c-1.6-5.4-3.5-11.4-3.5-17.1
					C140.7,39.3,140.3,39.3,140.3,39.6L140.3,39.6z"/>
			</g>
			<g>
				<path class="st3" d="M137,31.6c-3,7.4-3,14.6-2.2,22.5c0,0.2,0.3,0.2,0.3,0c0.1-3.4-0.2-6.8-0.1-10.1c0.1-4.1,1.2-8.3,2.3-12.2
					C137.5,31.4,137.1,31.3,137,31.6L137,31.6z"/>
			</g>
			<g>
				<path class="st3" d="M139.3,23.1c1.1,5,3.7,9.7,5.8,14.3c0.1,0.2,0.4,0,0.3-0.1c-0.9-5-4.2-9.4-5.8-14.2
					C139.5,22.8,139.3,22.9,139.3,23.1L139.3,23.1z"/>
			</g>
			<path class="st3" d="M141.8,62c-0.2-0.8,0.2-1.7,1.1-1.9c0.8-0.2,1.7,0.2,1.9,1.1c0.2,0.8-0.2,1.7-1.1,1.9
				C142.8,63.3,142,62.8,141.8,62z"/>
			<path class="st3" d="M133.5,54c-0.2-0.8,0.2-1.7,1.1-1.9c0.8-0.2,1.7,0.2,1.9,1.1c0.2,0.8-0.2,1.7-1.1,1.9
				C134.6,55.3,133.7,54.8,133.5,54z"/>
			<path class="st3" d="M141.9,57c-0.2-0.8,0.2-1.7,1.1-1.9c0.8-0.2,1.7,0.2,1.9,1.1c0.2,0.8-0.2,1.7-1.1,1.9
				C143,58.3,142.2,57.8,141.9,57z"/>
			<path class="st3" d="M145.2,58.4c-0.2-0.8,0.2-1.7,1.1-1.9c0.8-0.2,1.7,0.2,1.9,1.1c0.2,0.8-0.2,1.7-1.1,1.9
				C146.3,59.7,145.4,59.2,145.2,58.4z"/>
			<path class="st3" d="M144.7,45.8c-0.2-0.8,0.2-1.7,1.1-1.9c0.8-0.2,1.7,0.2,1.9,1.1c0.2,0.8-0.2,1.7-1.1,1.9
				C145.7,47,144.9,46.6,144.7,45.8z"/>
			<path class="st3" d="M143.7,37.5c-0.2-0.8,0.2-1.7,1.1-1.9c0.8-0.2,1.7,0.2,1.9,1.1c0.2,0.8-0.2,1.7-1.1,1.9
				C144.8,38.8,144,38.3,143.7,37.5z"/>
		</g>
		<g class="st2">
			<g>
				<path class="st3" d="M38.5,36.9c8.9-4.8,17.6-9.8,24.8-17.1c2.9-2.9,5.4-6.3,7.6-9.8c2-3.2,3-6.6,4.3-10.1
					c0.1-0.2,0.4-0.1,0.4,0.1c0.3,7.1-6.2,14.5-10.6,19.4C58,27.3,48,32.5,38.7,37.1C38.5,37.2,38.4,37,38.5,36.9L38.5,36.9z"/>
			</g>
			<g>
				<path class="st3" d="M75.5,0.1c-0.9,3.6-1.5,6.6-3.4,9.8c-1.8,2.9-4.3,5.6-6.8,7.9c-5.7,5.1-11.8,8-19,10.3
					c-0.1,0-0.2-0.1-0.1-0.2c3.1-1.5,6.3-2.5,9.3-4.1c2.9-1.6,5.5-3.7,8.1-5.7c2.7-2.2,5-4.8,7.1-7.6c2.4-3.2,3.2-6.8,4.5-10.5
					C75.3-0.1,75.6-0.1,75.5,0.1L75.5,0.1z"/>
			</g>
			<g>
				<path class="st3" d="M71.4,11.4c-3.6,6.6-8.6,13-13.7,18.5c-5.4,5.8-11.5,9.9-19.1,12.4c-0.2,0.1-0.3-0.2-0.2-0.3
					c3-1.6,6.1-2.8,9-4.4c3.7-2,6.7-5.1,9.6-8.2c2.6-2.8,4.9-5.8,7.2-8.9c2.2-3.1,4.9-6,6.9-9.3C71.1,11.1,71.5,11.2,71.4,11.4
					L71.4,11.4z"/>
			</g>
			<g>
				<path class="st3" d="M55,27.7c-3.3,4.4-8.9,8.6-14,10.5c-0.1,0.1-0.2-0.2-0.1-0.2c4.8-3,10.1-6.3,13.8-10.5
					C54.9,27.2,55.2,27.5,55,27.7L55,27.7z"/>
			</g>
			<g>
				<path class="st3" d="M62.8,23.8c-2.7,7.6-7.3,13-13.1,18.3c-0.2,0.1-0.4,0-0.2-0.2c2.1-2.6,4.6-5,6.7-7.6
					c2.6-3.1,4.6-7,6.3-10.7C62.5,23.3,62.9,23.5,62.8,23.8L62.8,23.8z"/>
			</g>
			<g>
				<path class="st3" d="M66.6,15.9c-4.1,3.1-9.2,4.8-13.8,6.9c-0.2,0.1-0.3-0.2-0.2-0.3c4-3.2,9.3-4.4,13.7-6.9
					C66.6,15.6,66.8,15.8,66.6,15.9L66.6,15.9z"/>
			</g>
			<path class="st3" d="M39.2,43.6c0.7-0.5,0.9-1.4,0.4-2.1c-0.5-0.7-1.4-0.9-2.1-0.4c-0.7,0.5-0.9,1.4-0.4,2.1
				C37.5,43.9,38.5,44.1,39.2,43.6z"/>
			<path class="st3" d="M50.7,43c0.7-0.5,0.9-1.4,0.4-2.1c-0.5-0.7-1.4-0.9-2.1-0.4c-0.7,0.5-0.9,1.4-0.4,2.1
				C49,43.3,49.9,43.5,50.7,43z"/>
			<path class="st3" d="M42.3,39.7c0.7-0.5,0.9-1.4,0.4-2.1c-0.5-0.7-1.4-0.9-2.1-0.4c-0.7,0.5-0.9,1.4-0.4,2.1
				C40.7,40,41.6,40.2,42.3,39.7z"/>
			<path class="st3" d="M39,38.6c0.7-0.5,0.9-1.4,0.4-2.1c-0.5-0.7-1.4-0.9-2.1-0.4c-0.7,0.5-0.9,1.4-0.4,2.1
				C37.3,38.9,38.3,39.1,39,38.6z"/>
			<path class="st3" d="M47.7,29.5c0.7-0.5,0.9-1.4,0.4-2.1c-0.5-0.7-1.4-0.9-2.1-0.4c-0.7,0.5-0.9,1.4-0.4,2.1
				C46,29.7,47,29.9,47.7,29.5z"/>
			<path class="st3" d="M53.8,23.8c0.7-0.5,0.9-1.4,0.4-2.1c-0.5-0.7-1.4-0.9-2.1-0.4c-0.7,0.5-0.9,1.4-0.4,2.1
				C52.1,24.1,53.1,24.3,53.8,23.8z"/>
		</g>
		<g class="st2">
			<path class="st4" d="M122.1,35.7C122.2,35.7,122.2,35.7,122.1,35.7c2.5-4.6,7.7-6.9,12.4-8.2c4.1-1.2,8.4-1.5,11.7-4.6
				c2.3-2.2,4.9-5.6,4.1-9c-0.4-1.8-1.4-3.2-2.7-4.5c-0.1-0.1-2.3-1.6-3.1-1.8c0.7-1.1,1.3-2.2,1.7-3.5c0.1-0.3-0.4-0.5-0.6-0.3
				c-0.7,1.1-1.4,2.1-2.1,3c-3.8-2.4-7.4-4.3-12-3.6c-3.6,0.5-6.7,2.9-9,5.6c-6,7.3-3.6,18.8-0.7,26.9
				C121.8,36.1,122.1,36,122.1,35.7z"/>
			<g>
				<path class="st5" d="M123.9,30c2.3-5.9,8.3-10.2,13-14.3c3.9-3.4,10.1-8,10.5-13.6c0-0.6-0.7-0.8-1-0.3c-1.7,2.9-3.2,5.6-5.5,8
					c-2.3,2.5-5,4.6-7.5,6.9c-4.3,3.9-7.5,7.8-9.9,13.1C123.3,30.1,123.7,30.3,123.9,30L123.9,30z"/>
			</g>
			<g>
				<path class="st5" d="M139.8,22.6c2.2-4.1,5.4-10.4,4.8-15.3c0-0.3-0.4-0.3-0.5-0.1c-0.9,2.1-1.1,4.6-1.6,6.8
					c-0.7,2.9-1.7,5.7-3,8.4C139.5,22.7,139.7,22.8,139.8,22.6L139.8,22.6z"/>
			</g>
			<g>
				<path class="st5" d="M134.8,22.9c0.7-1.6,1.4-3.1,2.1-4.7c0.5-1.2,1.2-2.5,1-3.8c0-0.1-0.2-0.2-0.3-0.1
					c-0.8,1.1-0.9,2.4-1.3,3.6c-0.5,1.6-1.1,3.3-1.7,4.9C134.5,23,134.7,23.1,134.8,22.9L134.8,22.9z"/>
			</g>
			<g>
				<path class="st5" d="M128,27.2c1-1.7,2.7-4.5,2.1-6.5c0-0.1-0.2-0.1-0.2,0c-0.5,0.8-0.6,1.8-0.9,2.7c-0.4,1.3-0.8,2.5-1.3,3.8
					C127.7,27.2,127.9,27.3,128,27.2L128,27.2z"/>
			</g>
			<g>
				<path class="st5" d="M125.1,24c1-0.7,2.1-1.1,3.2-1.6c0.7-0.3,1.7-0.7,1.9-1.6c0-0.1,0-0.2-0.1-0.2c-0.9-0.1-1.7,0.7-2.4,1.1
					c-0.9,0.6-1.9,1.3-2.7,2.1C124.9,24,125.1,24.1,125.1,24L125.1,24z"/>
			</g>
			<g>
				<path class="st5" d="M123.7,19.5c2.1-1.3,4.3-2.4,6.6-3.3c1-0.4,2.1-0.8,3.1-1.1c1.5-0.4,2.9-0.1,4.3-0.8c0.2-0.1,0.2-0.4,0-0.5
					c-4.8-1.8-10.5,2.9-14.1,5.5C123.6,19.4,123.7,19.5,123.7,19.5L123.7,19.5z"/>
			</g>
			<g>
				<path class="st5" d="M124.9,13.2c5.4-3.6,11.9-5.5,18.4-5.1c0.4,0,0.7-0.5,0.3-0.7c-2.1-1.7-6-0.1-8.3,0.5
					c-3.8,1-7.5,2.6-10.6,5.1C124.7,13.1,124.8,13.2,124.9,13.2L124.9,13.2z"/>
			</g>
		</g>
		<g class="st2">
			<path class="st4" d="M176.2,126.3C176.2,126.4,176.2,126.4,176.2,126.3c-2.7,3.6-2.7,8.4-2.1,12.6c0.5,3.6,1.8,7.1,0.4,10.8
				c-0.9,2.5-2.7,5.8-5.7,6.3c-1.6,0.3-3,0-4.4-0.6c-0.1,0-2.1-1.2-2.5-1.8c-0.6,1-1.3,1.8-2.1,2.6c-0.2,0.2-0.6-0.1-0.4-0.4
				c0.6-0.9,1.1-1.8,1.6-2.8c-3.2-2.1-6-4.3-7.1-8.2c-0.8-3-0.1-6.3,1.3-9c3.6-7.2,13.6-9.4,20.9-10
				C176.3,126,176.4,126.3,176.2,126.3z"/>
			<g>
				<path class="st5" d="M172.3,129.7c-3.8,3.9-5.2,10.1-6.7,15.2c-1.3,4.3-2.8,10.7-7.1,13c-0.4,0.2-0.9-0.2-0.6-0.6
					c1.7-2.4,3.3-4.5,4.4-7.2c1.1-2.7,1.9-5.5,2.8-8.3c1.5-4.8,3.5-8.6,6.8-12.3C172.2,129.2,172.5,129.5,172.3,129.7L172.3,129.7z"
					/>
			</g>
			<g>
				<path class="st5" d="M172.1,144.8c-2.5,3.2-6.3,7.9-10.3,9.1c-0.2,0.1-0.4-0.2-0.3-0.4c1.3-1.5,3.2-2.5,4.8-3.7
					c2-1.6,3.9-3.3,5.6-5.3C172,144.5,172.2,144.7,172.1,144.8L172.1,144.8z"/>
			</g>
			<g>
				<path class="st5" d="M170.6,140.8c-1,1.1-2,2.2-3,3.3c-0.8,0.8-1.6,1.8-2.7,2.1c-0.1,0-0.2-0.1-0.2-0.2c0.6-1,1.6-1.5,2.4-2.3
					c1.1-1,2.2-2,3.2-3.1C170.5,140.5,170.7,140.7,170.6,140.8L170.6,140.8z"/>
			</g>
			<g>
				<path class="st5" d="M171.5,134c-0.9,1.4-2.6,3.7-4.4,4c-0.1,0-0.1-0.1-0.1-0.2c0.5-0.7,1.2-1.1,1.8-1.6
					c0.9-0.7,1.7-1.5,2.5-2.3C171.5,133.7,171.6,133.8,171.5,134L171.5,134z"/>
			</g>
			<g>
				<path class="st5" d="M168,132.8c-0.2,1-0.1,2-0.1,3c0,0.7,0,1.6-0.6,2.1c-0.1,0-0.2,0-0.2,0c-0.4-0.6-0.1-1.6,0-2.3
					c0.1-0.9,0.4-1.9,0.7-2.8C167.9,132.7,168.1,132.7,168,132.8L168,132.8z"/>
			</g>
			<g>
				<path class="st5" d="M164,133.3c-0.2,2.1-0.4,4.2-0.3,6.3c0,1,0.1,1.9,0.3,2.8c0.2,1.3,1,2.3,0.9,3.7c0,0.2-0.2,0.3-0.3,0.2
					c-3.1-3.2-1.4-9.3-0.6-13C163.9,133.2,164,133.2,164,133.3L164,133.3z"/>
			</g>
			<g>
				<path class="st5" d="M159.4,136.4c-0.9,5.5-0.2,11.3,2.5,16.3c0.2,0.3-0.1,0.7-0.5,0.5c-2.1-1.1-2.2-4.7-2.5-6.8
					c-0.5-3.3-0.6-6.8,0.3-10.1C159.3,136.3,159.4,136.3,159.4,136.4L159.4,136.4z"/>
			</g>
		</g>
		<g class="st2">
			<path class="st0" d="M218,61.5c3.3,1.8,7.3,1.3,7.9-3.1c0.9-6.3-2.3-13.1-4.4-18.9c-2.9-7.8-4.1-16.1-6.9-24
				C212,8.5,207,4.2,200.8,0.7c-1.1-4.3-2.9-8.3-6.4-11c-0.2-0.2-0.5,0.1-0.4,0.3c1.5,3.5,3.3,6.5,4.7,9.9c-5,0.3-8.5,3.6-10.2,8.3
				c-2.3,6.3,0.2,14.1,2.1,20.1c2.5,7.9,6.5,14.9,12.3,20.8C207.2,53.7,212.4,58.4,218,61.5z"/>
			<g>
				<path class="st9" d="M219.3,53.9c-5.6-8.3-10.8-16.7-13.8-26.3c-1.5-4.9-2.7-10-3.5-15.1c-0.5-3.1-0.1-7.6-2.3-10.1
					c-0.4-0.4-1,0-0.8,0.5c1.3,3.9,1.4,8.2,2.1,12.2c0.9,4.8,2.2,9.5,3.8,14.1c3.1,9.3,8.4,17.3,14.3,24.9
					C219.2,54.2,219.4,54,219.3,53.9L219.3,53.9z"/>
			</g>
			<g>
				<path class="st9" d="M211.6,17.8c-3.6-4.4-6.6-10.4-11.4-13.5c-0.4-0.2-0.8,0.2-0.6,0.6c3.6,4.5,7.7,9.1,11.8,13.1
					C211.6,18,211.7,17.9,211.6,17.8L211.6,17.8z"/>
			</g>
			<g>
				<path class="st9" d="M216.6,30.2c-5.1-4.3-9.2-9.8-14.2-14.1c-0.3-0.3-0.7,0.2-0.5,0.5c2.1,2.8,4.9,5.1,7.4,7.6
					c2.2,2.2,4.6,4.3,7.2,6.1C216.6,30.4,216.7,30.2,216.6,30.2L216.6,30.2z"/>
			</g>
			<g>
				<path class="st9" d="M218.9,41.3c-4-3.2-8.5-6.5-12-10.3c-0.4-0.4-0.9,0.1-0.6,0.5c1.3,1.9,3.4,2.9,5.2,4.3
					c2.5,1.9,4.8,3.9,7.4,5.7C218.9,41.6,219,41.4,218.9,41.3L218.9,41.3z"/>
			</g>
			<g>
				<path class="st9" d="M219.7,48.2c-1.4-0.9-2.8-1.8-4.2-2.7c-1.2-0.8-2.3-1.8-3.6-2.4c-0.1,0-0.1,0.1-0.1,0.1
					c1.7,2.6,5,4.1,7.8,5.2C219.7,48.4,219.8,48.2,219.7,48.2L219.7,48.2z"/>
			</g>
			<g>
				<path class="st9" d="M213.8,54.4c0-2.3,0-4.6-0.2-6.8c-0.2-1.9-0.4-4-1.9-5.3c-0.1,0-0.1,0-0.1,0.1c0.4,2,1.1,3.9,1.4,5.9
					c0.3,2.1,0.3,4.1,0.5,6.2C213.5,54.6,213.8,54.6,213.8,54.4L213.8,54.4z"/>
			</g>
			<g>
				<path class="st9" d="M204.8,48c0.3-3.8,1.2-7.5,1.8-11.3c0.3-1.9,0.8-5-0.6-6.5c-0.1-0.1-0.4-0.1-0.3,0.1
					c1.3,5.8-0.7,11.8-0.9,17.7C204.7,48.1,204.8,48.1,204.8,48L204.8,48z"/>
			</g>
			<g>
				<path class="st9" d="M198.9,30.2c0.7-2.8,1.6-5.4,2.5-8.2c0.6-1.9,1.3-4.1,0.7-6c-0.1-0.2-0.3-0.2-0.4,0c-0.8,2.3-0.7,5-1.3,7.5
					c-0.6,2.2-1.2,4.4-1.6,6.7C198.8,30.2,198.9,30.2,198.9,30.2L198.9,30.2z"/>
			</g>
			<g>
				<path class="st9" d="M192.6,20.1c1.4-4,3.2-8.1,5.2-11.8c0.9-1.6,2.7-4,1.8-5.9c-0.2-0.4-0.7-0.3-0.8,0.1
					c-0.3,2.4-1.4,4.3-2.4,6.4C194.7,12.4,193.4,16.3,192.6,20.1C192.5,20.1,192.6,20.1,192.6,20.1L192.6,20.1z"/>
			</g>
		</g>
	</g>
	<g>
		<g>
			<path class="st10" d="M170.8,30.1c-3.3-4.1-5.6-9.8-5.2-15.2c0.2-1.8,1.3-5.6,3.6-2.9c0.3-1.4,1.5-2.3,2.4-1.1
				c1.4-2,3.2,0.1,3.8,1.6c0.9,2.3,0.2,5.2-0.4,7.5c-0.8,3.3-2.2,6.4-3,9.6c2.6-3,6.7-6.7,10.2-8.6c2.5-1.4,9.2-0.7,4.6,2.6
				c1.7-0.6,3.5,0.5,1.6,1.9c3.5-0.3,4.4,1.7,1.6,3.7c-2.2,1.5-5.5,2.5-8.1,2.8c-3,0.4-8.5,0.4-11-1.5"/>
			<path class="st10" d="M171,31c5.1,1.3,10.4,4.4,13.3,9c0.9,1.5,2.4,5.3-1.1,4.4c0.6,1.3,0.2,2.7-1.3,2.3c0.1,2.4-2.6,1.9-4,1
				c-2.1-1.3-3.3-4.1-4.2-6.2c-1.3-3.1-2.1-6.4-3.5-9.5c-0.2,4-1.3,9.4-3,13c-1.2,2.6-6.9,6.1-5.2,0.7c-1,1.5-3.1,1.7-2.5-0.6
				c-2.6,2.4-4.5,1.3-3.5-2c0.8-2.5,2.9-5.4,4.8-7.2c2.2-2.1,6.5-5.5,9.7-5.5"/>
			<path class="st10" d="M171.7,30.8c-3.1-4.4-9-8.8-14.1-10.2c-1.1-0.3-4.6-1.3-5.4,0.1c-0.8,1.5,1.1,2.8,2.3,3.2
				c-1.7-0.2-3.8,1.1-1.6,2.3c-2.1-0.2-2.2,1.2-1.5,2.7c1.3,2.6,5.5,2.2,8.1,2.4c4.2,0.3,8.7,1.6,12.6-0.4"/>
		</g>
		<path class="st11" d="M172.8,30.2c0,1.5-1.2,2.7-2.7,2.7c-1.5,0-2.7-1.2-2.7-2.7c0-1.5,1.2-2.7,2.7-2.7
			C171.6,27.6,172.8,28.8,172.8,30.2z"/>
	</g>
	<g>
		<g>
			<path class="st12" d="M58.5,80.7c-1.8-2.3-3.1-5.4-2.8-8.4c0.1-1,0.7-3.1,2-1.6c0.2-0.7,0.8-1.3,1.3-0.6c0.8-1.1,1.7,0,2.1,0.9
				c0.5,1.3,0.1,2.9-0.2,4.1c-0.4,1.8-1.2,3.5-1.6,5.3c1.4-1.7,3.7-3.7,5.6-4.7c1.4-0.7,5.1-0.4,2.5,1.4c1-0.3,1.9,0.3,0.9,1.1
				c1.9-0.2,2.4,0.9,0.9,2c-1.2,0.8-3,1.4-4.5,1.6C63,82,60,82,58.6,81"/>
			<path class="st12" d="M58.6,81.2c2.8,0.7,5.7,2.4,7.3,5c0.5,0.8,1.3,2.9-0.6,2.4c0.3,0.7,0.1,1.5-0.7,1.3c0,1.3-1.4,1-2.2,0.6
				c-1.2-0.7-1.8-2.2-2.3-3.4c-0.7-1.7-1.1-3.5-1.9-5.2c-0.1,2.2-0.7,5.2-1.6,7.2c-0.7,1.4-3.8,3.4-2.9,0.4c-0.6,0.8-1.7,1-1.4-0.3
				c-1.4,1.3-2.5,0.7-1.9-1.1c0.4-1.4,1.6-3,2.6-4c1.2-1.2,3.6-3,5.3-3"/>
			<path class="st12" d="M59,81.1c-1.7-2.4-4.9-4.9-7.8-5.6c-0.6-0.2-2.5-0.7-3,0.1c-0.5,0.8,0.6,1.6,1.3,1.8
				c-0.9-0.1-2.1,0.6-0.9,1.3c-1.1-0.1-1.2,0.7-0.8,1.5c0.7,1.4,3,1.2,4.4,1.3c2.3,0.2,4.8,0.9,6.9-0.2"/>
		</g>
		<path class="st13" d="M59.6,80.8c0,0.8-0.7,1.5-1.5,1.5c-0.8,0-1.5-0.7-1.5-1.5c0-0.8,0.7-1.5,1.5-1.5
			C58.9,79.3,59.6,80,59.6,80.8z"/>
	</g>
	<g>
		<g>
			<path class="st11" d="M109.5,139.7c-1.8-2.3-3.1-5.4-2.8-8.4c0.1-1,0.7-3.1,2-1.6c0.2-0.7,0.8-1.3,1.3-0.6c0.8-1.1,1.7,0,2.1,0.9
				c0.5,1.3,0.1,2.9-0.2,4.1c-0.4,1.8-1.2,3.5-1.6,5.3c1.4-1.7,3.7-3.7,5.6-4.7c1.4-0.7,5.1-0.4,2.5,1.4c1-0.3,1.9,0.3,0.9,1.1
				c1.9-0.2,2.4,0.9,0.9,2c-1.2,0.8-3,1.4-4.5,1.6c-1.7,0.2-4.7,0.2-6.1-0.8"/>
			<path class="st11" d="M109.6,140.2c2.8,0.7,5.7,2.4,7.3,5c0.5,0.8,1.3,2.9-0.6,2.4c0.3,0.7,0.1,1.5-0.7,1.3c0,1.3-1.4,1-2.2,0.6
				c-1.2-0.7-1.8-2.2-2.3-3.4c-0.7-1.7-1.1-3.5-1.9-5.2c-0.1,2.2-0.7,5.2-1.6,7.2c-0.7,1.4-3.8,3.4-2.9,0.4c-0.6,0.8-1.7,1-1.4-0.3
				c-1.4,1.3-2.5,0.7-1.9-1.1c0.4-1.4,1.6-3,2.6-4c1.2-1.2,3.6-3,5.3-3"/>
			<path class="st11" d="M110,140.1c-1.7-2.4-4.9-4.9-7.8-5.6c-0.6-0.2-2.5-0.7-3,0.1c-0.5,0.8,0.6,1.6,1.3,1.8
				c-0.9-0.1-2.1,0.6-0.9,1.3c-1.1-0.1-1.2,0.7-0.8,1.5c0.7,1.4,3,1.2,4.4,1.3c2.3,0.2,4.8,0.9,6.9-0.2"/>
		</g>
		<path class="st13" d="M110.6,139.8c0,0.8-0.7,1.5-1.5,1.5c-0.8,0-1.5-0.7-1.5-1.5c0-0.8,0.7-1.5,1.5-1.5
			C109.9,138.3,110.6,139,110.6,139.8z"/>
	</g>
	<g>
		<g>
			<path class="st11" d="M225,77.9c5.4-1.6,14.2-0.1,17.8,4.7c4.3,5.9-1.7,8.8-6.8,6.2c6.8,4.5,2.5,13.1-2.9,6.2
				c4.6,9.6-9.5,11.9-12.6,2.3c-1.9-5.8-1.2-11.8,1.6-17C218,87.1,210.2,94,201.6,93c-9.7-1.1-7.1-6.5-1.6-11.1
				c-7.1,0.8-8.6-9.3-1.8-7.9c-3.9-0.7-5.4-4.9-3.8-8.3c2.6-5.6,8-3.8,12.6-2.1c6.5,2.4,10.7,7.1,14.3,12.9"/>
			<path class="st11" d="M222.4,78.3c7.4-0.5,19.1-5.9,20.3-14.1c1-6.8-4.3-6.9-8.7-3.3c7.5-5.7-5-12.8-6.9-3.9
				c2.7-5.6-5.2-5.2-7.6-1.5c-4,6.1-1.1,17.9,0.9,24.1"/>
			<path class="st13" d="M220.7,79.6c-1.1-0.8-1.3-2.3-0.5-3.4c0.8-1.1,2.3-1.3,3.4-0.5c1.1,0.8,1.3,2.3,0.5,3.4
				C223.3,80.2,221.7,80.4,220.7,79.6z"/>
		</g>
		<g>
			<g>
				<path class="st14" d="M232.6,79.4c-2.5-1.3-6.5-3.4-9-1.1c-0.1,0.1,0,0.3,0.2,0.3c2.9-1.3,6,0,8.7,1
					C232.7,79.7,232.7,79.5,232.6,79.4L232.6,79.4z"/>
			</g>
			<g>
				<path class="st14" d="M228,82.9c-0.7-0.6-1.5-1.2-2.1-1.9c-0.8-0.8-1.2-1.8-1.7-2.7c0-0.1-0.2-0.1-0.2,0
					c0.4,2.1,2.2,3.6,3.9,4.8C228,83.1,228.1,82.9,228,82.9L228,82.9z"/>
			</g>
			<g>
				<path class="st14" d="M225.2,86.4c-0.9-1-1.5-2.2-2-3.4c-0.3-0.7-0.6-1.5-0.7-2.3c-0.1-0.6,0.2-1.1,0.4-1.6
					c0-0.1-0.1-0.2-0.2-0.2c-1.4,0.2-0.8,2.4-0.5,3.2c0.5,1.6,1.6,3.1,2.6,4.5C225.1,86.8,225.4,86.6,225.2,86.4L225.2,86.4z"/>
			</g>
			<g>
				<path class="st14" d="M221.8,78.7c-2.7,1.2-3.5,3.6-3.3,6.4c0,0.1,0.2,0.1,0.2,0c0.3-2.4,1.1-4.9,3.3-6.2
					C222.1,78.9,221.9,78.6,221.8,78.7L221.8,78.7z"/>
			</g>
			<g>
				<path class="st14" d="M220.6,77.9c-2.2-1.1-4.9,0.2-6.4,1.9c-0.1,0.1,0.1,0.3,0.2,0.2c1.9-1,3.7-2.5,6-1.8
					C220.7,78.4,220.9,78,220.6,77.9L220.6,77.9z"/>
			</g>
			<g>
				<path class="st14" d="M220.8,76.5c-1.8-0.9-3.8-2.3-4.4-4.3c0-0.1-0.2-0.1-0.2,0c-0.1,2.4,2.7,3.8,4.5,4.7
					C220.9,77,221,76.6,220.8,76.5L220.8,76.5z"/>
			</g>
			<g>
				<path class="st14" d="M222.6,75.8c-1.2-1.4-1.6-3.5-1.1-5.2c0-0.1-0.1-0.2-0.2-0.1c-1.8,1.4-0.4,4.4,1,5.6
					C222.5,76.1,222.7,75.9,222.6,75.8L222.6,75.8z"/>
			</g>
			<g>
				<path class="st14" d="M223.2,76.4c0.4-1.4,1.3-2.9,2.8-3.3c0.1,0,0.1-0.2,0-0.2c-1.7,0.2-2.7,1.8-3.1,3.3
					C222.8,76.5,223.1,76.6,223.2,76.4L223.2,76.4z"/>
			</g>
			<g>
				<path class="st14" d="M223.8,77.1c1-1.4,2.6-1.7,4.1-2.1c0.2,0,0.2-0.3,0-0.3c-1.8-0.4-3.6,0.6-4.5,2.1
					C223.3,77.1,223.7,77.4,223.8,77.1L223.8,77.1z"/>
			</g>
			<g>
				<path class="st14" d="M225.1,72.2c-0.8,1,0.8,2.3,1.6,1.2C227.6,72.3,225.9,71.1,225.1,72.2L225.1,72.2z"/>
			</g>
			<g>
				<path class="st14" d="M227.7,74.3c-0.6,0.8,0.7,1.8,1.3,1C229.6,74.4,228.3,73.5,227.7,74.3L227.7,74.3z"/>
			</g>
			<g>
				<path class="st14" d="M227.2,82.6c-0.6,0.8,0.6,1.7,1.2,0.9C229,82.8,227.8,81.8,227.2,82.6L227.2,82.6z"/>
			</g>
			<g>
				<path class="st14" d="M227.1,77c-0.2,0.2-0.4,0.5-0.3,0.8c0.1,0.4,0.4,0.6,0.8,0.6c0.3,0,0.5-0.3,0.7-0.5
					C228.5,77.2,227.6,76.6,227.1,77L227.1,77z"/>
			</g>
			<g>
				<path class="st14" d="M232.3,79c-0.2,0.2-0.4,0.5-0.3,0.8c0.1,0.4,0.4,0.6,0.8,0.6c0.3,0,0.5-0.3,0.7-0.5
					C233.7,79.2,232.8,78.6,232.3,79L232.3,79z"/>
			</g>
			<g>
				<path class="st14" d="M225.4,85.2c-0.4,0-0.8,0.1-1,0.5c-0.3,0.4-0.2,1,0.2,1.3c0,0,0,0,0,0c-0.1-0.1-0.2-0.3-0.3-0.4
					c0.1,0.1,0.1,0.2,0.2,0.3c0.4,0.5,1.2,0.5,1.7,0C226.6,86.2,226.2,85.2,225.4,85.2L225.4,85.2z"/>
			</g>
			<g>
				<path class="st14" d="M217.9,83.7c-0.7,1,0.8,2.1,1.5,1.1C220.1,83.9,218.7,82.8,217.9,83.7L217.9,83.7z"/>
			</g>
			<g>
				<path class="st14" d="M221.9,81.1c-0.3,0.1-0.6,0.4-0.6,0.8c0,0.2,0,0.4,0.2,0.6c0,0,0.6,0.5,0.3,0.2c0.5,0.4,1.4,0,1.5-0.6
					C223.2,81.3,222.5,80.8,221.9,81.1L221.9,81.1z"/>
			</g>
			<g>
				<path class="st14" d="M216.4,77.7C216.4,77.7,216.4,77.7,216.4,77.7c0,0.8,0.6,1.2,1.2,1c0,0,0,0,0.1,0c0.7-0.2,0.7-1.2,0.2-1.6
					C217.4,76.7,216.5,77,216.4,77.7L216.4,77.7z"/>
			</g>
			<g>
				<path class="st14" d="M213.9,79.1c-0.5,0.7,0.6,1.6,1.1,0.9C215.6,79.2,214.4,78.4,213.9,79.1L213.9,79.1z"/>
			</g>
			<g>
				<path class="st14" d="M215.5,72.9c0,0,0,0.1,0,0.1c0.1,0.3,0.3,0.5,0.7,0.5c0,0,0.1,0,0.1,0C218.6,73.5,214.9,70.7,215.5,72.9
					L215.5,72.9z"/>
			</g>
			<g>
				<path class="st14" d="M219.9,70.8C219.9,70.8,219.9,70.8,219.9,70.8c-0.2,0.3-0.1,0.7,0,0.9c0.2,0.4,0.5,0.6,1,0.7c0,0,0,0,0,0
					c0.9,0.2,1.6-0.9,1.3-1.7c-0.2-0.4-0.6-0.7-1-0.7C220.6,69.9,220.1,70.3,219.9,70.8L219.9,70.8z"/>
			</g>
			<g>
				<path class="st14" d="M215.2,71.8C215.2,71.8,215.2,71.8,215.2,71.8c-0.2,0.6,0.1,1.3,0.6,1.5c0.5,0.2,1.3,0,1.4-0.6
					c0,0,0,0,0-0.1c0.2-0.6,0-1.2-0.6-1.4C216,71,215.4,71.2,215.2,71.8L215.2,71.8z"/>
			</g>
			<g>
				<path class="st14" d="M219.2,75c-0.1-0.1-0.1-0.1-0.2-0.2c-0.8-0.7-1.9,0.8-1,1.3c0.1,0,0.2,0.1,0.3,0.1
					C219,76.6,219.7,75.6,219.2,75L219.2,75z"/>
			</g>
			<g>
				<path class="st14" d="M224.2,74.1c-0.4-0.2-0.8,0-1.1,0.3c-0.2,0.3-0.1,0.7,0.1,0.9c0.1,0.1,0.3,0.3,0.1,0.1
					c-0.1-0.3-0.2-0.6-0.3-0.9c0,0,0,0,0,0c-0.1,0.2,0,0.6,0.1,0.8c0,0,0,0,0,0.1c0.3,0.4,1,0.4,1.3,0
					C224.8,74.9,224.7,74.3,224.2,74.1L224.2,74.1z"/>
			</g>
			<g>
				<path class="st14" d="M224.1,77.2c-0.4-0.6-1.2-0.4-1.6,0c0.1-0.1,0.2-0.2,0.4-0.3c0,0,0,0-0.1,0c-0.5,0.3-0.8,1.1-0.2,1.4
					c-0.1-0.2-0.1-0.1,0.1,0.1c0,0,0.7,0.2,0.3,0.1c0.4,0.1,0.6,0.1,0.9-0.1C224.4,78.2,224.4,77.6,224.1,77.2L224.1,77.2z"/>
			</g>
		</g>
	</g>
	<g>
		<g>
			<path class="st12" d="M159.4,142.9c5.4-1.6,14.2-0.1,17.8,4.7c4.3,5.9-1.7,8.8-6.8,6.2c6.8,4.5,2.5,13.1-2.9,6.2
				c4.6,9.6-9.5,11.9-12.6,2.3c-1.9-5.8-1.2-11.8,1.6-17c-4.1,6.9-11.9,13.8-20.5,12.9c-9.7-1.1-7.1-6.5-1.6-11.1
				c-7.1,0.8-8.6-9.3-1.8-7.9c-3.9-0.7-5.4-4.9-3.8-8.3c2.6-5.6,8-3.8,12.6-2.1c6.5,2.4,10.7,7.1,14.3,12.9"/>
			<path class="st12" d="M156.8,143.3c7.4-0.5,19.1-5.9,20.3-14.1c1-6.8-4.3-6.9-8.7-3.3c7.5-5.7-5-12.8-6.9-3.9
				c2.7-5.6-5.2-5.2-7.6-1.5c-4,6.1-1.1,17.9,0.9,24.1"/>
			<path class="st13" d="M155.1,144.5c-1.1-0.8-1.3-2.3-0.5-3.4c0.8-1.1,2.3-1.3,3.4-0.5c1.1,0.8,1.3,2.3,0.5,3.4
				C157.7,145.1,156.2,145.4,155.1,144.5z"/>
		</g>
		<g>
			<g>
				<path class="st14" d="M167,144.4c-2.5-1.3-6.5-3.4-9-1.1c-0.1,0.1,0,0.3,0.2,0.3c2.9-1.3,6,0,8.7,1
					C167.1,144.6,167.2,144.4,167,144.4L167,144.4z"/>
			</g>
			<g>
				<path class="st14" d="M162.4,147.8c-0.7-0.6-1.5-1.2-2.1-1.9c-0.8-0.8-1.2-1.8-1.7-2.7c0-0.1-0.2-0.1-0.2,0
					c0.4,2.1,2.2,3.6,3.9,4.8C162.4,148.1,162.5,147.9,162.4,147.8L162.4,147.8z"/>
			</g>
			<g>
				<path class="st14" d="M159.7,151.4c-0.9-1-1.5-2.2-2-3.4c-0.3-0.7-0.6-1.5-0.7-2.3c-0.1-0.6,0.2-1.1,0.4-1.6
					c0-0.1-0.1-0.2-0.2-0.2c-1.4,0.2-0.8,2.4-0.5,3.2c0.5,1.6,1.6,3.1,2.6,4.5C159.5,151.8,159.8,151.5,159.7,151.4L159.7,151.4z"/>
			</g>
			<g>
				<path class="st14" d="M156.2,143.7c-2.7,1.2-3.5,3.6-3.3,6.4c0,0.1,0.2,0.1,0.2,0c0.3-2.4,1.1-4.9,3.3-6.2
					C156.5,143.8,156.4,143.6,156.2,143.7L156.2,143.7z"/>
			</g>
			<g>
				<path class="st14" d="M155.1,142.9c-2.2-1.1-4.9,0.2-6.4,1.9c-0.1,0.1,0.1,0.3,0.2,0.2c1.9-1,3.7-2.5,6-1.8
					C155.2,143.4,155.3,143,155.1,142.9L155.1,142.9z"/>
			</g>
			<g>
				<path class="st14" d="M155.2,141.4c-1.8-0.9-3.8-2.3-4.4-4.3c0-0.1-0.2-0.1-0.2,0c-0.1,2.4,2.7,3.8,4.5,4.7
					C155.3,141.9,155.5,141.5,155.2,141.4L155.2,141.4z"/>
			</g>
			<g>
				<path class="st14" d="M157,140.7c-1.2-1.4-1.6-3.5-1.1-5.2c0-0.1-0.1-0.2-0.2-0.1c-1.8,1.4-0.4,4.4,1,5.6
					C156.9,141.1,157.2,140.9,157,140.7L157,140.7z"/>
			</g>
			<g>
				<path class="st14" d="M157.7,141.3c0.4-1.4,1.3-2.9,2.8-3.3c0.1,0,0.1-0.2,0-0.2c-1.7,0.2-2.7,1.8-3.1,3.3
					C157.2,141.4,157.6,141.6,157.7,141.3L157.7,141.3z"/>
			</g>
			<g>
				<path class="st14" d="M158.3,142.1c1-1.4,2.6-1.7,4.1-2.1c0.2,0,0.2-0.3,0-0.3c-1.8-0.4-3.6,0.6-4.5,2.1
					C157.8,142.1,158.1,142.3,158.3,142.1L158.3,142.1z"/>
			</g>
			<g>
				<path class="st14" d="M159.6,137.1c-0.8,1,0.8,2.3,1.6,1.2C162,137.3,160.4,136.1,159.6,137.1L159.6,137.1z"/>
			</g>
			<g>
				<path class="st14" d="M162.2,139.3c-0.6,0.8,0.7,1.8,1.3,1C164.1,139.4,162.8,138.4,162.2,139.3L162.2,139.3z"/>
			</g>
			<g>
				<path class="st14" d="M161.7,147.6c-0.6,0.8,0.6,1.7,1.2,0.9C163.5,147.7,162.3,146.8,161.7,147.6L161.7,147.6z"/>
			</g>
			<g>
				<path class="st14" d="M161.5,142c-0.2,0.2-0.4,0.5-0.3,0.8c0.1,0.4,0.4,0.6,0.8,0.6c0.3,0,0.5-0.3,0.7-0.5
					C163,142.2,162.1,141.5,161.5,142L161.5,142z"/>
			</g>
			<g>
				<path class="st14" d="M166.7,144c-0.2,0.2-0.4,0.5-0.3,0.8c0.1,0.4,0.4,0.6,0.8,0.6c0.3,0,0.5-0.3,0.7-0.5
					C168.1,144.2,167.2,143.5,166.7,144L166.7,144z"/>
			</g>
			<g>
				<path class="st14" d="M159.8,150.1c-0.4,0-0.8,0.1-1,0.5c-0.3,0.4-0.2,1,0.2,1.3c0,0,0,0,0,0c-0.1-0.1-0.2-0.3-0.3-0.4
					c0.1,0.1,0.1,0.2,0.2,0.3c0.4,0.5,1.2,0.5,1.7,0C161,151.2,160.6,150.2,159.8,150.1L159.8,150.1z"/>
			</g>
			<g>
				<path class="st14" d="M152.4,148.7c-0.7,1,0.8,2.1,1.5,1.1C154.6,148.9,153.1,147.7,152.4,148.7L152.4,148.7z"/>
			</g>
			<g>
				<path class="st14" d="M156.3,146c-0.3,0.1-0.6,0.4-0.6,0.8c0,0.2,0,0.4,0.2,0.6c0,0,0.6,0.5,0.3,0.2c0.5,0.4,1.4,0,1.5-0.6
					C157.7,146.3,156.9,145.8,156.3,146L156.3,146z"/>
			</g>
			<g>
				<path class="st14" d="M150.9,142.7C150.9,142.7,150.9,142.7,150.9,142.7c0,0.8,0.6,1.2,1.2,1c0,0,0,0,0.1,0
					c0.7-0.2,0.7-1.2,0.2-1.6C151.8,141.6,150.9,142,150.9,142.7L150.9,142.7z"/>
			</g>
			<g>
				<path class="st14" d="M148.3,144.1c-0.5,0.7,0.6,1.6,1.1,0.9C150,144.2,148.9,143.3,148.3,144.1L148.3,144.1z"/>
			</g>
			<g>
				<path class="st14" d="M149.9,137.9c0,0,0,0.1,0,0.1c0.1,0.3,0.3,0.5,0.7,0.5c0,0,0.1,0,0.1,0
					C153.1,138.4,149.3,135.7,149.9,137.9L149.9,137.9z"/>
			</g>
			<g>
				<path class="st14" d="M154.3,135.7C154.3,135.7,154.3,135.7,154.3,135.7c-0.2,0.3-0.1,0.7,0,0.9c0.2,0.4,0.5,0.6,1,0.7
					c0,0,0,0,0,0c0.9,0.2,1.6-0.9,1.3-1.7c-0.2-0.4-0.6-0.7-1-0.7C155,134.9,154.6,135.2,154.3,135.7L154.3,135.7z"/>
			</g>
			<g>
				<path class="st14" d="M149.6,136.8C149.6,136.8,149.6,136.8,149.6,136.8c-0.2,0.6,0.1,1.3,0.6,1.5c0.5,0.2,1.3,0,1.4-0.6
					c0,0,0,0,0-0.1c0.2-0.6,0-1.2-0.6-1.4C150.5,135.9,149.9,136.2,149.6,136.8L149.6,136.8z"/>
			</g>
			<g>
				<path class="st14" d="M153.6,140c-0.1-0.1-0.1-0.1-0.2-0.2c-0.8-0.7-1.9,0.8-1,1.3c0.1,0,0.2,0.1,0.3,0.1
					C153.4,141.5,154.2,140.6,153.6,140L153.6,140z"/>
			</g>
			<g>
				<path class="st14" d="M158.6,139.1c-0.4-0.2-0.8,0-1.1,0.3c-0.2,0.3-0.1,0.7,0.1,0.9c0.1,0.1,0.3,0.3,0.1,0.1
					c-0.1-0.3-0.2-0.6-0.3-0.9c0,0,0,0,0,0c-0.1,0.2,0,0.6,0.1,0.8c0,0,0,0,0,0.1c0.3,0.4,1,0.4,1.3,0
					C159.3,139.9,159.1,139.3,158.6,139.1L158.6,139.1z"/>
			</g>
			<g>
				<path class="st14" d="M158.6,142.2c-0.4-0.6-1.2-0.4-1.6,0c0.1-0.1,0.2-0.2,0.4-0.3c0,0,0,0-0.1,0c-0.5,0.3-0.8,1.1-0.2,1.4
					c-0.1-0.2-0.1-0.1,0.1,0.1c0,0,0.7,0.2,0.3,0.1c0.4,0.1,0.6,0.1,0.9-0.1C158.9,143.2,158.8,142.6,158.6,142.2L158.6,142.2z"/>
			</g>
		</g>
	</g>
	<g>
		<g>
			<g>
				<path class="st1" d="M162.3,64.8c-1.6,1.8-3.2,3.8-5.3,4.9c0.6-2.5,0.7-5.3,0.2-7.7c-0.3-1.7-1.5-4.6-3.7-4.5
					c-2.1,0.1-3.3,3.1-3.8,4.8c-0.8,2.6-0.6,5.5,0.9,7.8c0.7,1,1.6,1.8,2.7,2.2c-1,1.3-2.7,2.7-4.2,1.8c-1.8-1-2-3.9-1.9-5.7
					c0-1.1,0.6-2.4,0.8-3.5c0.2-1.3,0.4-2.8,1.1-3.9c1.6-2.4-2-5-3.9-3c-2.4,2.5-2.3,6.1-1.7,9.2c0,0.1,0,0.1-0.1,0.2
					c-0.9,1.9-2,3.7-3.5,5.1c-0.4,0.3-0.7,0.6-1.1,0.8c-0.2,0-0.3,0.1-0.5,0.1c-0.5,0-0.8-0.1-1.2-0.4c-0.5-0.8-1.1-1.6-1.6-2.5
					c-0.9-1.7-0.4-4.2-0.2-6c0.1-0.8,0.1-1.6,0.1-2.3c0.3-0.3,0.5-0.7,0.8-1c2.7-3.1,4.8-6.4,6.1-10.3c1.2-3.6,3.8-14.3-2.3-15.1
					c-3-0.4-5.2,2.7-6.3,5.1c-1.9,4.1-2.6,8.5-3.1,12.9c-0.5,4.4-0.7,9-0.1,13.4c0,0.1,0,0.2,0,0.2c-0.6,1-1.2,2.1-1.8,3.1
					c-0.1,0.2-0.2,0.3-0.3,0.5c0,0-0.1,0.1-0.1,0.1c-1.6,2.1-4.1,3.6-5.9,0.5c-0.6-1-0.6-2.4-0.6-3.5c-0.1-2.1,0.1-4.1,0-6.2
					c0-0.1,0-0.3,0-0.4c0.4-0.5,0.8-0.9,1.2-1.4c4.4-5,7.8-12.3,7.1-19.1c-0.2-2.2-1.6-4.9-4.2-4.6c-2.4,0.3-4,3.2-5,5.1
					c-4.2,7.6-4.5,16.5-4.2,25c0,0.5,0.1,1,0.1,1.5c-1.2,2-2.5,4.1-4.4,5.6c-1,0.1-1.9,0.3-2.7-0.5c-0.4-0.4-0.5-1.4-0.7-1.9
					c-0.1-0.4-0.2-0.8-0.2-1.2c0.4-0.2,0.8-0.5,1.2-0.7c2-1.6,3.1-3.8,4-6.1c0.8-2,0.9-5.1-0.7-6.8c-1.5-1.6-3.5-0.8-4.9,0.6
					c-3.1,3.1-4.8,8.2-4.8,12.5c-0.1,3,1,5.7,3.9,6.6c5.5,1.7,8.8-5,9.7-6.6c0.4,1.5,1.1,2.9,2.1,4.2c1.3,1.6,3.9,3,5.8,2
					c1.3-0.7,2.4-1.6,3.2-2.6c0,0,0,0,0-0.1c1.1-1.2,2-2.7,2.8-3.9c0.7,2.3,1.8,4.4,3.9,5.6c1.1,0.9,2.8,1.2,4.6,0.3
					c2.2-1.1,3.6-3.7,4.6-5.8c0.4,1.9,0.9,3.9,2.1,5.6c1.5,2.2,4.2,2.8,6.6,1.6c1.5-0.8,2.6-2.1,3.3-3.6c0.8-0.1,1.6-0.3,2.4-0.8
					c2.3-1.4,3.6-4.3,4.5-6.7C163,64.8,162.5,64.6,162.3,64.8z M110.6,57.5c1.1-0.8,1.5,0.5,1.7,1.3c0.2,1.1-0.1,2.2-0.5,3.2
					c-0.5,1.7-1.5,3.4-2.8,4.7c-0.2,0.2-0.3,0.3-0.5,0.5c0-2.1,0.3-4.3,0.6-6.3C109.2,59.8,109.6,58.3,110.6,57.5z M138.6,41
					c0.3-0.8,0.7-2.1,1.7-2.1c1.3,0,1.5,2.3,1.6,3.1c0.3,3.3-0.7,6.8-1.8,9.8c-1.1,3-2.8,5.4-4.6,7.9c0.1-2.6,0.2-5.2,0.6-7.8
					C136.6,48.2,137.4,44.4,138.6,41z M122,55.8c0.2-2,0.4-4,0.8-6c0.3-2,0.4-4.1,0.7-6.1c0.2-1.4,0.4-2.7,1-3.9
					c0.7-1.4,2.2-2.2,3.3-0.6c1.4,2.1,0.6,5.5,0.3,7.7c-0.6,4.1-2.2,8.2-4.6,11.6c-0.5,0.8-1.1,1.5-1.6,2.3
					C121.7,59.1,121.8,57.4,122,55.8z M153.4,59.6c1.5-1.7,2.5,3.7,2.5,4.4c0.1,2.2-0.5,4.1-1.4,6c-1.8-0.7-2.8-3.2-2.9-5
					C151.6,63.4,152.3,60.9,153.4,59.6z"/>
				<path class="st1" d="M102.3,65.1c-0.1,0-0.1,0-0.2,0c0-0.2,0-0.4,0.1-0.6c0.2-1.8,0.6-3.6,0.7-5.4c0.1-1.4,0.5-3.6-0.3-4.7
					c-0.3-0.4-0.8-0.7-1.4-0.6c-1.7,0.5-2,2.5-2.2,4c-0.3,1.9-0.6,3.7-0.8,5.6c-0.1,0.7-0.2,1.5-0.2,2.2c-0.3,0.1-0.6,0.1-0.9,0.2
					c-1.5,0.3-3.1,0.6-4.6,0.9c0-0.6,0.1-1.2,0.1-1.7c0.2-2.8,0.4-5.5,0.6-8.3c0.2-2.5,2.1-5.1,0.7-7.6c-0.5-0.9-1.9-1.4-2.8-0.8
					c-2.1,1.4-2.5,4.7-3,7.1c-0.5,2.9-0.6,6-0.8,8.9c-0.1,1.3-0.2,2.6-0.2,3.8c-2.2,0.8-4.3,1.9-6.5,2.8c-0.5,0.2-0.1,0.8,0.3,0.8
					C83,71.6,85,71,87,70.4c0,0.8,0,1.6,0,2.3c0.1,2.5,0.2,5.7,1.9,7.6c0.3,0.3,0.8,0.3,1,0c1.7-1.7,2-4.8,2.2-7.1
					c0.1-1.4,0.2-2.8,0.2-4.3c1.8-0.4,3.6-0.7,5.5-1c0,0.6,0,1.2,0,1.8c0,1.7-0.1,4.2,1.3,5.4c0.3,0.3,0.7,0.3,1.1,0
					c1.3-1.1,1.3-3.3,1.4-4.9c0.1-0.9,0.2-1.8,0.2-2.7c0,0,0.1,0,0.1,0C103.3,67.5,103.8,65.3,102.3,65.1z"/>
			</g>
			<g>
				<path class="st1" d="M72.8,94.9c-0.6-1.6-1.1-3.3-1.1-5c0-1.5,1.1-3.7,2.9-2.9c2.3,1,3.9,5.1,4.4,7.4c0.1,0.3,0.5,0.2,0.5-0.1
					c0.2-3.8-2.4-12.1-7.8-9.6c-5.7,2.6-3.4,11.4-1.7,15.9c0.9,2.3,1.6,4.7,2.2,7.1c0.3,1.3,0.4,2.5,0.5,3.8c0,0.6,0.1,1.2,0,1.8
					c0,0.3-0.1,1.8,0,1.5c-0.1,0.5-0.2,0.9-0.3,1.4c-0.1,0.3-0.1,0.5-0.2,0.5c-0.4,0.4-1.4,1-0.1,0.5c-0.7,0.3-1.5,0.7-2.2,0.8
					c-3.4,0.4-3.5-5.5-4.3-7.9c-0.1-0.4-0.7-0.4-0.8,0c-0.5,2.6,0.3,5.4,1.7,7.7c1.5,2.6,2.9,5.2,6.4,5c3.4-0.2,5.9-1.5,7.3-4.8
					c1.1-2.8,0.5-6.1-0.5-8.8C78,104.3,74.8,99.9,72.8,94.9z M72.3,116.9C72.3,117,72.3,117,72.3,116.9L72.3,116.9z"/>
				<path class="st1" d="M96,86.8c-2.8,0.9-4.4,4-5.4,6.6c-1.4,3.4-2.1,6.9-3.1,10.4c0,0.1-0.1,0.2-0.1,0.4c-0.2-3-0.3-6-0.4-9
					c-0.1-2.9-4.1-2.8-4.5,0c-0.6,5.4,0.3,11,0.9,16.3c0.3,2.7,0.6,5.4,0.8,8.2c0.2,2.6-0.1,5.3,0.4,7.8c0.5,2,3.3,1.9,3.9,0
					c0.8-2.4,0.4-5.3,0.2-7.8c0-0.9-0.1-1.7-0.2-2.6c1.6,0.2,3.4-0.2,4.9-1.1c3.6-2.2,5-6.7,5.9-10.6c1.1-4.9,2.3-11.2,0.8-16.1
					C99.6,87.3,98,86.2,96,86.8z M88.8,109.9c0.7-3.6,1.5-7.1,2.5-10.6c0.7-2.6,1.5-5.2,2.9-7.5c0.5-0.9,2.8-4,3.6-2
					C99.4,94.1,94.4,114.2,88.8,109.9z"/>
				<path class="st1" d="M120.8,81.9c-4.4-0.5-7.8,5.5-9.5,8.6c-0.9,1.7-1.7,3.4-2.5,5.2c0-0.2,0-0.3,0-0.5c0.3-3,0.6-6.1-0.2-9.1
					c-0.4-1.4-2.3-1.6-3-0.4c-3.1,5.3-3,13.1-2.8,19.1c0.1,3.1,0.5,6.3,1,9.4c0.5,3,1.2,6.1,3.8,8c0.5,0.4,1.2,0,1.4-0.6
					c0.9-2.6,0.2-5.2-0.2-7.8c-0.3-2.1-0.5-4.2-0.5-6.4c0.2-0.1,0.4-0.2,0.6-0.3c1.1-0.8,2.3-1.6,3.5-2.3c1.2,1.7,0.9,5.2,1,7.3
					c0.1,3.4,1.7,10.9,6.8,9.2c0.9-0.3,1.7-1.1,1.6-2.1c-0.2-2-1.5-3.7-2-5.7c-0.5-2.1-0.6-4.3-1.1-6.4c-0.4-1.6-1.1-3.6-2.3-4.8
					c0.4-0.3,0.9-0.6,1.3-0.9c2.4-1.8,4.2-4.2,5.4-6.9C124.4,91.4,125.8,82.5,120.8,81.9z M119.5,94.9c-2.3,3.6-6.3,5.2-9.9,7.2
					c0.7-2,1.3-4.1,2.2-6c1.6-3.7,3.8-8.1,7.1-10.5c1.7-1.3,2.3-0.7,2.7,1.3C122.1,89.7,121,92.5,119.5,94.9z"/>
				<path class="st1" d="M133.8,90.5c-0.3-0.3-0.7-0.2-1,0c-1.7,1.5-1.3,4.6-1.5,6.7c-0.2,2.9-0.4,5.9-0.7,8.8
					c-0.4,4.5-1.1,9.1-1.2,13.7c-0.1,3.3,4.8,2.9,5.1-0.2c0.4-4.6,0.9-9.1,1-13.7c0-2.9,0.1-5.9,0-8.8
					C135.4,95,135.6,91.8,133.8,90.5z"/>
				<path class="st1" d="M134.3,83c-0.3-0.1-0.5-0.2-0.8-0.3c-0.3-0.1-0.6-0.1-1-0.1c-0.8,0-1.7,0.4-2.2,1c-0.2,0.2-0.4,0.5-0.5,0.7
					c0.2-0.2,0.3-0.4,0.5-0.7c-0.8,0.8-1.1,2.2-0.8,3.3c0.5,1.7,2.4,2.7,4.2,2.1c1.7-0.5,2.7-2.4,2.1-4.2
					C135.6,84.1,135,83.4,134.3,83z"/>
				<path class="st1" d="M156.4,84.5c-1.8,0.4-3.1,2.3-4.1,3.7c-1.9,2.5-3.3,5.5-4.5,8.3c-0.3,0.7-0.6,1.3-0.8,2
					c0.1-1.9,0.1-3.7,0.1-5.6c0-2.8,0.3-5.8-0.9-8.4c-0.7-1.6-3.5-1.6-4.2,0c-1.2,2.6-0.9,5.6-0.9,8.4c0,3,0.1,6,0.2,9
					c0.1,3,0.3,6.1,0.5,9.1c0.1,2-0.4,4.6,0.1,6.6c0.7,2.6,4.5,1.5,4-1.1c0.2,1.1,0.2-1.3,0.2-1.6c0-1.3,0.1-2.6,0.1-3.9
					c0-0.5,0-0.9,0.1-1.4c1-2.8,2.1-5.5,3.2-8.1c1.8-4.4,3.2-9.6,6.5-13.2c2-2.2,1.4,1.3,1.2,2.6c-0.5,2.8-1.5,5.6-2.3,8.3
					c-1.4,5.3-2.1,11.3-2.3,16.9c-0.5,2,1,4.4,3,5c2.7,0.8,5-1.3,5.2-4c0.6-7.1,1.1-14.2,1.4-21.3C162.4,92.6,161.7,83.2,156.4,84.5
					z"/>
				<path class="st1" d="M183.3,120c-0.1-3.5-0.5-7-1.1-10.4c0-0.3-0.1-0.9-0.1-1.7c0.1-0.7,0.1-1.5,0.2-2.2
					c0.3-2.9-4.2-4.1-5.5-1.5c-1.4,2.8-1.6,6.1-3.3,8.8c-0.1,0.2-0.4,0.6-0.7,0.7c-0.7,0.3-0.9,0.2-1.2,0.2c-0.3,0-0.3-0.1-0.2-0.1
					c-0.5-0.2-0.7-0.4-1-0.8c-3.1-3.1-3.7-9.2-3.6-13.3c0.1-4.2,1.4-10,4.2-13.2c2-2.4,4.6-0.4,5.8,1.7c0.9,1.6,1.5,3.3,2,5.1
					c0.3,1.1,1,3.3,0.6,4.3c-0.3,0.8,1.1,1.2,1.2,0.3c0.3-1.7,0.6-2.9,0.3-4.7c-0.4-2.2-1.2-4.3-2.2-6.2c-1.3-2.5-4.2-4.7-7.2-3.7
					c-2.8,1-4.2,4.4-5.1,7c-1,2.7-1.8,5.8-2,8.7c-0.2,3-0.1,6.1,0.1,9c0.3,3.3,0.8,7,2.9,9.7c2.4,3,6.7,3.3,9.7,1
					c0.9-0.7,1.7-1.6,2.4-2.6c0.1,1.7,0,3.4-0.1,5.2c-0.1,1.1-0.3,2.3-0.8,3.4c-0.2,0.5-0.6,0.9-1.1,1.2c-0.6,0.2-2.1-1.3-1.1-0.1
					c-0.7-0.9-1.7-1.3-2.8-0.7c0,0-0.1,0-0.1,0c-1.2,0.7-1.4,2.3-0.4,3.3c1.8,2,5.6,2.4,7.6,0.4C183.1,126.4,183.4,123.3,183.3,120z
					"/>
			</g>
		</g>
		<g>
			<path class="st11" d="M161.3,63.8c-1.6,1.8-3.1,3.8-5.3,4.9c0.6-2.5,0.7-5.3,0.2-7.7c-0.3-1.7-1.5-4.6-3.7-4.5
				c-2.1,0.1-3.3,3.1-3.8,4.8c-0.8,2.6-0.6,5.5,0.9,7.8c0.7,1,1.6,1.8,2.7,2.2c-1,1.3-2.7,2.7-4.2,1.8c-1.8-1-2-3.9-1.9-5.7
				c0-1.1,0.6-2.4,0.8-3.5c0.2-1.3,0.4-2.8,1.1-3.9c1.6-2.4-2-5-3.9-3c-2.4,2.5-2.3,6.1-1.7,9.2c0,0.1,0,0.1-0.1,0.2
				c-0.9,1.9-2,3.7-3.5,5.1c-0.4,0.3-0.7,0.6-1.1,0.8c-0.2,0-0.3,0.1-0.5,0.1c-0.5,0-0.8-0.1-1.2-0.4c-0.5-0.8-1.1-1.6-1.6-2.5
				c-0.9-1.7-0.4-4.2-0.2-6c0.1-0.8,0.1-1.6,0.1-2.3c0.3-0.3,0.5-0.7,0.8-1c2.7-3.1,4.8-6.4,6.1-10.3c1.2-3.6,3.8-14.3-2.3-15.1
				c-3-0.4-5.2,2.7-6.3,5.1c-1.9,4-2.6,8.5-3.1,12.9c-0.5,4.4-0.7,9-0.1,13.4c0,0.1,0,0.2,0,0.2c-0.6,1-1.2,2.1-1.8,3.1
				c-0.1,0.2-0.2,0.3-0.3,0.5c0,0-0.1,0.1-0.1,0.1c-1.6,2.1-4.1,3.6-5.9,0.5c-0.6-1-0.6-2.4-0.6-3.5c-0.1-2.1,0.1-4.1,0-6.2
				c0-0.1,0-0.3,0-0.4c0.4-0.5,0.8-0.9,1.2-1.4c4.4-5,7.8-12.3,7.1-19.1c-0.2-2.2-1.6-4.9-4.2-4.6c-2.4,0.3-4,3.2-5,5.1
				c-4.2,7.6-4.5,16.5-4.2,25c0,0.5,0.1,1,0.1,1.5c-1.2,2-2.5,4.1-4.4,5.6c-1,0.1-1.9,0.3-2.7-0.5c-0.4-0.4-0.5-1.4-0.7-1.9
				c-0.1-0.4-0.2-0.8-0.2-1.2c0.4-0.2,0.8-0.5,1.2-0.7c2-1.6,3.2-3.8,4-6.1c0.8-2,0.9-5.1-0.7-6.8c-1.5-1.6-3.5-0.8-4.9,0.6
				c-3.1,3.1-4.8,8.2-4.8,12.5c-0.1,3,1,5.7,3.9,6.6c5.5,1.7,8.8-5,9.7-6.6c0.4,1.5,1.1,2.9,2.1,4.2c1.3,1.6,3.9,3,5.8,2
				c1.3-0.7,2.4-1.6,3.2-2.6c0,0,0,0,0-0.1c1.1-1.2,2-2.7,2.8-3.9c0.7,2.3,1.8,4.4,3.9,5.6c1.1,0.9,2.8,1.2,4.6,0.3
				c2.2-1.1,3.6-3.7,4.6-5.8c0.4,1.9,0.9,3.9,2.1,5.6c1.5,2.2,4.2,2.8,6.6,1.6c1.5-0.8,2.6-2.1,3.3-3.6c0.8-0.1,1.6-0.3,2.4-0.8
				c2.3-1.4,3.6-4.3,4.5-6.7C162,63.8,161.5,63.6,161.3,63.8z M109.6,56.5c1.1-0.8,1.5,0.5,1.7,1.3c0.2,1.1-0.1,2.2-0.5,3.2
				c-0.5,1.7-1.5,3.4-2.8,4.7c-0.2,0.2-0.3,0.3-0.5,0.5c0-2.1,0.3-4.3,0.6-6.3C108.3,58.8,108.6,57.3,109.6,56.5z M137.6,40
				c0.3-0.8,0.7-2.1,1.7-2.1c1.3,0,1.5,2.3,1.6,3.1c0.3,3.3-0.7,6.8-1.8,9.8c-1.1,3-2.8,5.4-4.6,7.9c0.1-2.6,0.2-5.2,0.6-7.8
				C135.6,47.3,136.4,43.4,137.6,40z M121,54.8c0.2-2,0.4-4,0.8-6c0.3-2,0.4-4.1,0.7-6.1c0.2-1.4,0.4-2.7,1-3.9
				c0.7-1.4,2.2-2.2,3.3-0.6c1.4,2.1,0.6,5.5,0.3,7.7c-0.6,4.1-2.2,8.2-4.6,11.6c-0.5,0.8-1.1,1.5-1.6,2.3
				C120.8,58.1,120.8,56.4,121,54.8z M152.4,58.7c1.5-1.7,2.5,3.7,2.5,4.4c0.1,2.2-0.5,4.1-1.4,6c-1.8-0.7-2.8-3.2-2.9-5
				C150.6,62.4,151.3,59.9,152.4,58.7z"/>
			<path class="st11" d="M101.3,64.1c-0.1,0-0.1,0-0.2,0c0-0.2,0-0.4,0.1-0.6c0.2-1.8,0.6-3.6,0.7-5.4c0.1-1.4,0.5-3.6-0.3-4.7
				c-0.3-0.4-0.8-0.7-1.4-0.6c-1.7,0.5-2,2.5-2.2,4c-0.3,1.9-0.6,3.7-0.8,5.6c-0.1,0.7-0.2,1.5-0.2,2.2c-0.3,0.1-0.6,0.1-0.9,0.2
				c-1.5,0.3-3.1,0.6-4.6,0.9c0-0.6,0.1-1.2,0.1-1.7c0.2-2.8,0.4-5.5,0.6-8.3c0.2-2.5,2.1-5.1,0.7-7.6c-0.5-0.9-1.9-1.4-2.8-0.8
				c-2.1,1.4-2.5,4.7-3,7.1c-0.5,2.9-0.6,6-0.8,8.9c-0.1,1.3-0.2,2.6-0.2,3.8c-2.2,0.8-4.3,1.9-6.5,2.8c-0.5,0.2-0.1,0.8,0.3,0.8
				C82,70.6,84,70,86,69.4c0,0.8,0,1.6,0,2.3c0.1,2.5,0.2,5.7,1.9,7.6c0.3,0.3,0.8,0.3,1,0c1.7-1.7,2-4.8,2.2-7.1
				c0.1-1.4,0.2-2.8,0.2-4.3c1.8-0.4,3.6-0.7,5.5-1c0,0.6,0,1.2,0,1.8c0,1.7-0.1,4.2,1.3,5.4c0.3,0.3,0.7,0.3,1.1,0
				c1.3-1.1,1.3-3.3,1.4-4.9c0.1-0.9,0.2-1.8,0.2-2.7c0,0,0.1,0,0.1,0C102.3,66.5,102.8,64.3,101.3,64.1z"/>
		</g>
		<g>
			<path class="st11" d="M71.8,94c-0.6-1.6-1.1-3.3-1.1-5c0-1.5,1.1-3.7,2.9-2.9c2.3,1,3.9,5.1,4.4,7.4c0.1,0.3,0.5,0.2,0.5-0.1
				c0.2-3.8-2.4-12.1-7.8-9.6c-5.7,2.6-3.4,11.4-1.7,15.9c0.9,2.3,1.6,4.7,2.2,7.1c0.3,1.3,0.4,2.5,0.5,3.8c0,0.6,0.1,1.2,0,1.8
				c0,0.3-0.1,1.8,0,1.5c-0.1,0.5-0.2,0.9-0.3,1.4c-0.1,0.3-0.1,0.5-0.2,0.5c-0.4,0.4-1.4,1-0.1,0.5c-0.7,0.3-1.5,0.7-2.2,0.8
				c-3.4,0.4-3.5-5.5-4.3-7.9c-0.1-0.4-0.7-0.4-0.8,0c-0.5,2.6,0.3,5.4,1.7,7.7c1.5,2.6,2.9,5.2,6.4,5c3.4-0.2,5.9-1.5,7.3-4.8
				c1.1-2.8,0.5-6.1-0.5-8.8C77,103.3,73.8,98.9,71.8,94z M71.3,115.9C71.3,116,71.3,116,71.3,115.9L71.3,115.9z"/>
			<path class="st11" d="M95.1,85.8c-2.8,0.9-4.4,4-5.4,6.6c-1.4,3.4-2.1,6.9-3.1,10.4c0,0.1-0.1,0.2-0.1,0.4c-0.2-3-0.3-6-0.4-9
				c-0.1-2.9-4.1-2.8-4.5,0c-0.6,5.4,0.3,11,0.9,16.3c0.3,2.7,0.6,5.4,0.8,8.2c0.2,2.6-0.1,5.3,0.4,7.8c0.5,2,3.3,1.9,3.9,0
				c0.8-2.4,0.4-5.3,0.2-7.8c0-0.9-0.1-1.7-0.2-2.6c1.6,0.2,3.4-0.2,4.9-1.1c3.6-2.2,5-6.7,5.9-10.6c1.1-4.9,2.3-11.2,0.8-16.1
				C98.6,86.3,97,85.2,95.1,85.8z M87.8,108.9c0.7-3.6,1.5-7.1,2.5-10.6c0.7-2.6,1.5-5.2,2.9-7.5c0.5-0.9,2.8-4,3.6-2
				C98.4,93.2,93.4,113.2,87.8,108.9z"/>
			<path class="st11" d="M119.8,80.9c-4.4-0.5-7.8,5.5-9.5,8.6c-0.9,1.7-1.7,3.4-2.5,5.2c0-0.2,0-0.3,0-0.5c0.3-3,0.6-6.1-0.2-9.1
				c-0.4-1.4-2.3-1.6-3-0.4c-3.1,5.3-3,13.1-2.8,19.1c0.1,3.1,0.5,6.3,1,9.4c0.5,3,1.2,6.1,3.8,8c0.5,0.4,1.2,0,1.4-0.6
				c0.9-2.6,0.2-5.2-0.2-7.8c-0.3-2.1-0.5-4.2-0.5-6.4c0.2-0.1,0.4-0.2,0.6-0.3c1.1-0.8,2.3-1.6,3.5-2.3c1.2,1.7,0.9,5.2,1,7.3
				c0.1,3.4,1.7,10.9,6.8,9.2c0.9-0.3,1.7-1.1,1.6-2.1c-0.2-2-1.5-3.7-2-5.7c-0.5-2.1-0.6-4.3-1.1-6.4c-0.4-1.6-1.1-3.6-2.3-4.8
				c0.4-0.3,0.9-0.6,1.3-0.9c2.4-1.8,4.2-4.2,5.4-6.9C123.5,90.4,124.8,81.5,119.8,80.9z M118.5,93.9c-2.3,3.6-6.3,5.2-9.9,7.2
				c0.7-2,1.3-4.1,2.2-6c1.6-3.7,3.8-8.1,7.1-10.5c1.7-1.3,2.3-0.7,2.7,1.3C121.1,88.7,120.1,91.5,118.5,93.9z"/>
			<path class="st11" d="M132.8,89.5c-0.3-0.3-0.7-0.2-1,0c-1.7,1.5-1.3,4.6-1.5,6.7c-0.2,2.9-0.4,5.9-0.7,8.8
				c-0.4,4.5-1.1,9.1-1.2,13.7c-0.1,3.3,4.8,2.9,5.1-0.2c0.4-4.6,0.9-9.1,1-13.7c0-2.9,0.1-5.8,0-8.8
				C134.4,94,134.6,90.8,132.8,89.5z"/>
			<path class="st11" d="M133.3,82c-0.3-0.1-0.5-0.2-0.8-0.3c-0.3-0.1-0.6-0.1-1-0.1c-0.8,0-1.7,0.4-2.2,1c-0.2,0.2-0.4,0.5-0.5,0.7
				c0.2-0.2,0.3-0.4,0.5-0.7c-0.8,0.8-1.1,2.2-0.8,3.3c0.5,1.7,2.4,2.7,4.2,2.1c1.7-0.5,2.7-2.4,2.1-4.2
				C134.6,83.1,134,82.4,133.3,82z"/>
			<path class="st11" d="M155.4,83.5c-1.8,0.4-3.1,2.3-4.1,3.7c-1.9,2.5-3.3,5.5-4.5,8.3c-0.3,0.7-0.6,1.3-0.8,2
				c0.1-1.9,0.1-3.7,0.1-5.6c0-2.8,0.3-5.8-0.9-8.4c-0.7-1.6-3.5-1.6-4.2,0c-1.2,2.6-0.9,5.6-0.9,8.4c0,3,0.1,6,0.2,9
				c0.1,3,0.3,6.1,0.5,9.1c0.1,2-0.4,4.6,0.1,6.6c0.7,2.6,4.5,1.5,4-1.1c0.2,1.1,0.2-1.3,0.2-1.6c0-1.3,0.1-2.6,0.1-3.9
				c0-0.5,0-0.9,0.1-1.4c1-2.8,2.1-5.5,3.2-8.1c1.8-4.4,3.2-9.6,6.5-13.2c2-2.2,1.4,1.3,1.2,2.6c-0.5,2.8-1.5,5.6-2.3,8.3
				c-1.4,5.3-2.1,11.3-2.3,16.9c-0.5,2,1,4.4,3,5c2.7,0.8,5-1.3,5.2-4c0.6-7.1,1.1-14.2,1.4-21.3C161.4,91.6,160.7,82.2,155.4,83.5z
				"/>
			<path class="st11" d="M182.3,119c-0.1-3.5-0.5-7-1.1-10.4c0-0.3-0.1-0.9-0.1-1.7c0.1-0.7,0.1-1.5,0.2-2.2
				c0.3-2.9-4.2-4.1-5.5-1.5c-1.4,2.8-1.6,6.1-3.3,8.8c-0.1,0.2-0.4,0.6-0.7,0.7c-0.7,0.3-0.9,0.2-1.2,0.2c-0.3,0-0.3-0.1-0.2-0.1
				c-0.5-0.2-0.7-0.4-1-0.8c-3.1-3.1-3.7-9.2-3.6-13.3c0.1-4.2,1.4-10,4.2-13.2c2-2.4,4.6-0.4,5.8,1.7c0.9,1.6,1.5,3.3,2,5.1
				c0.3,1.1,1,3.3,0.6,4.3c-0.3,0.8,1.1,1.2,1.2,0.3c0.3-1.7,0.6-2.9,0.3-4.7c-0.4-2.2-1.2-4.3-2.2-6.2c-1.3-2.5-4.2-4.7-7.2-3.7
				c-2.8,1-4.2,4.4-5.1,7c-1,2.7-1.8,5.8-2,8.7c-0.2,3-0.1,6.1,0.1,9c0.3,3.3,0.8,7,2.9,9.7c2.4,3,6.7,3.3,9.7,1
				c0.9-0.7,1.7-1.6,2.4-2.6c0.1,1.7,0,3.4-0.1,5.2c-0.1,1.1-0.3,2.3-0.8,3.4c-0.2,0.5-0.6,0.9-1.1,1.2c-0.6,0.2-2.1-1.3-1.1-0.1
				c-0.7-0.9-1.7-1.3-2.8-0.7c0,0-0.1,0-0.1,0c-1.2,0.7-1.4,2.3-0.4,3.3c1.8,2,5.6,2.4,7.6,0.4C182.1,125.4,182.4,122.3,182.3,119z"
				/>
		</g>
	</g>
</g>
</svg>
