<svg xmlns="http://www.w3.org/2000/svg" viewBox="0 0 147.13 147.13"><defs><style>.cls-1{fill:#d3f661;}.cls-2{fill:#8eaa32;}</style></defs><title>sec1-svg2</title><g id="圖層_2" data-name="圖層 2"><g id="Layer_1" data-name="Layer 1"><circle class="cls-1" cx="73.57" cy="73.57" r="73.57"/><path class="cls-2" d="M63.36,20.58h2.38a20.62,20.62,0,0,1,8,2.08c2.2-1.38,5.26-2.08,9.19-2.08q12.28,0,16.84,14.43a33.92,33.92,0,0,1,.42,4.61A44,44,0,0,1,99.35,46h.42a26.13,26.13,0,0,0,4.42-.81l.78.37c.28,0,.42-.13.42-.37q10.8,0,16,10.11h22.81l.77.45q-8,16.65-8,17.77,0,.81,8,17.4l-.77.44h-22q-6.73,10.2-16.42,10.19a40,40,0,0,1-6.39-.89,38.11,38.11,0,0,1,.84,7.21q0,13-14,18.22l-3.58.45q-6.87-.83-8.84-2.53a25.19,25.19,0,0,1-9.19,2.53q-12.7,0-17.19-15.69a22.32,22.32,0,0,0-.42-3.42q.42-5.28,1.26-6.77h-.42a36.58,36.58,0,0,1-6,.89q-10.59,0-16-10.19H2.59a156.35,156.35,0,0,1,8-17.84L2.17,55.76l.77-.45H25.75q5.61-10.11,16-10.11,5.13.81,6,.81l-.84-6.39Q46.94,26.3,60.2,21A11.23,11.23,0,0,1,63.36,20.58ZM10.94,61.26q5.61,11.52,5.61,12.27-5.61,11.75-5.61,12.34H136.19v-.44l-5.61-11.9q5.61-11.67,5.61-12.27ZM21.75,72.71h12c.56.1.84.37.84.82s-.28.89-.84.89h-12c-.52,0-.78-.3-.78-.89S21.33,72.71,21.75,72.71Zm10.8-17.4H52.2v-.82A23,23,0,0,0,41,51.07Q36.49,51.07,32.55,55.31Zm0,36.06a10.62,10.62,0,0,0,8.84,4.24h.78a15.67,15.67,0,0,0,10.38-4.24Zm7.65-25h1.54c.57,0,.85.32.85.82,0,1.48.11,3.89.35,7.21h.42c0-5.35.39-8,1.19-8h2l.77.37q-1.62,14.43-2.81,14.43H41.74q-1.4,0-2.38-14.43ZM52.55,38.8q0,8.4,6.81,16.51H87.77Q94,48,94.58,41.33V38q0-7.95-10.38-11.9h-2c-1.17,0-4.09,1-8.77,3-3.56-2-6.5-3-8.84-3q-8.36,0-12,11Zm6,53Q53,101,53,104.54c-.28,0-.42.84-.42,2.53Q54.17,120.6,65,120.6q2.25,0,9.19-3,5,3,7.58,3h1.61q11.24-3,11.23-11.82v-2.16q0-7-6.81-15.25H78.58Q72.41,91.37,58.58,91.82Zm-4-25.43H60.2a.75.75,0,0,1,.77.82v1.26c0,.55-.26.82-.77.82h-2v2.6h2a.75.75,0,0,1,.77.82v2.16H58.16c0,1.09-.14,1.63-.42,1.63a3.44,3.44,0,0,1,.42,1.71h2.39q.84.15.84.9v1.26a.73.73,0,0,1-.84.82H55.36c-.52,0-.78-.27-.78-.82ZM73,65.94c2.38,0,3.58,1.12,3.58,3.35v1.34c0,.54-.26.82-.77.82h-1.2L73,69.29H72.2v8.92h1.19l.35-2.08v-.45a5,5,0,0,1-1.19-2.52l1.19-.9h2a.84.84,0,0,1,.77.9v7.21c0,.55-.26.82-.77.82s-.85-.27-.85-.82a8.09,8.09,0,0,1-3.15,1.26A4.09,4.09,0,0,1,69,77.77v-8C69,67.5,70.3,66.24,73,65.94Zm13.19.45h3.58q1.55,0,2,12.72c.28,0,.42.54.42,1.63l-.84.45H89.74c-.52,0-.77-.7-.77-2.08H87.35c0,1.38-.25,2.08-.77,2.08H85c-.52,0-.77-.27-.77-.82Q85.25,66.39,86.16,66.39Zm1.61,3.35v6.39h.78V74.87l-.35-5.13Zm6.81-14.8v.37h20q-2.67-4.25-10-4.24Q101.6,51.07,94.58,54.94Zm0,36.43q0,2.09,10.39,4.24h.77a10.38,10.38,0,0,0,8.84-4.24Zm6-25h2q.77,0,1.61,5.5h.35l-.35-3V67.21c0-.55.31-.82.78-.82h2.38v14c0,.55-.26.82-.77.82H105q-1.12,0-1.62-5.51h-.42v4.69c0,.55-.26.82-.77.82h-1.62c-.51,0-.77-.27-.77-.82V67.21C99.87,66.66,100.12,66.39,100.54,66.39Zm13.62,6.32h12c.51.1.77.37.77.82s-.26.89-.77.89h-12c-.52,0-.77-.3-.77-.89S113.69,72.71,114.16,72.71Z"/></g></g></svg>