<svg xmlns="http://www.w3.org/2000/svg" viewBox="0 0 147.13 147.13"><defs><style>.cls-1{fill:#d3f661;}.cls-2{fill:#8eaa32;}</style></defs><title>sec1-svg3</title><g id="圖層_2" data-name="圖層 2"><g id="Layer_1" data-name="Layer 1"><circle class="cls-1" cx="73.57" cy="73.57" r="73.57"/><path class="cls-2" d="M25.47,50.62q23,2.46,29.75,6.92,6.95,6.32,6.94,11.82V76.8a90.2,90.2,0,0,0,11.16,1.41q2.25,0,12.14-1.41l-.49-1V70.33Q85,55.6,109.6,52.11l12.56-1.49v.52q-7,36-22.32,36-3.65,0-12.07-3.94v-.53a91.34,91.34,0,0,0,16.28-11.3,54.61,54.61,0,0,0,6.53-7.88h-.49A50.76,50.76,0,0,1,86.37,80.22a42,42,0,0,1-6.52,1.93L82.65,92a23.43,23.43,0,0,1,6.95-1.48h2.81q13.11,0,20.91,35.47c-.29,0-.43.17-.43.52a3.11,3.11,0,0,0-1.4-.52Q85.26,126,77,113.24a25.48,25.48,0,0,1-1.4-5.88C76,100.18,76.76,96.38,78,96q15.17,18.89,21.33,20.22h.49v-.52q-13.55-7.22-24.63-33c-.56-2.62-1.19-3.94-1.89-3.94q-11.5,29.46-26.45,37.48v.45h.42q7.44-3,20-18.22c.6-1.49,1.23-2.31,1.89-2.45q1.75.36,2.32,10.85,0,15.84-28.84,18.74l-8.35,1-.49-1q8-35,20.91-35h3.71A21.85,21.85,0,0,1,64.06,92a64.2,64.2,0,0,0,3.23-9.89A58,58,0,0,1,37.53,64.46c0-.5-.46-1-1.4-1.49v.52Q46,75.91,57.53,81.71q1.83,0,1.83,1v.53a38.22,38.22,0,0,1-12.07,3.94q-15.09,0-22.32-36C25.3,51.14,25.47,51,25.47,50.62Zm41.82-30h.91q.48,12.5.49,18.22v4.46h1.89L71,39.77V25.49l.5-3.42h.91V40.81l.49,2.45h.91c.61,0,.91-.32.91-1V22.07h.92l.49,3.42V40.81l.49,2.45h1.82v-.52q0-6.47.49-22.16h.92Q82.66,43,82.65,46.24q0,7.57-6,11.3c-.52,0-.84,1.14-1,3.42q0,3.79,1.4,15.32a5.13,5.13,0,0,1-2.74,1H72.9c-1.64,0-2.57-.5-2.81-1.49A132.93,132.93,0,0,0,71.5,60q0-2.3-4.64-5.42a18.68,18.68,0,0,1-2.38-8.85Q65,38.58,67.29,20.58Z"/></g></g></svg>