<svg xmlns="http://www.w3.org/2000/svg" viewBox="0 0 147.13 147.13"><defs><style>.cls-1{fill:#d3f661;}.cls-2{fill:#8eaa32;}</style></defs><title>sec1-svg1</title><g id="圖層_2" data-name="圖層 2"><g id="Layer_1" data-name="Layer 1"><circle class="cls-1" cx="73.57" cy="73.57" r="73.57"/><path class="cls-2" d="M10.59,68.69h1.05q5.55,0,11.93,5.73V84.76a1,1,0,0,1-1.12,1.11H22q-11.65,0-16.77-10.33V75Q6.59,68.69,10.59,68.69Zm56.2-31.53v.6l1.13-.6H72.2q36.27,0,49.75,21.2v1.19a6.16,6.16,0,0,1-3.23,1.11H59.78c-.38,0-.56-.19-.56-.59l-1.06.59H26.8c-.89,0-1.43-.76-1.62-2.3Q29.47,49.58,42,44.08,48.13,39.91,66.79,37.16ZM28.41,64.68H38.73a84.38,84.38,0,0,1,9.68.59,16.14,16.14,0,0,1,4.35-.59c.7,0,1.05.2,1.05.59l5.41-.59H116q3.8,0,3.79,2.3a61.27,61.27,0,0,1,1,12.57v4.61a67.57,67.57,0,0,1-14.59,42.39H41.39Q31.64,116.67,27.92,99a83.93,83.93,0,0,1-1.68-14.87V80.74Q26.24,64.68,28.41,64.68Zm2.18,16.58v4q0,18.66,11.86,36.66l1.12.59h7q1,0,1-1.11-6.31-4.69-12.91-16.66-7.59-16.37-7.58-23.5ZM64.13,42.37v-.59Q43.72,45.28,32.2,55.53v.6h8.14q18.87-13.76,30.8-13.76v-.59c-.74,0-1.12-.2-1.12-.6A38.41,38.41,0,0,1,64.13,42.37ZM69,97.92a23,23,0,0,0,1.61,7.44q-7.78,3.42-10.24,3.42,0,3.12,2.1,4Q78.73,107.74,90,92.19v1.12Q80.62,106.77,73.81,110v1.11a37.74,37.74,0,0,0,10.32,1.71q13.26,0,16.2-26.32.49-.52.5-11.45Q69,81.71,69,97.92Zm3.79-77.34h1.61q8.28,0,10.25,12.05l-1.06.52H82.44A15.09,15.09,0,0,0,73.81,28a15.37,15.37,0,0,0-9.19,5.13H63.57A1,1,0,0,1,62.44,32Q65,20.58,72.76,20.58Zm17.82,69.9h.56V91.6h-.56ZM137,68.69h1.12c1.31,0,2.58,2.29,3.79,6.85q-5.19,10.33-17.33,10.33-1,0-1-1.11V75Q128.26,68.69,137,68.69Z"/></g></g></svg>