<?xml version="1.0" encoding="utf-8"?>
<!-- Generator: Adobe Illustrator 22.0.1, SVG Export Plug-In . SVG Version: 6.00 Build 0)  -->
<svg version="1.1" id="分離模式" xmlns="http://www.w3.org/2000/svg" xmlns:xlink="http://www.w3.org/1999/xlink" x="0px"
	 y="0px" viewBox="0 0 419 341" style="enable-background:new 0 0 419 341;" xml:space="preserve">
<style type="text/css">
	.st0{fill:#FFFFFF;}
	.st1{fill:#578A8E;}
	.st2{fill:#2F3D59;}
	.st3{fill:#EDCA72;}
	.st4{fill:#EFAE52;}
	.st5{fill:#EEBE71;}
	.st6{fill:#FEFEFC;}
	.st7{fill:#82979E;}
	.st8{fill:#DF876F;}
	.st9{fill:#CE6354;}
	.st10{fill:#AD4238;}
</style>
<path class="st0" d="M251.1,168.7c-0.7-10.8-4-21.8-8-32.1c0.4-0.3,0.8-0.8,1.4-1.5c1.2-1.3,2.7-3.3,4.2-5.7c1.5-2.4,3-5.3,4.3-8.4
	c1.3-3.2,2.4-6.6,3.2-10.1c0.8-3.5,1.4-7,1.6-10.4c0.1-1.7,0.2-3.4,0.2-4.9c0-1.6-0.1-3.1-0.2-4.5c-0.1-1.4-0.3-2.7-0.5-3.9
	c-0.2-1.2-0.4-2.2-0.7-3.1c-0.4-1.7-0.9-2.7-0.9-2.7s-0.8,0.7-2,2.1c-0.6,0.7-1.3,1.5-2,2.4c-0.7,1-1.5,2-2.2,3.2
	c-0.7,1.2-1.5,2.5-2.2,3.9c-0.7,1.4-1.4,2.9-2.1,4.5c-1.3,3.1-2.4,6.6-3.2,10.1c-0.8,3.5-1.4,7-1.6,10.4c-0.3,3.4-0.2,6.6,0.1,9.5
	c0.1,1.4,0.3,2.7,0.5,3.8c-0.3-0.8-0.6-1.5-1-2.3c-3.1-7.4-6.7-14.6-10.6-21.6c0.3-0.3,0.5-0.6,0.9-1c1.2-1.3,2.7-3.3,4.2-5.7
	c1.5-2.4,3-5.3,4.3-8.4c1.3-3.1,2.4-6.6,3.2-10.1c0.8-3.5,1.4-7,1.6-10.4c0.1-1.7,0.2-3.4,0.2-4.9c0-1.6-0.1-3.1-0.2-4.5
	c-0.1-1.4-0.3-2.7-0.5-3.9c-0.2-1.2-0.4-2.2-0.7-3.1c-0.4-1.7-0.9-2.7-0.9-2.7s-0.8,0.7-2,2.1c-0.6,0.7-1.3,1.5-2,2.4
	c-0.7,1-1.5,2-2.2,3.3c-0.7,1.2-1.5,2.5-2.2,3.9c-0.7,1.4-1.4,2.9-2.1,4.5c-1.3,3.1-2.4,6.6-3.2,10.1c-0.8,3.5-1.4,7-1.6,10.4
	c-0.2,3.4-0.2,6.6,0.1,9.5c0.1,1.5,0.3,2.8,0.5,4.1c-4-6.7-8.3-13.3-12.8-19.6c0.2-0.4,0.4-0.8,0.6-1.2c0.7-1.6,1.6-3.9,2.3-6.7
	c0.7-2.7,1.3-5.9,1.6-9.3c0.3-3.4,0.3-7,0-10.6c-0.3-3.6-0.8-7.1-1.6-10.4c-0.4-1.7-0.8-3.3-1.3-4.8c-0.5-1.5-1-2.9-1.6-4.2
	c-0.6-1.3-1.1-2.5-1.7-3.6c-0.6-1.1-1.1-2-1.6-2.7c-0.9-1.5-1.6-2.4-1.6-2.4s-0.6,0.9-1.3,2.6c-0.4,0.8-0.7,1.8-1.1,2.9
	c-0.4,1.1-0.8,2.4-1.1,3.8c-0.3,1.4-0.7,2.9-0.9,4.4c-0.3,1.6-0.5,3.2-0.6,4.9c-0.3,3.4-0.3,7,0,10.6c0.3,3.6,0.8,7.1,1.6,10.4
	c0.8,3.3,1.8,6.3,2.9,8.8c-4-5.2-8.3-10.2-12.7-15.1c-0.6-1.5-1.4-3.4-2.5-5.5c-1.4-2.5-3.1-5.2-5.2-7.9c-2.1-2.7-4.5-5.3-7.1-7.8
	c-2.6-2.4-5.4-4.7-8.3-6.6c-1.4-1-2.8-1.8-4.2-2.6c-1.4-0.8-2.8-1.4-4-2c-1.3-0.6-2.5-1.1-3.6-1.5c-1.1-0.4-2.1-0.7-3-0.9
	c-1.7-0.5-2.8-0.6-2.8-0.6s0.2,1.1,0.8,2.8c0.3,0.8,0.7,1.8,1.2,2.9c0.5,1.1,1,2.3,1.7,3.5c0.7,1.2,1.4,2.6,2.3,3.9
	c0.9,1.3,1.8,2.7,2.9,4c2.1,2.7,4.5,5.3,7.1,7.8c2.6,2.4,5.4,4.7,8.3,6.6c2.8,1.9,5.7,3.4,8.3,4.6c2.6,1.2,4.9,2,6.6,2.4
	c0.6,0.2,1.1,0.3,1.5,0.4c7,7.9,13.6,16.2,19.6,24.9c-1.4-0.9-3.2-2-5.4-3c-2.6-1.2-5.6-2.4-8.9-3.3c-3.3-0.9-6.8-1.6-10.4-2
	c-3.6-0.4-7.2-0.6-10.6-0.4c-1.7,0.1-3.4,0.2-4.9,0.4c-1.6,0.2-3.1,0.5-4.5,0.8c-1.4,0.3-2.7,0.6-3.8,1c-1.1,0.4-2.1,0.7-3,1
	c-1.7,0.6-2.6,1.2-2.6,1.2s0.8,0.7,2.3,1.7c0.7,0.5,1.6,1.1,2.7,1.7c1,0.6,2.2,1.2,3.5,1.8c1.3,0.6,2.7,1.2,4.2,1.8
	c1.5,0.5,3.1,1.1,4.7,1.5c3.3,0.9,6.8,1.6,10.4,2c3.6,0.4,7.2,0.5,10.6,0.4c3.4-0.1,6.6-0.6,9.4-1.2c2.8-0.6,5.1-1.3,6.8-2
	c0.6-0.2,1.1-0.4,1.5-0.6c5.9,8.8,11.3,17.9,15.9,27.4c-0.3-0.2-0.6-0.4-0.9-0.6c-1.5-1-3.6-2.3-6.1-3.5c-2.6-1.2-5.6-2.4-8.9-3.3
	c-3.3-0.9-6.8-1.6-10.4-2c-3.6-0.4-7.2-0.6-10.6-0.4c-1.7,0.1-3.4,0.2-4.9,0.4c-1.6,0.2-3.1,0.5-4.5,0.8c-1.4,0.3-2.7,0.6-3.8,1
	c-1.1,0.3-2.1,0.7-3,1c-1.6,0.6-2.6,1.2-2.6,1.2s0.8,0.7,2.3,1.7c0.7,0.5,1.6,1.1,2.7,1.7c1,0.6,2.2,1.2,3.5,1.8
	c1.3,0.6,2.7,1.2,4.2,1.8c1.5,0.6,3.1,1.1,4.7,1.5c3.3,0.9,6.8,1.6,10.4,2c3.6,0.4,7.2,0.5,10.6,0.4c3.4-0.2,6.6-0.6,9.4-1.2
	c2.8-0.6,5.1-1.3,6.8-2c0.8-0.3,1.5-0.6,1.9-0.8c1.7,3.6,3.4,7.3,4.9,11.1c1.9,4.6,3.7,9.4,5.3,14.3c-0.3-0.3-0.7-0.6-1.2-0.9
	c-1.5-1-3.6-2.3-6.1-3.5c-2.6-1.2-5.6-2.4-8.9-3.3c-3.3-0.9-6.8-1.6-10.4-2c-3.6-0.4-7.1-0.6-10.6-0.4c-1.7,0.1-3.4,0.2-4.9,0.4
	c-1.6,0.2-3.1,0.5-4.5,0.8c-1.4,0.3-2.7,0.6-3.8,1c-1.1,0.3-2.1,0.7-3,1c-1.7,0.6-2.6,1.2-2.6,1.2s0.8,0.7,2.3,1.7
	c0.7,0.5,1.6,1.1,2.7,1.7c1,0.6,2.2,1.2,3.5,1.8c1.3,0.6,2.7,1.2,4.2,1.7c1.5,0.6,3.1,1.1,4.7,1.5c3.3,0.9,6.8,1.6,10.4,2
	c3.6,0.4,7.2,0.5,10.6,0.4c3.4-0.1,6.6-0.6,9.4-1.2c2.8-0.6,5.1-1.3,6.8-2c0.8-0.3,1.5-0.6,2-0.8c2.3,7.1,4,14.5,4.5,21.8
	C248.8,170.5,251.2,170.3,251.1,168.7z"/>
<path class="st1" d="M298.2,137.6c-6.8-1-35.7-40-19.2-46.7c13.9-5.6,21.9,27.7,21.5,41.2c2.1-4.8,4.3-9.5,6.5-14
	c2.2-4.3,4.5-8.6,6.9-12.8c-7-5.2-24.2-46.8-7.3-49.5c13.6-2.1,14.8,26.5,12.2,41.4c4.1-6.5,8.6-12.7,13.4-18.7
	c-6.3-3.4-22-48.8-4.4-50.3c14.7-1.3,12.8,32.1,8.4,45.2c5.2-6.3,10.8-12.4,16.6-18.2c-5.8-5.1-15-51,2.4-50.3
	c14.4,0.7,8.7,32.1,2.9,45.1c3.3-3.2,6.7-6.2,10.2-9.2c0.2-7.8,29.1-44.5,39.8-30.7c10.1,13-27.3,32-37.3,32.3
	c-3.9,3.4-7.8,6.9-11.5,10.4c12.7-4.2,48.1-6,45.9,9.1c-2.4,17.1-45.6,1.4-50-5.2c-5.7,5.7-11.2,11.7-16.3,17.9
	c12.7-5.7,46.1-11.5,45.9,3.5c-0.2,17-43.8,7.6-50,1.6c-5.8,7.3-11.1,15-16,22.9c10-6.7,47.2-16.9,48.2-1c1,17.5-46.2,10.2-50.3,4.6
	c-2.5,4.3-4.9,8.7-7.2,13.1c-2,4-4,8.1-5.9,12.4c10.6-9.3,40.4-24.4,44.7-10.1c4.9,16.3-39.5,20.3-47.3,16.4
	c-3,7.7-5.5,15.7-6.9,23.7c-0.3,1.8-3.1,1.1-2.8-0.8C292.8,153.1,295.2,145.3,298.2,137.6z"/>
<g>
	<g>
		<g>
			<path class="st2" d="M89.1,130.5c40.8,16.5,69.1,61.2,75.6,104.4c0.3,2.1,3.6,1.3,3.2-0.9c-6.7-44.2-35-89.5-78-106.8
				C87.9,126.4,87.1,129.7,89.1,130.5L89.1,130.5z"/>
		</g>
		<g>
			<g>
				<path class="st1" d="M82.7,139.8c0,0-15.2,6.4-16.7,15c0,0-3.1-17.1,19.3-21.7L82.7,139.8z"/>
				<path class="st1" d="M87.4,135.3c0,0-23.6-3.9-31.7,11c0,0,4.7-23.3,33.5-17.8L87.4,135.3z"/>
				<path class="st1" d="M88.7,131.2c0,0-22-9.6-37.3,0.4c0,0,14.7-17.5,39.8-6L88.7,131.2z"/>
			</g>
			<g>
				<path class="st1" d="M98.7,118.4c0,0-2.7-16.3,3.8-22.2c0,0-16.1,6.5-8.1,27.9L98.7,118.4z"/>
				<path class="st1" d="M97.4,124.8c0,0-15.9-17.8-7.6-32.7c0,0-17.2,16.5,2.8,37.9L97.4,124.8z"/>
				<path class="st1" d="M94.7,128.1c0,0-19.9-13.5-19.5-31.7c0,0-6.9,21.8,16.2,36.8L94.7,128.1z"/>
			</g>
			<path class="st2" d="M98.7,117.2c0,0-16.7,5.2-16,22.6c0,0,10,0.6,15-6.4C102.6,126.4,98.7,117.2,98.7,117.2z"/>
		</g>
	</g>
	<g>
		<g>
			<g>
				<path class="st1" d="M121.9,105.8c0,0-12.1-11.2-20.6-8.9c0,0,14.3-9.9,27.8,8.5L121.9,105.8z"/>
				<path class="st1" d="M127.9,108.2c0,0-6.3-23.1-23.2-24.2c0,0,23.2-5.4,30.2,23.1L127.9,108.2z"/>
				<path class="st1" d="M132.2,107.7c0,0-0.4-24.1-15.9-33.7c0,0,22.1,6.1,22,33.7H132.2z"/>
			</g>
			<g>
				<path class="st1" d="M148,111.4c0,0,13.6-9.3,21.7-5.8c0,0-12.7-11.9-28.7,4.3L148,111.4z"/>
				<path class="st1" d="M141.6,112.9c0,0,9.6-21.9,26.5-20.5c0,0-22.1-8.8-33.3,18.3L141.6,112.9z"/>
				<path class="st1" d="M137.5,111.8c0,0,4-23.7,20.7-31c0,0-22.7,2.8-26.7,30.1L137.5,111.8z"/>
			</g>
			<path class="st2" d="M149.1,110.9c0,0-11.6-13-27.2-5.1c0,0,3.6,9.4,12,11C142.3,118.3,149.1,110.9,149.1,110.9z"/>
		</g>
		<g>
			<path class="st2" d="M133.7,110c3.7,41.2,16.7,82.6,30.5,121.4c0.7,2,3.8,0.8,3.1-1.2c-13.7-38.5-26.6-79.6-30.3-120.5
				C136.9,107.5,133.6,107.9,133.7,110L133.7,110z"/>
		</g>
	</g>
</g>
<g>
	<g>
		<g>
			<g>
				<g>
					<path class="st3" d="M93.1,269.4c-13.9-6.6-23.3-16-20.9-20.9c2.4-5,15.6-3.7,29.5,2.9c13.9,6.6,23.3,16,20.9,20.9
						C120.2,277.3,107,276,93.1,269.4z"/>
					<path class="st3" d="M32.8,240.9c-13.9-6.6-23.3-16-20.9-20.9c2.4-5,15.6-3.7,29.5,2.9c13.9,6.6,23.3,16,20.9,20.9
						C60,248.8,46.8,247.5,32.8,240.9z"/>
				</g>
				<g>
					<path class="st3" d="M90.5,220.3c-6.6,13.9-16,23.3-20.9,20.9c-5-2.4-3.7-15.6,2.9-29.5c6.6-13.9,16-23.3,20.9-20.9
						C98.3,193.2,97.1,206.4,90.5,220.3z"/>
					<path class="st3" d="M62,280.5c-6.6,13.9-16,23.3-20.9,20.9c-5-2.4-3.7-15.6,2.9-29.5c6.6-13.9,16-23.3,20.9-20.9
						C69.9,253.4,68.6,266.6,62,280.5z"/>
				</g>
			</g>
		</g>
		<g>
			<g>
				<path class="st3" d="M69,280.9c-5.2-14.5-5.2-27.7,0-29.6c5.2-1.9,13.6,8.4,18.8,22.9c5.2,14.5,5.2,27.8,0,29.6
					C82.6,305.6,74.2,295.4,69,280.9z"/>
				<path class="st3" d="M46.6,218.2c-5.2-14.5-5.2-27.7,0-29.6c5.2-1.9,13.6,8.4,18.8,22.9c5.2,14.5,5.2,27.8,0,29.6
					C60.2,242.9,51.8,232.7,46.6,218.2z"/>
			</g>
			<g>
				<g>
					<path class="st3" d="M101.9,244.3c-14.5,5.2-27.7,5.2-29.6,0c-1.9-5.2,8.4-13.6,22.9-18.8c14.5-5.2,27.8-5.2,29.6,0
						C126.7,230.7,116.4,239.1,101.9,244.3z"/>
					<path class="st3" d="M39.2,266.8c-14.5,5.2-27.8,5.2-29.6,0c-1.9-5.2,8.4-13.6,22.9-18.8c14.5-5.2,27.8-5.2,29.6,0
						C64,253.2,53.7,261.6,39.2,266.8z"/>
				</g>
			</g>
		</g>
	</g>
	<g>
		<g>
			<g>
				<path class="st4" d="M100.5,256.1c-15.4,0-27.9-4.5-27.9-10c0-5.5,12.5-10,27.9-10c15.4,0,27.9,4.5,27.9,10
					C128.4,251.7,115.9,256.1,100.5,256.1z"/>
				<path class="st4" d="M33.9,256.1c-15.4,0-27.9-4.5-27.9-10c0-5.5,12.5-10,27.9-10c15.4,0,27.9,4.5,27.9,10
					C61.8,251.7,49.3,256.1,33.9,256.1z"/>
			</g>
			<g>
				<path class="st4" d="M77.2,212.8c0,15.4-4.5,27.9-10,27.9c-5.5,0-10-12.5-10-27.9c0-15.4,4.5-27.9,10-27.9
					C72.7,185,77.2,197.5,77.2,212.8z"/>
				<path class="st4" d="M77.2,279.4c0,15.4-4.5,27.9-10,27.9c-5.5,0-10-12.5-10-27.9c0-15.4,4.5-27.9,10-27.9
					C72.7,251.6,77.2,264.1,77.2,279.4z"/>
			</g>
		</g>
		<g>
			<g>
				<g>
					<path class="st5" d="M83.7,276.8C72.8,265.9,67.1,253.9,71,250c3.9-3.9,15.9,1.8,26.8,12.6c10.9,10.9,16.5,22.9,12.6,26.8
						C106.6,293.3,94.6,287.6,83.7,276.8z"/>
					<path class="st5" d="M36.6,229.7c-10.9-10.9-16.5-22.9-12.6-26.8c3.9-3.9,15.9,1.8,26.8,12.6c10.9,10.9,16.5,22.9,12.6,26.8
						C59.5,246.2,47.5,240.5,36.6,229.7z"/>
				</g>
				<g>
					<path class="st5" d="M97.8,229.7c-10.9,10.9-22.9,16.5-26.8,12.6c-3.9-3.9,1.8-15.9,12.6-26.8c10.9-10.9,22.9-16.5,26.8-12.6
						C114.4,206.8,108.7,218.8,97.8,229.7z"/>
					<path class="st5" d="M50.7,276.8c-10.9,10.9-22.9,16.5-26.8,12.6c-3.9-3.9,1.8-15.9,12.6-26.8c10.9-10.9,22.9-16.5,26.8-12.6
						C67.3,253.9,61.6,265.9,50.7,276.8z"/>
				</g>
			</g>
		</g>
	</g>
	<path class="st6" d="M79.3,246.1c0,6.7-5.4,12.1-12.1,12.1s-12.1-5.4-12.1-12.1c0-6.7,5.4-12.1,12.1-12.1S79.3,239.5,79.3,246.1z"
		/>
</g>
<g>
	<g>
		<g>
			<path class="st7" d="M215.6,220.4c0,0,0.1-1,0.3-2.6c0.3-1.7,0.7-4,1.4-6.8c1.4-5.6,3.8-13,7.5-20.8c3.7-7.7,8.7-15.7,14.9-23.1
				c6.2-7.4,13.6-14.1,21.7-19.8c8.1-5.7,17-10.2,26.1-13.5c9.1-3.2,18.3-5.1,26.8-5.9c8.5-0.7,16.3-0.4,22.1,0.4
				c2.9,0.3,5.2,0.8,6.9,1.1c1.7,0.3,2.6,0.6,2.6,0.6c0,0-0.1,1-0.3,2.6c-0.3,1.7-0.7,4-1.4,6.8c-1.4,5.7-3.7,13.1-7.4,20.8
				c-3.7,7.7-8.7,15.7-14.9,23.1c-6.2,7.4-13.6,14.1-21.8,19.7c-8.2,5.6-17,10.2-26.1,13.4c-9.1,3.2-18.3,5.1-26.8,5.8
				c-8.5,0.7-16.3,0.4-22.1-0.3c-2.9-0.3-5.2-0.8-6.9-1.1C216.5,220.6,215.6,220.4,215.6,220.4z"/>
			<path class="st2" d="M281.5,199.7c-9.8-5.1-22.6-3.4-33.5-0.3c3.9-2.7,7.8-5.4,11.7-8.1c12.7-5.5,29.7-10.2,43.4-5.1
				c1.5,0.6,2.5-1.7,1-2.2c-11.3-4.2-24.5-2.3-36.2,1.5c6.6-4.6,13.3-9.2,19.9-13.8c9.3-4.2,25.1-11.3,35.5-6.3
				c1.4,0.7,2.5-1.5,1-2.2c-7.6-3.7-18-1.4-26.9,1.8c13.6-9.5,27.3-18.9,40.9-28.4c1.3-0.9-0.1-2.9-1.4-2
				c-13.6,9.5-27.3,18.9-40.9,28.4c6.2-7.2,12-16.1,11.1-24.5c-0.2-1.6-2.6-1.4-2.4,0.2c1.1,11.5-11.1,23.8-18.3,31
				c-6.6,4.6-13.3,9.2-19.9,13.8c7.7-9.6,14.1-21.3,14.1-33.3c0-1.6-2.4-1.4-2.5,0.2c0,14.6-10.4,28.9-20,38.9
				c-3.9,2.7-7.8,5.4-11.7,8.1c6.7-9.1,12.8-20.5,11.5-31.5c-0.2-1.6-2.6-1.4-2.5,0.2c1.6,13.1-8.2,26.9-16,36.1
				c-5.9,4.1-11.8,8.2-17.7,12.3c-1.3,0.9,0.1,2.9,1.4,2c5.9-4.1,11.8-8.2,17.7-12.3c11.4-4.2,27.8-8.4,39.5-2.3
				C281.9,202.6,282.9,200.4,281.5,199.7z"/>
		</g>
	</g>
	<g>
		<g>
			<g>
				<g>
					<g>
						<g>
							<path class="st8" d="M303.9,262.6c39.1-17.1-78.5-41.6-78.5-41.6l-3.7,9.5l-3.7,9.5C218,239.9,321,301.6,303.9,262.6z"/>
						</g>
						<g>
							<path class="st8" d="M113.8,188.3c-39.1,17.1,78.5,41.6,78.5,41.6l3.7-9.5l3.7-9.5C199.7,210.9,96.7,149.2,113.8,188.3z"/>
						</g>
					</g>
					<g>
						<g>
							<path class="st8" d="M171.7,320.5c17.1,39.1,41.6-78.5,41.6-78.5l-9.5-3.7l-9.5-3.7C194.3,234.5,132.6,337.6,171.7,320.5z"/>
						</g>
						<g>
							<path class="st8" d="M246,130.4c-17.1-39.1-41.6,78.5-41.6,78.5l9.5,3.7l9.5,3.7C223.4,216.3,285.1,113.3,246,130.4z"/>
						</g>
					</g>
				</g>
				<g>
					<g>
						<g>
							<path class="st8" d="M249.8,318.9c39.7,15.5-26.1-84.9-26.1-84.9l-9.3,4.1l-9.3,4.1C205,242.1,234.2,358.6,249.8,318.9z"/>
						</g>
						<g>
							<path class="st8" d="M167.9,131.9c-39.7-15.5,26.1,84.9,26.1,84.9l9.3-4.1l9.3-4.1C212.7,208.7,183.4,92.2,167.9,131.9z"/>
						</g>
					</g>
					<g>
						<g>
							<path class="st8" d="M115.4,266.4c-15.5,39.7,84.9-26.1,84.9-26.1l-4.1-9.3l-4.1-9.3C192.1,221.6,75.7,250.8,115.4,266.4z"/>
						</g>
						<g>
							<path class="st8" d="M302.3,184.5c15.5-39.7-84.9,26.1-84.9,26.1l4.1,9.3l4.1,9.3C225.6,229.2,342,200,302.3,184.5z"/>
						</g>
					</g>
				</g>
			</g>
		</g>
		<g>
			<g>
				<g>
					<g>
						<path class="st9" d="M282.5,296.1c42.6-0.9-56.6-68.5-56.6-68.5l-7.1,7.4l-7.1,7.4C211.7,242.3,283.3,338.7,282.5,296.1z"/>
						<path class="st10" d="M222.4,231.2c0,0,41.5,29.3,39.7,33.8c-1.8,4.5-29.3-16.6-29.3-16.6s28.7,32.7,24,35.7
							c-4.7,2.9-41.5-45.4-41.5-45.4L222.4,231.2z"/>
					</g>
					<g>
						<path class="st9" d="M135.2,154.8c-42.6,0.9,56.6,68.5,56.6,68.5l7.1-7.4l7.1-7.4C206,208.5,134.4,112.1,135.2,154.8z"/>
						<path class="st10" d="M195.3,219.6c0,0-41.5-29.3-39.7-33.8c1.8-4.5,29.3,16.6,29.3,16.6s-28.7-32.7-24-35.7
							c4.7-2.9,41.5,45.4,41.5,45.4L195.3,219.6z"/>
					</g>
				</g>
				<g>
					<g>
						<path class="st9" d="M138.2,299c0.9,42.6,68.5-56.6,68.5-56.6l-7.4-7.1l-7.4-7.1C191.9,228.3,95.5,299.9,138.2,299z"/>
						<path class="st10" d="M203,239c0,0-29.3,41.5-33.8,39.7c-4.5-1.8,16.6-29.3,16.6-29.3s-32.7,28.7-35.7,24
							c-2.9-4.7,45.4-41.5,45.4-41.5L203,239z"/>
					</g>
					<g>
						<path class="st9" d="M279.5,151.8c-0.9-42.6-68.5,56.6-68.5,56.6l7.4,7.1l7.4,7.1C225.7,222.5,322.1,150.9,279.5,151.8z"/>
						<path class="st10" d="M214.6,211.9c0,0,29.3-41.5,33.8-39.7c4.5,1.8-16.6,29.3-16.6,29.3s32.7-28.7,35.7-24
							c2.9,4.7-45.4,41.5-45.4,41.5L214.6,211.9z"/>
					</g>
				</g>
			</g>
			<g>
				<g>
					<g>
						<path class="st9" d="M210.9,327.5c30.8,29.5,8.4-88.5,8.4-88.5l-10.2,0.2l-10.2,0.2C198.9,239.4,181.4,358.2,210.9,327.5z"/>
						<path class="st10" d="M214.3,239.1c0,0,8.6,50.1,4.2,51.9c-4.4,1.9-9-32.5-9-32.5s-2.9,43.4-8.3,42.2
							c-5.4-1.2,2.8-61.5,2.8-61.5L214.3,239.1z"/>
					</g>
					<g>
						<path class="st9" d="M206.8,123.4c-30.8-29.5-8.4,88.5-8.4,88.5l10.2-0.2l10.2-0.2C218.7,211.4,236.3,92.6,206.8,123.4z"/>
						<path class="st10" d="M203.4,211.8c0,0-8.6-50.1-4.2-51.9c4.4-1.9,9,32.5,9,32.5s2.9-43.4,8.3-42.2c5.4,1.2-2.8,61.5-2.8,61.5
							L203.4,211.8z"/>
					</g>
				</g>
				<g>
					<g>
						<path class="st9" d="M106.8,227.5c-29.5,30.8,88.5,8.4,88.5,8.4l-0.2-10.2l-0.2-10.2C194.9,215.5,76.1,198,106.8,227.5z"/>
						<path class="st10" d="M195.2,230.9c0,0-50.1,8.6-51.9,4.2c-1.9-4.4,32.5-9,32.5-9s-43.4-2.9-42.2-8.3
							c1.2-5.4,61.5,2.8,61.5,2.8L195.2,230.9z"/>
					</g>
					<g>
						<path class="st9" d="M310.9,223.3c29.5-30.8-88.5-8.4-88.5-8.4l0.2,10.2l0.2,10.2C222.8,235.3,341.6,252.9,310.9,223.3z"/>
						<path class="st10" d="M222.5,220c0,0,50.1-8.6,51.9-4.2c1.9,4.4-32.5,9-32.5,9s43.4,2.9,42.2,8.3c-1.2,5.4-61.5-2.8-61.5-2.8
							L222.5,220z"/>
					</g>
				</g>
			</g>
		</g>
		<path class="st6" d="M199.9,248.4c-12.7-5-19-19.3-14-32c5-12.7,19.3-19,32-14c12.7,5,19,19.3,14,32
			C226.9,247.1,212.6,253.4,199.9,248.4z"/>
	</g>
</g>
</svg>
