<?xml version="1.0" encoding="utf-8"?>
<!-- Generator: Adobe Illustrator 22.0.1, SVG Export Plug-In . SVG Version: 6.00 Build 0)  -->
<svg version="1.1" id="分離模式" xmlns="http://www.w3.org/2000/svg" xmlns:xlink="http://www.w3.org/1999/xlink" x="0px"
	 y="0px" viewBox="0 0 186 520" style="enable-background:new 0 0 186 520;" xml:space="preserve">
<style type="text/css">
	.st0{fill:#5C9984;}
	.st1{fill:#5C995C;}
	.st2{fill:#B1E0B2;}
	.st3{fill:#76995C;}
	.st4{fill:#5A7C40;}
	.st5{fill:#407C67;}
</style>
<g>
	<g>
		<path class="st0" d="M94.4,375.2c-8.6,21.6-18,42.7-32.8,61c-5.9,7.3-13.1,14-20.5,19.9c-6.8,5.4-14.4,8.4-22,12.3
			c-0.5,0.2-0.2,1,0.3,0.9c16.3-1.1,31.5-17.7,41.7-29.1C77.4,422.1,86.7,398,95,375.4C95.1,375.1,94.6,374.8,94.4,375.2L94.4,375.2
			z"/>
	</g>
	<g>
		<path class="st0" d="M19.7,468.9c7.9-3,14.8-5,21.5-10.3c6.3-4.9,11.7-11.1,16.4-17.5c10.3-14.3,15.3-29,18.7-46
			c0.1-0.3-0.3-0.3-0.4-0.1c-2.5,7.4-4.1,15.1-7.1,22.4c-2.8,6.9-7.1,13.6-11,19.8c-4.3,6.8-9.7,12.6-15.5,18.1
			c-6.7,6.3-14.6,9-22.8,12.8C19,468.3,19.2,469,19.7,468.9L19.7,468.9z"/>
	</g>
	<g>
		<path class="st0" d="M44.5,456.5c14.2-9.9,27.5-23,38.8-36.1c11.9-13.7,19.8-28.9,23.4-46.7c0.1-0.5-0.6-0.7-0.8-0.3
			c-2.9,7.1-4.8,14.6-7.8,21.8c-3.7,9-10,16.6-16.3,23.9c-5.7,6.6-11.9,12.7-18.4,18.6c-6.5,5.9-12.5,12.7-19.4,18
			C43.6,456.1,44,456.9,44.5,456.5L44.5,456.5z"/>
	</g>
	<g>
		<path class="st0" d="M77.5,415.2c9.3-8.6,17.3-22.5,20.5-34.7c0.1-0.3-0.4-0.5-0.6-0.2c-5.6,11.6-11.8,24.7-20.6,34.3
			C76.4,415,77,415.6,77.5,415.2L77.5,415.2z"/>
	</g>
	<g>
		<path class="st0" d="M70.6,433.8c16.6-8,27.8-20,38.6-34.6c0.3-0.4-0.2-0.8-0.5-0.5c-5.4,5.6-10.2,11.7-15.6,17.3
			c-6.5,6.7-15,12.2-23,17C69.5,433.3,70,434.1,70.6,433.8L70.6,433.8z"/>
	</g>
	<g>
		<path class="st0" d="M53.6,444.5c5.9-10.1,8.7-22.2,12.4-33.2c0.2-0.5-0.6-0.7-0.8-0.3c-6.3,9.9-7.7,22.4-12.2,33.1
			C52.7,444.6,53.3,444.9,53.6,444.5L53.6,444.5z"/>
	</g>
	<path class="st0" d="M109.9,374.9c-0.9,1.7-3,2.4-4.7,1.5c-1.7-0.9-2.4-3-1.5-4.7c0.9-1.7,3-2.4,4.7-1.5
		C110.1,371.1,110.8,373.2,109.9,374.9z"/>
	<path class="st0" d="M111.4,401.3c-0.9,1.7-3,2.4-4.7,1.5c-1.7-0.9-2.4-3-1.5-4.7c0.9-1.7,3-2.4,4.7-1.5
		C111.6,397.5,112.3,399.6,111.4,401.3z"/>
	<path class="st0" d="M101.8,383.1c-0.9,1.7-3,2.4-4.7,1.5c-1.7-0.9-2.4-3-1.5-4.7c0.9-1.7,3-2.4,4.7-1.5
		C102,379.3,102.7,381.4,101.8,383.1z"/>
	<path class="st0" d="M98.4,375.7c-0.9,1.7-3,2.4-4.7,1.5c-1.7-0.9-2.4-3-1.5-4.7c0.9-1.7,3-2.4,4.7-1.5
		C98.6,371.9,99.3,374,98.4,375.7z"/>
	<path class="st0" d="M79.7,397.9c-0.9,1.7-3,2.4-4.7,1.5c-1.7-0.9-2.4-3-1.5-4.7c0.9-1.7,3-2.4,4.7-1.5
		C79.9,394.1,80.6,396.2,79.7,397.9z"/>
	<path class="st0" d="M68.4,413.3c-0.9,1.7-3,2.4-4.7,1.5c-1.7-0.9-2.4-3-1.5-4.7c0.9-1.7,3-2.4,4.7-1.5
		C68.6,409.5,69.3,411.6,68.4,413.3z"/>
</g>
<g>
	<path class="st1" d="M156.9,373.9c-1-8.6-7.5-15.2-16.4-10.4c-12.9,7-21.2,22.1-28.9,33.9c-10.5,16.1-24.3,29.6-35,45.5
		c-9.7,14.3-10.8,29.4-8.9,45.6c-6.4,8-11.3,16.7-11.7,26.9c0,0.7,0.9,0.9,1.2,0.3c4.4-7.5,7.6-15,12-22.1
		c7.3,8.8,18.2,10.8,29.3,7.6c14.8-4.2,25.7-19.6,34.4-31.3c11.4-15.4,18.7-32.3,21.7-51.1C157,404.4,158.7,388.4,156.9,373.9z"/>
	<g>
		<path class="st2" d="M140.9,381.7c-7.7,21.7-16.3,42.7-30,61.4c-7,9.6-14.9,18.5-23.1,27c-5,5.2-14,10.6-15.6,18
			c-0.3,1.3,1.3,1.9,2,0.9c5.4-7.8,13.2-13.7,19.6-20.6c7.7-8.2,14.6-17,21-26.2c12.9-18.3,20.6-39,26.6-60.4
			C141.6,381.5,141,381.3,140.9,381.7L140.9,381.7z"/>
	</g>
	<g>
		<path class="st2" d="M84.6,445.1c-3.2,12.6-10.3,26.3-9.5,39.5c0.1,1,1.5,1.3,1.8,0.2c3.3-12.8,6.5-26.6,8.1-39.7
			C85.1,444.9,84.7,444.9,84.6,445.1L84.6,445.1z"/>
	</g>
	<g>
		<path class="st2" d="M100.7,419c-1.1,15.3-5.6,30.3-6.7,45.5c-0.1,0.9,1.3,1,1.6,0.2c2.3-7.7,2.8-16.1,4-24.1
			c1.1-7.1,1.8-14.4,1.5-21.6C101.1,418.8,100.8,418.8,100.7,419L100.7,419z"/>
	</g>
	<g>
		<path class="st2" d="M118.3,399.6c-0.5,11.8-0.5,24.6-2.7,36.2c-0.2,1.2,1.4,1.6,1.8,0.5c1.6-5,0.8-10.2,0.9-15.3
			c0-7.1,0.6-14.2,0.5-21.4C118.7,399.3,118.3,399.3,118.3,399.6L118.3,399.6z"/>
	</g>
	<g>
		<path class="st2" d="M129.9,388.8c0.3,3.8,0.5,7.7,0.7,11.5c0.1,3.3-0.2,6.6,0.3,9.9c0,0.2,0.3,0.2,0.4,0c2.5-6.6,0.8-14.9-1-21.5
			C130.3,388.5,129.8,388.5,129.9,388.8L129.9,388.8z"/>
	</g>
	<g>
		<path class="st2" d="M149.5,391.2c-4.3,3-8.4,6.2-12.3,9.8c-3.2,2.9-6.8,6.2-7.3,10.7c0,0.2,0.2,0.2,0.3,0.1
			c3.1-3.4,5.6-7.3,9-10.6c3.4-3.3,7.2-6.2,10.8-9.4C150.3,391.6,149.9,391,149.5,391.2L149.5,391.2z"/>
	</g>
	<g>
		<path class="st2" d="M149.9,416.6c-7.4,4.7-15.5,8.1-23.3,12.1c-4,2-10.3,5.3-11.3,10c-0.1,0.4,0.4,0.8,0.7,0.4
			c8.9-10.4,22.8-14.8,34-22.3C150.2,416.7,150.1,416.5,149.9,416.6L149.9,416.6z"/>
	</g>
	<g>
		<path class="st2" d="M124.8,451.7c-6.1,2.4-12.3,4.4-18.4,6.5c-4.3,1.5-9.3,3.2-12.1,7c-0.2,0.3,0.2,0.8,0.5,0.7
			c5.4-1.8,10.3-5.5,15.6-7.7c4.9-2,9.8-3.7,14.6-6.1C125.1,452,125,451.7,124.8,451.7L124.8,451.7z"/>
	</g>
	<g>
		<path class="st2" d="M114.7,477.3c-9.3,2.9-19.3,5.1-29,6.4c-4.2,0.6-11,0.5-13.3,4.8c-0.4,0.8,0.4,1.7,1.3,1.3
			c4.8-2.8,9.8-3.2,15.2-4.2c8.8-1.6,17.7-4.6,25.9-8C114.9,477.4,114.8,477.2,114.7,477.3L114.7,477.3z"/>
	</g>
</g>
<g>
	<path class="st1" d="M132,179.8c5.7-0.7,10-5,6.8-10.9c-4.6-8.5-14.6-13.9-22.5-18.9c-10.7-6.9-19.6-15.9-30.2-23
		c-9.5-6.3-19.4-7-30.2-5.7c-5.3-4.2-11.1-7.4-17.8-7.6c-0.4,0-0.6,0.6-0.2,0.8c5,2.9,9.9,5,14.6,7.9c-5.8,4.9-7,12-4.9,19.4
		c2.9,9.8,13,16.9,20.8,22.6c10.2,7.4,21.4,12.2,33.8,14.2C111.9,180,122.4,181,132,179.8z"/>
	<g>
		<path class="st2" d="M126.8,169.3c-14.3-5-28.3-10.6-40.6-19.6c-6.3-4.6-12.3-9.8-17.9-15.2c-3.4-3.3-7-9.2-12-10.2
			c-0.8-0.2-1.2,0.9-0.6,1.3c5.1,3.5,9.1,8.7,13.6,12.9c5.4,5,11.3,9.6,17.4,13.8c12.1,8.5,25.8,13.4,40,17.3
			C126.9,169.7,127,169.3,126.8,169.3L126.8,169.3z"/>
	</g>
	<g>
		<path class="st2" d="M84.7,132.3c-8.4-2.1-17.4-6.7-26.1-6.2c-0.7,0-0.8,1-0.2,1.2c8.5,2.1,17.6,4.2,26.3,5.2
			C84.8,132.6,84.9,132.4,84.7,132.3L84.7,132.3z"/>
	</g>
	<g>
		<path class="st2" d="M102,142.9c-10.1-0.7-20-3.6-30.1-4.2c-0.6,0-0.7,0.9-0.1,1c5.1,1.5,10.7,1.8,15.9,2.5
			c4.7,0.7,9.5,1.1,14.3,0.9C102.2,143.1,102.2,142.9,102,142.9L102,142.9z"/>
	</g>
	<g>
		<path class="st2" d="M114.9,154.4c-7.8-0.3-16.3-0.2-23.9-1.6c-0.8-0.1-1.1,0.9-0.3,1.2c3.3,1.1,6.7,0.5,10.1,0.5
			c4.7,0,9.4,0.4,14.1,0.2C115.1,154.7,115.1,154.4,114.9,154.4L114.9,154.4z"/>
	</g>
	<g>
		<path class="st2" d="M122.1,162c-2.5,0.2-5.1,0.4-7.6,0.5c-2.2,0.1-4.4-0.1-6.5,0.3c-0.1,0-0.1,0.2,0,0.3
			c4.3,1.6,9.9,0.5,14.2-0.7C122.3,162.3,122.2,162,122.1,162L122.1,162z"/>
	</g>
	<g>
		<path class="st2" d="M120.5,175c-2-2.8-4.1-5.5-6.5-8.1c-2-2.1-4.1-4.4-7.1-4.8c-0.1,0-0.2,0.1-0.1,0.2c2.3,2.1,4.9,3.7,7,5.9
			c2.2,2.3,4.1,4.8,6.2,7.1C120.3,175.5,120.7,175.2,120.5,175L120.5,175z"/>
	</g>
	<g>
		<path class="st2" d="M103.8,175.3c-3.2-4.9-5.4-10.2-8.1-15.3c-1.4-2.6-3.5-6.8-6.7-7.4c-0.3-0.1-0.5,0.3-0.3,0.5
			c6.9,5.9,9.8,15,14.9,22.3C103.7,175.5,103.8,175.4,103.8,175.3L103.8,175.3z"/>
	</g>
	<g>
		<path class="st2" d="M80.5,158.9c-1.6-4-2.9-8.1-4.4-12.2c-1-2.8-2.2-6.1-4.7-8c-0.2-0.2-0.5,0.1-0.4,0.3
			c1.2,3.5,3.7,6.8,5.1,10.3c1.4,3.2,2.5,6.5,4.1,9.6C80.3,159.1,80.5,159,80.5,158.9L80.5,158.9z"/>
	</g>
	<g>
		<path class="st2" d="M63.6,152.3c-1.9-6.2-3.4-12.7-4.3-19.1c-0.4-2.8-0.4-7.3-3.2-8.8c-0.5-0.3-1.1,0.3-0.8,0.8
			c1.8,3.2,2.2,6.5,2.9,10c1.1,5.8,3.1,11.7,5.4,17.1C63.5,152.4,63.6,152.4,63.6,152.3L63.6,152.3z"/>
	</g>
</g>
<g>
	<path class="st3" d="M160,242.4c-3.6,15.5-23,5.3-34.3-2c10.2,9.9,19.3,20.9,27.6,32.5c0.2-0.1,0.5-0.2,0.8-0.1
		c2.8,0.7,4.3-0.4,6.9-1.4c3.2-1.3,7.2-0.9,10.5-0.2c5,1.1,9.3,7.5,6.4,12.5c-2.6,4.5-7.9,4.8-13,2.8c5.4,2.2,10.9,5.3,14.1,10
		c3,4.3,1.6,11.7-3.8,13.3c-5.3,1.5-11.3-0.8-13.2-6.3c-1.6-4.8,0.5-10.3-0.1-15.2c-0.3-0.4-0.6-0.8-0.9-1.3
		c-0.1-0.1-0.1-0.2-0.1-0.3c-1.2-1.6-2.4-3.2-3.6-4.8c-1.6-1.5-2.9-3.2-3.7-4.8c-3.3-4.2-6.8-8.4-10.3-12.5c3,8.6,4,19.5-6.3,21
		c-7.2,1-12.9-3.3-13.8-10.4c-0.4-3.3,1-7.2,3.6-9.2c1.9-1.4,3.9-2.2,6.1-3.1c2.2-1,3.7-2.3,5.2-4c-9.8-10.7-20.5-20.7-32.1-29.4
		c-0.8-0.6-1.7-1.2-2.5-1.8c5.7,8.5,9,18.9,2.1,26.1c-6.4,6.7-17.5,3.3-21.9-3.7c-2.6-4.2-2.1-9.4-0.1-13.6c1.2-2.6,3.6-4.7,5.6-6.6
		c3.1-3,3.6-5.5,3.9-9.2c-8-4.8-16.4-8.8-25.1-11.9c-6.8-2.4-13.7-3.6-20.6-4.4c5.6,3.4,10.7,8.5,14,12.7c6.5,8.2,8.5,18,4.5,27.7
		c-4.1,9.9-17.6,6.8-22.8-0.1c-4.2-5.5-5.4-11.3-5.4-18.1c0-8.2,4-16.2-1.5-23.4c0,0,0,0,0,0c-3.1-0.3-6.1-0.7-9.2-1.1
		c-0.8-0.1-0.7-1.3,0-1.4c10.4-2.9,21.4-2.2,32.4,0.5c7.3-7.7,3.9-23.5,16.5-26.9c7.3-1.9,16.7,0,19.6,8c3,8.1,0.8,15-6.1,20
		c-4.2,3.1-9.6,4-15,3.8c11.8,4.8,22.8,11.5,31.9,18c3.8,2.7,7.5,5.7,11,8.7c0.2-0.1,0.5-0.1,0.7,0c5.4,0.9,10.8-6,15.7-8.4
		c4.4-2.1,9.7-3.7,14.7-3C158.9,222.6,162.2,233.1,160,242.4z"/>
	<g>
		<path class="st4" d="M173.1,303.4c-10-12.6-20.8-24.6-31-37.1C131.6,253.1,120.6,241,107,231c-12.9-9.5-27.5-16.4-42.4-22.1
			c-7.2-2.8-14.4-4.4-22.1-5c-5.9-0.4-11.7,0.9-17.4-0.7c-1.3-0.4-1.6-2.1-0.4-2.8c10-5.5,25-2.4,35.4,0.6
			c15.6,4.4,31,12.5,44.6,21.2c31.1,19.8,49.6,50.7,69,80.8C173.9,303.3,173.4,303.7,173.1,303.4L173.1,303.4z"/>
	</g>
	<g>
		<path class="st4" d="M58.5,228.3c-3.2-5.6-6.5-10.7-10.8-15.5c-4-4.4-9.3-6.2-13.4-10.1c-0.5-0.5-0.3-1.7,0.5-1.8
			c12.2-1.6,20.4,18.4,24.6,26.9C59.7,228.4,58.8,228.9,58.5,228.3L58.5,228.3z"/>
	</g>
	<g>
		<path class="st4" d="M83.9,185.6c-4.4,10.6-16.8,21.1-29.2,17c-0.5-0.2-0.6-0.8-0.2-1.2c3.4-2.2,7.4-1.9,11.3-2.7
			c7.6-1.5,13.7-6.8,17.1-13.6C83.4,184.5,84.2,185,83.9,185.6L83.9,185.6z"/>
	</g>
	<g>
		<path class="st4" d="M100.8,244.1c0.7-5.2,0.4-10-1.8-14.7c-1.8-4-5.4-6.7-7-10.7c-0.2-0.6,0.2-1.2,0.8-1.1
			c10.7,2.7,10.9,18.4,8.9,26.7C101.5,244.9,100.7,244.6,100.8,244.1L100.8,244.1z"/>
	</g>
	<g>
		<path class="st4" d="M145.7,242c-11.3,1.1-22.1,1.8-29.1-8.5c-0.2-0.3,0.2-0.7,0.5-0.5c8,5.8,18.9,8.2,28.6,8.5
			C146.1,241.5,146.1,242,145.7,242L145.7,242z"/>
	</g>
	<g>
		<path class="st4" d="M138,280c1.4-3.5,2-7.1,2-10.9c0-4-1.8-7.6-2.4-11.5c-0.1-0.4,0.3-0.6,0.7-0.4c7.4,5.9,4.6,16.1,0.5,23.1
			C138.5,280.7,137.8,280.5,138,280L138,280z"/>
	</g>
	<g>
		<path class="st4" d="M172.1,284.4c-9.3-1.1-17.2-5.4-22.4-13.2c-0.3-0.4,0.3-0.9,0.7-0.7c7,4.4,13.7,10.8,21.8,13.1
			C172.5,283.8,172.5,284.5,172.1,284.4L172.1,284.4z"/>
	</g>
</g>
<g>
	<path class="st0" d="M115.4,362.4c-0.1,0-0.2,0.1-0.3,0c-11.6-2-23,4.2-32.1,10.8c-7.9,5.8-14.6,13.2-24.8,14.7
		c-7.1,1-17.1,0.9-22.1-5.4c-2.6-3.3-3.8-7-4.3-11.1c0-0.3,0.3-6.4,1.1-8.2c-3-0.2-5.9-0.7-8.8-1.7c-0.7-0.3-0.4-1.5,0.3-1.4
		c2.9,0.2,5.8,0.4,8.5,0.4c0.9-10.3,2.6-19.6,10.4-27c6.1-5.8,14.7-8.1,22.9-8.3c21.6-0.6,39.2,20,49.9,36.5
		C116.5,362.2,115.8,362.7,115.4,362.4z"/>
	<g>
		<path class="st5" d="M102.6,357.5c-14.1-4.1-30.3,0.7-44.2,3.5c-11.7,2.4-28.7,7.1-39.4-0.2c-1.1-0.7-0.6-2.3,0.8-2.2
			c7.7,1,14.6,2,22.4,1.3c7.7-0.8,15.4-2.6,23-3.9c13.2-2.4,24.6-2.6,37.6,0.4C103.5,356.5,103.3,357.7,102.6,357.5L102.6,357.5z"/>
	</g>
	<g>
		<path class="st5" d="M66.7,376c-10.6-1.8-26.6-4.8-34.5-12.8c-0.4-0.4-0.1-1.2,0.6-1.1c5.1,1.2,9.9,4.5,14.7,6.7
			c6.2,2.9,12.7,5,19.4,6.5C67.3,375.5,67.1,376.1,66.7,376L66.7,376z"/>
	</g>
	<g>
		<path class="st5" d="M74.3,367.4c-3.8-1-7.7-1.9-11.5-2.9c-2.9-0.8-6.2-1.4-8.3-3.6c-0.2-0.2-0.1-0.7,0.2-0.7
			c3,0.1,5.6,1.8,8.4,2.8c3.7,1.3,7.5,2.5,11.3,3.7C74.9,366.8,74.8,367.5,74.3,367.4L74.3,367.4z"/>
	</g>
	<g>
		<path class="st5" d="M91.6,361c-4.5-0.4-11.9-1.5-14.9-5.3c-0.2-0.2,0.1-0.4,0.3-0.4c2.2,0.3,4.1,1.3,6.1,2.2
			c2.8,1.2,5.7,2.1,8.6,3C92.1,360.5,91.9,361,91.6,361L91.6,361z"/>
	</g>
	<g>
		<path class="st5" d="M89.9,351.3c-2.7,0.8-4.9,2.2-7.3,3.6c-1.6,0.9-3.8,2.2-5.5,1.3c-0.2-0.1-0.3-0.3-0.2-0.5
			c1.1-1.7,3.7-2.2,5.5-2.8c2.4-0.8,5-1.6,7.5-2C90,350.9,90.1,351.3,89.9,351.3L89.9,351.3z"/>
	</g>
	<g>
		<path class="st5" d="M83.6,342.4c-5.3,2.1-10.4,4.5-15.3,7.3c-2.2,1.3-4.3,2.7-6.3,4.2c-2.9,2.2-4.3,5.2-7.5,6.7
			c-0.4,0.2-1-0.1-0.9-0.6c3.5-11.3,20.1-15,29.9-18C83.7,342.1,83.8,342.4,83.6,342.4L83.6,342.4z"/>
	</g>
	<g>
		<path class="st5" d="M70.6,335.6c-14.1,4.8-26.7,13.9-35.2,26.4c-0.5,0.7-1.8,0.7-1.8-0.4c-0.1-6.2,8.3-11,12.7-14.4
			c7.1-5.4,15.4-10,24.1-12C70.7,335.2,70.8,335.5,70.6,335.6L70.6,335.6z"/>
	</g>
</g>
<g>
	<g>
		<path class="st1" d="M58.8,92.2c1.1,3.7,0.5,7.1-0.7,10.7c-0.1,0.3,0.3,0.7,0.6,0.4c4.8-5.3,2.2-12.2-1.3-17.6
			c2.7,2.2,5.2,4.7,7.6,7.6c2.2,2.8,4.3,5.7,6.1,8.7c0.4,2.3,0.1,4.5-0.1,7c0,0.3,0.4,0.5,0.6,0.2c0.9-1.3,1.1-2.9,1-4.5
			c1.3,2.3,2.5,4.6,3.7,7c0.2,0.5,1,0.1,0.8-0.3c-0.5-1.1-1-2.3-1.5-3.5c1.5,0.8,3.4,1,4.8,0.8c0.3,0,0.3-0.5,0-0.6
			c-1.1-0.4-2.2-0.6-3.3-0.9c-1-0.3-1.8-0.9-2.6-1.5c-1.8-4-3.9-8.1-6.4-11.9c4.1,2.6,8.8,4.2,13.7,4.6c0.4,0,0.5-0.5,0.1-0.7
			c-2.6-1.1-5.3-1.8-7.9-2.7c-3-1-5.4-2.6-8-4.2c-4.4-5.8-9.8-10.4-16.8-12c-0.5-0.1-0.9,0.5-0.4,0.9c2.2,1.5,4.3,2.9,6.3,4.4
			C56.5,86.6,57.9,89.3,58.8,92.2z"/>
	</g>
	<path class="st1" d="M80.6,100.4c-2.3-1.6-2.8-4.7-1.3-7c1.6-2.3,4.7-2.8,7-1.3c2.3,1.6,2.8,4.7,1.3,7
		C86,101.4,82.8,102,80.6,100.4z"/>
	<path class="st1" d="M81.1,112.2c-2.3-1.6-2.8-4.7-1.3-7c1.6-2.3,4.7-2.8,7-1.3c2.3,1.6,2.8,4.7,1.3,7
		C86.5,113.2,83.4,113.8,81.1,112.2z"/>
	<path class="st1" d="M74.7,119.8c-2.3-1.6-2.8-4.7-1.3-7c1.6-2.3,4.7-2.8,7-1.3c2.3,1.6,2.8,4.7,1.3,7
		C80.1,120.8,77,121.4,74.7,119.8z"/>
	<path class="st1" d="M65.9,113.5c-2.3-1.6-2.8-4.7-1.3-7c1.6-2.3,4.7-2.8,7-1.3c2.3,1.6,2.8,4.7,1.3,7
		C71.3,114.5,68.1,115.1,65.9,113.5z"/>
	<path class="st1" d="M54.9,105.9c-2.3-1.6-2.8-4.7-1.3-7c1.6-2.3,4.7-2.8,7-1.3c2.3,1.6,2.8,4.7,1.3,7
		C60.3,106.9,57.2,107.5,54.9,105.9z"/>
	<g>
		<path class="st2" d="M81.8,93.1c0.8-0.2,1.8-0.2,2.5,0.3c0.3,0.2,0.7,0.5,0.9,0.8c0.3,0.3,0.4,0.6,0.8,0.8c0.4,0.2,0.9,0.1,1-0.3
			c0.3-1.2-0.9-2-1.9-2.4c-1.1-0.4-2.5-0.2-3.6,0.2C81.3,92.7,81.5,93.2,81.8,93.1L81.8,93.1z"/>
	</g>
	<g>
		<path class="st2" d="M86.1,96c0.1,0.5,0,1,0.4,1.4c0.1,0.1,0.3,0.1,0.4,0c0.5-0.5,0.4-1.1,0.1-1.7C86.8,95.2,86,95.5,86.1,96
			L86.1,96z"/>
	</g>
	<g>
		<path class="st2" d="M82.5,104.8c1.2,0,2,0.3,2.9,0.9c0.9,0.6,0.9,1.6,1.4,2.5c0.4,0.7,1.4,0.5,1.5-0.3c0.2-1.4-0.8-2.4-1.8-3.2
			c-1.1-0.8-2.7-0.6-4-0.5C82.1,104.2,82.1,104.8,82.5,104.8L82.5,104.8z"/>
	</g>
	<g>
		<path class="st2" d="M87.1,108.8c-0.2,0.4-0.5,0.6-0.4,1.1c0,0.2,0.2,0.2,0.3,0.2c0.5-0.2,0.5-0.7,0.5-1.2
			C87.5,108.7,87.2,108.6,87.1,108.8L87.1,108.8z"/>
	</g>
	<g>
		<path class="st2" d="M80.4,115.9c-0.3,0.8-0.7,1.4-1.3,1.9c-0.4,0.3-1,0.7-0.6,1.2c0.1,0.1,0.3,0.2,0.5,0.2
			c1.5-0.3,1.8-1.9,1.8-3.2C80.9,115.7,80.5,115.6,80.4,115.9L80.4,115.9z"/>
	</g>
	<g>
		<path class="st2" d="M78.3,118.8C78.3,118.8,78.3,118.9,78.3,118.8C78.4,118.8,78.3,118.7,78.3,118.8L78.3,118.8z"/>
	</g>
	<g>
		<path class="st2" d="M77.5,118.5c-0.5,0.1-1.1,0.1-1.6,0.1c-0.2,0-0.2,0.2,0,0.3c0.6,0.2,1.1,0.4,1.7,0.3
			C78,119.1,77.9,118.4,77.5,118.5L77.5,118.5z"/>
	</g>
	<g>
		<path class="st2" d="M70.1,113.3c-0.9,0-1.6-0.5-2.3-1c-0.7-0.5-1-1.2-1.8-1.4c-0.5-0.1-0.8,0.4-0.9,0.8c-0.2,1.1,1.1,1.8,2,2
			c1,0.3,2.1,0.1,3.1,0C70.4,113.7,70.4,113.3,70.1,113.3L70.1,113.3z"/>
	</g>
	<g>
		<path class="st2" d="M65.4,109.2c0.1-0.1,0.2-0.3,0.2-0.5c0.1-0.6-0.6-0.8-0.9-0.3c-0.1,0.1-0.1,0.2-0.1,0.4
			C64.5,109.3,65.1,109.7,65.4,109.2L65.4,109.2z"/>
	</g>
	<g>
		<path class="st2" d="M60.1,103.9c-0.6,0.5-1.4,0.4-2.1,0.2c-0.7-0.2-1.5-0.7-2.3-0.6c-0.4,0.1-0.6,0.5-0.5,0.9
			c0.4,1,1.9,1.3,2.8,1.3c1.2,0,1.9-0.6,2.6-1.5C60.9,104.1,60.4,103.6,60.1,103.9L60.1,103.9z"/>
	</g>
	<g>
		<path class="st2" d="M54.1,102.4c0-0.4,0-0.7-0.3-0.9c-0.1-0.1-0.3-0.1-0.3,0.1c-0.1,0.3-0.1,0.5-0.1,0.8
			C53.3,102.8,54,102.8,54.1,102.4L54.1,102.4z"/>
	</g>
</g>
<g>
	<g>
		<path class="st1" d="M86.3,327c-9.3-21.3-19.4-42.1-34.7-59.9c-6.2-7.2-13.6-13.6-21.1-19.3c-7-5.2-14.6-7.9-22.4-11.5
			c-0.5-0.2-0.2-1,0.3-0.9c16.4,0.6,32,16.7,42.6,27.7c16.9,17.6,26.9,41.4,35.9,63.6C86.9,327,86.4,327.3,86.3,327L86.3,327z"/>
	</g>
	<g>
		<path class="st1" d="M8.5,235.7c8,2.7,14.9,4.5,21.8,9.6c6.4,4.7,12.1,10.7,16.9,17c10.8,13.9,16.2,28.5,20.2,45.4
			c0.1,0.3-0.3,0.3-0.4,0.1c-2.8-7.3-4.6-15-7.8-22.1c-3-6.8-7.5-13.3-11.7-19.5c-4.5-6.6-10.1-12.3-16.1-17.6
			c-6.9-6.1-14.9-8.5-23.2-12.1C7.9,236.3,8,235.6,8.5,235.7L8.5,235.7z"/>
	</g>
	<g>
		<path class="st1" d="M33.7,247.3c14.6,9.5,28.2,22.1,40,34.8C86,295.3,94.4,310.3,98.6,328c0.1,0.5-0.6,0.8-0.8,0.3
			c-3.1-7-5.3-14.5-8.5-21.5c-4-8.9-10.5-16.3-17.1-23.3c-6-6.4-12.3-12.3-19-18c-6.7-5.7-12.9-12.3-20-17.4
			C32.8,247.7,33.2,246.9,33.7,247.3L33.7,247.3z"/>
	</g>
	<g>
		<path class="st1" d="M68,287.5c9.6,8.3,18,21.9,21.6,34c0.1,0.3-0.4,0.5-0.6,0.2c-6-11.4-12.6-24.3-21.7-33.6
			C66.9,287.7,67.6,287.1,68,287.5L68,287.5z"/>
	</g>
	<g>
		<path class="st1" d="M60.5,269.1c16.9,7.4,28.5,19.1,39.7,33.4c0.3,0.4-0.2,0.9-0.5,0.5c-5.6-5.4-10.6-11.3-16.2-16.7
			c-6.7-6.5-15.3-11.7-23.5-16.3C59.4,269.7,59.9,268.9,60.5,269.1L60.5,269.1z"/>
	</g>
	<g>
		<path class="st1" d="M43.2,259c6.3,9.9,9.4,21.9,13.5,32.8c0.2,0.5-0.6,0.7-0.8,0.3c-6.6-9.6-8.4-22.2-13.3-32.7
			C42.3,258.9,42.9,258.6,43.2,259L43.2,259z"/>
	</g>
	<path class="st1" d="M101.7,326.7c-0.9-1.7-3.1-2.3-4.8-1.4c-1.7,0.9-2.3,3.1-1.4,4.8c0.9,1.7,3.1,2.3,4.8,1.4
		C102,330.5,102.7,328.4,101.7,326.7z"/>
	<path class="st1" d="M102.4,300.3c-0.9-1.7-3.1-2.3-4.8-1.4c-1.7,0.9-2.3,3.1-1.4,4.8c0.9,1.7,3.1,2.3,4.8,1.4
		C102.7,304.1,103.4,302,102.4,300.3z"/>
	<path class="st1" d="M93.4,318.8c-0.9-1.7-3.1-2.3-4.8-1.4c-1.7,0.9-2.3,3.1-1.4,4.8c0.9,1.7,3.1,2.3,4.8,1.4
		C93.7,322.6,94.3,320.5,93.4,318.8z"/>
	<path class="st1" d="M90.2,326.3c-0.9-1.7-3.1-2.3-4.8-1.4c-1.7,0.9-2.3,3.1-1.4,4.8c0.9,1.7,3.1,2.3,4.8,1.4
		C90.5,330.1,91.2,328,90.2,326.3z"/>
	<path class="st1" d="M70.8,304.7c-0.9-1.7-3.1-2.3-4.8-1.4c-1.7,0.9-2.3,3.1-1.4,4.8c0.9,1.7,3.1,2.3,4.8,1.4
		C71.1,308.5,71.8,306.4,70.8,304.7z"/>
	<path class="st1" d="M59,289.7c-0.9-1.7-3.1-2.3-4.8-1.4c-1.7,0.9-2.3,3.1-1.4,4.8c0.9,1.7,3.1,2.3,4.8,1.4
		C59.3,293.5,60,291.4,59,289.7z"/>
</g>
<g>
	<path class="st3" d="M130.6,14.4c-0.1,0-0.2,0-0.3,0.1c-10.1,6.1-22.9,4.5-33.8,1.7c-9.5-2.4-18.4-6.9-28.4-4.5
		c-7,1.7-16.3,5.4-18.6,13.1c-1.2,4.1-0.9,7.9,0.1,12c0.1,0.3,2.6,5.8,4,7.2c-2.7,1.2-5.3,2.8-7.5,4.8c-0.5,0.5,0.2,1.5,0.8,1.2
		c2.7-1.3,5.2-2.5,7.8-3.5c4.6,9.2,9.6,17.2,19.6,21.3c7.8,3.2,16.7,2.1,24.3-0.7c20.3-7.4,29.1-33,32.9-52.3
		C131.7,14.2,130.9,14,130.6,14.4z"/>
	<g>
		<path class="st4" d="M120.5,23.7c-11.6,9-28.4,10.5-42.3,13c-11.7,2.1-29.3,4-36.6,14.7c-0.7,1.1,0.3,2.4,1.5,1.7
			c6.8-3.7,12.8-7.3,20.4-9.4c7.5-2.1,15.2-3.3,22.8-4.8c13.2-2.6,23.8-6.6,34.8-14.2C121.7,24.2,121.1,23.3,120.5,23.7L120.5,23.7z
			"/>
	</g>
	<g>
		<path class="st4" d="M80.3,19.6c-9.2,5.6-23,14.3-27.4,24.6c-0.2,0.5,0.4,1.1,0.9,0.8c4.3-3,7.5-7.8,11.2-11.7
			c4.8-5,10-9.4,15.7-13.2C81,19.9,80.7,19.4,80.3,19.6L80.3,19.6z"/>
	</g>
	<g>
		<path class="st4" d="M90.5,24.9c-3.2,2.3-6.5,4.6-9.6,7c-2.4,1.8-5.3,3.6-6.4,6.4c-0.1,0.3,0.1,0.7,0.5,0.5
			c2.7-1.2,4.5-3.7,6.7-5.7c3-2.6,6.1-5.1,9.2-7.6C91.3,25.2,90.9,24.6,90.5,24.9L90.5,24.9z"/>
	</g>
	<g>
		<path class="st4" d="M108.9,24.5c-4,2-10.5,5.8-11.9,10.4c-0.1,0.2,0.2,0.4,0.4,0.3c1.9-1,3.3-2.8,4.9-4.3c2.2-2.1,4.5-4.1,6.9-6
			C109.6,24.7,109.3,24.3,108.9,24.5L108.9,24.5z"/>
	</g>
	<g>
		<path class="st4" d="M110.9,34.1c-2.8,0.3-5.4-0.3-8.1-0.6c-1.8-0.2-4.3-0.6-5.6,0.8c-0.1,0.1-0.1,0.4,0,0.5
			c1.6,1.2,4.2,0.7,6.1,0.6c2.5-0.1,5.2-0.4,7.7-0.9C111.2,34.4,111.2,34.1,110.9,34.1L110.9,34.1z"/>
	</g>
	<g>
		<path class="st4" d="M108.4,44.6c-5.7,0-11.3-0.4-16.9-1.2c-2.5-0.4-5-0.9-7.5-1.6c-3.5-0.9-5.9-3.3-9.5-3.5
			c-0.4,0-0.9,0.4-0.6,0.9c7.4,9.3,24.2,6.5,34.4,5.7C108.6,44.9,108.6,44.6,108.4,44.6L108.4,44.6z"/>
	</g>
	<g>
		<path class="st4" d="M98.7,55.8c-14.9,0.7-30-3.1-42.4-11.6c-0.7-0.5-1.9,0.1-1.6,1.1c2.2,5.8,11.7,7.2,17.1,8.7
			c8.6,2.4,18,3.7,26.9,2.3C99,56.2,99,55.8,98.7,55.8L98.7,55.8z"/>
	</g>
</g>
</svg>
