<?xml version="1.0" encoding="utf-8"?>
<!-- Generator: Adobe Illustrator 22.0.1, SVG Export Plug-In . SVG Version: 6.00 Build 0)  -->
<svg version="1.1" id="分離模式" xmlns="http://www.w3.org/2000/svg" xmlns:xlink="http://www.w3.org/1999/xlink" x="0px"
	 y="0px" viewBox="0 0 200 574" style="enable-background:new 0 0 200 574;" xml:space="preserve">
<style type="text/css">
	.st0{fill:#5C995C;}
	.st1{fill:#407C40;}
	.st2{fill:#76995C;}
	.st3{fill:#5A7C40;}
	.st4{fill:#C4E0B1;}
	.st5{fill:#5C9984;}
	.st6{fill:#407C67;}
	.st7{fill:#B1E0B2;}
</style>
<g>
	<path class="st0" d="M83.2,473.6c8.6-13.4,23.4,2.7,31.6,13.4c-6.3-12.8-11.1-26.2-15.1-39.9c-0.3,0-0.5,0-0.8-0.2
		c-2.4-1.6-4.2-1.1-7-1c-3.5,0.1-7.1-1.5-9.9-3.3c-4.4-2.7-6.2-10.2-1.9-13.9c4-3.4,9.1-1.8,13.2,1.7c-4.3-3.9-8.5-8.6-10-14.2
		c-1.4-5.1,2.4-11.6,8.1-11.2c5.5,0.3,10.4,4.6,10.3,10.4c-0.1,5.1-4,9.5-5,14.3c0.2,0.5,0.3,1,0.4,1.5c0,0.1,0,0.2,0,0.3
		c0.6,1.9,1.2,3.8,1.8,5.8c1,2,1.7,4,1.9,5.8c1.7,5.1,3.6,10.2,5.5,15.2c0-9.1,2.8-19.8,13-17.7c7.2,1.5,11,7.5,9.5,14.5
		c-0.7,3.2-3.3,6.5-6.5,7.4c-2.2,0.7-4.5,0.8-6.8,0.9c-2.4,0.2-4.3,1-6.3,2c5.7,13.4,12.4,26.3,20.3,38.4c0.6,0.9,1.2,1.7,1.7,2.5
		c-2.6-9.9-2.2-20.8,6.8-25.3c8.3-4.1,17.6,2.8,19.4,10.8c1.1,4.8-1.2,9.5-4.5,12.8c-2,2-4.9,3.2-7.5,4.4c-3.9,1.8-5.2,4-6.7,7.4
		c5.9,7.2,12.5,13.8,19.7,19.6c5.6,4.5,11.7,8,17.9,11.1c-4.2-5.1-7.2-11.6-8.9-16.7c-3.4-9.9-1.9-19.8,5.1-27.6
		c7.2-7.9,18.9-0.5,21.5,7.7c2.1,6.6,1.3,12.5-1,18.9c-2.7,7.7-9.2,13.9-6.5,22.6c0,0,0,0,0,0c2.8,1.3,5.5,2.7,8.3,4.2
		c0.7,0.4,0.2,1.4-0.5,1.4c-10.7-0.8-20.9-5.1-30.3-11.3c-9.5,4.8-11.5,20.9-24.6,19.8c-7.6-0.6-15.7-5.6-15.8-14.1
		c-0.1-8.6,4.3-14.4,12.5-16.8c5-1.5,10.3-0.5,15.4,1.5c-9.5-8.5-17.6-18.5-24-27.7c-2.7-3.9-5.1-7.8-7.4-11.9
		c-0.2,0-0.5-0.1-0.7-0.2c-4.8-2.7-12.2,2.1-17.6,2.6c-4.9,0.5-10.4,0.2-14.9-2.1C77.6,492.7,78.1,481.7,83.2,473.6z"/>
	<g>
		<path class="st1" d="M91.3,411.8c5.2,15.2,11.4,30.2,16.7,45.4c5.6,15.9,11.8,31,21.3,45c9,13.2,20.4,24.7,32.5,35.1
			c5.8,5,12.1,9,19.1,12.1c5.4,2.4,11.3,3.1,16.2,6.6c1.1,0.8,0.8,2.6-0.6,2.8c-11.2,1.8-24.3-6.2-33.2-12.5
			c-13.2-9.4-24.9-22.2-34.9-34.9c-22.6-29.1-29.7-64.4-37.8-99.3C90.6,411.6,91.2,411.4,91.3,411.8L91.3,411.8z"/>
	</g>
	<g>
		<path class="st1" d="M174.1,521.1c1.2,6.3,2.5,12.3,5,18.3c2.3,5.5,6.7,9,9.2,14c0.3,0.7-0.2,1.7-1.1,1.5
			c-12-2.6-13.1-24.2-14.2-33.6C173,520.6,174,520.4,174.1,521.1L174.1,521.1z"/>
	</g>
	<g>
		<path class="st1" d="M135.8,552.8c7.7-8.5,22.9-14.3,33.2-6.2c0.4,0.4,0.3,1-0.2,1.1c-4,1-7.6-0.7-11.6-1.3
			c-7.7-1.1-15.2,1.9-20.7,7.1C136,554,135.4,553.2,135.8,552.8L135.8,552.8z"/>
	</g>
	<g>
		<path class="st1" d="M139.6,491.9c-2.4,4.6-3.7,9.2-3.2,14.5c0.4,4.3,2.8,8.1,3,12.4c0,0.6-0.6,1.1-1.1,0.7
			c-9.2-6.1-4.1-21,0.6-28.2C139.2,491,139.8,491.5,139.6,491.9L139.6,491.9z"/>
	</g>
	<g>
		<path class="st1" d="M96.6,478.8c11,2.8,21.5,5.8,24.5,17.8c0.1,0.3-0.4,0.6-0.6,0.3c-5.5-8.2-15-14.1-24.1-17.6
			C96.1,479.2,96.2,478.7,96.6,478.8L96.6,478.8z"/>
	</g>
	<g>
		<path class="st1" d="M116.6,445.7c-2.5,2.9-4.3,6-5.5,9.6c-1.3,3.7-0.9,7.8-1.6,11.6c-0.1,0.4-0.5,0.5-0.8,0.1
			c-5-8.1,1-16.7,7.2-21.9C116.3,444.8,116.9,445.3,116.6,445.7L116.6,445.7z"/>
	</g>
	<g>
		<path class="st1" d="M86,430c8.4,4.2,14.4,10.9,16.6,19.9c0.1,0.5-0.6,0.8-0.9,0.4c-5.1-6.5-9.2-14.8-16.1-19.7
			C85.3,430.4,85.6,429.8,86,430L86,430z"/>
	</g>
</g>
<g>
	<path class="st2" d="M77.4,467.8c0,0.1,0.1,0.2,0,0.3c-2,11.6,4.2,23,10.8,32.1c5.8,7.9,13.2,14.6,14.7,24.8
		c1,7.1,0.9,17.1-5.4,22.1c-3.3,2.6-7,3.8-11.1,4.3c-0.3,0-6.4-0.3-8.2-1.1c-0.2,3-0.7,5.9-1.7,8.8c-0.3,0.7-1.5,0.4-1.4-0.3
		c0.2-2.9,0.4-5.8,0.4-8.5c-10.3-0.9-19.6-2.6-27-10.4c-5.8-6.1-8.1-14.7-8.3-22.9c-0.6-21.6,20-39.2,36.5-49.9
		C77.3,466.7,77.8,467.4,77.4,467.8z"/>
	<g>
		<path class="st3" d="M72.5,480.6c-4.1,14.1,0.7,30.3,3.5,44.2c2.4,11.7,7.1,28.7-0.2,39.4c-0.7,1.1-2.3,0.6-2.2-0.8
			c1-7.7,2-14.6,1.3-22.4c-0.8-7.7-2.6-15.4-3.9-23c-2.4-13.2-2.6-24.6,0.4-37.6C71.6,479.7,72.7,479.9,72.5,480.6L72.5,480.6z"/>
	</g>
	<g>
		<path class="st3" d="M91.1,516.5c-1.8,10.6-4.8,26.6-12.8,34.5c-0.4,0.4-1.2,0.1-1.1-0.6c1.2-5.1,4.5-9.9,6.7-14.7
			c2.9-6.2,5-12.7,6.5-19.4C90.5,515.9,91.2,516.1,91.1,516.5L91.1,516.5z"/>
	</g>
	<g>
		<path class="st3" d="M82.5,508.9c-1,3.8-1.9,7.7-2.9,11.5c-0.8,2.9-1.4,6.2-3.6,8.3c-0.2,0.2-0.7,0.1-0.7-0.2
			c0.1-3,1.8-5.6,2.8-8.4c1.3-3.7,2.5-7.5,3.7-11.3C81.9,508.3,82.6,508.4,82.5,508.9L82.5,508.9z"/>
	</g>
	<g>
		<path class="st3" d="M76,491.6c-0.4,4.5-1.5,11.9-5.3,14.9c-0.2,0.2-0.4-0.1-0.4-0.3c0.3-2.2,1.3-4.1,2.2-6.1
			c1.2-2.8,2.1-5.7,3-8.6C75.6,491.1,76.1,491.3,76,491.6L76,491.6z"/>
	</g>
	<g>
		<path class="st3" d="M66.4,493.3c0.8,2.7,2.2,4.9,3.6,7.3c0.9,1.6,2.2,3.8,1.3,5.5c-0.1,0.2-0.3,0.3-0.5,0.2
			c-1.7-1.1-2.2-3.7-2.8-5.5c-0.8-2.4-1.6-5-2-7.5C66,493.2,66.3,493.1,66.4,493.3L66.4,493.3z"/>
	</g>
	<g>
		<path class="st3" d="M57.5,499.6c2.1,5.3,4.5,10.4,7.3,15.3c1.3,2.2,2.7,4.3,4.2,6.3c2.2,2.9,5.2,4.3,6.7,7.5
			c0.2,0.4-0.1,1-0.6,0.9c-11.3-3.5-15-20.1-18-29.9C57.2,499.5,57.4,499.4,57.5,499.6L57.5,499.6z"/>
	</g>
	<g>
		<path class="st3" d="M50.7,512.6c4.8,14.1,13.9,26.7,26.4,35.2c0.7,0.5,0.7,1.8-0.4,1.8c-6.2,0.1-11-8.3-14.4-12.7
			c-5.4-7.1-10-15.4-12-24.1C50.3,512.5,50.6,512.4,50.7,512.6L50.7,512.6z"/>
	</g>
</g>
<g>
	<path class="st2" d="M22.7,300.6c-4,4.1-4.6,10.2,1.5,12.7c8.9,3.7,20.1,1.6,29.4,0.6c12.6-1.3,25.3,0.1,37.9-1
		c11.3-1,19.5-6.7,27.1-14.5c6.7,0,13.3-1.2,18.6-5.2c0.3-0.3,0.1-0.8-0.3-0.8c-5.7,0.9-10.9,2.3-16.3,3.1
		c1.5-7.4-2.1-13.8-8.4-18.2c-8.3-5.8-20.7-5-30.4-4.5c-12.6,0.6-24.3,3.9-35.2,10.2C38.3,287.8,29.4,293.7,22.7,300.6z"/>
	<g>
		<path class="st4" d="M33.4,305.6c14.3-5.1,28.7-9.5,43.9-10.2c7.8-0.4,15.7-0.1,23.5,0.5c4.7,0.4,11.3,2.8,15.7,0.4
			c0.8-0.4,0.4-1.5-0.4-1.4c-6.2,0.5-12.5-1-18.7-1.5c-7.4-0.5-14.8-0.3-22.2,0.2c-14.8,1-28.5,5.7-42,11.6
			C33,305.3,33.2,305.6,33.4,305.6L33.4,305.6z"/>
	</g>
	<g>
		<path class="st4" d="M89.3,307.9c7.8-3.6,17.7-5.7,24.2-11.6c0.5-0.5,0-1.3-0.6-1c-7.9,3.7-16.3,7.8-23.7,12.4
			C89,307.7,89.2,308,89.3,307.9L89.3,307.9z"/>
	</g>
	<g>
		<path class="st4" d="M69.2,310.5c8.3-5.8,17.8-9.7,26.1-15.6c0.5-0.4,0-1.1-0.5-0.9c-4.9,2-9.4,5.3-14,8
			c-4.1,2.4-8.1,5.1-11.7,8.3C69,310.5,69.1,310.6,69.2,310.5L69.2,310.5z"/>
	</g>
	<g>
		<path class="st4" d="M52,309.6c6.2-4.7,12.8-10,19.7-13.7c0.7-0.4,0.3-1.4-0.5-1.1c-3.2,1.2-5.6,3.8-8.2,6
			c-3.7,3-7.6,5.6-11.1,8.7C51.6,309.5,51.8,309.7,52,309.6L52,309.6z"/>
	</g>
	<g>
		<path class="st4" d="M41.6,308.2c1.8-1.7,3.7-3.5,5.6-5.2c1.7-1.5,3.5-2.6,4.9-4.3c0.1-0.1-0.1-0.2-0.2-0.2
			c-4.4,1.5-8,5.8-10.6,9.5C41.3,308.2,41.5,308.3,41.6,308.2L41.6,308.2z"/>
	</g>
	<g>
		<path class="st4" d="M34.7,297.2c3.3,0.9,6.7,1.7,10.1,2.2c2.8,0.4,6,0.9,8.5-0.7c0.1-0.1,0-0.2-0.1-0.2c-3.1-0.2-6.1,0.2-9.2-0.2
			c-3.1-0.4-6.2-1.1-9.3-1.6C34.5,296.6,34.4,297.1,34.7,297.2L34.7,297.2z"/>
	</g>
	<g>
		<path class="st4" d="M47.5,286.4c5.5,1.8,10.6,4.5,15.9,6.9c2.7,1.2,7,3.1,9.8,1.6c0.2-0.1,0.2-0.5-0.1-0.6
			c-9.1-0.2-17.1-5.5-25.6-8.1C47.4,286.2,47.4,286.3,47.5,286.4L47.5,286.4z"/>
	</g>
	<g>
		<path class="st4" d="M76,284.6c3.8,2.1,7.4,4.5,11,6.7c2.6,1.6,5.5,3.4,8.6,3.3c0.3,0,0.3-0.4,0.1-0.5c-3.1-2-7.1-3-10.4-4.8
			c-3.1-1.7-6-3.5-9.2-4.9C75.9,284.3,75.8,284.5,76,284.6L76,284.6z"/>
	</g>
	<g>
		<path class="st4" d="M93.2,279.1c5.4,3.6,10.7,7.7,15.4,12.1c2.1,1.9,4.9,5.4,8,4.8c0.6-0.1,0.7-0.9,0.1-1.2
			c-3.4-1.3-5.8-3.7-8.5-6c-4.5-3.8-9.7-7.1-14.9-9.9C93.2,278.9,93.1,279,93.2,279.1L93.2,279.1z"/>
	</g>
</g>
<g>
	<path class="st5" d="M38.6,235.2c3.6-15.5,23-5.3,34.3,2c-10.2-9.9-19.3-20.9-27.6-32.5c-0.2,0.1-0.5,0.2-0.8,0.1
		c-2.8-0.7-4.3,0.4-6.9,1.4c-3.2,1.3-7.2,0.9-10.5,0.2c-5-1.1-9.3-7.5-6.4-12.5c2.6-4.5,7.9-4.8,13-2.8c-5.4-2.2-10.9-5.3-14.1-10
		c-3-4.3-1.6-11.7,3.8-13.3c5.3-1.5,11.3,0.8,13.2,6.3c1.6,4.8-0.5,10.3,0.1,15.2c0.3,0.4,0.6,0.8,0.9,1.3c0.1,0.1,0.1,0.2,0.1,0.3
		c1.2,1.6,2.4,3.2,3.6,4.8c1.6,1.5,2.9,3.2,3.7,4.8c3.3,4.2,6.8,8.4,10.3,12.5c-3-8.6-4-19.5,6.3-21c7.2-1,12.9,3.3,13.8,10.4
		c0.4,3.3-1,7.2-3.6,9.2c-1.9,1.4-3.9,2.2-6.1,3.1c-2.2,1-3.7,2.3-5.2,4c9.8,10.7,20.5,20.7,32.1,29.4c0.8,0.6,1.7,1.2,2.5,1.8
		c-5.7-8.5-9-18.9-2.1-26.1c6.4-6.7,17.5-3.3,21.9,3.7c2.6,4.2,2.1,9.4,0.1,13.6c-1.2,2.6-3.6,4.7-5.6,6.6c-3.1,3-3.6,5.5-3.9,9.2
		c8,4.8,16.4,8.8,25.1,11.9c6.8,2.4,13.7,3.6,20.6,4.4c-5.6-3.4-10.7-8.5-14-12.7c-6.5-8.2-8.5-18-4.5-27.7
		c4.1-9.9,17.6-6.8,22.8,0.1c4.2,5.5,5.4,11.3,5.4,18.1c0,8.2-4,16.2,1.5,23.4c0,0,0,0,0,0c3.1,0.3,6.1,0.7,9.2,1.1
		c0.8,0.1,0.7,1.3,0,1.4c-10.4,2.9-21.4,2.2-32.4-0.5c-7.3,7.7-3.9,23.5-16.5,26.9c-7.3,1.9-16.7,0-19.6-8c-3-8.1-0.8-15,6.1-20
		c4.2-3.1,9.6-4,15-3.8c-11.8-4.8-22.8-11.5-31.9-18c-3.8-2.7-7.5-5.7-11-8.7c-0.2,0.1-0.5,0.1-0.7,0c-5.4-0.9-10.8,6-15.7,8.4
		c-4.4,2.1-9.7,3.7-14.7,3C39.8,255,36.5,244.5,38.6,235.2z"/>
	<g>
		<path class="st6" d="M25.5,174.2c10,12.6,20.8,24.6,31,37.1C67,224.4,78,236.6,91.7,246.6c12.9,9.5,27.5,16.4,42.4,22.1
			c7.2,2.8,14.4,4.4,22.1,5c5.9,0.4,11.7-0.9,17.4,0.7c1.3,0.4,1.6,2.1,0.4,2.8c-10,5.5-25,2.4-35.4-0.6
			c-15.6-4.4-31-12.5-44.6-21.2c-31.1-19.8-49.6-50.7-69-80.8C24.7,174.3,25.3,173.9,25.5,174.2L25.5,174.2z"/>
	</g>
	<g>
		<path class="st6" d="M140.2,249.3c3.2,5.6,6.5,10.7,10.8,15.5c4,4.4,9.3,6.2,13.4,10.1c0.5,0.5,0.3,1.7-0.5,1.8
			c-12.2,1.6-20.4-18.4-24.6-26.9C139,249.2,139.9,248.7,140.2,249.3L140.2,249.3z"/>
	</g>
	<g>
		<path class="st6" d="M114.7,292c4.4-10.6,16.8-21.1,29.2-17c0.5,0.2,0.6,0.8,0.2,1.2c-3.4,2.2-7.4,1.9-11.3,2.7
			c-7.6,1.5-13.7,6.8-17.1,13.6C115.3,293.1,114.5,292.6,114.7,292L114.7,292z"/>
	</g>
	<g>
		<path class="st6" d="M97.9,233.5c-0.7,5.2-0.4,10,1.8,14.7c1.8,4,5.4,6.7,7,10.7c0.2,0.6-0.2,1.2-0.8,1.1
			c-10.7-2.7-10.9-18.4-8.9-26.7C97.2,232.7,97.9,232.9,97.9,233.5L97.9,233.5z"/>
	</g>
	<g>
		<path class="st6" d="M52.9,235.5c11.3-1.1,22.1-1.8,29.1,8.5c0.2,0.3-0.2,0.7-0.5,0.5c-8-5.8-18.9-8.2-28.6-8.5
			C52.6,236.1,52.6,235.6,52.9,235.5L52.9,235.5z"/>
	</g>
	<g>
		<path class="st6" d="M60.7,197.6c-1.4,3.5-2,7.1-2,10.9c0,4,1.8,7.6,2.4,11.5c0.1,0.4-0.3,0.6-0.7,0.4c-7.4-5.9-4.6-16.1-0.5-23.1
			C60.1,196.9,60.9,197.1,60.7,197.6L60.7,197.6z"/>
	</g>
	<g>
		<path class="st6" d="M26.6,193.1c9.3,1.1,17.2,5.4,22.4,13.2c0.3,0.4-0.3,0.9-0.7,0.7c-7-4.4-13.7-10.8-21.8-13.1
			C26.1,193.7,26.2,193.1,26.6,193.1L26.6,193.1z"/>
	</g>
</g>
<g>
	<path class="st0" d="M60,112.8c0.1,0,0.2-0.1,0.3,0c11.6,2,23-4.2,32.1-10.8c7.9-5.8,14.6-13.2,24.8-14.7c7.1-1,17.1-0.9,22.1,5.4
		c2.6,3.3,3.8,7,4.3,11.1c0,0.3-0.3,6.4-1.1,8.2c3,0.2,5.9,0.7,8.8,1.7c0.7,0.3,0.4,1.5-0.3,1.4c-2.9-0.2-5.8-0.4-8.5-0.4
		c-0.9,10.3-2.6,19.6-10.4,27c-6.1,5.8-14.7,8.1-22.9,8.3c-21.6,0.6-39.2-20-49.9-36.5C58.9,112.9,59.6,112.4,60,112.8z"/>
	<g>
		<path class="st1" d="M72.8,117.7c14.1,4.1,30.3-0.7,44.2-3.5c11.7-2.4,28.7-7.1,39.4,0.2c1.1,0.7,0.6,2.3-0.8,2.2
			c-7.7-1-14.6-2-22.4-1.3c-7.7,0.8-15.4,2.6-23,3.9c-13.2,2.4-24.6,2.6-37.6-0.4C71.9,118.6,72.1,117.5,72.8,117.7L72.8,117.7z"/>
	</g>
	<g>
		<path class="st1" d="M108.7,99.1c10.6,1.8,26.6,4.8,34.5,12.8c0.4,0.4,0.1,1.2-0.6,1.1c-5.1-1.2-9.9-4.5-14.7-6.7
			c-6.2-2.9-12.7-5-19.4-6.5C108.1,99.7,108.3,99,108.7,99.1L108.7,99.1z"/>
	</g>
	<g>
		<path class="st1" d="M101.1,107.7c3.8,1,7.7,1.9,11.5,2.9c2.9,0.8,6.2,1.4,8.3,3.6c0.2,0.2,0.1,0.7-0.2,0.7
			c-3-0.1-5.6-1.8-8.4-2.8c-3.7-1.3-7.5-2.5-11.3-3.7C100.5,108.3,100.7,107.6,101.1,107.7L101.1,107.7z"/>
	</g>
	<g>
		<path class="st1" d="M83.9,114.2c4.5,0.4,11.9,1.5,14.9,5.3c0.2,0.2-0.1,0.4-0.3,0.4c-2.2-0.3-4.1-1.3-6.1-2.2
			c-2.8-1.2-5.7-2.1-8.6-3C83.4,114.6,83.5,114.1,83.9,114.2L83.9,114.2z"/>
	</g>
	<g>
		<path class="st1" d="M85.5,123.8c2.7-0.8,4.9-2.2,7.3-3.6c1.6-0.9,3.8-2.2,5.5-1.3c0.2,0.1,0.3,0.3,0.2,0.5
			c-1.1,1.7-3.7,2.2-5.5,2.8c-2.4,0.8-5,1.6-7.5,2C85.4,124.2,85.3,123.9,85.5,123.8L85.5,123.8z"/>
	</g>
	<g>
		<path class="st1" d="M91.8,132.7c5.3-2.1,10.4-4.5,15.3-7.3c2.2-1.3,4.3-2.7,6.3-4.2c2.9-2.2,4.3-5.2,7.5-6.7
			c0.4-0.2,1,0.1,0.9,0.6c-3.5,11.3-20.1,15-29.9,18C91.7,133,91.6,132.8,91.8,132.7L91.8,132.7z"/>
	</g>
	<g>
		<path class="st1" d="M104.9,139.5c14.1-4.8,26.7-13.9,35.2-26.4c0.5-0.7,1.8-0.7,1.8,0.4c0.1,6.2-8.3,11-12.7,14.4
			c-7.1,5.4-15.4,10-24.1,12C104.7,139.9,104.6,139.6,104.9,139.5L104.9,139.5z"/>
	</g>
</g>
<g>
	<g>
		<path class="st0" d="M125,335.9c-1.1-3.7-0.5-7.1,0.7-10.7c0.1-0.3-0.3-0.7-0.6-0.4c-4.8,5.3-2.2,12.2,1.3,17.6
			c-2.7-2.2-5.2-4.7-7.6-7.6c-2.2-2.8-4.3-5.7-6.1-8.7c-0.4-2.3-0.1-4.5,0.1-7c0-0.3-0.4-0.5-0.6-0.2c-0.9,1.3-1.1,2.9-1,4.5
			c-1.3-2.3-2.5-4.6-3.7-7c-0.2-0.5-1-0.1-0.8,0.3c0.5,1.1,1,2.3,1.5,3.5c-1.5-0.8-3.4-1-4.8-0.8c-0.3,0-0.3,0.5,0,0.6
			c1.1,0.4,2.2,0.6,3.3,0.9c1,0.3,1.8,0.9,2.6,1.5c1.8,4,3.9,8.1,6.4,11.9c-4.1-2.6-8.8-4.2-13.7-4.6c-0.4,0-0.5,0.5-0.1,0.7
			c2.6,1.1,5.3,1.8,7.9,2.7c3,1,5.4,2.6,8,4.2c4.4,5.8,9.8,10.4,16.8,12c0.5,0.1,0.9-0.5,0.4-0.9c-2.2-1.5-4.3-2.9-6.3-4.4
			C127.2,341.5,125.9,338.8,125,335.9z"/>
	</g>
	<path class="st0" d="M103.2,327.7c2.3,1.6,2.8,4.7,1.3,7c-1.6,2.3-4.7,2.8-7,1.3c-2.3-1.6-2.8-4.7-1.3-7
		C97.8,326.7,100.9,326.1,103.2,327.7z"/>
	<path class="st0" d="M102.7,315.9c2.3,1.6,2.8,4.7,1.3,7c-1.6,2.3-4.7,2.8-7,1.3c-2.3-1.6-2.8-4.7-1.3-7
		C97.3,314.9,100.4,314.3,102.7,315.9z"/>
	<path class="st0" d="M109,308.3c2.3,1.6,2.8,4.7,1.3,7c-1.6,2.3-4.7,2.8-7,1.3c-2.3-1.6-2.8-4.7-1.3-7
		C103.6,307.3,106.8,306.7,109,308.3z"/>
	<path class="st0" d="M117.9,314.6c2.3,1.6,2.8,4.7,1.3,7c-1.6,2.3-4.7,2.8-7,1.3c-2.3-1.6-2.8-4.7-1.3-7
		C112.5,313.6,115.6,313,117.9,314.6z"/>
	<path class="st0" d="M128.9,322.2c2.3,1.6,2.8,4.7,1.3,7c-1.6,2.3-4.7,2.8-7,1.3c-2.3-1.6-2.8-4.7-1.3-7
		C123.5,321.2,126.6,320.6,128.9,322.2z"/>
	<g>
		<path class="st7" d="M102,335c-0.8,0.2-1.8,0.2-2.5-0.3c-0.3-0.2-0.7-0.5-0.9-0.8c-0.3-0.3-0.4-0.6-0.8-0.8
			c-0.4-0.2-0.9-0.1-1,0.3c-0.3,1.2,0.9,2,1.9,2.4c1.1,0.4,2.5,0.2,3.6-0.2C102.5,335.4,102.3,334.9,102,335L102,335z"/>
	</g>
	<g>
		<path class="st7" d="M97.6,332.1c-0.1-0.5,0-1-0.4-1.4c-0.1-0.1-0.3-0.1-0.4,0c-0.5,0.5-0.4,1.1-0.1,1.7
			C97,332.8,97.8,332.6,97.6,332.1L97.6,332.1z"/>
	</g>
	<g>
		<path class="st7" d="M101.3,323.3c-1.2,0-2-0.3-2.9-0.9c-0.9-0.6-0.9-1.6-1.4-2.5c-0.4-0.7-1.4-0.5-1.5,0.3
			c-0.2,1.4,0.8,2.4,1.8,3.2c1.1,0.8,2.7,0.6,4,0.5C101.6,323.8,101.6,323.3,101.3,323.3L101.3,323.3z"/>
	</g>
	<g>
		<path class="st7" d="M96.7,319.3c0.2-0.4,0.5-0.6,0.4-1.1c0-0.2-0.2-0.2-0.3-0.2c-0.5,0.2-0.5,0.7-0.5,1.2
			C96.2,319.4,96.6,319.5,96.7,319.3L96.7,319.3z"/>
	</g>
	<g>
		<path class="st7" d="M103.4,312.2c0.3-0.8,0.7-1.4,1.3-1.9c0.4-0.3,1-0.7,0.6-1.2c-0.1-0.1-0.3-0.2-0.5-0.2
			c-1.5,0.3-1.8,1.9-1.8,3.2C102.9,312.4,103.3,312.5,103.4,312.2L103.4,312.2z"/>
	</g>
	<g>
		<path class="st7" d="M105.5,309.3C105.5,309.3,105.4,309.2,105.5,309.3C105.4,309.3,105.4,309.4,105.5,309.3L105.5,309.3z"/>
	</g>
	<g>
		<path class="st7" d="M106.3,309.6c0.5-0.1,1.1-0.1,1.6-0.1c0.2,0,0.2-0.2,0-0.3c-0.6-0.2-1.1-0.4-1.7-0.3
			C105.7,309,105.8,309.6,106.3,309.6L106.3,309.6z"/>
	</g>
	<g>
		<path class="st7" d="M113.6,314.8c0.9,0,1.6,0.5,2.3,1c0.7,0.5,1,1.2,1.8,1.4c0.5,0.1,0.8-0.4,0.9-0.8c0.2-1.1-1.1-1.8-2-2
			c-1-0.3-2.1-0.1-3.1,0C113.4,314.3,113.4,314.8,113.6,314.8L113.6,314.8z"/>
	</g>
	<g>
		<path class="st7" d="M118.3,318.9c-0.1,0.1-0.2,0.3-0.2,0.5c-0.1,0.6,0.6,0.8,0.9,0.3c0.1-0.1,0.1-0.2,0.1-0.4
			C119.3,318.8,118.6,318.4,118.3,318.9L118.3,318.9z"/>
	</g>
	<g>
		<path class="st7" d="M123.7,324.2c0.6-0.5,1.4-0.4,2.1-0.2c0.7,0.2,1.5,0.7,2.3,0.6c0.4-0.1,0.6-0.5,0.5-0.9
			c-0.4-1-1.9-1.3-2.8-1.3c-1.2,0-1.9,0.6-2.6,1.5C122.8,324,123.4,324.5,123.7,324.2L123.7,324.2z"/>
	</g>
	<g>
		<path class="st7" d="M129.7,325.7c0,0.4,0,0.7,0.3,0.9c0.1,0.1,0.3,0.1,0.3-0.1c0.1-0.3,0.1-0.5,0.1-0.8
			C130.5,325.3,129.7,325.3,129.7,325.7L129.7,325.7z"/>
	</g>
</g>
<g>
	<g>
		<path class="st0" d="M140,177.9c-1.1-3.7-0.5-7.1,0.7-10.7c0.1-0.3-0.3-0.7-0.6-0.4c-4.8,5.3-2.2,12.2,1.3,17.6
			c-2.7-2.2-5.2-4.7-7.6-7.6c-2.2-2.8-4.3-5.7-6.1-8.7c-0.4-2.3-0.1-4.5,0.1-7c0-0.3-0.4-0.5-0.6-0.2c-0.9,1.3-1.1,2.9-1,4.5
			c-1.3-2.3-2.5-4.6-3.7-7c-0.2-0.5-1-0.1-0.8,0.3c0.5,1.1,1,2.3,1.5,3.5c-1.5-0.8-3.4-1-4.8-0.8c-0.3,0-0.3,0.5,0,0.6
			c1.1,0.4,2.2,0.6,3.3,0.9c1,0.3,1.8,0.9,2.6,1.5c1.8,4,3.9,8.1,6.4,11.9c-4.1-2.6-8.8-4.2-13.7-4.6c-0.4,0-0.5,0.5-0.1,0.7
			c2.6,1.1,5.3,1.8,7.9,2.7c3,1,5.4,2.6,8,4.2c4.4,5.8,9.8,10.4,16.8,12c0.5,0.1,0.9-0.5,0.4-0.9c-2.2-1.5-4.3-2.9-6.3-4.4
			C142.2,183.5,140.9,180.8,140,177.9z"/>
	</g>
	<path class="st0" d="M118.2,169.7c2.3,1.6,2.8,4.7,1.3,7c-1.6,2.3-4.7,2.8-7,1.3c-2.3-1.6-2.8-4.7-1.3-7
		C112.8,168.7,115.9,168.1,118.2,169.7z"/>
	<path class="st0" d="M117.7,157.9c2.3,1.6,2.8,4.7,1.3,7c-1.6,2.3-4.7,2.8-7,1.3c-2.3-1.6-2.8-4.7-1.3-7
		C112.3,156.9,115.4,156.3,117.7,157.9z"/>
	<path class="st0" d="M124,150.3c2.3,1.6,2.8,4.7,1.3,7c-1.6,2.3-4.7,2.8-7,1.3c-2.3-1.6-2.8-4.7-1.3-7
		C118.6,149.3,121.8,148.7,124,150.3z"/>
	<path class="st0" d="M132.9,156.6c2.3,1.6,2.8,4.7,1.3,7c-1.6,2.3-4.7,2.8-7,1.3c-2.3-1.6-2.8-4.7-1.3-7
		C127.5,155.6,130.6,155,132.9,156.6z"/>
	<path class="st0" d="M143.9,164.2c2.3,1.6,2.8,4.7,1.3,7c-1.6,2.3-4.7,2.8-7,1.3c-2.3-1.6-2.8-4.7-1.3-7
		C138.5,163.2,141.6,162.6,143.9,164.2z"/>
	<g>
		<path class="st7" d="M117,177c-0.8,0.2-1.8,0.2-2.5-0.3c-0.3-0.2-0.7-0.5-0.9-0.8c-0.3-0.3-0.4-0.6-0.8-0.8
			c-0.4-0.2-0.9-0.1-1,0.3c-0.3,1.2,0.9,2,1.9,2.4c1.1,0.4,2.5,0.2,3.6-0.2C117.5,177.4,117.3,176.9,117,177L117,177z"/>
	</g>
	<g>
		<path class="st7" d="M112.6,174.1c-0.1-0.5,0-1-0.4-1.4c-0.1-0.1-0.3-0.1-0.4,0c-0.5,0.5-0.4,1.1-0.1,1.7
			C112,174.8,112.8,174.6,112.6,174.1L112.6,174.1z"/>
	</g>
	<g>
		<path class="st7" d="M116.3,165.3c-1.2,0-2-0.3-2.9-0.9c-0.9-0.6-0.9-1.6-1.4-2.5c-0.4-0.7-1.4-0.5-1.5,0.3
			c-0.2,1.4,0.8,2.4,1.8,3.2c1.1,0.8,2.7,0.6,4,0.5C116.6,165.8,116.6,165.3,116.3,165.3L116.3,165.3z"/>
	</g>
	<g>
		<path class="st7" d="M111.7,161.3c0.2-0.4,0.5-0.6,0.4-1.1c0-0.2-0.2-0.2-0.3-0.2c-0.5,0.2-0.5,0.7-0.5,1.2
			C111.2,161.4,111.6,161.5,111.7,161.3L111.7,161.3z"/>
	</g>
	<g>
		<path class="st7" d="M118.4,154.2c0.3-0.8,0.7-1.4,1.3-1.9c0.4-0.3,1-0.7,0.6-1.2c-0.1-0.1-0.3-0.2-0.5-0.2
			c-1.5,0.3-1.8,1.9-1.8,3.2C117.9,154.4,118.3,154.5,118.4,154.2L118.4,154.2z"/>
	</g>
	<g>
		<path class="st7" d="M120.5,151.3C120.5,151.3,120.4,151.2,120.5,151.3C120.4,151.3,120.4,151.4,120.5,151.3L120.5,151.3z"/>
	</g>
	<g>
		<path class="st7" d="M121.3,151.6c0.5-0.1,1.1-0.1,1.6-0.1c0.2,0,0.2-0.2,0-0.3c-0.6-0.2-1.1-0.4-1.7-0.3
			C120.7,151,120.8,151.6,121.3,151.6L121.3,151.6z"/>
	</g>
	<g>
		<path class="st7" d="M128.6,156.8c0.9,0,1.6,0.5,2.3,1c0.7,0.5,1,1.2,1.8,1.4c0.5,0.1,0.8-0.4,0.9-0.8c0.2-1.1-1.1-1.8-2-2
			c-1-0.3-2.1-0.1-3.1,0C128.4,156.3,128.4,156.8,128.6,156.8L128.6,156.8z"/>
	</g>
	<g>
		<path class="st7" d="M133.3,160.9c-0.1,0.1-0.2,0.3-0.2,0.5c-0.1,0.6,0.6,0.8,0.9,0.3c0.1-0.1,0.1-0.2,0.1-0.4
			C134.3,160.8,133.6,160.4,133.3,160.9L133.3,160.9z"/>
	</g>
	<g>
		<path class="st7" d="M138.7,166.2c0.6-0.5,1.4-0.4,2.1-0.2c0.7,0.2,1.5,0.7,2.3,0.6c0.4-0.1,0.6-0.5,0.5-0.9
			c-0.4-1-1.9-1.3-2.8-1.3c-1.2,0-1.9,0.6-2.6,1.5C137.8,166,138.4,166.5,138.7,166.2L138.7,166.2z"/>
	</g>
	<g>
		<path class="st7" d="M144.7,167.7c0,0.4,0,0.7,0.3,0.9c0.1,0.1,0.3,0.1,0.3-0.1c0.1-0.3,0.1-0.5,0.1-0.8
			C145.5,167.3,144.7,167.3,144.7,167.7L144.7,167.7z"/>
	</g>
</g>
<g>
	<g>
		<path class="st0" d="M80.8,148.2c9.3,21.3,19.4,42.1,34.7,59.9c6.2,7.2,13.6,13.6,21.1,19.3c7,5.2,14.6,7.9,22.4,11.5
			c0.5,0.2,0.2,1-0.3,0.9c-16.4-0.6-32-16.7-42.6-27.7c-16.9-17.6-26.9-41.4-35.9-63.6C80.2,148.1,80.7,147.8,80.8,148.2L80.8,148.2
			z"/>
	</g>
	<g>
		<path class="st0" d="M158.6,239.4c-8-2.7-14.9-4.5-21.8-9.6c-6.4-4.7-12.1-10.7-16.9-17c-10.8-13.9-16.2-28.5-20.2-45.4
			c-0.1-0.3,0.3-0.3,0.4-0.1c2.8,7.3,4.6,15,7.8,22.1c3,6.8,7.5,13.3,11.7,19.5c4.5,6.6,10.1,12.3,16.1,17.6
			c6.9,6.1,14.9,8.5,23.2,12.1C159.2,238.9,159,239.6,158.6,239.4L158.6,239.4z"/>
	</g>
	<g>
		<path class="st0" d="M133.4,227.9c-14.6-9.5-28.2-22.1-40-34.8c-12.3-13.3-20.7-28.2-24.9-45.9c-0.1-0.5,0.6-0.8,0.8-0.3
			c3.1,7,5.3,14.5,8.5,21.5c4,8.9,10.5,16.3,17.1,23.3c6,6.4,12.3,12.3,19,18c6.7,5.7,12.9,12.3,20,17.4
			C134.3,227.5,133.9,228.2,133.4,227.9L133.4,227.9z"/>
	</g>
	<g>
		<path class="st0" d="M99.1,187.7c-9.6-8.3-18-21.9-21.6-34c-0.1-0.3,0.4-0.5,0.6-0.2c6,11.4,12.6,24.3,21.7,33.6
			C100.2,187.4,99.5,188,99.1,187.7L99.1,187.7z"/>
	</g>
	<g>
		<path class="st0" d="M106.6,206c-16.9-7.4-28.5-19.1-39.7-33.4c-0.3-0.4,0.2-0.9,0.5-0.5c5.6,5.4,10.6,11.3,16.2,16.7
			c6.7,6.5,15.3,11.7,23.5,16.3C107.7,205.5,107.1,206.3,106.6,206L106.6,206z"/>
	</g>
	<g>
		<path class="st0" d="M123.9,216.2c-6.3-9.9-9.4-21.9-13.5-32.8c-0.2-0.5,0.6-0.7,0.8-0.3c6.6,9.6,8.4,22.2,13.3,32.7
			C124.8,216.3,124.2,216.6,123.9,216.2L123.9,216.2z"/>
	</g>
	<path class="st0" d="M65.4,148.5c0.9,1.7,3.1,2.3,4.8,1.4c1.7-0.9,2.3-3.1,1.4-4.8c-0.9-1.7-3.1-2.3-4.8-1.4
		C65,144.6,64.4,146.8,65.4,148.5z"/>
	<path class="st0" d="M64.7,174.9c0.9,1.7,3.1,2.3,4.8,1.4c1.7-0.9,2.3-3.1,1.4-4.8c-0.9-1.7-3.1-2.3-4.8-1.4
		C64.4,171.1,63.7,173.2,64.7,174.9z"/>
	<path class="st0" d="M73.7,156.4c0.9,1.7,3.1,2.3,4.8,1.4c1.7-0.9,2.3-3.1,1.4-4.8c-0.9-1.7-3.1-2.3-4.8-1.4
		C73.4,152.5,72.8,154.7,73.7,156.4z"/>
	<path class="st0" d="M76.9,148.9c0.9,1.7,3.1,2.3,4.8,1.4c1.7-0.9,2.3-3.1,1.4-4.8c-0.9-1.7-3.1-2.3-4.8-1.4
		C76.5,145.1,75.9,147.2,76.9,148.9z"/>
	<path class="st0" d="M96.3,170.5c0.9,1.7,3.1,2.3,4.8,1.4c1.7-0.9,2.3-3.1,1.4-4.8c-0.9-1.7-3.1-2.3-4.8-1.4
		C96,166.6,95.3,168.8,96.3,170.5z"/>
	<path class="st0" d="M108.1,185.5c0.9,1.7,3.1,2.3,4.8,1.4c1.7-0.9,2.3-3.1,1.4-4.8c-0.9-1.7-3.1-2.3-4.8-1.4
		C107.8,181.6,107.1,183.8,108.1,185.5z"/>
</g>
<g>
	<path class="st0" d="M38.2,395.7c0.1,0,0.2,0,0.3-0.1c10.1-6.1,22.9-4.5,33.8-1.7c9.5,2.4,18.4,6.9,28.4,4.5
		c7-1.7,16.3-5.4,18.6-13.1c1.2-4.1,0.9-7.9-0.1-12c-0.1-0.3-2.6-5.8-4-7.2c2.7-1.2,5.3-2.8,7.5-4.8c0.5-0.5-0.2-1.5-0.8-1.2
		c-2.7,1.3-5.2,2.5-7.8,3.5c-4.6-9.2-9.6-17.2-19.6-21.3c-7.8-3.2-16.7-2.1-24.3,0.7c-20.3,7.4-29.1,33-32.9,52.3
		C37.1,395.9,37.9,396.1,38.2,395.7z"/>
	<g>
		<path class="st1" d="M48.3,386.4c11.6-9,28.4-10.5,42.3-13c11.7-2.1,29.3-4,36.6-14.7c0.7-1.1-0.3-2.4-1.5-1.7
			c-6.8,3.7-12.8,7.3-20.4,9.4c-7.5,2.1-15.2,3.3-22.8,4.8c-13.2,2.6-23.8,6.6-34.8,14.2C47,385.9,47.7,386.8,48.3,386.4L48.3,386.4
			z"/>
	</g>
	<g>
		<path class="st1" d="M88.5,390.5c9.2-5.6,23-14.3,27.4-24.6c0.2-0.5-0.4-1.1-0.9-0.8c-4.3,3-7.5,7.8-11.2,11.7
			c-4.8,5-10,9.4-15.7,13.2C87.7,390.1,88.1,390.7,88.5,390.5L88.5,390.5z"/>
	</g>
	<g>
		<path class="st1" d="M78.2,385.2c3.2-2.3,6.5-4.6,9.6-7c2.4-1.8,5.3-3.6,6.4-6.4c0.1-0.3-0.1-0.7-0.5-0.5
			c-2.7,1.2-4.5,3.7-6.7,5.7c-3,2.6-6.1,5.1-9.2,7.6C77.5,384.9,77.9,385.5,78.2,385.2L78.2,385.2z"/>
	</g>
	<g>
		<path class="st1" d="M59.8,385.6c4-2,10.5-5.8,11.9-10.4c0.1-0.2-0.2-0.4-0.4-0.3c-1.9,1-3.3,2.8-4.9,4.3c-2.2,2.1-4.5,4.1-6.9,6
			C59.2,385.3,59.5,385.8,59.8,385.6L59.8,385.6z"/>
	</g>
	<g>
		<path class="st1" d="M57.8,376c2.8-0.3,5.4,0.3,8.1,0.6c1.8,0.2,4.3,0.6,5.6-0.8c0.1-0.1,0.1-0.4,0-0.5c-1.6-1.2-4.2-0.7-6.1-0.6
			c-2.5,0.1-5.2,0.4-7.7,0.9C57.5,375.7,57.6,376,57.8,376L57.8,376z"/>
	</g>
	<g>
		<path class="st1" d="M60.4,365.4c5.7,0,11.3,0.4,16.9,1.2c2.5,0.4,5,0.9,7.5,1.6c3.5,0.9,5.9,3.3,9.5,3.5c0.4,0,0.9-0.4,0.6-0.9
			c-7.4-9.3-24.2-6.5-34.4-5.7C60.2,365.2,60.2,365.4,60.4,365.4L60.4,365.4z"/>
	</g>
	<g>
		<path class="st1" d="M70,354.3c14.9-0.7,30,3.1,42.4,11.6c0.7,0.5,1.9-0.1,1.6-1.1c-2.2-5.8-11.7-7.2-17.1-8.7
			c-8.6-2.4-18-3.7-26.9-2.3C69.7,353.9,69.8,354.3,70,354.3L70,354.3z"/>
	</g>
</g>
<g>
	<path class="st2" d="M6.9,151.2c1,8.6,7.5,15.2,16.4,10.4c12.9-7,21.2-22.1,28.9-33.9c10.5-16.1,24.3-29.6,35-45.5
		c9.7-14.3,10.8-29.4,8.9-45.6c6.4-8,11.3-16.7,11.7-26.9c0-0.7-0.9-0.9-1.2-0.3c-4.4,7.5-7.6,15-12,22.1
		c-7.3-8.8-18.2-10.8-29.3-7.6c-14.8,4.2-25.7,19.6-34.4,31.3C19.5,70.6,12.1,87.6,9.1,106.4C6.7,120.7,5.1,136.7,6.9,151.2z"/>
	<g>
		<path class="st4" d="M22.9,143.4c7.7-21.7,16.3-42.7,30-61.4c7-9.6,14.9-18.5,23.1-27c5-5.2,14-10.6,15.6-18
			c0.3-1.3-1.3-1.9-2-0.9c-5.4,7.8-13.2,13.7-19.6,20.6c-7.7,8.2-14.6,17-21,26.2c-12.9,18.3-20.6,39-26.6,60.4
			C22.2,143.6,22.8,143.8,22.9,143.4L22.9,143.4z"/>
	</g>
	<g>
		<path class="st4" d="M79.1,80c3.2-12.6,10.3-26.3,9.5-39.5c-0.1-1-1.5-1.3-1.8-0.2c-3.3,12.8-6.5,26.6-8.1,39.7
			C78.7,80.2,79.1,80.2,79.1,80L79.1,80z"/>
	</g>
	<g>
		<path class="st4" d="M63,106.1c1.1-15.3,5.6-30.3,6.7-45.5c0.1-0.9-1.3-1-1.6-0.2c-2.3,7.7-2.8,16.1-4,24.1
			c-1.1,7.1-1.8,14.4-1.5,21.6C62.7,106.3,63,106.3,63,106.1L63,106.1z"/>
	</g>
	<g>
		<path class="st4" d="M45.5,125.5c0.5-11.8,0.5-24.6,2.7-36.2c0.2-1.2-1.4-1.6-1.8-0.5c-1.6,5-0.8,10.2-0.9,15.3
			c0,7.1-0.6,14.2-0.5,21.4C45,125.8,45.5,125.8,45.5,125.5L45.5,125.5z"/>
	</g>
	<g>
		<path class="st4" d="M33.9,136.3c-0.3-3.8-0.5-7.7-0.7-11.5c-0.1-3.3,0.2-6.6-0.3-9.9c0-0.2-0.3-0.2-0.4,0
			c-2.5,6.6-0.8,14.9,1,21.5C33.5,136.6,33.9,136.6,33.9,136.3L33.9,136.3z"/>
	</g>
	<g>
		<path class="st4" d="M14.2,133.9c4.3-3,8.4-6.2,12.3-9.8c3.2-2.9,6.8-6.2,7.3-10.7c0-0.2-0.2-0.2-0.3-0.1c-3.1,3.4-5.6,7.3-9,10.6
			c-3.4,3.3-7.2,6.2-10.8,9.4C13.5,133.5,13.9,134.1,14.2,133.9L14.2,133.9z"/>
	</g>
	<g>
		<path class="st4" d="M13.9,108.5c7.4-4.7,15.5-8.1,23.3-12.1c4-2,10.3-5.3,11.3-10c0.1-0.4-0.4-0.8-0.7-0.4
			c-8.9,10.4-22.8,14.8-34,22.3C13.6,108.3,13.7,108.6,13.9,108.5L13.9,108.5z"/>
	</g>
	<g>
		<path class="st4" d="M39,73.3c6.1-2.4,12.3-4.4,18.4-6.5c4.3-1.5,9.3-3.2,12.1-7c0.2-0.3-0.2-0.8-0.5-0.7
			c-5.4,1.8-10.3,5.5-15.6,7.7c-4.9,2-9.8,3.7-14.6,6.1C38.7,73.1,38.8,73.4,39,73.3L39,73.3z"/>
	</g>
	<g>
		<path class="st4" d="M49,47.8c9.3-2.9,19.3-5.1,29-6.4c4.2-0.6,11-0.5,13.3-4.8c0.4-0.8-0.4-1.7-1.3-1.3
			c-4.8,2.8-9.8,3.2-15.2,4.2c-8.8,1.6-17.7,4.6-25.9,8C48.9,47.7,48.9,47.9,49,47.8L49,47.8z"/>
	</g>
</g>
</svg>
