<?xml version="1.0" encoding="utf-8"?>
<!-- Generator: Adobe Illustrator 22.0.1, SVG Export Plug-In . SVG Version: 6.00 Build 0)  -->
<svg version="1.1" id="分離模式" xmlns="http://www.w3.org/2000/svg" xmlns:xlink="http://www.w3.org/1999/xlink" x="0px"
	 y="0px" viewBox="0 0 830 195" style="enable-background:new 0 0 830 195;" xml:space="preserve">
<style type="text/css">
	.st0{fill:#FFFFFF;}
	.st1{fill:#F4EE82;}
	.st2{fill:#EDD570;}
	.st3{fill:#DD855E;}
	.st4{fill:#71875F;}
</style>
<g>
	<g>
		<path class="st0" d="M509.5,49c-1.6-5-1.8-11.2,0.6-16c0.8-1.6,3.2-4.8,4.4-1.4c0.8-1.2,2.2-1.6,2.7-0.1c2-1.3,2.9,1.2,3,2.9
			c0,2.5-1.7,5-3,6.9c-1.9,2.8-4.4,5.1-6.2,7.9c3.5-1.9,8.6-3.9,12.6-4.4c2.8-0.4,8.8,2.7,3.4,4c1.8,0.1,3.1,1.7,0.8,2.4
			c3.4,1,3.5,3.1,0.2,4c-2.6,0.7-6.1,0.4-8.6-0.3c-2.9-0.7-8.1-2.6-9.7-5.4"/>
		<path class="st0" d="M509.3,49.9c4.3,3.1,8.2,7.9,9.2,13.2c0.3,1.8,0.4,5.8-2.6,3.8c0.1,1.4-0.8,2.6-2,1.7
			c-0.8,2.3-3.1,0.8-4.1-0.5c-1.5-2-1.6-5-1.7-7.3c-0.1-3.4,0.4-6.7,0.2-10.1c-1.6,3.6-4.6,8.3-7.4,11.1c-2,2-8.6,3.2-5.2-1.2
			c-1.5,1.1-3.5,0.5-2.1-1.4c-3.3,1.3-4.7-0.4-2.5-3.1c1.7-2.1,4.6-4,7-5c2.8-1.2,8.1-2.8,11-1.6"/>
		<path class="st0" d="M510.1,50c-1.3-5.2-5.2-11.5-9.5-14.6c-0.9-0.7-3.8-2.9-5.1-1.8c-1.3,1.1,0,3,1,3.8c-1.5-0.8-4-0.3-2.3,1.6
			c-1.8-0.9-2.5,0.4-2.4,2c0.3,2.9,4.4,4.1,6.7,5.2c3.8,1.8,7.5,4.6,11.9,4.1"/>
	</g>
	<path class="st1" d="M511.3,49.9c-0.5,1.4-2.1,2.1-3.4,1.5c-1.4-0.5-2.1-2.1-1.5-3.4c0.5-1.4,2.1-2.1,3.4-1.5
		C511.1,47,511.8,48.5,511.3,49.9z"/>
</g>
<g>
	<g>
		<path class="st2" d="M230.5,51.5c-3.3-4.1-5.6-9.8-5.2-15.2c0.2-1.8,1.3-5.6,3.6-2.9c0.3-1.4,1.5-2.3,2.4-1.1
			c1.4-2,3.2,0.1,3.8,1.6c0.9,2.3,0.2,5.2-0.4,7.5c-0.8,3.3-2.2,6.4-3,9.6c2.6-3,6.7-6.7,10.2-8.6c2.5-1.4,9.2-0.7,4.6,2.6
			c1.7-0.6,3.5,0.5,1.6,1.9c3.5-0.3,4.4,1.7,1.6,3.7c-2.2,1.5-5.5,2.5-8.1,2.8c-3,0.4-8.5,0.4-11-1.5"/>
		<path class="st2" d="M230.7,52.4c5.1,1.3,10.4,4.4,13.3,9c0.9,1.5,2.4,5.3-1.1,4.4c0.6,1.3,0.2,2.7-1.3,2.3c0.1,2.4-2.6,1.9-4,1
			c-2.1-1.3-3.3-4.1-4.2-6.2c-1.3-3.1-2.1-6.4-3.5-9.5c-0.2,4-1.3,9.4-3,13c-1.2,2.6-6.9,6.1-5.2,0.7c-1,1.5-3.1,1.7-2.5-0.6
			c-2.6,2.4-4.5,1.3-3.5-2c0.8-2.5,2.9-5.4,4.8-7.2c2.2-2.1,6.5-5.5,9.7-5.5"/>
		<path class="st2" d="M231.4,52.2c-3.1-4.4-9-8.8-14.1-10.2c-1.1-0.3-4.6-1.3-5.4,0.1c-0.8,1.5,1.1,2.8,2.3,3.2
			c-1.7-0.2-3.8,1.1-1.6,2.3c-2.1-0.2-2.2,1.2-1.5,2.7c1.3,2.6,5.5,2.2,8.1,2.4c4.2,0.3,8.7,1.6,12.6-0.4"/>
	</g>
	<path class="st0" d="M232.5,51.7c0,1.5-1.2,2.7-2.7,2.7s-2.7-1.2-2.7-2.7c0-1.5,1.2-2.7,2.7-2.7S232.5,50.2,232.5,51.7z"/>
</g>
<g>
	<g>
		<path class="st2" d="M518.9,136.3c-0.9-2.8-1-6.2,0.3-8.8c0.4-0.9,1.8-2.6,2.4-0.8c0.4-0.6,1.2-0.9,1.5-0.1
			c1.1-0.7,1.6,0.7,1.6,1.6c0,1.4-0.9,2.7-1.7,3.8c-1.1,1.5-2.4,2.8-3.4,4.4c1.9-1,4.8-2.1,7-2.4c1.6-0.2,4.9,1.5,1.9,2.2
			c1,0,1.7,0.9,0.5,1.3c1.9,0.5,1.9,1.7,0.1,2.2c-1.4,0.4-3.3,0.2-4.7-0.1c-1.6-0.4-4.5-1.5-5.4-2.9"/>
		<path class="st2" d="M518.8,136.8c2.4,1.7,4.5,4.3,5.1,7.2c0.2,1,0.2,3.2-1.4,2.1c0,0.8-0.4,1.4-1.1,0.9c-0.4,1.3-1.7,0.4-2.2-0.3
			c-0.8-1.1-0.9-2.7-1-4c-0.1-1.9,0.2-3.7,0.1-5.6c-0.9,2-2.5,4.6-4.1,6.1c-1.1,1.1-4.7,1.8-2.8-0.6c-0.8,0.6-1.9,0.3-1.2-0.8
			c-1.8,0.7-2.6-0.2-1.4-1.7c0.9-1.1,2.5-2.2,3.9-2.8c1.5-0.6,4.4-1.5,6.1-0.9"/>
		<path class="st2" d="M519.3,136.8c-0.7-2.8-2.9-6.3-5.2-8c-0.5-0.4-2.1-1.6-2.8-1c-0.7,0.6,0,1.7,0.5,2.1
			c-0.8-0.5-2.2-0.2-1.3,0.9c-1-0.5-1.4,0.2-1.3,1.1c0.1,1.6,2.4,2.2,3.7,2.8c2.1,1,4.1,2.5,6.6,2.3"/>
	</g>
	<path class="st0" d="M519.9,136.7c-0.3,0.8-1.1,1.1-1.9,0.8c-0.8-0.3-1.1-1.1-0.8-1.9c0.3-0.8,1.1-1.1,1.9-0.8
		S520.2,136,519.9,136.7z"/>
</g>
<g>
	<g>
		<path class="st3" d="M128.8,31.6c-1.8-2.3-3.1-5.4-2.8-8.4c0.1-1,0.7-3.1,2-1.6c0.2-0.7,0.8-1.3,1.3-0.6c0.8-1.1,1.7,0,2.1,0.9
			c0.5,1.3,0.1,2.9-0.2,4.1c-0.4,1.8-1.2,3.5-1.6,5.3c1.4-1.7,3.7-3.7,5.6-4.7c1.4-0.7,5.1-0.4,2.5,1.4c1-0.3,1.9,0.3,0.9,1.1
			c1.9-0.2,2.4,0.9,0.9,2c-1.2,0.8-3,1.4-4.5,1.6c-1.7,0.2-4.7,0.2-6.1-0.8"/>
		<path class="st3" d="M128.8,32.1c2.8,0.7,5.7,2.4,7.3,5c0.5,0.8,1.3,2.9-0.6,2.4c0.3,0.7,0.1,1.5-0.7,1.3c0,1.3-1.4,1-2.2,0.6
			c-1.2-0.7-1.8-2.2-2.3-3.4c-0.7-1.7-1.1-3.5-1.9-5.2c-0.1,2.2-0.7,5.2-1.6,7.2c-0.7,1.4-3.8,3.4-2.9,0.4c-0.6,0.8-1.7,1-1.4-0.3
			c-1.4,1.3-2.5,0.7-1.9-1.1c0.4-1.4,1.6-3,2.6-4c1.2-1.2,3.6-3,5.3-3"/>
		<path class="st3" d="M129.2,32c-1.7-2.4-4.9-4.9-7.8-5.6c-0.6-0.2-2.5-0.7-3,0.1c-0.5,0.8,0.6,1.6,1.3,1.8
			c-0.9-0.1-2.1,0.6-0.9,1.3c-1.1-0.1-1.2,0.7-0.8,1.5c0.7,1.4,3,1.2,4.4,1.3c2.3,0.2,4.8,0.9,6.9-0.2"/>
	</g>
	<path class="st1" d="M129.8,31.7c0,0.8-0.7,1.5-1.5,1.5c-0.8,0-1.5-0.7-1.5-1.5c0-0.8,0.7-1.5,1.5-1.5
		C129.2,30.2,129.8,30.9,129.8,31.7z"/>
</g>
<g>
	<g>
		<path class="st0" d="M177.2,105.1c-1.8-2.3-3.1-5.4-2.8-8.4c0.1-1,0.7-3.1,2-1.6c0.2-0.7,0.8-1.3,1.3-0.6c0.8-1.1,1.7,0,2.1,0.9
			c0.5,1.3,0.1,2.9-0.2,4.1c-0.4,1.8-1.2,3.5-1.6,5.3c1.4-1.7,3.7-3.7,5.6-4.7c1.4-0.7,5.1-0.4,2.5,1.4c1-0.3,1.9,0.3,0.9,1.1
			c1.9-0.2,2.4,0.9,0.9,2c-1.2,0.8-3,1.4-4.5,1.6c-1.7,0.2-4.7,0.2-6.1-0.8"/>
		<path class="st0" d="M177.3,105.6c2.8,0.7,5.7,2.4,7.3,5c0.5,0.8,1.3,2.9-0.6,2.4c0.3,0.7,0.1,1.5-0.7,1.3c0,1.3-1.4,1-2.2,0.6
			c-1.2-0.7-1.8-2.2-2.3-3.4c-0.7-1.7-1.1-3.5-1.9-5.2c-0.1,2.2-0.7,5.2-1.6,7.2c-0.7,1.4-3.8,3.4-2.9,0.4c-0.6,0.8-1.7,1-1.4-0.3
			c-1.4,1.3-2.5,0.7-1.9-1.1c0.4-1.4,1.6-3,2.6-4c1.2-1.2,3.6-3,5.3-3"/>
		<path class="st0" d="M177.7,105.5c-1.7-2.4-4.9-4.9-7.8-5.6c-0.6-0.2-2.5-0.7-3,0.1c-0.5,0.8,0.6,1.6,1.3,1.8
			c-0.9-0.1-2.1,0.6-0.9,1.3c-1.1-0.1-1.2,0.7-0.8,1.5c0.7,1.4,3,1.2,4.4,1.3c2.3,0.2,4.8,0.9,6.9-0.2"/>
	</g>
	<path class="st1" d="M178.3,105.2c0,0.8-0.7,1.5-1.5,1.5c-0.8,0-1.5-0.7-1.5-1.5c0-0.8,0.7-1.5,1.5-1.5
		C177.6,103.7,178.3,104.4,178.3,105.2z"/>
</g>
<g>
	<g>
		<path class="st2" d="M69.2,177.6c-1.8-2.3-3.1-5.4-2.8-8.4c0.1-1,0.7-3.1,2-1.6c0.2-0.7,0.8-1.3,1.3-0.6c0.8-1.1,1.7,0,2.1,0.9
			c0.5,1.3,0.1,2.9-0.2,4.1c-0.4,1.8-1.2,3.5-1.6,5.3c1.4-1.7,3.7-3.7,5.6-4.7c1.4-0.7,5.1-0.4,2.5,1.4c1-0.3,1.9,0.3,0.9,1.1
			c1.9-0.2,2.4,0.9,0.9,2c-1.2,0.8-3,1.4-4.5,1.6c-1.7,0.2-4.7,0.2-6.1-0.8"/>
		<path class="st2" d="M69.3,178.1c2.8,0.7,5.7,2.4,7.3,5c0.5,0.8,1.3,2.9-0.6,2.4c0.3,0.7,0.1,1.5-0.7,1.3c0,1.3-1.4,1-2.2,0.6
			c-1.2-0.7-1.8-2.2-2.3-3.4c-0.7-1.7-1.1-3.5-1.9-5.2c-0.1,2.2-0.7,5.2-1.6,7.2c-0.7,1.4-3.8,3.4-2.9,0.4c-0.6,0.8-1.7,1-1.4-0.3
			c-1.4,1.3-2.5,0.7-1.9-1.1c0.4-1.4,1.6-3,2.6-4c1.2-1.2,3.6-3,5.3-3"/>
		<path class="st2" d="M69.7,178c-1.7-2.4-4.9-4.9-7.8-5.6c-0.6-0.2-2.5-0.7-3,0.1c-0.5,0.8,0.6,1.6,1.3,1.8
			c-0.9-0.1-2.1,0.6-0.9,1.3c-1.1-0.1-1.2,0.7-0.8,1.5c0.7,1.4,3,1.2,4.4,1.3c2.3,0.2,4.8,0.9,6.9-0.2"/>
	</g>
	<circle class="st0" cx="68.8" cy="177.7" r="1.5"/>
</g>
<g>
	<g>
		<path class="st0" d="M49.5,82.4c5.4-1.6,14.2-0.1,17.8,4.7c4.3,5.9-1.7,8.8-6.8,6.2c6.8,4.5,2.5,13.1-2.9,6.2
			c4.6,9.6-9.5,11.9-12.6,2.3c-1.9-5.8-1.2-11.8,1.6-17c-4.1,6.9-11.9,13.8-20.5,12.9c-9.7-1.1-7.1-6.5-1.6-11.1
			c-7.1,0.8-8.6-9.3-1.8-7.9c-3.9-0.7-5.4-4.9-3.8-8.3c2.6-5.6,8-3.8,12.6-2.1c6.5,2.4,10.7,7.1,14.3,12.9"/>
		<path class="st0" d="M46.9,82.8c7.4-0.5,19.1-5.9,20.3-14.1c1-6.8-4.3-6.9-8.7-3.3c7.5-5.7-5-12.8-6.9-3.9
			c2.7-5.6-5.2-5.2-7.6-1.5C40.1,66.2,43,78,45,84.2"/>
		<path class="st1" d="M45.2,84.1c-1.1-0.8-1.3-2.3-0.5-3.4c0.8-1.1,2.3-1.3,3.4-0.5c1.1,0.8,1.3,2.3,0.5,3.4
			C47.9,84.7,46.3,84.9,45.2,84.1z"/>
	</g>
	<g>
		<g>
			<path class="st4" d="M57.2,83.9c-2.5-1.3-6.5-3.4-9-1.1c-0.1,0.1,0,0.3,0.2,0.3c2.9-1.3,6,0,8.7,1C57.2,84.2,57.3,84,57.2,83.9
				L57.2,83.9z"/>
		</g>
		<g>
			<path class="st4" d="M52.6,87.4c-0.7-0.6-1.5-1.2-2.1-1.9c-0.8-0.8-1.2-1.8-1.7-2.7c0-0.1-0.2-0.1-0.2,0c0.4,2.1,2.2,3.6,3.9,4.8
				C52.6,87.6,52.7,87.5,52.6,87.4L52.6,87.4z"/>
		</g>
		<g>
			<path class="st4" d="M49.8,90.9c-0.9-1-1.5-2.2-2-3.4c-0.3-0.7-0.6-1.5-0.7-2.3c-0.1-0.6,0.2-1.1,0.4-1.6c0-0.1-0.1-0.2-0.2-0.2
				c-1.4,0.2-0.8,2.4-0.5,3.2c0.5,1.6,1.6,3.1,2.6,4.5C49.6,91.4,49.9,91.1,49.8,90.9L49.8,90.9z"/>
		</g>
		<g>
			<path class="st4" d="M46.3,83.2c-2.7,1.2-3.5,3.6-3.3,6.4c0,0.1,0.2,0.1,0.2,0c0.3-2.4,1.1-4.9,3.3-6.2
				C46.6,83.4,46.5,83.2,46.3,83.2L46.3,83.2z"/>
		</g>
		<g>
			<path class="st4" d="M45.2,82.4c-2.2-1.1-4.9,0.2-6.4,1.9c-0.1,0.1,0.1,0.3,0.2,0.2c1.9-1,3.7-2.5,6-1.8
				C45.3,82.9,45.5,82.5,45.2,82.4L45.2,82.4z"/>
		</g>
		<g>
			<path class="st4" d="M45.4,81c-1.8-0.9-3.8-2.3-4.4-4.3c0-0.1-0.2-0.1-0.2,0c-0.1,2.4,2.7,3.8,4.5,4.7
				C45.5,81.5,45.6,81.1,45.4,81L45.4,81z"/>
		</g>
		<g>
			<path class="st4" d="M47.2,80.3c-1.2-1.4-1.6-3.5-1.1-5.2c0-0.1-0.1-0.2-0.2-0.1c-1.8,1.4-0.4,4.4,1,5.6
				C47.1,80.7,47.3,80.4,47.2,80.3L47.2,80.3z"/>
		</g>
		<g>
			<path class="st4" d="M47.8,80.9c0.4-1.4,1.3-2.9,2.8-3.3c0.1,0,0.1-0.2,0-0.2c-1.7,0.2-2.7,1.8-3.1,3.3
				C47.4,81,47.7,81.1,47.8,80.9L47.8,80.9z"/>
		</g>
		<g>
			<path class="st4" d="M48.4,81.7c1-1.4,2.6-1.7,4.1-2.1c0.2,0,0.2-0.3,0-0.3c-1.8-0.4-3.6,0.6-4.5,2.1
				C47.9,81.6,48.2,81.9,48.4,81.7L48.4,81.7z"/>
		</g>
		<g>
			<path class="st4" d="M49.7,76.7c-0.8,1,0.8,2.3,1.6,1.2C52.1,76.8,50.5,75.6,49.7,76.7L49.7,76.7z"/>
		</g>
		<g>
			<path class="st4" d="M52.3,78.8c-0.6,0.8,0.7,1.8,1.3,1C54.2,79,52.9,78,52.3,78.8L52.3,78.8z"/>
		</g>
		<g>
			<path class="st4" d="M51.8,87.1c-0.6,0.8,0.6,1.7,1.2,0.9C53.6,87.3,52.4,86.4,51.8,87.1L51.8,87.1z"/>
		</g>
		<g>
			<path class="st4" d="M51.7,81.6c-0.2,0.2-0.4,0.5-0.3,0.8c0.1,0.4,0.4,0.6,0.8,0.6c0.3,0,0.5-0.3,0.7-0.5
				C53.1,81.7,52.2,81.1,51.7,81.6L51.7,81.6z"/>
		</g>
		<g>
			<path class="st4" d="M56.8,83.6c-0.2,0.2-0.4,0.5-0.3,0.8c0.1,0.4,0.4,0.6,0.8,0.6c0.3,0,0.5-0.3,0.7-0.5
				C58.3,83.7,57.4,83.1,56.8,83.6L56.8,83.6z"/>
		</g>
		<g>
			<path class="st4" d="M50,89.7c-0.4,0-0.8,0.1-1,0.5c-0.3,0.4-0.2,1,0.2,1.3c0,0,0,0,0,0c-0.1-0.1-0.2-0.3-0.3-0.4
				c0.1,0.1,0.1,0.2,0.2,0.3c0.4,0.5,1.2,0.5,1.7,0C51.1,90.8,50.8,89.7,50,89.7L50,89.7z"/>
		</g>
		<g>
			<path class="st4" d="M42.5,88.3c-0.7,1,0.8,2.1,1.5,1.1C44.7,88.4,43.2,87.3,42.5,88.3L42.5,88.3z"/>
		</g>
		<g>
			<path class="st4" d="M46.4,85.6c-0.3,0.1-0.6,0.4-0.6,0.8c0,0.2,0,0.4,0.2,0.6c0,0,0.6,0.5,0.3,0.2c0.5,0.4,1.4,0,1.5-0.6
				C47.8,85.9,47.1,85.3,46.4,85.6L46.4,85.6z"/>
		</g>
		<g>
			<path class="st4" d="M41,82.2C41,82.2,41,82.3,41,82.2c0,0.8,0.6,1.2,1.2,1c0,0,0,0,0.1,0c0.7-0.2,0.7-1.2,0.2-1.6
				C41.9,81.2,41,81.5,41,82.2L41,82.2z"/>
		</g>
		<g>
			<path class="st4" d="M38.4,83.6c-0.5,0.7,0.6,1.6,1.1,0.9C40.1,83.7,39,82.9,38.4,83.6L38.4,83.6z"/>
		</g>
		<g>
			<path class="st4" d="M40.1,77.4c0,0,0,0.1,0,0.1c0.1,0.3,0.3,0.5,0.7,0.5c0,0,0.1,0,0.1,0C43.2,78,39.5,75.2,40.1,77.4L40.1,77.4
				z"/>
		</g>
		<g>
			<path class="st4" d="M44.5,75.3C44.5,75.3,44.5,75.3,44.5,75.3c-0.2,0.3-0.1,0.7,0,0.9c0.2,0.4,0.5,0.6,1,0.7c0,0,0,0,0,0
				c0.9,0.2,1.6-0.9,1.3-1.7c-0.2-0.4-0.6-0.7-1-0.7C45.2,74.4,44.7,74.8,44.5,75.3L44.5,75.3z"/>
		</g>
		<g>
			<path class="st4" d="M39.8,76.3C39.8,76.3,39.8,76.3,39.8,76.3c-0.2,0.6,0.1,1.3,0.6,1.5c0.5,0.2,1.3,0,1.4-0.6c0,0,0,0,0-0.1
				c0.2-0.6,0-1.2-0.6-1.4C40.6,75.5,40,75.8,39.8,76.3L39.8,76.3z"/>
		</g>
		<g>
			<path class="st4" d="M43.8,79.5c-0.1-0.1-0.1-0.1-0.2-0.2c-0.8-0.7-1.9,0.8-1,1.3c0.1,0,0.2,0.1,0.3,0.1
				C43.6,81.1,44.3,80.1,43.8,79.5L43.8,79.5z"/>
		</g>
		<g>
			<path class="st4" d="M48.7,78.6c-0.4-0.2-0.8,0-1.1,0.3c-0.2,0.3-0.1,0.7,0.1,0.9c0.1,0.1,0.3,0.3,0.1,0.1
				c-0.1-0.3-0.2-0.6-0.3-0.9c0,0,0,0,0,0c-0.1,0.2,0,0.6,0.1,0.8c0,0,0,0,0,0.1c0.3,0.4,1,0.4,1.3,0C49.4,79.5,49.2,78.8,48.7,78.6
				L48.7,78.6z"/>
		</g>
		<g>
			<path class="st4" d="M48.7,81.7c-0.4-0.6-1.2-0.4-1.6,0c0.1-0.1,0.2-0.2,0.4-0.3c0,0,0,0-0.1,0c-0.5,0.3-0.8,1.1-0.2,1.4
				c-0.1-0.2-0.1-0.1,0.1,0.1c0,0,0.7,0.2,0.3,0.1c0.4,0.1,0.6,0.1,0.9-0.1C49,82.7,49,82.1,48.7,81.7L48.7,81.7z"/>
		</g>
	</g>
</g>
<g>
	<g>
		<path class="st2" d="M787.9,38.5c-3.3-4.1-5.6-9.8-5.2-15.2c0.2-1.8,1.3-5.6,3.6-2.9c0.3-1.4,1.5-2.3,2.4-1.1
			c1.4-2,3.2,0.1,3.8,1.6c0.9,2.3,0.2,5.2-0.4,7.5c-0.8,3.3-2.2,6.4-3,9.6c2.6-3,6.7-6.7,10.2-8.6c2.5-1.4,9.2-0.7,4.6,2.6
			c1.7-0.6,3.5,0.5,1.6,1.9c3.5-0.3,4.4,1.7,1.6,3.7c-2.2,1.5-5.5,2.5-8.1,2.8c-3,0.4-8.5,0.4-11-1.5"/>
		<path class="st2" d="M788,39.4c5.1,1.3,10.4,4.4,13.3,9c0.9,1.5,2.4,5.3-1.1,4.4c0.6,1.3,0.2,2.7-1.3,2.3c0.1,2.4-2.6,1.9-4,1
			c-2.1-1.3-3.3-4.1-4.2-6.2c-1.3-3.1-2.1-6.4-3.5-9.5c-0.2,4-1.3,9.4-3,13c-1.2,2.6-6.9,6.1-5.2,0.7c-1,1.5-3.1,1.7-2.5-0.6
			c-2.6,2.4-4.5,1.3-3.5-2c0.8-2.5,2.9-5.4,4.8-7.2c2.2-2.1,6.5-5.5,9.7-5.5"/>
		<path class="st2" d="M788.8,39.2c-3.1-4.4-9-8.8-14.1-10.2c-1.1-0.3-4.6-1.3-5.4,0.1c-0.8,1.5,1.1,2.8,2.3,3.2
			c-1.7-0.2-3.8,1.1-1.6,2.3c-2.1-0.2-2.2,1.2-1.5,2.7c1.3,2.6,5.5,2.2,8.1,2.4c4.2,0.3,8.7,1.6,12.6-0.4"/>
	</g>
	<path class="st0" d="M789.8,38.7c0,1.5-1.2,2.7-2.7,2.7s-2.7-1.2-2.7-2.7c0-1.5,1.2-2.7,2.7-2.7S789.8,37.2,789.8,38.7z"/>
</g>
<g>
	<g>
		<path class="st3" d="M686.1,18.6c-1.8-2.3-3.1-5.4-2.8-8.4c0.1-1,0.7-3.1,2-1.6c0.2-0.7,0.8-1.3,1.3-0.6c0.8-1.1,1.7,0,2.1,0.9
			c0.5,1.3,0.1,2.9-0.2,4.1c-0.4,1.8-1.2,3.5-1.6,5.3c1.4-1.7,3.7-3.7,5.6-4.7c1.4-0.7,5.1-0.4,2.5,1.4c1-0.3,1.9,0.3,0.9,1.1
			c1.9-0.2,2.4,0.9,0.9,2c-1.2,0.8-3,1.4-4.5,1.6c-1.7,0.2-4.7,0.2-6.1-0.8"/>
		<path class="st3" d="M686.2,19.1c2.8,0.7,5.7,2.4,7.3,5c0.5,0.8,1.3,2.9-0.6,2.4c0.3,0.7,0.1,1.5-0.7,1.3c0,1.3-1.4,1-2.2,0.6
			c-1.2-0.7-1.8-2.2-2.3-3.4c-0.7-1.7-1.1-3.5-1.9-5.2c-0.1,2.2-0.7,5.2-1.6,7.2c-0.7,1.4-3.8,3.4-2.9,0.4c-0.6,0.8-1.7,1-1.4-0.3
			c-1.4,1.3-2.5,0.7-1.9-1.1c0.4-1.4,1.6-3,2.6-4c1.2-1.2,3.6-3,5.3-3"/>
		<path class="st3" d="M686.6,19c-1.7-2.4-4.9-4.9-7.8-5.6c-0.6-0.2-2.5-0.7-3,0.1c-0.5,0.8,0.6,1.6,1.3,1.8
			c-0.9-0.1-2.1,0.6-0.9,1.3c-1.1-0.1-1.2,0.7-0.8,1.5c0.7,1.4,3,1.2,4.4,1.3c2.3,0.2,4.8,0.9,6.9-0.2"/>
	</g>
	<path class="st1" d="M687.2,18.7c0,0.8-0.7,1.5-1.5,1.5c-0.8,0-1.5-0.7-1.5-1.5c0-0.8,0.7-1.5,1.5-1.5
		C686.5,17.2,687.2,17.9,687.2,18.7z"/>
</g>
<g>
	<g>
		<path class="st0" d="M734.6,92.1c-1.8-2.3-3.1-5.4-2.8-8.4c0.1-1,0.7-3.1,2-1.6c0.2-0.7,0.8-1.3,1.3-0.6c0.8-1.1,1.7,0,2.1,0.9
			c0.5,1.3,0.1,2.9-0.2,4.1c-0.4,1.8-1.2,3.5-1.6,5.3c1.4-1.7,3.7-3.7,5.6-4.7c1.4-0.7,5.1-0.4,2.5,1.4c1-0.3,1.9,0.3,0.9,1.1
			c1.9-0.2,2.4,0.9,0.9,2c-1.2,0.8-3,1.4-4.5,1.6c-1.7,0.2-4.7,0.2-6.1-0.8"/>
		<path class="st0" d="M734.6,92.6c2.8,0.7,5.7,2.4,7.3,5c0.5,0.8,1.3,2.9-0.6,2.4c0.3,0.7,0.1,1.5-0.7,1.3c0,1.3-1.4,1-2.2,0.6
			c-1.2-0.7-1.8-2.2-2.3-3.4c-0.7-1.7-1.1-3.5-1.9-5.2c-0.1,2.2-0.7,5.2-1.6,7.2c-0.7,1.4-3.8,3.4-2.9,0.4c-0.6,0.8-1.7,1-1.4-0.3
			c-1.4,1.3-2.5,0.7-1.9-1.1c0.4-1.4,1.6-3,2.6-4c1.2-1.2,3.6-3,5.3-3"/>
		<path class="st0" d="M735,92.5c-1.7-2.4-4.9-4.9-7.8-5.6c-0.6-0.2-2.5-0.7-3,0.1c-0.5,0.8,0.6,1.6,1.3,1.8
			c-0.9-0.1-2.1,0.6-0.9,1.3c-1.1-0.1-1.2,0.7-0.8,1.5c0.7,1.4,3,1.2,4.4,1.3c2.3,0.2,4.8,0.9,6.9-0.2"/>
	</g>
	<path class="st1" d="M735.6,92.2c0,0.8-0.7,1.5-1.5,1.5s-1.5-0.7-1.5-1.5c0-0.8,0.7-1.5,1.5-1.5S735.6,91.4,735.6,92.2z"/>
</g>
<g>
	<g>
		<path class="st0" d="M606.9,69.4c5.4-1.6,14.2-0.1,17.8,4.7c4.3,5.9-1.7,8.8-6.8,6.2c6.8,4.5,2.5,13.1-2.9,6.2
			c4.6,9.6-9.5,11.9-12.6,2.3c-1.9-5.8-1.2-11.8,1.6-17c-4.1,6.9-11.9,13.8-20.5,12.9c-9.7-1.1-7.1-6.5-1.6-11.1
			c-7.1,0.8-8.6-9.3-1.8-7.9c-3.9-0.7-5.4-4.9-3.8-8.3c2.6-5.6,8-3.8,12.6-2.1c6.5,2.4,10.7,7.1,14.3,12.9"/>
		<path class="st0" d="M604.3,69.8c7.4-0.5,19.1-5.9,20.3-14.1c1-6.8-4.3-6.9-8.7-3.3c7.5-5.7-5-12.8-6.9-3.9
			c2.7-5.6-5.2-5.2-7.6-1.5c-4,6.1-1.1,17.9,0.9,24.1"/>
		<path class="st1" d="M602.6,71.1c-1.1-0.8-1.3-2.3-0.5-3.4c0.8-1.1,2.3-1.3,3.4-0.5c1.1,0.8,1.3,2.3,0.5,3.4
			C605.2,71.7,603.7,71.9,602.6,71.1z"/>
	</g>
	<g>
		<g>
			<path class="st4" d="M614.5,70.9c-2.5-1.3-6.5-3.4-9-1.1c-0.1,0.1,0,0.3,0.2,0.3c2.9-1.3,6,0,8.7,1
				C614.6,71.2,614.6,71,614.5,70.9L614.5,70.9z"/>
		</g>
		<g>
			<path class="st4" d="M609.9,74.4c-0.7-0.6-1.5-1.2-2.1-1.9c-0.8-0.8-1.2-1.8-1.7-2.7c0-0.1-0.2-0.1-0.2,0
				c0.4,2.1,2.2,3.6,3.9,4.8C609.9,74.6,610,74.5,609.9,74.4L609.9,74.4z"/>
		</g>
		<g>
			<path class="st4" d="M607.1,77.9c-0.9-1-1.5-2.2-2-3.4c-0.3-0.7-0.6-1.5-0.7-2.3c-0.1-0.6,0.2-1.1,0.4-1.6c0-0.1-0.1-0.2-0.2-0.2
				c-1.4,0.2-0.8,2.4-0.5,3.2c0.5,1.6,1.6,3.1,2.6,4.5C607,78.4,607.3,78.1,607.1,77.9L607.1,77.9z"/>
		</g>
		<g>
			<path class="st4" d="M603.7,70.2c-2.7,1.2-3.5,3.6-3.3,6.4c0,0.1,0.2,0.1,0.2,0c0.3-2.4,1.1-4.9,3.3-6.2
				C604,70.4,603.8,70.2,603.7,70.2L603.7,70.2z"/>
		</g>
		<g>
			<path class="st4" d="M602.5,69.4c-2.2-1.1-4.9,0.2-6.4,1.9c-0.1,0.1,0.1,0.3,0.2,0.2c1.9-1,3.7-2.5,6-1.8
				C602.7,69.9,602.8,69.5,602.5,69.4L602.5,69.4z"/>
		</g>
		<g>
			<path class="st4" d="M602.7,68c-1.8-0.9-3.8-2.3-4.4-4.3c0-0.1-0.2-0.1-0.2,0c-0.1,2.4,2.7,3.8,4.5,4.7
				C602.8,68.5,602.9,68.1,602.7,68L602.7,68z"/>
		</g>
		<g>
			<path class="st4" d="M604.5,67.3c-1.2-1.4-1.6-3.5-1.1-5.2c0-0.1-0.1-0.2-0.2-0.1c-1.8,1.4-0.4,4.4,1,5.6
				C604.4,67.7,604.6,67.4,604.5,67.3L604.5,67.3z"/>
		</g>
		<g>
			<path class="st4" d="M605.1,67.9c0.4-1.4,1.3-2.9,2.8-3.3c0.1,0,0.1-0.2,0-0.2c-1.7,0.2-2.7,1.8-3.1,3.3
				C604.7,68,605.1,68.1,605.1,67.9L605.1,67.9z"/>
		</g>
		<g>
			<path class="st4" d="M605.8,68.7c1-1.4,2.6-1.7,4.1-2.1c0.2,0,0.2-0.3,0-0.3c-1.8-0.4-3.6,0.6-4.5,2.1
				C605.3,68.6,605.6,68.9,605.8,68.7L605.8,68.7z"/>
		</g>
		<g>
			<path class="st4" d="M607.1,63.7c-0.8,1,0.8,2.3,1.6,1.2C609.5,63.8,607.8,62.6,607.1,63.7L607.1,63.7z"/>
		</g>
		<g>
			<path class="st4" d="M609.6,65.8c-0.6,0.8,0.7,1.8,1.3,1C611.6,66,610.3,65,609.6,65.8L609.6,65.8z"/>
		</g>
		<g>
			<path class="st4" d="M609.1,74.1c-0.6,0.8,0.6,1.7,1.2,0.9C611,74.3,609.7,73.4,609.1,74.1L609.1,74.1z"/>
		</g>
		<g>
			<path class="st4" d="M609,68.6c-0.2,0.2-0.4,0.5-0.3,0.8c0.1,0.4,0.4,0.6,0.8,0.6c0.3,0,0.5-0.3,0.7-0.5
				C610.5,68.7,609.6,68.1,609,68.6L609,68.6z"/>
		</g>
		<g>
			<path class="st4" d="M614.2,70.6c-0.2,0.2-0.4,0.5-0.3,0.8c0.1,0.4,0.4,0.6,0.8,0.6c0.3,0,0.5-0.3,0.7-0.5
				C615.6,70.7,614.7,70.1,614.2,70.6L614.2,70.6z"/>
		</g>
		<g>
			<path class="st4" d="M607.3,76.7c-0.4,0-0.8,0.1-1,0.5c-0.3,0.4-0.2,1,0.2,1.3c0,0,0,0,0,0c-0.1-0.1-0.2-0.3-0.3-0.4
				c0.1,0.1,0.1,0.2,0.2,0.3c0.4,0.5,1.2,0.5,1.7,0C608.5,77.8,608.1,76.7,607.3,76.7L607.3,76.7z"/>
		</g>
		<g>
			<path class="st4" d="M599.9,75.3c-0.7,1,0.8,2.1,1.5,1.1C602.1,75.4,600.6,74.3,599.9,75.3L599.9,75.3z"/>
		</g>
		<g>
			<path class="st4" d="M603.8,72.6c-0.3,0.1-0.6,0.4-0.6,0.8c0,0.2,0,0.4,0.2,0.6c0,0,0.6,0.5,0.3,0.2c0.5,0.4,1.4,0,1.5-0.6
				C605.1,72.9,604.4,72.3,603.8,72.6L603.8,72.6z"/>
		</g>
		<g>
			<path class="st4" d="M598.4,69.2C598.3,69.2,598.3,69.3,598.4,69.2c0,0.8,0.6,1.2,1.2,1c0,0,0,0,0.1,0c0.7-0.2,0.7-1.2,0.2-1.6
				C599.3,68.2,598.4,68.5,598.4,69.2L598.4,69.2z"/>
		</g>
		<g>
			<path class="st4" d="M595.8,70.6c-0.5,0.7,0.6,1.6,1.1,0.9C597.5,70.7,596.3,69.9,595.8,70.6L595.8,70.6z"/>
		</g>
		<g>
			<path class="st4" d="M597.4,64.4c0,0,0,0.1,0,0.1c0.1,0.3,0.3,0.5,0.7,0.5c0,0,0.1,0,0.1,0C600.6,65,596.8,62.2,597.4,64.4
				L597.4,64.4z"/>
		</g>
		<g>
			<path class="st4" d="M601.8,62.3C601.8,62.3,601.8,62.3,601.8,62.3c-0.2,0.3-0.1,0.7,0,0.9c0.2,0.4,0.5,0.6,1,0.7c0,0,0,0,0,0
				c0.9,0.2,1.6-0.9,1.3-1.7c-0.2-0.4-0.6-0.7-1-0.7C602.5,61.4,602.1,61.8,601.8,62.3L601.8,62.3z"/>
		</g>
		<g>
			<path class="st4" d="M597.1,63.3C597.1,63.3,597.1,63.3,597.1,63.3c-0.2,0.6,0.1,1.3,0.6,1.5c0.5,0.2,1.3,0,1.4-0.6
				c0,0,0,0,0-0.1c0.2-0.6,0-1.2-0.6-1.4C598,62.5,597.3,62.8,597.1,63.3L597.1,63.3z"/>
		</g>
		<g>
			<path class="st4" d="M601.1,66.5c-0.1-0.1-0.1-0.1-0.2-0.2c-0.8-0.7-1.9,0.8-1,1.3c0.1,0,0.2,0.1,0.3,0.1
				C600.9,68.1,601.6,67.1,601.1,66.5L601.1,66.5z"/>
		</g>
		<g>
			<path class="st4" d="M606.1,65.6c-0.4-0.2-0.8,0-1.1,0.3c-0.2,0.3-0.1,0.7,0.1,0.9c0.1,0.1,0.3,0.3,0.1,0.1
				c-0.1-0.3-0.2-0.6-0.3-0.9c0,0,0,0,0,0c-0.1,0.2,0,0.6,0.1,0.8c0,0,0,0,0,0.1c0.3,0.4,1,0.4,1.3,0
				C606.8,66.5,606.6,65.8,606.1,65.6L606.1,65.6z"/>
		</g>
		<g>
			<path class="st4" d="M606.1,68.7c-0.4-0.6-1.2-0.4-1.6,0c0.1-0.1,0.2-0.2,0.4-0.3c0,0,0,0-0.1,0c-0.5,0.3-0.8,1.1-0.2,1.4
				c-0.1-0.2-0.1-0.1,0.1,0.1c0,0,0.7,0.2,0.3,0.1c0.4,0.1,0.6,0.1,0.9-0.1C606.4,69.7,606.3,69.1,606.1,68.7L606.1,68.7z"/>
		</g>
	</g>
</g>
<g>
	<g>
		<path class="st3" d="M318.1,34.9c5.4-1.6,14.2-0.1,17.8,4.7c4.3,5.9-1.7,8.8-6.8,6.2c6.8,4.5,2.5,13.1-2.9,6.2
			c4.6,9.6-9.5,11.9-12.6,2.3c-1.9-5.8-1.2-11.8,1.6-17c-4.1,6.9-11.9,13.8-20.5,12.9c-9.7-1.1-7.1-6.5-1.6-11.1
			c-7.1,0.8-8.6-9.3-1.8-7.9c-3.9-0.7-5.4-4.9-3.8-8.3c2.6-5.6,8-3.8,12.6-2.1c6.5,2.4,10.7,7.1,14.3,12.9"/>
		<path class="st3" d="M315.5,35.3c7.4-0.5,19.1-5.9,20.3-14.1c1-6.8-4.3-6.9-8.7-3.3c7.5-5.7-5-12.8-6.9-3.9
			c2.7-5.6-5.2-5.2-7.6-1.5c-4,6.1-1.1,17.9,0.9,24.1"/>
		<path class="st1" d="M313.8,36.6c-1.1-0.8-1.3-2.3-0.5-3.4c0.8-1.1,2.3-1.3,3.4-0.5c1.1,0.8,1.3,2.3,0.5,3.4
			C316.4,37.2,314.9,37.4,313.8,36.6z"/>
	</g>
	<g>
		<g>
			<path class="st4" d="M325.8,36.4c-2.5-1.3-6.5-3.4-9-1.1c-0.1,0.1,0,0.3,0.2,0.3c2.9-1.3,6,0,8.7,1
				C325.8,36.7,325.9,36.5,325.8,36.4L325.8,36.4z"/>
		</g>
		<g>
			<path class="st4" d="M321.2,39.9c-0.7-0.6-1.5-1.2-2.1-1.9c-0.8-0.8-1.2-1.8-1.7-2.7c0-0.1-0.2-0.1-0.2,0
				c0.4,2.1,2.2,3.6,3.9,4.8C321.1,40.1,321.3,40,321.2,39.9L321.2,39.9z"/>
		</g>
		<g>
			<path class="st4" d="M318.4,43.4c-0.9-1-1.5-2.2-2-3.4c-0.3-0.7-0.6-1.5-0.7-2.3c-0.1-0.6,0.2-1.1,0.4-1.6c0-0.1-0.1-0.2-0.2-0.2
				c-1.4,0.2-0.8,2.4-0.5,3.2c0.5,1.6,1.6,3.1,2.6,4.5C318.2,43.8,318.5,43.6,318.4,43.4L318.4,43.4z"/>
		</g>
		<g>
			<path class="st4" d="M314.9,35.7c-2.7,1.2-3.5,3.6-3.3,6.4c0,0.1,0.2,0.1,0.2,0c0.3-2.4,1.1-4.9,3.3-6.2
				C315.2,35.9,315.1,35.7,314.9,35.7L314.9,35.7z"/>
		</g>
		<g>
			<path class="st4" d="M313.8,34.9c-2.2-1.1-4.9,0.2-6.4,1.9c-0.1,0.1,0.1,0.3,0.2,0.2c1.9-1,3.7-2.5,6-1.8
				C313.9,35.4,314,35,313.8,34.9L313.8,34.9z"/>
		</g>
		<g>
			<path class="st4" d="M313.9,33.5c-1.8-0.9-3.8-2.3-4.4-4.3c0-0.1-0.2-0.1-0.2,0c-0.1,2.4,2.7,3.8,4.5,4.7
				C314,34,314.2,33.6,313.9,33.5L313.9,33.5z"/>
		</g>
		<g>
			<path class="st4" d="M315.7,32.8c-1.2-1.4-1.6-3.5-1.1-5.2c0-0.1-0.1-0.2-0.2-0.1c-1.8,1.4-0.4,4.4,1,5.6
				C315.6,33.2,315.9,32.9,315.7,32.8L315.7,32.8z"/>
		</g>
		<g>
			<path class="st4" d="M316.4,33.4c0.4-1.4,1.3-2.9,2.8-3.3c0.1,0,0.1-0.2,0-0.2c-1.7,0.2-2.7,1.8-3.1,3.3
				C315.9,33.5,316.3,33.6,316.4,33.4L316.4,33.4z"/>
		</g>
		<g>
			<path class="st4" d="M317,34.1c1-1.4,2.6-1.7,4.1-2.1c0.2,0,0.2-0.3,0-0.3c-1.8-0.4-3.6,0.6-4.5,2.1
				C316.5,34.1,316.8,34.4,317,34.1L317,34.1z"/>
		</g>
		<g>
			<path class="st4" d="M318.3,29.2c-0.8,1,0.8,2.3,1.6,1.2C320.7,29.3,319.1,28.1,318.3,29.2L318.3,29.2z"/>
		</g>
		<g>
			<path class="st4" d="M320.9,31.3c-0.6,0.8,0.7,1.8,1.3,1C322.8,31.4,321.5,30.5,320.9,31.3L320.9,31.3z"/>
		</g>
		<g>
			<path class="st4" d="M320.4,39.6c-0.6,0.8,0.6,1.7,1.2,0.9C322.2,39.8,321,38.9,320.4,39.6L320.4,39.6z"/>
		</g>
		<g>
			<path class="st4" d="M320.3,34c-0.2,0.2-0.4,0.5-0.3,0.8c0.1,0.4,0.4,0.6,0.8,0.6c0.3,0,0.5-0.3,0.7-0.5
				C321.7,34.2,320.8,33.6,320.3,34L320.3,34z"/>
		</g>
		<g>
			<path class="st4" d="M325.4,36c-0.2,0.2-0.4,0.5-0.3,0.8c0.1,0.4,0.4,0.6,0.8,0.6c0.3,0,0.5-0.3,0.7-0.5
				C326.8,36.2,326,35.6,325.4,36L325.4,36z"/>
		</g>
		<g>
			<path class="st4" d="M318.5,42.2c-0.4,0-0.8,0.1-1,0.5c-0.3,0.4-0.2,1,0.2,1.3c0,0,0,0,0,0c-0.1-0.1-0.2-0.3-0.3-0.4
				c0.1,0.1,0.1,0.2,0.2,0.3c0.4,0.5,1.2,0.5,1.7,0C319.7,43.3,319.3,42.2,318.5,42.2L318.5,42.2z"/>
		</g>
		<g>
			<path class="st4" d="M311.1,40.8c-0.7,1,0.8,2.1,1.5,1.1C313.3,40.9,311.8,39.8,311.1,40.8L311.1,40.8z"/>
		</g>
		<g>
			<path class="st4" d="M315,38.1c-0.3,0.1-0.6,0.4-0.6,0.8c0,0.2,0,0.4,0.2,0.6c0,0,0.6,0.5,0.3,0.2c0.5,0.4,1.4,0,1.5-0.6
				C316.4,38.4,315.6,37.8,315,38.1L315,38.1z"/>
		</g>
		<g>
			<path class="st4" d="M309.6,34.7C309.6,34.7,309.6,34.8,309.6,34.7c0,0.8,0.6,1.2,1.2,1c0,0,0,0,0.1,0c0.7-0.2,0.7-1.2,0.2-1.6
				C310.5,33.7,309.6,34,309.6,34.7L309.6,34.7z"/>
		</g>
		<g>
			<path class="st4" d="M307,36.1c-0.5,0.7,0.6,1.6,1.1,0.9C308.7,36.2,307.6,35.4,307,36.1L307,36.1z"/>
		</g>
		<g>
			<path class="st4" d="M308.6,29.9c0,0,0,0.1,0,0.1c0.1,0.3,0.3,0.5,0.7,0.5c0,0,0.1,0,0.1,0C311.8,30.5,308.1,27.7,308.6,29.9
				L308.6,29.9z"/>
		</g>
		<g>
			<path class="st4" d="M313,27.8C313,27.8,313,27.8,313,27.8c-0.2,0.3-0.1,0.7,0,0.9c0.2,0.4,0.5,0.6,1,0.7c0,0,0,0,0,0
				c0.9,0.2,1.6-0.9,1.3-1.7c-0.2-0.4-0.6-0.7-1-0.7C313.7,26.9,313.3,27.3,313,27.8L313,27.8z"/>
		</g>
		<g>
			<path class="st4" d="M308.3,28.8C308.3,28.8,308.3,28.8,308.3,28.8c-0.2,0.6,0.1,1.3,0.6,1.5c0.5,0.2,1.3,0,1.4-0.6
				c0,0,0,0,0-0.1c0.2-0.6,0-1.2-0.6-1.4C309.2,28,308.6,28.3,308.3,28.8L308.3,28.8z"/>
		</g>
		<g>
			<path class="st4" d="M312.4,32c-0.1-0.1-0.1-0.1-0.2-0.2c-0.8-0.7-1.9,0.8-1,1.3c0.1,0,0.2,0.1,0.3,0.1
				C312.2,33.6,312.9,32.6,312.4,32L312.4,32z"/>
		</g>
		<g>
			<path class="st4" d="M317.3,31.1c-0.4-0.2-0.8,0-1.1,0.3c-0.2,0.3-0.1,0.7,0.1,0.9c0.1,0.1,0.3,0.3,0.1,0.1
				c-0.1-0.3-0.2-0.6-0.3-0.9c0,0,0,0,0,0c-0.1,0.2,0,0.6,0.1,0.8c0,0,0,0,0,0.1c0.3,0.4,1,0.4,1.3,0
				C318,31.9,317.8,31.3,317.3,31.1L317.3,31.1z"/>
		</g>
		<g>
			<path class="st4" d="M317.3,34.2c-0.4-0.6-1.2-0.4-1.6,0c0.1-0.1,0.2-0.2,0.4-0.3c0,0,0,0-0.1,0c-0.5,0.3-0.8,1.1-0.2,1.4
				c-0.1-0.2-0.1-0.1,0.1,0.1c0,0,0.7,0.2,0.3,0.1c0.4,0.1,0.6,0.1,0.9-0.1C317.6,35.2,317.5,34.6,317.3,34.2L317.3,34.2z"/>
		</g>
	</g>
</g>
<g>
	<g>
		<path class="st0" d="M401.2,93.3c-4.1,3.8-12.6,6.6-17.9,3.9c-6.5-3.3-2.5-8.6,3.3-8.6c-8.1-0.9-8.2-10.5-0.2-6.8
			c-8.4-6.5,3.1-14.9,10.2-7.7c4.3,4.3,6.4,10,6.3,15.9c0.5-8,4.3-17.7,12.4-20.8c9.1-3.4,9.2,2.6,6.5,9.1c6-3.9,11.9,4.3,5.2,6.2
			c3.8-1.2,7.1,1.9,7.2,5.6c0.2,6.2-5.4,7-10.2,7.6c-6.9,0.8-12.7-1.4-18.6-5"/>
		<path class="st0" d="M403.3,91.8c-6.4,3.8-14.3,13.9-11.7,21.8c2.2,6.5,7,4.1,9.2-1c-4.1,8.5,10.2,9.1,8,0.3
			c0.1,6.2,7,2.2,7.4-2.1c0.8-7.2-7.2-16.4-11.8-21.1"/>
		<path class="st1" d="M404.3,89.8c1.3,0.2,2.2,1.5,2,2.8c-0.2,1.3-1.5,2.2-2.8,2c-1.3-0.2-2.2-1.5-2-2.8
			C401.7,90.5,402.9,89.6,404.3,89.8z"/>
	</g>
	<g>
		<g>
			<path class="st4" d="M393.7,95.4c2.8,0,7.3,0.1,8.5-3.1c0.1-0.2-0.1-0.3-0.3-0.2c-2,2.5-5.3,2.7-8.2,3
				C393.5,95.2,393.6,95.4,393.7,95.4L393.7,95.4z"/>
		</g>
		<g>
			<path class="st4" d="M396.2,90.3c0.9,0.2,1.9,0.4,2.8,0.7c1,0.4,1.8,1,2.7,1.7c0.1,0.1,0.2,0,0.1-0.1c-1.3-1.6-3.6-2.2-5.6-2.5
				C396.1,90,396.1,90.2,396.2,90.3L396.2,90.3z"/>
		</g>
		<g>
			<path class="st4" d="M397.1,85.8c1.2,0.5,2.3,1.3,3.3,2.1c0.6,0.5,1.2,1.1,1.6,1.7c0.3,0.5,0.3,1.1,0.4,1.6
				c0,0.1,0.1,0.1,0.2,0.1c1.1-0.8-0.4-2.5-1-3.1c-1.2-1.2-2.8-2.1-4.4-2.8C397.1,85.4,396.9,85.8,397.1,85.8L397.1,85.8z"/>
		</g>
		<g>
			<path class="st4" d="M403.7,91.1c1.8-2.3,1.4-4.8,0.1-7.2c-0.1-0.1-0.2,0-0.2,0.1c0.9,2.2,1.2,4.9-0.1,7
				C403.3,91.1,403.6,91.3,403.7,91.1L403.7,91.1z"/>
		</g>
		<g>
			<path class="st4" d="M405.1,91.3c2.5-0.1,4.2-2.4,4.8-4.6c0-0.2-0.2-0.3-0.3-0.1c-1.3,1.8-2.2,3.9-4.6,4.3
				C404.7,90.9,404.8,91.3,405.1,91.3L405.1,91.3z"/>
		</g>
		<g>
			<path class="st4" d="M405.6,92.7c2,0,4.4,0.4,5.9,1.8c0.1,0.1,0.2,0,0.2-0.1c-1-2.2-4.1-2.2-6.1-2.1
				C405.3,92.3,405.3,92.7,405.6,92.7L405.6,92.7z"/>
		</g>
		<g>
			<path class="st4" d="M404.3,94.1c1.7,0.7,3,2.4,3.3,4.2c0,0.1,0.2,0.1,0.2,0c0.9-2.1-1.7-4.1-3.4-4.5
				C404.2,93.7,404.1,94.1,404.3,94.1L404.3,94.1z"/>
		</g>
		<g>
			<path class="st4" d="M403.4,93.9c0.3,1.4,0.2,3.2-1,4.2c-0.1,0.1,0,0.2,0.1,0.1c1.4-0.9,1.6-2.8,1.3-4.4
				C403.8,93.6,403.4,93.6,403.4,93.9L403.4,93.9z"/>
		</g>
		<g>
			<path class="st4" d="M402.5,93.5c-0.2,1.6-1.5,2.7-2.8,3.7c-0.1,0.1,0,0.3,0.1,0.3c1.7-0.5,2.9-2.1,3-3.9
				C403,93.3,402.6,93.2,402.5,93.5L402.5,93.5z"/>
		</g>
		<g>
			<path class="st4" d="M403.6,98.5c0.2-1.3-1.8-1.6-2-0.3C401.4,99.4,403.4,99.8,403.6,98.5L403.6,98.5z"/>
		</g>
		<g>
			<path class="st4" d="M400.4,97.8c0.2-1-1.4-1.3-1.6-0.3C398.6,98.5,400.2,98.8,400.4,97.8L400.4,97.8z"/>
		</g>
		<g>
			<path class="st4" d="M397,90.1c0.2-1-1.3-1.2-1.5-0.3C395.4,90.8,396.9,91.1,397,90.1L397,90.1z"/>
		</g>
		<g>
			<path class="st4" d="M399.7,95c0.1-0.3,0.1-0.6-0.1-0.9c-0.2-0.3-0.6-0.4-1-0.2c-0.3,0.2-0.4,0.5-0.4,0.8
				C398.3,95.5,399.4,95.7,399.7,95L399.7,95z"/>
		</g>
		<g>
			<path class="st4" d="M394.2,95.6c0.1-0.3,0.1-0.6-0.1-0.9c-0.2-0.3-0.6-0.4-1-0.2c-0.3,0.2-0.4,0.5-0.4,0.8
				C392.8,96.1,393.9,96.3,394.2,95.6L394.2,95.6z"/>
		</g>
		<g>
			<path class="st4" d="M397.5,87c0.4-0.2,0.6-0.4,0.7-0.9c0.1-0.5-0.3-0.9-0.7-1c0,0,0,0,0,0c0.2,0.1,0.3,0.1,0.5,0.2
				c-0.1-0.1-0.2-0.1-0.3-0.2c-0.6-0.3-1.3,0.1-1.5,0.8C396,86.6,396.8,87.3,397.5,87L397.5,87z"/>
		</g>
		<g>
			<path class="st4" d="M404.8,84.9c0.2-1.2-1.6-1.5-1.8-0.3C402.8,85.8,404.6,86.1,404.8,84.9L404.8,84.9z"/>
		</g>
		<g>
			<path class="st4" d="M402.5,89.1c0.2-0.3,0.3-0.6,0.2-1c-0.1-0.2-0.2-0.3-0.4-0.4c0,0-0.8-0.2-0.3-0.1c-0.7-0.1-1.3,0.6-1,1.2
				C401.2,89.4,402.1,89.6,402.5,89.1L402.5,89.1z"/>
		</g>
		<g>
			<path class="st4" d="M408.9,89.6C408.9,89.6,408.9,89.6,408.9,89.6c-0.3-0.7-1-0.8-1.5-0.3c0,0,0,0,0,0c-0.5,0.5-0.1,1.4,0.5,1.5
				C408.5,90.9,409.2,90.2,408.9,89.6L408.9,89.6z"/>
		</g>
		<g>
			<path class="st4" d="M410.5,87.2c0.2-0.9-1.2-1.1-1.4-0.2C409,87.9,410.4,88.1,410.5,87.2L410.5,87.2z"/>
		</g>
		<g>
			<path class="st4" d="M411.9,93.4c0,0-0.1-0.1-0.1-0.1c-0.2-0.3-0.5-0.3-0.8-0.1c0,0-0.1,0-0.1,0.1
				C408.8,94.4,413.4,95.1,411.9,93.4L411.9,93.4z"/>
		</g>
		<g>
			<path class="st4" d="M409,97.4C409,97.3,409,97.3,409,97.4c0-0.3-0.2-0.6-0.4-0.8c-0.4-0.3-0.8-0.3-1.2-0.2c0,0,0,0,0,0
				c-0.9,0.2-1,1.5-0.4,2.1c0.3,0.3,0.8,0.4,1.2,0.2C408.7,98.4,409,97.9,409,97.4L409,97.4z"/>
		</g>
		<g>
			<path class="st4" d="M412.7,94.3C412.7,94.3,412.7,94.3,412.7,94.3c-0.1-0.6-0.6-1.1-1.2-1c-0.5,0.1-1.1,0.6-1,1.2c0,0,0,0,0,0.1
				c0.1,0.6,0.6,1,1.2,1C412.3,95.4,412.7,94.9,412.7,94.3L412.7,94.3z"/>
		</g>
		<g>
			<path class="st4" d="M407.6,93.2c0.1,0,0.2,0.1,0.3,0.1c1,0.3,1.3-1.5,0.3-1.6c-0.1,0-0.2,0-0.3,0
				C407.1,91.8,406.9,92.9,407.6,93.2L407.6,93.2z"/>
		</g>
		<g>
			<path class="st4" d="M403.6,96.3c0.4,0,0.8-0.3,0.9-0.8c0.1-0.4-0.2-0.7-0.5-0.7c-0.1,0-0.4-0.1-0.2,0c0.2,0.2,0.4,0.4,0.6,0.7
				c0,0,0,0,0,0c0-0.3-0.2-0.5-0.5-0.6c0,0,0,0-0.1,0c-0.5-0.2-1.1,0.1-1.2,0.6C402.6,95.9,403.1,96.4,403.6,96.3L403.6,96.3z"/>
		</g>
		<g>
			<path class="st4" d="M402.2,93.5c0.6,0.4,1.3-0.2,1.4-0.8c-0.1,0.1-0.1,0.3-0.2,0.4c0,0,0,0,0-0.1c0.3-0.5,0.2-1.3-0.5-1.3
				c0.2,0.1,0.2,0.1-0.1,0c0,0-0.7,0.1-0.4,0c-0.4,0.1-0.6,0.2-0.8,0.6C401.5,92.8,401.8,93.3,402.2,93.5L402.2,93.5z"/>
		</g>
	</g>
</g>
</svg>
