<?xml version="1.0" encoding="utf-8"?>
<!-- Generator: Adobe Illustrator 22.0.1, SVG Export Plug-In . SVG Version: 6.00 Build 0)  -->
<svg version="1.1" id="分離模式" xmlns="http://www.w3.org/2000/svg" xmlns:xlink="http://www.w3.org/1999/xlink" x="0px"
	 y="0px" viewBox="0 0 326 275" style="enable-background:new 0 0 326 275;" xml:space="preserve">
<style type="text/css">
	.st0{fill:#FFFFFF;}
	.st1{fill:#82979E;}
	.st2{fill:#2F3D59;}
	.st3{fill:#CE6354;}
	.st4{fill:#DF876F;}
	.st5{fill:#C3493E;}
	.st6{fill:#FEFEFC;}
	.st7{fill:#D3715B;}
	.st8{fill:#EDCA72;}
	.st9{fill:#EFAE52;}
	.st10{fill:#EEBE71;}
</style>
<path class="st0" d="M226.6,108.2c1.4,10.7,0.4,22.1-1.5,33c0.4,0.3,1,0.7,1.7,1.2c1.4,1.1,3.3,2.7,5.2,4.7c1.9,2.1,4,4.6,5.9,7.4
	c1.9,2.8,3.7,6,5.2,9.2c1.5,3.3,2.8,6.6,3.7,9.9c0.5,1.6,0.8,3.3,1.1,4.8c0.3,1.6,0.5,3.1,0.7,4.5c0.2,1.4,0.2,2.7,0.3,3.9
	c0,1.2,0,2.2,0,3.1c-0.1,1.8-0.3,2.9-0.3,2.9s-1-0.5-2.4-1.6c-0.7-0.5-1.5-1.2-2.4-2c-0.9-0.8-1.8-1.7-2.8-2.7c-1-1-2-2.2-3-3.4
	c-1-1.2-2-2.6-2.9-4c-1.9-2.8-3.6-6-5.2-9.2c-1.5-3.3-2.8-6.6-3.7-9.9c-0.9-3.3-1.5-6.5-1.8-9.3c-0.1-1.4-0.2-2.7-0.3-3.9
	c-0.2,0.8-0.3,1.6-0.5,2.5c-1.6,7.9-3.7,15.7-6.1,23.3c0.3,0.2,0.6,0.5,1,0.8c1.4,1.1,3.3,2.7,5.2,4.8c2,2.1,4,4.6,5.9,7.4
	c1.9,2.8,3.7,6,5.2,9.2c1.5,3.3,2.8,6.6,3.7,9.9c0.5,1.6,0.8,3.3,1.1,4.8c0.3,1.6,0.5,3.1,0.7,4.5c0.2,1.4,0.2,2.7,0.3,3.9
	c0,1.2,0,2.2,0,3.1c-0.1,1.8-0.3,2.9-0.3,2.9s-1-0.5-2.4-1.6c-0.7-0.5-1.5-1.2-2.4-2c-0.9-0.8-1.8-1.7-2.8-2.7c-1-1-2-2.2-3-3.4
	c-1-1.2-2-2.6-2.9-4c-1.9-2.8-3.6-6-5.1-9.2c-1.5-3.3-2.8-6.6-3.7-9.9c-0.9-3.3-1.5-6.5-1.8-9.3c-0.2-1.5-0.2-2.9-0.3-4.1
	c-2.5,7.4-5.5,14.7-8.7,21.8c0.2,0.3,0.5,0.7,0.8,1.1c1,1.5,2.3,3.6,3.5,6.1c1.2,2.6,2.4,5.6,3.4,8.8c1,3.3,1.7,6.8,2.1,10.4
	c0.4,3.6,0.6,7.2,0.5,10.6c-0.1,1.7-0.2,3.4-0.4,4.9c-0.2,1.6-0.4,3.1-0.7,4.5c-0.3,1.4-0.6,2.7-0.9,3.8c-0.3,1.1-0.7,2.2-1,3
	c-0.6,1.7-1.1,2.6-1.1,2.6s-0.7-0.8-1.8-2.3c-0.5-0.7-1.1-1.6-1.7-2.6c-0.6-1-1.2-2.2-1.9-3.5c-0.6-1.3-1.2-2.7-1.8-4.2
	c-0.6-1.5-1.1-3.1-1.6-4.7c-1-3.3-1.7-6.8-2.1-10.3c-0.4-3.6-0.6-7.1-0.5-10.6c0.1-3.3,0.5-6.5,1.1-9.2c-2.9,5.9-6.1,11.7-9.5,17.3
	c-0.3,1.6-0.7,3.7-1.4,5.9c-0.8,2.7-2,5.7-3.5,8.8c-1.5,3.1-3.4,6.1-5.5,9.1c-2.1,2.9-4.4,5.7-6.8,8.1c-1.2,1.2-2.4,2.3-3.6,3.4
	c-1.2,1-2.4,2-3.6,2.8c-1.2,0.8-2.3,1.6-3.3,2.2c-1,0.6-1.9,1.1-2.7,1.5c-1.6,0.8-2.6,1.2-2.6,1.2s0-1.1,0.2-2.9
	c0.1-0.9,0.3-1.9,0.5-3.1c0.2-1.2,0.6-2.4,1-3.8c0.4-1.4,0.9-2.8,1.5-4.3c0.6-1.5,1.3-3,2-4.5c1.5-3.1,3.4-6.1,5.5-9.1
	c2.1-2.9,4.4-5.7,6.8-8.1c2.4-2.4,4.9-4.5,7.2-6.2c2.3-1.7,4.4-2.9,6-3.7c0.5-0.3,1-0.5,1.4-0.7c5.3-9.1,10.1-18.6,14.3-28.3
	c-1.2,1.2-2.8,2.6-4.7,4c-2.3,1.7-5,3.4-8,5c-3,1.6-6.4,2.9-9.8,4c-3.4,1.1-6.9,2-10.3,2.5c-1.7,0.3-3.3,0.5-4.9,0.6
	c-1.6,0.1-3.1,0.1-4.5,0.1c-1.4,0-2.7-0.1-3.9-0.2c-1.2-0.1-2.2-0.3-3.1-0.4c-1.7-0.3-2.8-0.6-2.8-0.6s0.6-0.9,1.9-2.2
	c0.6-0.6,1.4-1.4,2.3-2.2c0.9-0.8,1.9-1.6,3.1-2.5c1.1-0.8,2.4-1.7,3.7-2.6c1.3-0.8,2.8-1.7,4.3-2.4c3-1.6,6.4-2.9,9.8-4
	c3.4-1.1,6.9-1.9,10.3-2.5c3.4-0.5,6.6-0.7,9.4-0.7c2.8,0,5.3,0.3,7,0.6c0.6,0.1,1.2,0.2,1.6,0.3c4.1-9.8,7.5-19.8,10.1-30
	c-0.2,0.2-0.5,0.5-0.8,0.8c-1.2,1.3-3.1,2.9-5.3,4.6c-2.3,1.7-5,3.4-8,5c-3,1.6-6.4,2.9-9.8,4c-3.4,1.1-6.9,2-10.3,2.5
	c-1.7,0.3-3.3,0.5-4.9,0.6c-1.6,0.1-3.1,0.1-4.5,0.1c-1.4,0-2.7-0.1-3.9-0.2c-1.2-0.1-2.2-0.3-3.1-0.4c-1.7-0.3-2.8-0.6-2.8-0.6
	s0.7-0.9,1.9-2.2c0.6-0.6,1.4-1.4,2.3-2.2c0.9-0.8,1.9-1.6,3.1-2.5c1.1-0.8,2.4-1.7,3.7-2.5c1.3-0.8,2.8-1.7,4.3-2.4
	c3-1.6,6.4-2.9,9.8-4c3.4-1.1,6.9-2,10.3-2.5c3.4-0.5,6.6-0.7,9.4-0.7c2.8,0,5.3,0.3,7,0.6c0.9,0.1,1.6,0.3,2,0.4
	c1-3.9,1.9-7.9,2.6-11.9c0.9-4.9,1.8-9.9,2.3-15c-0.3,0.3-0.6,0.7-1,1.1c-1.2,1.3-3.1,2.9-5.3,4.6c-2.3,1.7-5,3.4-8,5
	c-3,1.6-6.4,2.9-9.8,4c-3.4,1.1-6.9,2-10.3,2.5c-1.7,0.3-3.3,0.5-4.9,0.6c-1.6,0.1-3.1,0.1-4.5,0.1c-1.4,0-2.7-0.1-3.9-0.2
	c-1.2-0.1-2.2-0.3-3.1-0.4c-1.7-0.3-2.8-0.6-2.8-0.6s0.7-0.9,1.9-2.2c0.6-0.6,1.4-1.4,2.3-2.2c0.9-0.8,1.9-1.6,3.1-2.5
	c1.1-0.8,2.4-1.7,3.7-2.5c1.3-0.8,2.8-1.7,4.3-2.4c3-1.6,6.4-2.9,9.8-4c3.4-1.1,6.9-2,10.3-2.5c3.4-0.5,6.6-0.7,9.4-0.7
	c2.8,0,5.3,0.3,7,0.6c0.9,0.1,1.6,0.3,2.1,0.4c0.8-7.5,1-15,0.1-22.2C223.9,106.9,226.4,106.7,226.6,108.2z"/>
<g>
	<g>
		<path class="st1" d="M232.9,98.1c0,0-0.2,0.6-0.6,1.7c-0.4,1-1.1,2.5-2,4.2c-1.8,3.5-4.5,7.9-8,12.3c-3.6,4.4-8.1,8.9-13.2,12.7
			c-5.2,3.8-11,7-17.1,9.5c-6.1,2.4-12.6,4-19,4.7c-6.4,0.7-12.7,0.5-18.3-0.4c-5.6-0.8-10.6-2.3-14.3-3.6c-1.8-0.7-3.3-1.3-4.3-1.8
			c-1-0.5-1.6-0.8-1.6-0.8c0,0,0.2-0.6,0.6-1.7c0.4-1,1.1-2.5,1.9-4.2c1.8-3.5,4.5-7.9,8-12.4c3.6-4.4,8.1-8.9,13.2-12.7
			c5.2-3.8,11-7,17.2-9.4c6.2-2.4,12.6-4,19-4.6c6.4-0.7,12.7-0.5,18.3,0.4c5.6,0.8,10.6,2.3,14.3,3.6c1.8,0.7,3.3,1.3,4.3,1.8
			C232.3,97.8,232.9,98.1,232.9,98.1z"/>
		<path class="st2" d="M186.9,101.3c5.6,4.8,14.1,5.7,21.7,5.4c-2.9,1.1-5.9,2.3-8.8,3.4c-9.1,1.6-20.9,2-29-3.4
			c-0.9-0.6-1.9,0.7-1,1.3c6.7,4.5,15.6,5.3,23.7,4.6c-5,2-10.1,3.9-15.1,5.9c-6.7,1.3-18.1,3.5-24-1.4c-0.8-0.7-1.8,0.6-1,1.3
			c4.4,3.6,11.4,3.7,17.7,3c-10.3,4-20.6,8-30.9,12.1c-1,0.4-0.4,1.9,0.6,1.5c10.3-4,20.6-8,30.9-12.1c-5.1,3.7-10.2,8.6-11,14.2
			c-0.1,1,1.5,1.3,1.6,0.3c1-7.6,10.9-13.7,16.7-17.3c5-2,10.1-3.9,15.1-5.9c-6.4,5-12.5,11.6-14.3,19.4c-0.2,1,1.4,1.3,1.6,0.3
			c2.3-9.5,11.2-17.1,19-22.1c2.9-1.1,5.9-2.3,8.8-3.4c-5.8,4.9-11.5,11.3-12.3,18.6c-0.1,1,1.5,1.3,1.6,0.3c1-8.7,9.4-16.2,16-21
			c4.5-1.7,8.9-3.5,13.4-5.2c1-0.4,0.4-1.9-0.6-1.5c-4.5,1.7-8.9,3.5-13.4,5.2c-8,0.9-19.3,1.2-26-4.6
			C187.1,99.4,186.1,100.6,186.9,101.3z"/>
	</g>
	<g>
		<path class="st3" d="M211.4,101.9c-9.4,6.9-15.5,17.9-15.5,30.4c0,20.8,16.9,37.7,37.7,37.7c11.3,0,21.4-5,28.3-12.9
			c5.9,5.9,14,9.5,23,9.5c18,0,32.7-14.6,32.7-32.7c0-9.9-4.4-18.7-11.3-24.7c7.6-6.9,12.3-16.8,12.3-27.9
			c0-20.8-16.9-37.7-37.7-37.7c-10.1,0-19.3,4-26,10.5c-6-7.3-15.1-12-25.3-12c-18,0-32.7,14.6-32.7,32.7
			C197,86.1,202.7,96.1,211.4,101.9z"/>
		<path class="st4" d="M229.8,83.1c-9,0.2-17.9,4.6-23.4,12.6c-9.2,13.3-5.9,31.6,7.4,40.8c7.2,5,15.9,6.3,23.8,4.3
			c1.2,6.4,4.8,12.3,10.5,16.3c11.5,8,27.4,5.1,35.4-6.4c4.4-6.3,5.5-13.9,3.7-20.8c7.9-1,15.4-5.3,20.3-12.4
			c9.2-13.3,5.9-31.6-7.4-40.8c-6.5-4.5-14.1-6-21.3-4.9c-0.6-7.3-4.3-14.4-10.8-18.9c-11.5-8-27.4-5.1-35.4,6.4
			C227.6,66.6,226.8,75.5,229.8,83.1z"/>
		<g>
			<g>
				<path class="st5" d="M261.1,132.8c-0.6-7.4-1.3-14.9-1.9-22.3c-0.1-0.9-1.5-0.9-1.4,0c0.6,7.4,1.3,14.9,1.9,22.3
					C259.7,133.7,261.2,133.7,261.1,132.8L261.1,132.8z"/>
			</g>
			<g>
				<path class="st5" d="M250.8,136.3c2-8.5,4-17,6-25.6c0.2-0.9-1.2-1.3-1.4-0.4c-2,8.5-4,17-6,25.6
					C249.2,136.8,250.6,137.2,250.8,136.3L250.8,136.3z"/>
			</g>
			<g>
				<path class="st5" d="M242.5,128c3.8-5.9,7.5-11.9,11.3-17.8c0.5-0.8-0.8-1.5-1.2-0.7c-3.8,5.9-7.5,11.9-11.3,17.8
					C240.7,128.1,242,128.8,242.5,128L242.5,128z"/>
			</g>
			<g>
				<path class="st5" d="M228.4,123.9c7.9-5.5,15.7-11,23.6-16.5c0.8-0.5,0-1.8-0.7-1.3c-7.9,5.5-15.7,11-23.6,16.5
					C226.9,123.2,227.6,124.5,228.4,123.9L228.4,123.9z"/>
			</g>
			<g>
				<path class="st5" d="M227.4,109.5c8.1-1.5,16.3-3,24.4-4.5c0.9-0.2,0.5-1.6-0.4-1.4c-8.1,1.5-16.3,3-24.4,4.5
					C226.1,108.2,226.4,109.6,227.4,109.5L227.4,109.5z"/>
			</g>
			<g>
				<path class="st5" d="M224.9,94.8c9.3,2.3,18.7,4.5,28,6.8c0.9,0.2,1.3-1.2,0.4-1.4c-9.3-2.3-18.7-4.5-28-6.8
					C224.4,93.2,224,94.6,224.9,94.8L224.9,94.8z"/>
			</g>
			<g>
				<path class="st5" d="M235.1,85.4c6.5,4.2,13,8.5,19.4,12.7c0.8,0.5,1.5-0.7,0.7-1.3c-6.5-4.2-13-8.5-19.4-12.7
					C235,83.6,234.3,84.9,235.1,85.4L235.1,85.4z"/>
			</g>
			<g>
				<path class="st5" d="M242.6,73.9c4,7.2,8,14.5,12.1,21.7c0.5,0.8,1.7,0.1,1.2-0.7c-4-7.2-8-14.5-12.1-21.7
					C243.4,72.4,242.1,73.1,242.6,73.9L242.6,73.9z"/>
			</g>
			<g>
				<path class="st5" d="M255.4,72.5c0.4,7.2,0.8,14.4,1.1,21.6c0,0.9,1.5,0.9,1.4,0c-0.4-7.2-0.8-14.4-1.1-21.6
					C256.8,71.6,255.4,71.6,255.4,72.5L255.4,72.5z"/>
			</g>
			<g>
				<path class="st5" d="M268.5,67.7c-2.9,9.4-5.9,18.8-8.8,28.3c-0.3,0.9,1.1,1.3,1.4,0.4c2.9-9.4,5.9-18.8,8.8-28.3
					C270.1,67.2,268.7,66.8,268.5,67.7L268.5,67.7z"/>
			</g>
			<g>
				<path class="st5" d="M277.6,77.9c-5.7,6.4-11.4,12.7-17.1,19.1c-0.6,0.7,0.4,1.7,1,1c5.7-6.4,11.4-12.7,17.1-19.1
					C279.3,78.2,278.3,77.2,277.6,77.9L277.6,77.9z"/>
			</g>
			<g>
				<path class="st5" d="M290.4,84.1c-8.7,4.7-17.3,9.5-26,14.2c-0.8,0.4-0.1,1.7,0.7,1.3c8.7-4.7,17.3-9.5,26-14.2
					C291.9,84.9,291.2,83.7,290.4,84.1L290.4,84.1z"/>
			</g>
			<g>
				<path class="st5" d="M287.8,100.3c-7.2,0.6-14.5,1.3-21.7,1.9c-0.9,0.1-0.9,1.5,0,1.4c7.2-0.6,14.5-1.3,21.7-1.9
					C288.7,101.7,288.7,100.3,287.8,100.3L287.8,100.3z"/>
			</g>
			<g>
				<path class="st5" d="M295.7,118.1c-9.8-4.2-19.5-8.4-29.3-12.6c-0.8-0.4-1.6,0.9-0.7,1.3c9.8,4.2,19.6,8.4,29.3,12.6
					C295.9,119.7,296.6,118.5,295.7,118.1L295.7,118.1z"/>
			</g>
			<g>
				<path class="st5" d="M278.7,122.8c-4.7-4.5-9.4-9-14.1-13.5c-0.7-0.6-1.7,0.4-1,1c4.7,4.5,9.4,9,14.1,13.5
					C278.3,124.5,279.3,123.4,278.7,122.8L278.7,122.8z"/>
			</g>
			<g>
				<path class="st5" d="M274.9,135.7c-4.4-8.2-8.8-16.5-13.2-24.7c-0.4-0.8-1.7-0.1-1.2,0.7c4.4,8.2,8.8,16.5,13.2,24.7
					C274.1,137.3,275.3,136.5,274.9,135.7L274.9,135.7z"/>
			</g>
		</g>
		<g>
			<circle class="st6" cx="258.1" cy="103" r="16.2"/>
			<g>
				<path class="st5" d="M266.2,110.5c0-1.1,0.9-1.9,1.9-1.9c1.1,0,1.9,0.9,1.9,1.9c0,1.1-0.9,1.9-1.9,1.9
					C267,112.4,266.2,111.6,266.2,110.5z"/>
				<path class="st5" d="M258.1,114.4c0-1.7,1.3-3,3-3c1.7,0,3,1.3,3,3c0,1.7-1.3,3-3,3C259.4,117.4,258.1,116,258.1,114.4z"/>
				<path class="st5" d="M258.4,103.9c0-2.1,1.7-3.9,3.9-3.9c2.1,0,3.9,1.7,3.9,3.9c0,2.1-1.7,3.9-3.9,3.9
					C260.2,107.7,258.4,106,258.4,103.9z"/>
				<path class="st5" d="M268.1,103c0-1.1,0.9-1.9,1.9-1.9s1.9,0.9,1.9,1.9c0,1.1-0.9,1.9-1.9,1.9S268.1,104.1,268.1,103z"/>
				<path class="st5" d="M251.2,114.4c0-1.1,0.9-1.9,1.9-1.9c1.1,0,1.9,0.9,1.9,1.9c0,1.1-0.9,1.9-1.9,1.9
					C252.1,116.3,251.2,115.4,251.2,114.4z"/>
				<path class="st5" d="M250.2,106.8c0-1.7,1.3-3,3-3c1.7,0,3,1.3,3,3c0,1.7-1.3,3-3,3C251.5,109.8,250.2,108.5,250.2,106.8z"/>
				<path class="st5" d="M254.2,98.9c0-1.1,0.9-1.9,1.9-1.9c1.1,0,1.9,0.9,1.9,1.9c0,1.1-0.9,1.9-1.9,1.9
					C255.1,100.9,254.2,100,254.2,98.9z"/>
				<path class="st5" d="M243.9,99.1c0-2.1,1.7-3.9,3.9-3.9c2.1,0,3.9,1.7,3.9,3.9c0,2.1-1.7,3.9-3.9,3.9
					C245.6,103,243.9,101.3,243.9,99.1z"/>
				<path class="st5" d="M244.9,106.8c0-1.1,0.9-1.9,1.9-1.9c1.1,0,1.9,0.9,1.9,1.9c0,1.1-0.9,1.9-1.9,1.9
					C245.8,108.8,244.9,107.9,244.9,106.8z"/>
				<path class="st5" d="M263.2,96.1c0-1.7,1.3-3,3-3c1.7,0,3,1.3,3,3c0,1.7-1.3,3-3,3C264.5,99.1,263.2,97.8,263.2,96.1z"/>
				<path class="st5" d="M258.4,92.2c0-1.1,0.9-1.9,1.9-1.9s1.9,0.9,1.9,1.9c0,1.1-0.9,1.9-1.9,1.9S258.4,93.2,258.4,92.2z"/>
				<path class="st5" d="M250.2,93.1c0-1.7,1.3-3,3-3c1.7,0,3,1.3,3,3c0,1.7-1.3,3-3,3C251.5,96.1,250.2,94.8,250.2,93.1z"/>
			</g>
		</g>
	</g>
</g>
<g>
	<g>
		<g>
			<path class="st2" d="M99,115.1c1.9-40.9,23.4-83.8,58.5-105.5c1.6-1,0.1-3.5-1.5-2.5c-36,22.2-58,66.1-59.9,108
				C96,116.9,98.9,116.9,99,115.1L99,115.1z"/>
		</g>
		<g>
			<g>
				<path class="st5" d="M100.3,195.9c0.7,2.4,1.6,5,2.8,7.3c-1.6,1.2-2.6,3.1-2.6,5.3c0,3.7,3,6.7,6.7,6.7c3.7,0,6.7-3,6.7-6.7
					c0-3.7-3-6.7-6.7-6.7c-0.6,0-1.1,0.1-1.6,0.2c-1-2.2-2-4.8-2.7-6.8c-4-12.2-4.8-25.4-4.8-38.1c0-1.7-2.7-1.7-2.7,0
					C95.4,170.1,96.3,183.4,100.3,195.9z"/>
				<path class="st5" d="M45.7,177.3c-1.9,1.6-4,3.3-6.3,4.7c0.7,1.9,0.5,4-0.7,5.8c-2,3.1-6.1,4-9.3,2.1c-3.1-2-4-6.1-2.1-9.3
					c2-3.1,6.1-4,9.3-2.1c0.5,0.3,0.9,0.7,1.3,1.1c2.1-1.3,4.3-3,5.9-4.3c9.9-8.1,17.7-18.9,24.6-29.6c0.9-1.5,3.2,0,2.3,1.5
					C63.6,158.1,55.7,168.8,45.7,177.3z"/>
			</g>
			<g>
				<g>
					<g>
						<path class="st7" d="M110.4,126.4c0,0,21.5,19,28.8,39.5c7.3,20.4,8.4,39.7-6.4,40.9c-14.8,1.2-43.6-30.8-42.3-78.7
							L110.4,126.4z"/>
						<path class="st7" d="M76.9,114.8c0,0-28.5,3.6-46.1,16.3c-17.6,12.7-29.4,28-17.8,37.4c11.6,9.3,53.4-0.8,79.4-41L76.9,114.8z
							"/>
						<path class="st4" d="M100.5,121.9c0,0-1.7,95.2-33.9,84.9s9.8-78.1,20-89.4L100.5,121.9z"/>
					</g>
					<g>
						<g>
							<path class="st5" d="M91.2,158c2.2-10.5,4.5-20.9,6.7-31.4c0.2-0.9-1.2-1.3-1.4-0.4c-2.2,10.5-4.5,20.9-6.7,31.4
								C89.6,158.5,91,158.9,91.2,158L91.2,158z"/>
						</g>
						<g>
							<path class="st5" d="M84.4,156.4c2.9-10.5,5.8-21,8.7-31.4c0.2-0.9-1.1-1.3-1.4-0.4c-2.9,10.5-5.8,21-8.7,31.4
								C82.7,156.9,84.1,157.3,84.4,156.4L84.4,156.4z"/>
						</g>
						<g>
							<path class="st5" d="M73.5,154.7c4.7-10.4,9.4-20.8,14.1-31.3c0.4-0.8-0.9-1.6-1.2-0.7c-4.7,10.4-9.4,20.8-14.1,31.3
								C71.9,154.8,73.1,155.5,73.5,154.7L73.5,154.7z"/>
						</g>
						<g>
							<g>
								<path class="st5" d="M121.9,148.1c-5.7-8.5-11.4-17-17.1-25.5c-0.5-0.8-1.8,0-1.2,0.7c5.7,8.5,11.4,17,17.1,25.5
									C121.2,149.6,122.4,148.9,121.9,148.1L121.9,148.1z"/>
							</g>
							<g>
								<path class="st5" d="M113.4,154.1c-3.6-10.1-7.2-20.2-10.8-30.3c-0.3-0.9-1.7-0.5-1.4,0.4c3.6,10.1,7.2,20.2,10.8,30.3
									C112.4,155.4,113.8,155,113.4,154.1L113.4,154.1z"/>
							</g>
							<g>
								<path class="st5" d="M106.6,158.9c-2.1-10.9-4.2-21.8-6.4-32.7c-0.2-0.9-1.6-0.5-1.4,0.4c2.1,10.9,4.2,21.8,6.4,32.7
									C105.3,160.2,106.7,159.8,106.6,158.9L106.6,158.9z"/>
							</g>
							<g>
								<path class="st5" d="M60.5,147.5c7.9-8.7,15.8-17.3,23.7-26c0.6-0.7-0.4-1.7-1-1c-7.9,8.7-15.8,17.3-23.7,26
									C58.8,147.1,59.8,148.2,60.5,147.5L60.5,147.5z"/>
							</g>
							<g>
								<path class="st5" d="M55.2,139.7c8.7-6.8,17.4-13.7,26.1-20.5c0.7-0.6-0.3-1.6-1-1c-8.7,6.8-17.4,13.7-26.1,20.5
									C53.4,139.2,54.5,140.2,55.2,139.7L55.2,139.7z"/>
							</g>
							<g>
								<path class="st5" d="M47.2,131.8c11-5.4,22.1-10.9,33.1-16.3c0.8-0.4,0.1-1.7-0.7-1.3c-11,5.4-22.1,10.9-33.1,16.3
									C45.6,130.9,46.4,132.2,47.2,131.8L47.2,131.8z"/>
							</g>
						</g>
					</g>
				</g>
				<path class="st2" d="M110.4,126.4c0,0-22.6,10.3-36.1-10.5c0,0,8-14.1,22.5-9.9C111.2,110.2,110.4,126.4,110.4,126.4z"/>
			</g>
		</g>
	</g>
	<g>
		<path class="st2" d="M107.4,69.4c0,0,1.5,28.8,10.1,43.9c8.6,15.2,17.5,17.7,18.7,4.1c1.2-13.6-12.1-49.6-23.4-58.8L107.4,69.4z"
			/>
		<g>
			<path class="st1" d="M131.1,122c-8.2-17.4-14.9-36.2-17.7-55.3c-0.1-0.9-1.5-0.5-1.4,0.4c2.9,19.2,9.6,38.1,17.8,55.6
				C130.3,123.6,131.5,122.8,131.1,122L131.1,122z"/>
		</g>
	</g>
	<g>
		<path class="st2" d="M117.5,49.6c0,0-22.6,17.9-39.7,21.3C60.7,74.5,53,69.4,62.4,59.6c9.5-9.8,47.6-23.6,62-21.1L117.5,49.6z"/>
		<g>
			<path class="st1" d="M62.3,66.4c18.5-5.3,37.1-12.7,53.2-23.1c0.8-0.5,1.4,0.8,0.6,1.3c-16.3,10.5-35,17.9-53.6,23.2
				C61.6,68.1,61.4,66.7,62.3,66.4L62.3,66.4z"/>
		</g>
	</g>
</g>
<g>
	<g>
		<g>
			<g>
				<g>
					<path class="st8" d="M149.3,40.8c11.9,5.6,20,13.7,18,18c-2,4.3-13.3,3.2-25.3-2.5c-11.9-5.6-20-13.7-18-18
						C126,34.1,137.3,35.2,149.3,40.8z"/>
					<path class="st8" d="M200.9,65.3c11.9,5.6,20,13.7,18,18c-2,4.3-13.3,3.2-25.3-2.5c-11.9-5.6-20-13.7-18-18
						C177.7,58.5,189,59.6,200.9,65.3z"/>
				</g>
			</g>
			<g>
				<path class="st8" d="M151.5,83c5.6-11.9,13.7-20,18-18c4.3,2,3.2,13.3-2.5,25.3c-5.6,11.9-13.7,20-18,18
					C144.7,106.2,145.8,94.9,151.5,83z"/>
				<path class="st8" d="M175.9,31.3c5.6-11.9,13.7-20,18-18c4.3,2,3.2,13.3-2.5,25.3c-5.6,11.9-13.7,20-18,18
					C169.1,54.6,170.3,43.2,175.9,31.3z"/>
			</g>
		</g>
		<g>
			<g>
				<g>
					<path class="st8" d="M169.9,31c4.5,12.4,4.5,23.8,0,25.4c-4.5,1.6-11.7-7.2-16.1-19.6c-4.5-12.4-4.5-23.8,0-25.4
						C158.2,9.8,165.4,18.6,169.9,31z"/>
					<path class="st8" d="M189.1,84.8c4.5,12.4,4.5,23.8,0,25.4c-4.5,1.6-11.7-7.2-16.1-19.6c-4.5-12.4-4.5-23.8,0-25.4
						C177.5,63.6,184.7,72.4,189.1,84.8z"/>
				</g>
			</g>
			<g>
				<path class="st8" d="M141.6,62.4c12.4-4.5,23.8-4.5,25.4,0c1.6,4.5-7.2,11.7-19.6,16.1C135,83,123.6,83,122,78.5
					C120.4,74,129.2,66.8,141.6,62.4z"/>
				<path class="st8" d="M195.5,43.1c12.4-4.5,23.8-4.5,25.4,0c1.6,4.5-7.2,11.7-19.6,16.1c-12.4,4.5-23.8,4.5-25.4,0
					C174.2,54.8,183,47.5,195.5,43.1z"/>
			</g>
		</g>
	</g>
	<g>
		<g>
			<g>
				<path class="st9" d="M142.9,52.2c13.2,0,23.9,3.8,23.9,8.6c0,4.7-10.7,8.6-23.9,8.6c-13.2,0-23.9-3.8-23.9-8.6
					C118.9,56.1,129.7,52.2,142.9,52.2z"/>
				<path class="st9" d="M200,52.2c13.2,0,23.9,3.8,23.9,8.6c0,4.7-10.7,8.6-23.9,8.6c-13.2,0-23.9-3.8-23.9-8.6
					C176.1,56.1,186.8,52.2,200,52.2z"/>
			</g>
			<g>
				<path class="st9" d="M162.9,89.4c0-13.2,3.8-23.9,8.6-23.9c4.7,0,8.6,10.7,8.6,23.9c0,13.2-3.8,23.9-8.6,23.9
					C166.7,113.3,162.9,102.6,162.9,89.4z"/>
				<path class="st9" d="M162.9,32.2c0-13.2,3.8-23.9,8.6-23.9c4.7,0,8.6,10.7,8.6,23.9c0,13.2-3.8,23.9-8.6,23.9
					C166.7,56.1,162.9,45.4,162.9,32.2z"/>
			</g>
		</g>
		<g>
			<g>
				<path class="st10" d="M157.3,34.5c9.3,9.3,14.2,19.6,10.9,23c-3.3,3.3-13.6-1.5-23-10.9c-9.3-9.3-14.2-19.6-10.9-23
					C137.7,20.3,148,25.2,157.3,34.5z"/>
				<path class="st10" d="M197.7,74.9c9.3,9.3,14.2,19.6,10.9,23c-3.3,3.3-13.6-1.5-23-10.9c-9.3-9.3-14.2-19.6-10.9-23
					C178.1,60.7,188.4,65.6,197.7,74.9z"/>
			</g>
			<g>
				<path class="st10" d="M145.2,74.9c9.3-9.3,19.6-14.2,23-10.9c3.3,3.3-1.5,13.6-10.9,23c-9.3,9.3-19.6,14.2-23,10.9
					C131,94.6,135.8,84.3,145.2,74.9z"/>
				<path class="st10" d="M185.6,34.5c9.3-9.3,19.6-14.2,23-10.9c3.3,3.3-1.5,13.6-10.9,23c-9.3,9.3-19.6,14.2-23,10.9
					S176.2,43.9,185.6,34.5z"/>
			</g>
		</g>
	</g>
	<path class="st6" d="M161.1,60.8c0-5.7,4.6-10.4,10.4-10.4c5.7,0,10.4,4.6,10.4,10.4c0,5.7-4.6,10.4-10.4,10.4
		C165.7,71.2,161.1,66.5,161.1,60.8z"/>
</g>
</svg>
